  0
SECTION
  2
HEADER
  9
$ACADVER
  1
AC1015
  9
$ACADMAINTVER
 70
     6
  9
$DWGCODEPAGE
  3
ANSI_1252
  9
$INSBASE
 10
0.0
 20
0.0
 30
0.0
  9
$EXTMIN
 10
-9.897
 20
-15.947
 30
0.0
  9
$EXTMAX
 10
9.897
 20
15.947
 30
0.0
  9
$LIMMIN
 10
0.0
 20
0.0
  9
$LIMMAX
 10
12.0
 20
9.0
  9
$ORTHOMODE
 70
     0
  9
$REGENMODE
 70
     1
  9
$FILLMODE
 70
     1
  9
$QTEXTMODE
 70
     0
  9
$MIRRTEXT
 70
     1
  9
$LTSCALE
 40
1.0
  9
$ATTMODE
 70
     1
  9
$TEXTSIZE
 40
0.125
  9
$TRACEWID
 40
0.05
  9
$TEXTSTYLE
  7
Standard
  9
$CLAYER
  8
0
  9
$CELTYPE
  6
ByLayer
  9
$CECOLOR
 62
   256
  9
$CELTSCALE
 40
1.0
  9
$DISPSILH
 70
     0
  9
$DIMSCALE
 40
1.0
  9
$DIMASZ
 40
0.13
  9
$DIMEXO
 40
0.05
  9
$DIMDLI
 40
0.38
  9
$DIMRND
 40
0.0
  9
$DIMDLE
 40
0.0
  9
$DIMEXE
 40
0.125
  9
$DIMTP
 40
0.0
  9
$DIMTM
 40
0.0
  9
$DIMTXT
 40
0.125
  9
$DIMCEN
 40
0.09
  9
$DIMTSZ
 40
0.0
  9
$DIMTOL
 70
     0
  9
$DIMLIM
 70
     0
  9
$DIMTIH
 70
     1
  9
$DIMTOH
 70
     1
  9
$DIMSE1
 70
     0
  9
$DIMSE2
 70
     0
  9
$DIMTAD
 70
     0
  9
$DIMZIN
 70
     0
  9
$DIMBLK
  1

  9
$DIMASO
 70
     1
  9
$DIMSHO
 70
     1
  9
$DIMPOST
  1

  9
$DIMAPOST
  1

  9
$DIMALT
 70
     0
  9
$DIMALTD
 70
     2
  9
$DIMALTF
 40
25.4
  9
$DIMLFAC
 40
1.0
  9
$DIMTOFL
 70
     0
  9
$DIMTVP
 40
0.0
  9
$DIMTIX
 70
     0
  9
$DIMSOXD
 70
     0
  9
$DIMSAH
 70
     0
  9
$DIMBLK1
  1

  9
$DIMBLK2
  1

  9
$DIMSTYLE
  2
Standard
  9
$DIMCLRD
 70
     0
  9
$DIMCLRE
 70
     0
  9
$DIMCLRT
 70
     0
  9
$DIMTFAC
 40
1.0
  9
$DIMGAP
 40
0.06
  9
$DIMJUST
 70
     0
  9
$DIMSD1
 70
     0
  9
$DIMSD2
 70
     0
  9
$DIMTOLJ
 70
     1
  9
$DIMTZIN
 70
     0
  9
$DIMALTZ
 70
     0
  9
$DIMALTTZ
 70
     0
  9
$DIMUPT
 70
     0
  9
$DIMDEC
 70
     2
  9
$DIMTDEC
 70
     2
  9
$DIMALTU
 70
     2
  9
$DIMALTTD
 70
     2
  9
$DIMTXSTY
  7
Standard
  9
$DIMAUNIT
 70
     0
  9
$DIMADEC
 70
     2
  9
$DIMALTRND
 40
0.0
  9
$DIMAZIN
 70
     0
  9
$DIMDSEP
 70
    46
  9
$DIMATFIT
 70
     3
  9
$DIMFRAC
 70
     0
  9
$DIMLDRBLK
  1

  9
$DIMLUNIT
 70
     2
  9
$DIMLWD
 70
    -2
  9
$DIMLWE
 70
    -2
  9
$DIMTMOVE
 70
     0
  9
$LUNITS
 70
     2
  9
$LUPREC
 70
     2
  9
$SKETCHINC
 40
0.1
  9
$FILLETRAD
 40
0.5
  9
$AUNITS
 70
     0
  9
$AUPREC
 70
     2
  9
$MENU
  1
.
  9
$ELEVATION
 40
0.0
  9
$PELEVATION
 40
0.0
  9
$THICKNESS
 40
0.0
  9
$LIMCHECK
 70
     0
  9
$CHAMFERA
 40
0.0
  9
$CHAMFERB
 40
0.0
  9
$CHAMFERC
 40
0.0
  9
$CHAMFERD
 40
0.0
  9
$SKPOLY
 70
     0
  9
$TDCREATE
 40
2457750.353605069
  9
$TDUCREATE
 40
2457750.561938403
  9
$TDUPDATE
 40
2457750.353642419
  9
$TDUUPDATE
 40
2457750.561975752
  9
$TDINDWG
 40
0.0000000116
  9
$TDUSRTIMER
 40
0.0000000116
  9
$USRTIMER
 70
     1
  9
$ANGBASE
 50
0.0
  9
$ANGDIR
 70
     0
  9
$PDMODE
 70
     0
  9
$PDSIZE
 40
-1.0
  9
$PLINEWID
 40
0.0
  9
$SPLFRAME
 70
     0
  9
$SPLINETYPE
 70
     6
  9
$SPLINESEGS
 70
     8
  9
$HANDSEED
  5
118
  9
$SURFTAB1
 70
     6
  9
$SURFTAB2
 70
     6
  9
$SURFTYPE
 70
     6
  9
$SURFU
 70
     6
  9
$SURFV
 70
     6
  9
$UCSBASE
  2

  9
$UCSNAME
  2

  9
$UCSORG
 10
0.0
 20
0.0
 30
0.0
  9
$UCSXDIR
 10
1.0
 20
0.0
 30
0.0
  9
$UCSYDIR
 10
0.0
 20
1.0
 30
0.0
  9
$UCSORTHOREF
  2

  9
$UCSORTHOVIEW
 70
     0
  9
$UCSORGTOP
 10
0.0
 20
0.0
 30
0.0
  9
$UCSORGBOTTOM
 10
0.0
 20
0.0
 30
0.0
  9
$UCSORGLEFT
 10
0.0
 20
0.0
 30
0.0
  9
$UCSORGRIGHT
 10
0.0
 20
0.0
 30
0.0
  9
$UCSORGFRONT
 10
0.0
 20
0.0
 30
0.0
  9
$UCSORGBACK
 10
0.0
 20
0.0
 30
0.0
  9
$PUCSBASE
  2

  9
$PUCSNAME
  2

  9
$PUCSORG
 10
0.0
 20
0.0
 30
0.0
  9
$PUCSXDIR
 10
1.0
 20
0.0
 30
0.0
  9
$PUCSYDIR
 10
0.0
 20
1.0
 30
0.0
  9
$PUCSORTHOREF
  2

  9
$PUCSORTHOVIEW
 70
     0
  9
$PUCSORGTOP
 10
0.0
 20
0.0
 30
0.0
  9
$PUCSORGBOTTOM
 10
0.0
 20
0.0
 30
0.0
  9
$PUCSORGLEFT
 10
0.0
 20
0.0
 30
0.0
  9
$PUCSORGRIGHT
 10
0.0
 20
0.0
 30
0.0
  9
$PUCSORGFRONT
 10
0.0
 20
0.0
 30
0.0
  9
$PUCSORGBACK
 10
0.0
 20
0.0
 30
0.0
  9
$USERI1
 70
     0
  9
$USERI2
 70
     0
  9
$USERI3
 70
     0
  9
$USERI4
 70
     0
  9
$USERI5
 70
     0
  9
$USERR1
 40
0.0
  9
$USERR2
 40
0.0
  9
$USERR3
 40
0.0
  9
$USERR4
 40
0.0
  9
$USERR5
 40
0.0
  9
$WORLDVIEW
 70
     1
  9
$SHADEDGE
 70
     3
  9
$SHADEDIF
 70
    70
  9
$TILEMODE
 70
     1
  9
$MAXACTVP
 70
    64
  9
$PINSBASE
 10
0.0
 20
0.0
 30
0.0
  9
$PLIMCHECK
 70
     0
  9
$PEXTMIN
 10
1.0000000000E+20
 20
1.0000000000E+20
 30
1.0000000000E+20
  9
$PEXTMAX
 10
-1.0000000000E+20
 20
-1.0000000000E+20
 30
-1.0000000000E+20
  9
$PLIMMIN
 10
0.0
 20
0.0
  9
$PLIMMAX
 10
12.0
 20
9.0
  9
$UNITMODE
 70
     0
  9
$VISRETAIN
 70
     1
  9
$PLINEGEN
 70
     0
  9
$PSLTSCALE
 70
     1
  9
$TREEDEPTH
 70
  3020
  9
$CMLSTYLE
  2
Standard
  9
$CMLJUST
 70
     0
  9
$CMLSCALE
 40
1.0
  9
$PROXYGRAPHICS
 70
     1
  9
$MEASUREMENT
 70
     0
  9
$CELWEIGHT
370
    -1
  9
$ENDCAPS
280
     0
  9
$JOINSTYLE
280
     0
  9
$LWDISPLAY
290
     1
  9
$INSUNITS
 70
     1
  9
$HYPERLINKBASE
  1

  9
$STYLESHEET
  1

  9
$XEDIT
290
     1
  9
$CEPSNTYPE
380
     0
  9
$PSTYLEMODE
290
     1
  9
$FINGERPRINTGUID
  2
{094F278B-9A68-439A-8AE9-BC68C3CE09C8}
  9
$VERSIONGUID
  2
{FAEB1C32-E019-11D5-929B-00C0DF256EC4}
  9
$EXTNAMES
290
     1
  9
$PSVPSCALE
 40
0.0
  9
$OLESTARTUP
290
     0
  0
ENDSEC
  0
SECTION
  2
CLASSES
  0
CLASS
  1
ACDBDICTIONARYWDFLT
  2
AcDbDictionaryWithDefault
  3
ObjectDBX Classes
 90
        0
280
     0
281
     0
  0
CLASS
  1
VISUALSTYLE
  2
AcDbVisualStyle
  3
ObjectDBX Classes
 90
     4095
280
     0
281
     0
  0
CLASS
  1
MATERIAL
  2
AcDbMaterial
  3
ObjectDBX Classes
 90
     1153
280
     0
281
     0
  0
CLASS
  1
SCALE
  2
AcDbScale
  3
ObjectDBX Classes
 90
     1153
280
     0
281
     0
  0
CLASS
  1
TABLESTYLE
  2
AcDbTableStyle
  3
ObjectDBX Classes
 90
     4095
280
     0
281
     0
  0
CLASS
  1
MLEADERSTYLE
  2
AcDbMLeaderStyle
  3
ACDB_MLEADERSTYLE_CLASS
 90
     4095
280
     0
281
     0
  0
CLASS
  1
SUN
  2
AcDbSun
  3
SCENEOE
 90
     1153
280
     0
281
     0
  0
CLASS
  1
ACDBPLACEHOLDER
  2
AcDbPlaceHolder
  3
ObjectDBX Classes
 90
        0
280
     0
281
     0
  0
CLASS
  1
LAYOUT
  2
AcDbLayout
  3
ObjectDBX Classes
 90
        0
280
     0
281
     0
  0
ENDSEC
  0
SECTION
  2
TABLES
  0
TABLE
  2
VPORT
  5
8
330
0
100
AcDbSymbolTable
 70
     1
  0
VPORT
  5
29
330
8
100
AcDbSymbolTableRecord
100
AcDbViewportTableRecord
  2
*Active
 70
     0
 10
0.0
 20
0.0
 11
1.0
 21
1.0
 12
0.0
 22
0.0
 13
0.0
 23
0.0
 14
0.5
 24
0.5
 15
0.5
 25
0.5
 16
0.0
 26
0.0
 36
1.0
 17
0.0
 27
0.0
 37
0.0
 40
32.53188
 41
0.6206182981
 42
50.0
 43
0.0
 44
0.0
 50
0.0
 51
0.0
 71
     0
 72
   100
 73
     1
 74
     3
 75
     0
 76
     0
 77
     0
 78
     0
281
     0
 65
     1
110
0.0
120
0.0
130
0.0
111
1.0
121
0.0
131
0.0
112
0.0
122
1.0
132
0.0
 79
     0
146
0.0
  0
ENDTAB
  0
TABLE
  2
LTYPE
  5
5
330
0
100
AcDbSymbolTable
 70
     6
  0
LTYPE
  5
14
330
5
100
AcDbSymbolTableRecord
100
AcDbLinetypeTableRecord
  2
ByBlock
 70
     0
  3

 72
    65
 73
     0
 40
0.0
  0
LTYPE
  5
15
330
5
100
AcDbSymbolTableRecord
100
AcDbLinetypeTableRecord
  2
ByLayer
 70
     0
  3

 72
    65
 73
     0
 40
0.0
  0
LTYPE
  5
16
330
5
100
AcDbSymbolTableRecord
100
AcDbLinetypeTableRecord
  2
Continuous
 70
     0
  3
Solid line
 72
    65
 73
     0
 40
0.0
  0
LTYPE
  5
6E
330
5
100
AcDbSymbolTableRecord
100
AcDbLinetypeTableRecord
  2
HIDDEN
 70
     0
  3
Hidden __ __ __ __ __ __ __ __ __ __ __ __ __ __
 72
    65
 73
     2
 40
0.075
 49
0.05
 74
     0
 49
-0.025
 74
     0
  0
LTYPE
  5
6F
330
5
100
AcDbSymbolTableRecord
100
AcDbLinetypeTableRecord
  2
PHANTOM
 70
     0
  3
Phantom ______  __  __  ______  __  __  ______
 72
    65
 73
     6
 40
0.5
 49
0.25
 74
     0
 49
-0.05
 74
     0
 49
0.05
 74
     0
 49
-0.05
 74
     0
 49
0.05
 74
     0
 49
-0.05
 74
     0
  0
LTYPE
  5
70
330
5
100
AcDbSymbolTableRecord
100
AcDbLinetypeTableRecord
  2
CENTER
 70
     0
  3
Center ____ _ ____ _ ____ _ ____ _ ____ _ ____
 72
    65
 73
     4
 40
0.4
 49
0.25
 74
     0
 49
-0.05
 74
     0
 49
0.05
 74
     0
 49
-0.05
 74
     0
  0
LTYPE
  5
71
330
5
100
AcDbSymbolTableRecord
100
AcDbLinetypeTableRecord
  2
CENTERX2
 70
     0
  3
Center (2x) ________  __  ________  __  _____
 72
    65
 73
     4
 40
0.8
 49
0.5
 74
     0
 49
-0.1
 74
     0
 49
0.1
 74
     0
 49
-0.1
 74
     0
  0
LTYPE
  5
72
330
5
100
AcDbSymbolTableRecord
100
AcDbLinetypeTableRecord
  2
DOT2
 70
     0
  3
Dot (.5x) ........................................
 72
    65
 73
     2
 40
0.025
 49
0.0
 74
     0
 49
-0.025
 74
     0
  0
ENDTAB
  0
TABLE
  2
LAYER
  5
2
330
0
100
AcDbSymbolTable
 70
     1
  0
LAYER
  5
10
330
2
100
AcDbSymbolTableRecord
100
AcDbLayerTableRecord
  2
0
 70
     0
 62
     7
  6
Continuous
370
    -3
390
F
  0
ENDTAB
  0
TABLE
  2
STYLE
  5
3
330
0
100
AcDbSymbolTable
 70
     1
  0
STYLE
  5
11
330
3
100
AcDbSymbolTableRecord
100
AcDbTextStyleTableRecord
  2
Standard
 70
     0
 40
0.0
 41
1.0
 50
0.0
 71
     0
 42
0.125
  3
txt
  4

  0
ENDTAB
  0
TABLE
  2
VIEW
  5
6
330
0
100
AcDbSymbolTable
 70
     0
  0
ENDTAB
  0
TABLE
  2
UCS
  5
7
330
0
100
AcDbSymbolTable
 70
     0
  0
ENDTAB
  0
TABLE
  2
APPID
  5
9
330
0
100
AcDbSymbolTable
 70
     1
  0
APPID
  5
12
330
9
100
AcDbSymbolTableRecord
100
AcDbRegAppTableRecord
  2
ACAD
 70
     0
  0
ENDTAB
  0
TABLE
  2
DIMSTYLE
  5
A
330
0
100
AcDbSymbolTable
 70
     1
100
AcDbDimStyleTable
  0
DIMSTYLE
105
27
330
A
100
AcDbSymbolTableRecord
100
AcDbDimStyleTableRecord
  2
Standard
 70
     0
178
     0
340
11
  0
ENDTAB
  0
TABLE
  2
BLOCK_RECORD
  5
1
330
0
100
AcDbSymbolTable
 70
     1
  0
BLOCK_RECORD
  5
1F
330
1
100
AcDbSymbolTableRecord
100
AcDbBlockTableRecord
  2
*Model_Space
340
22
  0
BLOCK_RECORD
  5
1B
330
1
100
AcDbSymbolTableRecord
100
AcDbBlockTableRecord
  2
*Paper_Space
340
1E
  0
BLOCK_RECORD
  5
23
330
1
100
AcDbSymbolTableRecord
100
AcDbBlockTableRecord
  2
*Paper_Space0
340
26
  0
ENDTAB
  0
ENDSEC
  0
SECTION
  2
BLOCKS
  0
BLOCK
  5
20
330
1F
100
AcDbEntity
  8
0
100
AcDbBlockBegin
  2
*Model_Space
 70
     0
 10
0.0
 20
0.0
 30
0.0
  3
*Model_Space
  1

  0
ENDBLK
  5
21
330
1F
100
AcDbEntity
  8
0
100
AcDbBlockEnd
  0
BLOCK
  5
1C
330
1B
100
AcDbEntity
 67
     1
  8
0
100
AcDbBlockBegin
  2
*Paper_Space
 70
     0
 10
0.0
 20
0.0
 30
0.0
  3
*Paper_Space
  1

  0
ENDBLK
  5
1D
330
1B
100
AcDbEntity
 67
     1
  8
0
100
AcDbBlockEnd
  0
BLOCK
  5
24
330
23
100
AcDbEntity
  8
0
100
AcDbBlockBegin
  2
*Paper_Space0
 70
     0
 10
0.0
 20
0.0
 30
0.0
  3
*Paper_Space0
  1

  0
ENDBLK
  5
25
330
23
100
AcDbEntity
  8
0
100
AcDbBlockEnd
  0
ENDSEC
  0
SECTION
  2
ENTITIES
  0
LINE
  5
73
330
1F
100
AcDbEntity
  8
0
  6
Continuous
 62
     7
370
    15
100
AcDbLine
 10
8.300525641
 20
-15.1306538462
 30
0.0
 11
8.3165512821
 21
-15.1306538462
 31
0.0
  0
LINE
  5
74
330
1F
100
AcDbEntity
  8
0
  6
Continuous
 62
     7
370
    15
100
AcDbLine
 10
8.3165512821
 20
-15.1306538462
 30
0.0
 11
8.3165512821
 21
-15.0937948718
 31
0.0
  0
LINE
  5
75
330
1F
100
AcDbEntity
  8
0
  6
Continuous
 62
     7
370
    15
100
AcDbLine
 10
8.3165512821
 20
-15.0937948718
 30
0.0
 11
8.3277692308
 21
-15.0937948718
 31
0.0
  0
LINE
  5
76
330
1F
100
AcDbEntity
  8
0
  6
Continuous
 62
     7
370
    15
100
AcDbLine
 10
8.3277692308
 20
-15.0937948718
 30
0.0
 11
8.3277692308
 21
-15.1306538462
 31
0.0
  0
LINE
  5
77
330
1F
100
AcDbEntity
  8
0
  6
Continuous
 62
     7
370
    15
100
AcDbLine
 10
8.3277692308
 20
-15.1306538462
 30
0.0
 11
8.3437948718
 21
-15.1306538462
 31
0.0
  0
LINE
  5
78
330
1F
100
AcDbEntity
  8
0
  6
Continuous
 62
     7
370
    15
100
AcDbLine
 10
8.3437948718
 20
-15.1306538462
 30
0.0
 11
8.3437948718
 21
-15.1418717949
 31
0.0
  0
LINE
  5
79
330
1F
100
AcDbEntity
  8
0
  6
Continuous
 62
     7
370
    15
100
AcDbLine
 10
8.3437948718
 20
-15.1418717949
 30
0.0
 11
8.3277692308
 21
-15.1418717949
 31
0.0
  0
LINE
  5
7A
330
1F
100
AcDbEntity
  8
0
  6
Continuous
 62
     7
370
    15
100
AcDbLine
 10
8.3277692308
 20
-15.1418717949
 30
0.0
 11
8.3277692308
 21
-15.222
 31
0.0
  0
LINE
  5
7B
330
1F
100
AcDbEntity
  8
0
  6
Continuous
 62
     7
370
    15
100
AcDbLine
 10
8.3277692308
 20
-15.222
 30
0.0
 11
8.3165512821
 21
-15.222
 31
0.0
  0
LINE
  5
7C
330
1F
100
AcDbEntity
  8
0
  6
Continuous
 62
     7
370
    15
100
AcDbLine
 10
8.3165512821
 20
-15.222
 30
0.0
 11
8.3165512821
 21
-15.1418717949
 31
0.0
  0
LINE
  5
7D
330
1F
100
AcDbEntity
  8
0
  6
Continuous
 62
     7
370
    15
100
AcDbLine
 10
8.3165512821
 20
-15.1418717949
 30
0.0
 11
8.300525641
 21
-15.1418717949
 31
0.0
  0
LINE
  5
7E
330
1F
100
AcDbEntity
  8
0
  6
Continuous
 62
     7
370
    15
100
AcDbLine
 10
8.300525641
 20
-15.1418717949
 30
0.0
 11
8.300525641
 21
-15.1306538462
 31
0.0
  0
LINE
  5
7F
330
1F
100
AcDbEntity
  8
0
  6
Continuous
 62
     7
370
    15
100
AcDbLine
 10
8.2428333333
 20
-15.1306538462
 30
0.0
 11
8.2588589744
 21
-15.1306538462
 31
0.0
  0
LINE
  5
80
330
1F
100
AcDbEntity
  8
0
  6
Continuous
 62
     7
370
    15
100
AcDbLine
 10
8.2588589744
 20
-15.1306538462
 30
0.0
 11
8.2588589744
 21
-15.0937948718
 31
0.0
  0
LINE
  5
81
330
1F
100
AcDbEntity
  8
0
  6
Continuous
 62
     7
370
    15
100
AcDbLine
 10
8.2588589744
 20
-15.0937948718
 30
0.0
 11
8.2700769231
 21
-15.0937948718
 31
0.0
  0
LINE
  5
82
330
1F
100
AcDbEntity
  8
0
  6
Continuous
 62
     7
370
    15
100
AcDbLine
 10
8.2700769231
 20
-15.0937948718
 30
0.0
 11
8.2700769231
 21
-15.1306538462
 31
0.0
  0
LINE
  5
83
330
1F
100
AcDbEntity
  8
0
  6
Continuous
 62
     7
370
    15
100
AcDbLine
 10
8.2700769231
 20
-15.1306538462
 30
0.0
 11
8.2861025641
 21
-15.1306538462
 31
0.0
  0
LINE
  5
84
330
1F
100
AcDbEntity
  8
0
  6
Continuous
 62
     7
370
    15
100
AcDbLine
 10
8.2861025641
 20
-15.1306538462
 30
0.0
 11
8.2861025641
 21
-15.1418717949
 31
0.0
  0
LINE
  5
85
330
1F
100
AcDbEntity
  8
0
  6
Continuous
 62
     7
370
    15
100
AcDbLine
 10
8.2861025641
 20
-15.1418717949
 30
0.0
 11
8.2700769231
 21
-15.1418717949
 31
0.0
  0
LINE
  5
86
330
1F
100
AcDbEntity
  8
0
  6
Continuous
 62
     7
370
    15
100
AcDbLine
 10
8.2700769231
 20
-15.1418717949
 30
0.0
 11
8.2700769231
 21
-15.222
 31
0.0
  0
LINE
  5
87
330
1F
100
AcDbEntity
  8
0
  6
Continuous
 62
     7
370
    15
100
AcDbLine
 10
8.2700769231
 20
-15.222
 30
0.0
 11
8.2588589744
 21
-15.222
 31
0.0
  0
LINE
  5
88
330
1F
100
AcDbEntity
  8
0
  6
Continuous
 62
     7
370
    15
100
AcDbLine
 10
8.2588589744
 20
-15.222
 30
0.0
 11
8.2588589744
 21
-15.1418717949
 31
0.0
  0
LINE
  5
89
330
1F
100
AcDbEntity
  8
0
  6
Continuous
 62
     7
370
    15
100
AcDbLine
 10
8.2588589744
 20
-15.1418717949
 30
0.0
 11
8.2428333333
 21
-15.1418717949
 31
0.0
  0
LINE
  5
8A
330
1F
100
AcDbEntity
  8
0
  6
Continuous
 62
     7
370
    15
100
AcDbLine
 10
8.2428333333
 20
-15.1418717949
 30
0.0
 11
8.2428333333
 21
-15.1306538462
 31
0.0
  0
LINE
  5
8B
330
1F
100
AcDbEntity
  8
0
  6
Continuous
 62
     7
370
    15
100
AcDbLine
 10
8.0715092147
 20
-15.222
 30
0.0
 11
8.0377051282
 21
-15.222
 31
0.0
  0
LINE
  5
8C
330
1F
100
AcDbEntity
  8
0
  6
Continuous
 62
     7
370
    15
100
AcDbLine
 10
8.0377051282
 20
-15.222
 30
0.0
 11
8.0377051282
 21
-15.097
 31
0.0
  0
LINE
  5
8D
330
1F
100
AcDbEntity
  8
0
  6
Continuous
 62
     7
370
    15
100
AcDbLine
 10
8.0377051282
 20
-15.097
 30
0.0
 11
8.0620941506
 21
-15.097
 31
0.0
  0
SPLINE
  5
8E
330
1F
100
AcDbEntity
  8
0
  6
Continuous
 62
     7
370
    15
100
AcDbSpline
210
0.0
220
0.0
230
1.0
 70
     8
 71
     3
 72
    23
 73
    19
 74
     0
 42
0.000000001
 43
0.00000001
 40
0.0
 40
0.0
 40
0.0
 40
0.0
 40
0.0625940971873277
 40
0.1213229386347563
 40
0.1766801421977582
 40
0.2283650957096645
 40
0.2768684458368104
 40
0.3218791276660387
 40
0.3640986251098905
 40
0.4033556962426922
 40
0.4779679481633654
 40
0.5505354613647709
 40
0.6235844567403164
 40
0.6981748822642053
 40
0.7733536703408954
 40
0.8472811254977438
 40
0.9228183395566903
 40
1.0
 40
1.0
 40
1.0
 40
1.0
 10
8.062094150641023
 20
-15.09700000000001
 30
0.0
 10
8.063288024862016
 20
-15.09700627680007
 30
0.0
 10
8.065602050231176
 20
-15.09701844280075
 30
0.0
 10
8.068967030296488
 20
-15.097207126056
 30
0.0
 10
8.072118773533647
 20
-15.09746439998024
 30
0.0
 10
8.075058193974737
 20
-15.09787261757467
 30
0.0
 10
8.07778393334585
 20
-15.09836518104415
 30
0.0
 10
8.08030420610434
 20
-15.09896167447594
 30
0.0
 10
8.082610997971068
 20
-15.09967691067806
 30
0.0
 10
8.085365024271288
 20
-15.10081427786493
 30
0.0
 10
8.088505047874106
 20
-15.10250439102028
 30
0.0
 10
8.091904990470635
 20
-15.10500183977559
 30
0.0
 10
8.094812284733472
 20
-15.10805657060132
 30
0.0
 10
8.09731893892065
 20
-15.11150237972363
 30
0.0
 10
8.09931183604962
 20
-15.11529294300044
 30
0.0
 10
8.10075359666804
 20
-15.11933791402822
 30
0.0
 10
8.101666377930849
 20
-15.12358511909677
 30
0.0
 10
8.101760250581414
 20
-15.12650094687816
 30
0.0
 10
8.10180769230769
 20
-15.12797455929488
 30
0.0
  0
SPLINE
  5
8F
330
1F
100
AcDbEntity
  8
0
  6
Continuous
 62
     7
370
    15
100
AcDbSpline
210
0.0
220
0.0
230
1.0
 70
     8
 71
     3
 72
    15
 73
    11
 74
     0
 42
0.000000001
 43
0.00000001
 40
0.0
 40
0.0
 40
0.0
 40
0.0
 40
0.130569107087341
 40
0.2565806086941047
 40
0.3805516168036808
 40
0.5036229172006957
 40
0.6257393231697707
 40
0.7475485819596246
 40
0.8717661185648717
 40
1.0
 40
1.0
 40
1.0
 40
1.0
 10
8.10180769230769
 20
-15.12797455929488
 30
0.0
 10
8.101768648791886
 20
-15.12935500771195
 30
0.0
 10
8.101691924601345
 20
-15.13206771903413
 30
0.0
 10
8.100958254625173
 20
-15.13603536579426
 30
0.0
 10
8.099809659323759
 20
-15.13981219503809
 30
0.0
 10
8.098213043282193
 20
-15.1433844230887
 30
0.0
 10
8.096137971989402
 20
-15.1466713378439
 30
0.0
 10
8.093678746322794
 20
-15.14969945448837
 30
0.0
 10
8.090711717662398
 20
-15.15234056366675
 30
0.0
 10
8.088488744805689
 20
-15.15381709590071
 30
0.0
 10
8.08735957532051
 20
-15.1545671073718
 30
0.0
  0
SPLINE
  5
90
330
1F
100
AcDbEntity
  8
0
  6
Continuous
 62
     7
370
    15
100
AcDbSpline
210
0.0
220
0.0
230
1.0
 70
     8
 71
     3
 72
    19
 73
    15
 74
     0
 42
0.000000001
 43
0.00000001
 40
0.0
 40
0.0
 40
0.0
 40
0.0
 40
0.1060574933034103
 40
0.2029142570846252
 40
0.2903001653958437
 40
0.3702225656250532
 40
0.4463837207709678
 40
0.5213968999648346
 40
0.5982910828464725
 40
0.6761424688569366
 40
0.7555286995560079
 40
0.8348871724576609
 40
0.9166460487466231
 40
1.0
 40
1.0
 40
1.0
 40
1.0
 10
8.08735957532051
 20
-15.15456710737181
 30
0.0
 10
8.088779590591754
 20
-15.1551122859054
 30
0.0
 10
8.091496431569588
 20
-15.15615534749093
 30
0.0
 10
8.095235217727872
 20
-15.15799947120512
 30
0.0
 10
8.09845646219202
 20
-15.16000526086195
 30
0.0
 10
8.101184931691488
 20
-15.16219568408136
 30
0.0
 10
8.103518419367086
 20
-15.16455671303815
 30
0.0
 10
8.105556024423255
 20
-15.16712296711845
 30
0.0
 10
8.107294644929006
 20
-15.16992792275693
 30
0.0
 10
8.108784392199205
 20
-15.17294233473416
 30
0.0
 10
8.109946847771571
 20
-15.17613542288976
 30
0.0
 10
8.110817415784775
 20
-15.17947723632181
 30
0.0
 10
8.111316253253912
 20
-15.18295579186447
 30
0.0
 10
8.111387240442417
 20
-15.18532312684084
 30
0.0
 10
8.111423076923074
 20
-15.18651822916668
 30
0.0
  0
SPLINE
  5
91
330
1F
100
AcDbEntity
  8
0
  6
Continuous
 62
     7
370
    15
100
AcDbSpline
210
0.0
220
0.0
230
1.0
 70
     8
 71
     3
 72
    23
 73
    19
 74
     0
 42
0.000000001
 43
0.00000001
 40
0.0
 40
0.0
 40
0.0
 40
0.0
 40
0.0611602766365081
 40
0.1203345577261941
 40
0.1781802550631267
 40
0.2352351259863495
 40
0.2926829614441721
 40
0.3511862482150757
 40
0.4104566095096767
 40
0.4717198544629956
 40
0.5337612027725771
 40
0.5957390238870999
 40
0.657887515124887
 40
0.7212951802914574
 40
0.7868225145418948
 40
0.854686153828676
 40
0.9254779862700004
 40
0.9999999999999999
 40
0.9999999999999999
 40
0.9999999999999999
 40
0.9999999999999999
 10
8.111423076923074
 20
-15.18651822916668
 30
0.0
 10
8.111388189565098
 20
-15.18773847459961
 30
0.0
 10
8.111319547710888
 20
-15.19013934167483
 30
0.0
 10
8.11081312014672
 20
-15.19366631076592
 30
0.0
 10
8.109955652039902
 20
-15.19703684457352
 30
0.0
 10
8.108774539669735
 20
-15.20027274395582
 30
0.0
 10
8.10723302843408
 20
-15.20336774875833
 30
0.0
 10
8.105357029707958
 20
-15.20632536532929
 30
0.0
 10
8.103120188149996
 20
-15.20911587713689
 30
0.0
 10
8.100617942830288
 20
-15.21177029224771
 30
0.0
 10
8.097787151919977
 20
-15.21415699893842
 30
0.0
 10
8.094733017815598
 20
-15.21628255989132
 30
0.0
 10
8.0914170778194
 20
-15.21803063353831
 30
0.0
 10
8.08789379231881
 20
-15.21949906287769
 30
0.0
 10
8.084123638171874
 20
-15.22062074853716
 30
0.0
 10
8.080123545051878
 20
-15.22140548331928
 30
0.0
 10
8.075896962843489
 20
-15.22193423464065
 30
0.0
 10
8.072996614589504
 20
-15.22197770624404
 30
0.0
 10
8.071509214743587
 20
-15.22200000000001
 30
0.0
  0
LINE
  5
92
330
1F
100
AcDbEntity
  8
0
  6
Continuous
 62
     7
370
    15
100
AcDbLine
 10
8.9575769231
 20
-15.222
 30
0.0
 11
8.9463589744
 21
-15.222
 31
0.0
  0
LINE
  5
93
330
1F
100
AcDbEntity
  8
0
  6
Continuous
 62
     7
370
    15
100
AcDbLine
 10
8.9463589744
 20
-15.222
 30
0.0
 11
8.9463589744
 21
-15.0937948718
 31
0.0
  0
LINE
  5
94
330
1F
100
AcDbEntity
  8
0
  6
Continuous
 62
     7
370
    15
100
AcDbLine
 10
8.9463589744
 20
-15.0937948718
 30
0.0
 11
8.9575769231
 21
-15.0937948718
 31
0.0
  0
LINE
  5
95
330
1F
100
AcDbEntity
  8
0
  6
Continuous
 62
     7
370
    15
100
AcDbLine
 10
8.9575769231
 20
-15.0937948718
 30
0.0
 11
8.9575769231
 21
-15.1479064503
 31
0.0
  0
SPLINE
  5
96
330
1F
100
AcDbEntity
  8
0
  6
Continuous
 62
     7
370
    15
100
AcDbSpline
210
0.0
220
0.0
230
1.0
 70
     8
 71
     3
 72
    15
 73
    11
 74
     0
 42
0.000000001
 43
0.00000001
 40
0.0
 40
0.0
 40
0.0
 40
0.0
 40
0.1407235132503502
 40
0.2739958912186084
 40
0.4006841600587833
 40
0.5225546790047636
 40
0.6415337705510136
 40
0.7599691428622506
 40
0.8784045151735262
 40
1.0
 40
1.0
 40
1.0
 40
1.0
 10
8.957576923076921
 20
-15.14790645032052
 30
0.0
 10
8.958781112421413
 20
-15.14640130810286
 30
0.0
 10
8.961125730779917
 20
-15.14347071907895
 30
0.0
 10
8.965072020659024
 20
-15.13964710511956
 30
0.0
 10
8.96912455180604
 20
-15.13633286864724
 30
0.0
 10
8.973423295014138
 20
-15.13369463803244
 30
0.0
 10
8.977889385026367
 20
-15.13161047577329
 30
0.0
 10
8.982541658041683
 20
-15.13013234554225
 30
0.0
 10
8.987380978444774
 20
-15.12922337780446
 30
0.0
 10
8.990667590946169
 20
-15.12910914859505
 30
0.0
 10
8.99233253205128
 20
-15.12905128205129
 30
0.0
  0
SPLINE
  5
97
330
1F
100
AcDbEntity
  8
0
  6
Continuous
 62
     7
370
    15
100
AcDbSpline
210
0.0
220
0.0
230
1.0
 70
     8
 71
     3
 72
    23
 73
    19
 74
     0
 42
0.000000001
 43
0.00000001
 40
0.0
 40
0.0
 40
0.0
 40
0.0
 40
0.0772285532334901
 40
0.1511549072635779
 40
0.2234536379509489
 40
0.2954972249195547
 40
0.3669198573541502
 40
0.4367940850066703
 40
0.5066964308522586
 40
0.577863846740854
 40
0.6159118097672194
 40
0.6580480255185146
 40
0.703775986058022
 40
0.7540801428690672
 40
0.808979421080231
 40
0.8679131928433378
 40
0.9317018161757319
 40
1.0
 40
1.0
 40
1.0
 40
1.0
 10
8.99233253205128
 20
-15.12905128205129
 30
0.0
 10
8.994022903223335
 20
-15.12911361884655
 30
0.0
 10
8.997331367347746
 20
-15.12923562699137
 30
0.0
 10
9.00214856244429
 20
-15.1302003905996
 30
0.0
 10
9.00664716511993
 20
-15.13184887053094
 30
0.0
 10
9.010813802362264
 20
-15.13410483571141
 30
0.0
 10
9.014557541544894
 20
-15.13691457954163
 30
0.0
 10
9.017873604552975
 20
-15.14015856249305
 30
0.0
 10
9.020582204509804
 20
-15.14391834528383
 30
0.0
 10
9.022425030115347
 20
-15.1473917829256
 30
0.0
 10
9.023624080395566
 20
-15.15048245270976
 30
0.0
 10
9.02438307419431
 20
-15.15313375671881
 30
0.0
 10
9.025026616991427
 20
-15.15608811076333
 30
0.0
 10
9.02558732184079
 20
-15.15934399406167
 30
0.0
 10
9.025961021183353
 20
-15.16291703589432
 30
0.0
 10
9.026261186111695
 20
-15.16679111641037
 30
0.0
 10
9.02647463090498
 20
-15.17096601348619
 30
0.0
 10
9.026482902493333
 20
-15.17385602239279
 30
0.0
 10
9.026487179487177
 20
-15.17535036057693
 30
0.0
  0
LINE
  5
98
330
1F
100
AcDbEntity
  8
0
  6
Continuous
 62
     7
370
    15
100
AcDbLine
 10
9.0264871795
 20
-15.1753503606
 30
0.0
 11
9.0264871795
 21
-15.222
 31
0.0
  0
LINE
  5
99
330
1F
100
AcDbEntity
  8
0
  6
Continuous
 62
     7
370
    15
100
AcDbLine
 10
9.0264871795
 20
-15.222
 30
0.0
 11
9.0152692308
 21
-15.222
 31
0.0
  0
LINE
  5
9A
330
1F
100
AcDbEntity
  8
0
  6
Continuous
 62
     7
370
    15
100
AcDbLine
 10
9.0152692308
 20
-15.222
 30
0.0
 11
9.0152692308
 21
-15.17903125
 31
0.0
  0
SPLINE
  5
9B
330
1F
100
AcDbEntity
  8
0
  6
Continuous
 62
     7
370
    15
100
AcDbSpline
210
0.0
220
0.0
230
1.0
 70
     8
 71
     3
 72
    15
 73
    11
 74
     0
 42
0.000000001
 43
0.00000001
 40
0.0
 40
0.0
 40
0.0
 40
0.0
 40
0.1788665699309862
 40
0.3421413072700283
 40
0.4898709911205704
 40
0.6233121032799116
 40
0.7400556234383132
 40
0.8414680041078165
 40
0.9289010934037254
 40
1.0
 40
1.0
 40
1.0
 40
1.0
 10
9.015269230769228
 20
-15.17903125000001
 30
0.0
 10
9.015262434227651
 20
-15.17778758323093
 30
0.0
 10
9.01524943360031
 20
-15.17540866035928
 30
0.0
 10
9.015206457008832
 20
-15.17200272791777
 30
0.0
 10
9.015110520746857
 20
-15.16891358025449
 30
0.0
 10
9.014955491252625
 20
-15.16615111769142
 30
0.0
 10
9.014792444560488
 20
-15.16371148900174
 30
0.0
 10
9.01456804037559
 20
-15.16159823705763
 30
0.0
 10
9.014306960588486
 20
-15.15980845936828
 30
0.0
 10
9.014072361252214
 20
-15.15873115120289
 30
0.0
 10
9.013967147435894
 20
-15.15824799679488
 30
0.0
  0
SPLINE
  5
9C
330
1F
100
AcDbEntity
  8
0
  6
Continuous
 62
     7
370
    15
100
AcDbSpline
210
0.0
220
0.0
230
1.0
 70
     8
 71
     3
 72
    15
 73
    11
 74
     0
 42
0.000000001
 43
0.00000001
 40
0.0
 40
0.0
 40
0.0
 40
0.0
 40
0.1362573959516068
 40
0.2619540501111126
 40
0.3796376751609875
 40
0.4943790325909159
 40
0.6098662115170786
 40
0.7298874857748547
 40
0.8592125479192387
 40
1.0
 40
1.0
 40
1.0
 40
1.0
 10
9.013967147435894
 20
-15.15824799679488
 30
0.0
 10
9.013559138682462
 20
-15.15683034452138
 30
0.0
 10
9.012774744230352
 20
-15.15410491628243
 30
0.0
 10
9.010951602187818
 20
-15.15040268735101
 30
0.0
 10
9.008674494649961
 20
-15.14724608946845
 30
0.0
 10
9.005894235307972
 20
-15.14467772203453
 30
0.0
 10
9.002660008018369
 20
-15.14266302420043
 30
0.0
 10
8.998950723585835
 20
-15.14126774626464
 30
0.0
 10
8.994801292570378
 20
-15.14040175619425
 30
0.0
 10
8.99187802572115
 20
-15.14031463821254
 30
0.0
 10
8.990354366987177
 20
-15.14026923076924
 30
0.0
  0
SPLINE
  5
9D
330
1F
100
AcDbEntity
  8
0
  6
Continuous
 62
     7
370
    15
100
AcDbSpline
210
0.0
220
0.0
230
1.0
 70
     8
 71
     3
 72
    23
 73
    19
 74
     0
 42
0.000000001
 43
0.00000001
 40
0.0
 40
0.0
 40
0.0
 40
0.0
 40
0.0640199753991795
 40
0.1266938772026719
 40
0.1890843947192382
 40
0.2503626319435354
 40
0.3125164793751725
 40
0.3742426024152347
 40
0.4378501622567361
 40
0.5026573259791224
 40
0.5677454391231833
 40
0.6305759140874002
 40
0.6927720900845532
 40
0.754267545621936
 40
0.8151205536325663
 40
0.8760513585553968
 40
0.9379817981186598
 40
1.0
 40
1.0
 40
1.0
 40
1.0
 10
8.990354366987177
 20
-15.14026923076924
 30
0.0
 10
8.989451946516537
 20
-15.1402862245663
 30
0.0
 10
8.987666079721379
 20
-15.1403198548516
 30
0.0
 10
8.98501791308516
 20
-15.14065749408516
 30
0.0
 10
8.982449017959429
 20
-15.14120923403512
 30
0.0
 10
8.979934654464644
 20
-15.14195582470329
 30
0.0
 10
8.977528111689212
 20
-15.1429717367203
 30
0.0
 10
8.97515924294009
 20
-15.1441478149106
 30
0.0
 10
8.9728951640492
 20
-15.145587395445
 30
0.0
 10
8.970695670589869
 20
-15.14720260142499
 30
0.0
 10
8.968648615827485
 20
-15.14899080712918
 30
0.0
 10
8.966744075989068
 20
-15.15087819837961
 30
0.0
 10
8.965046278126337
 20
-15.15288801853138
 30
0.0
 10
8.963508114162945
 20
-15.15498802267698
 30
0.0
 10
8.962180318246693
 20
-15.15720701530057
 30
0.0
 10
8.961021279600475
 20
-15.15952359810095
 30
0.0
 10
8.960037861872326
 20
-15.16194081758781
 30
0.0
 10
8.959549194291766
 20
-15.16361849836134
 30
0.0
 10
8.959304687499998
 20
-15.16445793269232
 30
0.0
  0
SPLINE
  5
9E
330
1F
100
AcDbEntity
  8
0
  6
Continuous
 62
     7
370
    15
100
AcDbSpline
210
0.0
220
0.0
230
1.0
 70
     8
 71
     3
 72
    15
 73
    11
 74
     0
 42
0.000000001
 43
0.00000001
 40
0.0
 40
0.0
 40
0.0
 40
0.0
 40
0.0759990781975954
 40
0.1656113455724592
 40
0.2690450272476872
 40
0.3874479753729325
 40
0.518826658471931
 40
0.6653935553139365
 40
0.8250827975618086
 40
1.0
 40
1.0
 40
1.0
 40
1.0
 10
8.959304687499998
 20
-15.16445793269232
 30
0.0
 10
8.959163993670114
 20
-15.1650658237965
 30
0.0
 10
8.958857404497797
 20
-15.16639049333345
 30
0.0
 10
8.9585247318805
 20
-15.16857529061673
 30
0.0
 10
8.958226953429945
 20
-15.17111408961696
 30
0.0
 10
8.957975219509768
 20
-15.17400303962786
 30
0.0
 10
8.957820823567443
 20
-15.17725272685132
 30
0.0
 10
8.957654457825567
 20
-15.1808409753902
 30
0.0
 10
8.95759252875472
 20
-15.18479026184763
 30
0.0
 10
8.957582280436718
 20
-15.18753652997044
 30
0.0
 10
8.957576923076921
 20
-15.18897215544873
 30
0.0
  0
LINE
  5
9F
330
1F
100
AcDbEntity
  8
0
  6
Continuous
 62
     7
370
    15
100
AcDbLine
 10
8.9575769231
 20
-15.1889721554
 30
0.0
 11
8.9575769231
 21
-15.222
 31
0.0
  0
SPLINE
  5
A0
330
1F
100
AcDbEntity
  8
0
  6
Continuous
 62
     7
370
    15
100
AcDbSpline
210
0.0
220
0.0
230
1.0
 70
     8
 71
     3
 72
    15
 73
    11
 74
     0
 42
0.000000001
 43
0.00000001
 40
0.0
 40
0.0
 40
0.0
 40
0.0
 40
0.1209110787487132
 40
0.2387622286387419
 40
0.3547548590848818
 40
0.4703593994502336
 40
0.5891440987928677
 40
0.7163289048363731
 40
0.8524452858576093
 40
1.0
 40
1.0
 40
1.0
 40
1.0
 10
8.873342147435896
 20
-15.12905128205129
 30
0.0
 10
8.875022538113734
 20
-15.12909973466851
 30
0.0
 10
8.878340793375173
 20
-15.12919541369966
 30
0.0
 10
8.883224043461903
 20
-15.12994616889192
 30
0.0
 10
8.887936266318226
 20
-15.1311430979402
 30
0.0
 10
8.892504052592402
 20
-15.13285794188699
 30
0.0
 10
8.896964611556733
 20
-15.13519901468466
 30
0.0
 10
8.901303242103518
 20
-15.13828269139932
 30
0.0
 10
8.90553249689548
 20
-15.14213663210403
 30
0.0
 10
8.90814241941504
 20
-15.14509209154572
 30
0.0
 10
8.909499999999998
 20
-15.14662940705129
 30
0.0
  0
LINE
  5
A1
330
1F
100
AcDbEntity
  8
0
  6
Continuous
 62
     7
370
    15
100
AcDbLine
 10
8.9095
 20
-15.1466294071
 30
0.0
 11
8.9095
 21
-15.1306538462
 31
0.0
  0
LINE
  5
A2
330
1F
100
AcDbEntity
  8
0
  6
Continuous
 62
     7
370
    15
100
AcDbLine
 10
8.9095
 20
-15.1306538462
 30
0.0
 11
8.9207179487
 21
-15.1306538462
 31
0.0
  0
LINE
  5
A3
330
1F
100
AcDbEntity
  8
0
  6
Continuous
 62
     7
370
    15
100
AcDbLine
 10
8.9207179487
 20
-15.1306538462
 30
0.0
 11
8.9207179487
 21
-15.2031448317
 31
0.0
  0
SPLINE
  5
A4
330
1F
100
AcDbEntity
  8
0
  6
Continuous
 62
     7
370
    15
100
AcDbSpline
210
0.0
220
0.0
230
1.0
 70
     8
 71
     3
 72
    15
 73
    11
 74
     0
 42
0.000000001
 43
0.00000001
 40
0.0
 40
0.0
 40
0.0
 40
0.0
 40
0.1634452548497995
 40
0.3154887127129219
 40
0.4562908239366381
 40
0.5858641495747969
 40
0.705428685806716
 40
0.813370712982385
 40
0.9117182381600683
 40
1.0
 40
1.0
 40
1.0
 40
1.0
 10
8.920717948717947
 20
-15.20314483173078
 30
0.0
 10
8.920708054340412
 20
-15.20468903153817
 30
0.0
 10
8.920688955808414
 20
-15.20766970913479
 30
0.0
 10
8.920551421120742
 20
-15.21197964769238
 30
0.0
 10
8.920261396934306
 20
-15.21596057931853
 30
0.0
 10
8.91993251545739
 20
-15.21963065998242
 30
0.0
 10
8.919459418445976
 20
-15.22297287819885
 30
0.0
 10
8.918881691044607
 20
-15.22599720693721
 30
0.0
 10
8.918230416789175
 20
-15.22870654845033
 30
0.0
 10
8.917658266165807
 20
-15.23037529277275
 30
0.0
 10
8.917387620192304
 20
-15.23116466346155
 30
0.0
  0
SPLINE
  5
A5
330
1F
100
AcDbEntity
  8
0
  6
Continuous
 62
     7
370
    15
100
AcDbSpline
210
0.0
220
0.0
230
1.0
 70
     8
 71
     3
 72
    23
 73
    19
 74
     0
 42
0.000000001
 43
0.00000001
 40
0.0
 40
0.0
 40
0.0
 40
0.0
 40
0.0613707062984497
 40
0.1209064680177733
 40
0.179423665000025
 40
0.237606687439765
 40
0.2959384682493684
 40
0.3542182268208367
 40
0.4135370665946673
 40
0.4740867825531834
 40
0.5351211890802644
 40
0.5969876649622169
 40
0.6600198335467943
 40
0.7242774964844743
 40
0.7900118502255282
 40
0.8577476843344285
 40
0.9278290322155328
 40
1.0
 40
1.0
 40
1.0
 40
1.0
 10
8.917387620192304
 20
-15.23116466346155
 30
0.0
 10
8.916988004523144
 20
-15.23219073208982
 30
0.0
 10
8.91620072143587
 20
-15.23421219055542
 30
0.0
 10
8.914726234526618
 20
-15.23707770201233
 30
0.0
 10
8.913075023683092
 20
-15.23977578736399
 30
0.0
 10
8.911189068303264
 20
-15.24229141062487
 30
0.0
 10
8.909076896730697
 20
-15.24461194320924
 30
0.0
 10
8.906788272010893
 20
-15.24678780032637
 30
0.0
 10
8.904278622317266
 20
-15.24877294916156
 30
0.0
 10
8.901549382595627
 20
-15.25053313835645
 30
0.0
 10
8.89866346712416
 20
-15.25211839029049
 30
0.0
 10
8.8956225349075
 20
-15.25349148197564
 30
0.0
 10
8.892443733537364
 20
-15.25468744067644
 30
0.0
 10
8.889097201694549
 20
-15.25558325480964
 30
0.0
 10
8.885635407606403
 20
-15.25635949482989
 30
0.0
 10
8.882017642210673
 20
-15.25686466217969
 30
0.0
 10
8.878265042324772
 20
-15.25720848568422
 30
0.0
 10
8.875713421607617
 20
-15.25724027971919
 30
0.0
 10
8.874418870192304
 20
-15.25725641025642
 30
0.0
  0
SPLINE
  5
A6
330
1F
100
AcDbEntity
  8
0
  6
Continuous
 62
     7
370
    15
100
AcDbSpline
210
0.0
220
0.0
230
1.0
 70
     8
 71
     3
 72
    19
 73
    15
 74
     0
 42
0.000000001
 43
0.00000001
 40
0.0
 40
0.0
 40
0.0
 40
0.0
 40
0.0964914237691133
 40
0.1884736749922987
 40
0.2768399149588038
 40
0.362136562171428
 40
0.4434367545654513
 40
0.5201655209986148
 40
0.5927096635689822
 40
0.6629173343528015
 40
0.7354188002027092
 40
0.8148809699994204
 40
0.9030605557399715
 40
1.0
 40
1.0
 40
1.0
 40
1.0
 10
8.874418870192306
 20
-15.25725641025642
 30
0.0
 10
8.872530129670816
 20
-15.25722582147747
 30
0.0
 10
8.86884091198403
 20
-15.25716607337388
 30
0.0
 10
8.863462162245288
 20
-15.25646996926347
 30
0.0
 10
8.85835377939079
 20
-15.25548588451086
 30
0.0
 10
8.853583263080072
 20
-15.25399640495255
 30
0.0
 10
8.849180759620408
 20
-15.25217365531931
 30
0.0
 10
8.845176335494328
 20
-15.25008097842807
 30
0.0
 10
8.841605938797265
 20
-15.2476813602566
 30
0.0
 10
8.83838723619001
 20
-15.24494919593815
 30
0.0
 10
8.835482179399438
 20
-15.24170049302253
 30
0.0
 10
8.832749061900133
 20
-15.23787196287521
 30
0.0
 10
8.830118313976635
 20
-15.23340528826268
 30
0.0
 10
8.82857657690993
 20
-15.23012697707644
 30
0.0
 10
8.827769230769228
 20
-15.22841025641027
 30
0.0
  0
LINE
  5
A7
330
1F
100
AcDbEntity
  8
0
  6
Continuous
 62
     7
370
    15
100
AcDbLine
 10
8.8277692308
 20
-15.2284102564
 30
0.0
 11
8.8389871795
 21
-15.2284102564
 31
0.0
  0
SPLINE
  5
A8
330
1F
100
AcDbEntity
  8
0
  6
Continuous
 62
     7
370
    15
100
AcDbSpline
210
0.0
220
0.0
230
1.0
 70
     8
 71
     3
 72
    15
 73
    11
 74
     0
 42
0.000000001
 43
0.00000001
 40
0.0
 40
0.0
 40
0.0
 40
0.0
 40
0.1247164867022893
 40
0.2438053739154866
 40
0.3600615340644289
 40
0.4751119996584022
 40
0.593525097811884
 40
0.7193501703843518
 40
0.8538547713042708
 40
1.0
 40
1.0
 40
1.0
 40
1.0
 10
8.838987179487178
 20
-15.22841025641027
 30
0.0
 10
8.839889401248085
 20
-15.22984260911642
 30
0.0
 10
8.841653133691077
 20
-15.23264268227706
 30
0.0
 10
8.844951293725606
 20
-15.23626815213187
 30
0.0
 10
8.848565805380877
 20
-15.239366486585
 30
0.0
 10
8.852618651208882
 20
-15.24186329994444
 30
0.0
 10
8.85712669461632
 20
-15.24374579249451
 30
0.0
 10
8.862092647693801
 20
-15.24508776736723
 30
0.0
 10
8.867556919898618
 20
-15.24589120546923
 30
0.0
 10
8.87136114183373
 20
-15.24598803740282
 30
0.0
 10
8.873342147435896
 20
-15.24603846153847
 30
0.0
  0
SPLINE
  5
A9
330
1F
100
AcDbEntity
  8
0
  6
Continuous
 62
     7
370
    15
100
AcDbSpline
210
0.0
220
0.0
230
1.0
 70
     8
 71
     3
 72
    23
 73
    19
 74
     0
 42
0.000000001
 43
0.00000001
 40
0.0
 40
0.0
 40
0.0
 40
0.0
 40
0.0981712978276944
 40
0.1892644356875768
 40
0.2744630560180406
 40
0.3550231712817259
 40
0.430920462042918
 40
0.5010860453857494
 40
0.5666076270375952
 40
0.6297208634282992
 40
0.6627106951128428
 40
0.6987655616315945
 40
0.7386105373889453
 40
0.782581228078431
 40
0.8304087872491374
 40
0.8825778660702764
 40
0.939228681045168
 40
1.0
 40
1.0
 40
1.0
 40
1.0
 10
8.873342147435896
 20
-15.24603846153847
 30
0.0
 10
8.875298107805321
 20
-15.24598738479579
 30
0.0
 10
8.87906900361436
 20
-15.24588891394846
 30
0.0
 10
8.884491545365984
 20
-15.24508740879944
 30
0.0
 10
8.889441364582686
 20
-15.2437455004508
 30
0.0
 10
8.893889943176516
 20
-15.24186662951345
 30
0.0
 10
8.897784792052846
 20
-15.23956482928007
 30
0.0
 10
8.901142363170152
 20
-15.23699339805114
 30
0.0
 10
8.903861815889533
 20
-15.23409407651491
 30
0.0
 10
8.905690850413455
 20
-15.23142329772595
 30
0.0
 10
8.906827801041983
 20
-15.22904386452249
 30
0.0
 10
8.907551809497898
 20
-15.22699555752401
 30
0.0
 10
8.908140165549836
 20
-15.22467938332178
 30
0.0
 10
8.908632302604685
 20
-15.22210310702811
 30
0.0
 10
8.90903840665367
 20
-15.21926304784715
 30
0.0
 10
8.909295652451792
 20
-15.21615271201233
 30
0.0
 10
8.909481574293663
 20
-15.21277916835798
 30
0.0
 10
8.909493716073968
 20
-15.21044012770763
 30
0.0
 10
8.909499999999998
 20
-15.2092295673077
 30
0.0
  0
LINE
  5
AA
330
1F
100
AcDbEntity
  8
0
  6
Continuous
 62
     7
370
    15
100
AcDbLine
 10
8.9095
 20
-15.2092295673
 30
0.0
 11
8.9095
 21
-15.2044969952
 31
0.0
  0
SPLINE
  5
AB
330
1F
100
AcDbEntity
  8
0
  6
Continuous
 62
     7
370
    15
100
AcDbSpline
210
0.0
220
0.0
230
1.0
 70
     8
 71
     3
 72
    15
 73
    11
 74
     0
 42
0.000000001
 43
0.00000001
 40
0.0
 40
0.0
 40
0.0
 40
0.0
 40
0.1265607130145177
 40
0.2508952618879423
 40
0.3747192653150282
 40
0.4998264235934612
 40
0.6249635314328693
 40
0.7490394747387524
 40
0.8731801199413524
 40
1.0
 40
1.0
 40
1.0
 40
1.0
 10
8.909499999999998
 20
-15.20449699519232
 30
0.0
 10
8.908361388664193
 20
-15.20585205955507
 30
0.0
 10
8.90610419381691
 20
-15.20853835311388
 30
0.0
 10
8.902206074990733
 20
-15.2120584115672
 30
0.0
 10
8.897948328003954
 20
-15.21509005907797
 30
0.0
 10
8.893338201489582
 20
-15.21757643888201
 30
0.0
 10
8.888488621412485
 20
-15.21956506118948
 30
0.0
 10
8.883452113183292
 20
-15.22095588122172
 30
0.0
 10
8.878273825497539
 20
-15.22185444907495
 30
0.0
 10
8.874764820146655
 20
-15.22195113894052
 30
0.0
 10
8.87299158653846
 20
-15.22200000000001
 30
0.0
  0
SPLINE
  5
AC
330
1F
100
AcDbEntity
  8
0
  6
Continuous
 62
     7
370
    15
100
AcDbSpline
210
0.0
220
0.0
230
1.0
 70
     8
 71
     3
 72
    31
 73
    27
 74
     0
 42
0.000000001
 43
0.00000001
 40
0.0
 40
0.0
 40
0.0
 40
0.0
 40
0.0428647590311968
 40
0.0852222575672458
 40
0.127202284143745
 40
0.1690253126086085
 40
0.2108820330997188
 40
0.2529626777271299
 40
0.2956282851000604
 40
0.3385532936306227
 40
0.3814632477171933
 40
0.4235815621432759
 40
0.465066165395467
 40
0.5063122188418853
 40
0.5470395054616218
 40
0.5876758328931886
 40
0.628674786297562
 40
0.6699464646027831
 40
0.7110355744560797
 40
0.7519958286352214
 40
0.7926726074835282
 40
0.8334460178854419
 40
0.8741906070422427
 40
0.9154935830294807
 40
0.9574778068391555
 40
1.0
 40
1.0
 40
1.0
 40
1.0
 10
8.87299158653846
 20
-15.22200000000001
 30
0.0
 10
8.87194743405912
 20
-15.22198160619749
 30
0.0
 10
8.86987148557498
 20
-15.22194503626426
 30
0.0
 10
8.866787387459542
 20
-15.22162507992765
 30
0.0
 10
8.863748800376383
 20
-15.22116083913143
 30
0.0
 10
8.860762810961138
 20
-15.22047935916773
 30
0.0
 10
8.857825110494462
 20
-15.21960465464849
 30
0.0
 10
8.85494055363298
 20
-15.21851119969314
 30
0.0
 10
8.852085784827025
 20
-15.21727494546933
 30
0.0
 10
8.84931269561768
 20
-15.21581877391794
 30
0.0
 10
8.846648905234305
 20
-15.21419869153009
 30
0.0
 10
8.844114505765189
 20
-15.21244373114758
 30
0.0
 10
8.84172277222635
 20
-15.2105630779961
 30
0.0
 10
8.839496469031724
 20
-15.2085381872891
 30
0.0
 10
8.837438516479972
 20
-15.20637198969044
 30
0.0
 10
8.835521235478025
 20
-15.20408757708213
 30
0.0
 10
8.83377633022563
 20
-15.20165305060551
 30
0.0
 10
8.832167994895615
 20
-15.19911280212219
 30
0.0
 10
8.830773082382287
 20
-15.19644991198606
 30
0.0
 10
8.82954864053138
 20
-15.19372212286364
 30
0.0
 10
8.82848401892279
 20
-15.1909352673463
 30
0.0
 10
8.82763525457505
 20
-15.18808001510864
 30
0.0
 10
8.826987000529707
 20
-15.18515816622057
 30
0.0
 10
8.826504492422954
 20
-15.18217450733228
 30
0.0
 10
8.826230816292387
 20
-15.1791198506312
 30
0.0
 10
8.826188140433665
 20
-15.17706194530283
 30
0.0
 10
8.826166666666664
 20
-15.1760264423077
 30
0.0
  0
SPLINE
  5
AD
330
1F
100
AcDbEntity
  8
0
  6
Continuous
 62
     7
370
    15
100
AcDbSpline
210
0.0
220
0.0
230
1.0
 70
     8
 71
     3
 72
    31
 73
    27
 74
     0
 42
0.000000001
 43
0.00000001
 40
0.0
 40
0.0
 40
0.0
 40
0.0
 40
0.0420341186638658
 40
0.0839054330862599
 40
0.1250689344486475
 40
0.1661584697031603
 40
0.2072102728707503
 40
0.2484907320562511
 40
0.2898781122328089
 40
0.3321695142040836
 40
0.3744758421539322
 40
0.4162249804562108
 40
0.4576095869585098
 40
0.4990731704672409
 40
0.5405533615534663
 40
0.5822488491953594
 40
0.6245497501260019
 40
0.6674328009210377
 40
0.7103225433055262
 40
0.7524671185698739
 40
0.7940647568438116
 40
0.8352157072950146
 40
0.8762283442246873
 40
0.9174461887061501
 40
0.9586431404713148
 40
1.0
 40
1.0
 40
1.0
 40
1.0
 10
8.826166666666664
 20
-15.1760264423077
 30
0.0
 10
8.826185208319362
 20
-15.17499061745059
 30
0.0
 10
8.826222219810244
 20
-15.17292297963635
 30
0.0
 10
8.826541897644224
 20
-15.16985585872966
 30
0.0
 10
8.826997904409374
 20
-15.16682980747103
 30
0.0
 10
8.827719610444937
 20
-15.1638760166963
 30
0.0
 10
8.82858827196318
 20
-15.16096084699047
 30
0.0
 10
8.829664113840233
 20
-15.15810583069007
 30
0.0
 10
8.830957640959403
 20
-15.15531009822194
 30
0.0
 10
8.832422274876423
 20
-15.15257157924175
 30
0.0
 10
8.834068135328259
 20
-15.14992702156552
 30
0.0
 10
8.835872866785657
 20
-15.14741535564036
 30
0.0
 10
8.83783864800922
 20
-15.14505506378586
 30
0.0
 10
8.839938359281371
 20
-15.14282233443342
 30
0.0
 10
8.84219763846131
 20
-15.14073870967568
 30
0.0
 10
8.844615316759358
 20
-15.13880924664413
 30
0.0
 10
8.847167562482436
 20
-15.13700160284879
 30
0.0
 10
8.84986228569658
 20
-15.13535476937876
 30
0.0
 10
8.85265790671503
 20
-15.13389826057447
 30
0.0
 10
8.855483400207632
 20
-15.13256923925574
 30
0.0
 10
8.858376194315522
 20
-15.13151444927251
 30
0.0
 10
8.861282356437801
 20
-15.13058505287839
 30
0.0
 10
8.864253067679343
 20
-15.12992665304911
 30
0.0
 10
8.867251903165853
 20
-15.12941871583776
 30
0.0
 10
8.87028912951426
 20
-15.12910926151543
 30
0.0
 10
8.872323161480242
 20
-15.12907063348034
 30
0.0
 10
8.873342147435896
 20
-15.12905128205129
 30
0.0
  0
LINE
  5
AE
330
1F
100
AcDbEntity
  8
0
  6
Continuous
 62
     7
370
    15
100
AcDbLine
 10
8.488025641
 20
-15.222
 30
0.0
 11
8.4768076923
 21
-15.222
 31
0.0
  0
LINE
  5
AF
330
1F
100
AcDbEntity
  8
0
  6
Continuous
 62
     7
370
    15
100
AcDbLine
 10
8.4768076923
 20
-15.222
 30
0.0
 11
8.4768076923
 21
-15.1306538462
 31
0.0
  0
LINE
  5
B0
330
1F
100
AcDbEntity
  8
0
  6
Continuous
 62
     7
370
    15
100
AcDbLine
 10
8.4768076923
 20
-15.1306538462
 30
0.0
 11
8.488025641
 21
-15.1306538462
 31
0.0
  0
LINE
  5
B1
330
1F
100
AcDbEntity
  8
0
  6
Continuous
 62
     7
370
    15
100
AcDbLine
 10
8.488025641
 20
-15.1306538462
 30
0.0
 11
8.488025641
 21
-15.1465292468
 31
0.0
  0
SPLINE
  5
B2
330
1F
100
AcDbEntity
  8
0
  6
Continuous
 62
     7
370
    15
100
AcDbSpline
210
0.0
220
0.0
230
1.0
 70
     8
 71
     3
 72
    11
 73
     7
 74
     0
 42
0.000000001
 43
0.00000001
 40
0.0
 40
0.0
 40
0.0
 40
0.0
 40
0.2835948081387193
 40
0.5433948405759728
 40
0.7806456291745855
 40
1.0
 40
1.0
 40
1.0
 40
1.0
 10
8.488025641025638
 20
-15.14652924679488
 30
0.0
 10
8.489035782094
 20
-15.14514040387596
 30
0.0
 10
8.490971309223028
 20
-15.14247924769519
 30
0.0
 10
8.494145082526325
 20
-15.13897245182961
 30
0.0
 10
8.49731565797201
 20
-15.13599644630625
 30
0.0
 10
8.499598993035159
 20
-15.13443420089181
 30
0.0
 10
8.500695913461534
 20
-15.13368369391027
 30
0.0
  0
SPLINE
  5
B3
330
1F
100
AcDbEntity
  8
0
  6
Continuous
 62
     7
370
    15
100
AcDbSpline
210
0.0
220
0.0
230
1.0
 70
     8
 71
     3
 72
    11
 73
     7
 74
     0
 42
0.000000001
 43
0.00000001
 40
0.0
 40
0.0
 40
0.0
 40
0.0
 40
0.2537340756906768
 40
0.5030351201318821
 40
0.7500135973308699
 40
1.0
 40
1.0
 40
1.0
 40
1.0
 10
8.500695913461534
 20
-15.13368369391027
 30
0.0
 10
8.502191079968151
 20
-15.13296921658008
 30
0.0
 10
8.50515529067271
 20
-15.13155274467481
 30
0.0
 10
8.50984883441991
 20
-15.13011583185469
 30
0.0
 10
8.514651501189075
 20
-15.12923279252224
 30
0.0
 10
8.517894651685621
 20
-15.12911202918533
 30
0.0
 10
8.519526041666666
 20
-15.12905128205129
 30
0.0
  0
SPLINE
  5
B4
330
1F
100
AcDbEntity
  8
0
  6
Continuous
 62
     7
370
    15
100
AcDbSpline
210
0.0
220
0.0
230
1.0
 70
     8
 71
     3
 72
    19
 73
    15
 74
     0
 42
0.000000001
 43
0.00000001
 40
0.0
 40
0.0
 40
0.0
 40
0.0
 40
0.0841520188443078
 40
0.1665323202984472
 40
0.2488363311465008
 40
0.3312461454872472
 40
0.4129571090216078
 40
0.4904942776695586
 40
0.5661557919819098
 40
0.6399873346864507
 40
0.716765488271841
 40
0.8021439047100553
 40
0.8958332007101957
 40
1.0
 40
1.0
 40
1.0
 40
1.0
 10
8.519526041666664
 20
-15.12905128205129
 30
0.0
 10
8.520629362972649
 20
-15.12908861386488
 30
0.0
 10
8.522812776509758
 20
-15.12916249151657
 30
0.0
 10
8.526047922584766
 20
-15.1296432070586
 30
0.0
 10
8.529185730150232
 20
-15.1304741418093
 30
0.0
 10
8.532207659769133
 20
-15.13163154623671
 30
0.0
 10
8.53505482688624
 20
-15.1330332136265
 30
0.0
 10
8.53766515537732
 20
-15.13467784605209
 30
0.0
 10
8.540008877098135
 20
-15.13652417017373
 30
0.0
 10
8.542084807501997
 20
-15.13865556063748
 30
0.0
 10
8.543951558408994
 20
-15.14113186772749
 30
0.0
 10
8.54566866007435
 20
-15.14401987661691
 30
0.0
 10
8.547255274802117
 20
-15.14738443594033
 30
0.0
 10
8.548134607260405
 20
-15.14982609811812
 30
0.0
 10
8.54859755608974
 20
-15.15111157852565
 30
0.0
  0
SPLINE
  5
B5
330
1F
100
AcDbEntity
  8
0
  6
Continuous
 62
     7
370
    15
100
AcDbSpline
210
0.0
220
0.0
230
1.0
 70
     8
 71
     3
 72
    19
 73
    15
 74
     0
 42
0.000000001
 43
0.00000001
 40
0.0
 40
0.0
 40
0.0
 40
0.0
 40
0.0717660641583385
 40
0.1412255357663947
 40
0.2091158524974921
 40
0.2748396534685493
 40
0.3394829303752569
 40
0.40247626673542
 40
0.4649418891713196
 40
0.5268326406463878
 40
0.6474148160608402
 40
0.7655615117859577
 40
0.8816150870393318
 40
1.0
 40
1.0
 40
1.0
 40
1.0
 10
8.54859755608974
 20
-15.15111157852565
 30
0.0
 10
8.549087243638159
 20
-15.15022856355154
 30
0.0
 10
8.55005087996397
 20
-15.14849091408906
 30
0.0
 10
8.551668938430852
 20
-15.14603169043746
 30
0.0
 10
8.553364216876508
 20
-15.14373144787155
 30
0.0
 10
8.555151163057243
 20
-15.14158836128691
 30
0.0
 10
8.55702346973012
 20
-15.13961301377212
 30
0.0
 10
8.558989948312268
 20
-15.13779887442732
 30
0.0
 10
8.56103940479168
 20
-15.13613815251002
 30
0.0
 10
8.563889127645712
 20
-15.13419803967025
 30
0.0
 10
8.56759672076666
 20
-15.13213728319301
 30
0.0
 10
8.572271296291587
 20
-15.13035055304984
 30
0.0
 10
8.57713380241977
 20
-15.12924640560845
 30
0.0
 10
8.580434434502179
 20
-15.12911675300717
 30
0.0
 10
8.58210116185897
 20
-15.12905128205129
 30
0.0
  0
SPLINE
  5
B6
330
1F
100
AcDbEntity
  8
0
  6
Continuous
 62
     7
370
    15
100
AcDbSpline
210
0.0
220
0.0
230
1.0
 70
     8
 71
     3
 72
    23
 73
    19
 74
     0
 42
0.000000001
 43
0.00000001
 40
0.0
 40
0.0
 40
0.0
 40
0.0
 40
0.075604330495752
 40
0.1479650154827289
 40
0.2187969985236885
 40
0.2894704453213833
 40
0.3597242180875017
 40
0.429707738753052
 40
0.5004965198485715
 40
0.5744290198679552
 40
0.6139472962286479
 40
0.6571552698260926
 40
0.7039727697209441
 40
0.7549389848168002
 40
0.8097066112894628
 40
0.8688329536985374
 40
0.9323854739325991
 40
1.0
 40
1.0
 40
1.0
 40
1.0
 10
8.58210116185897
 20
-15.12905128205129
 30
0.0
 10
8.58363264267392
 20
-15.12910903993907
 30
0.0
 10
8.586629899325882
 20
-15.12922207773337
 30
0.0
 10
8.590993373101336
 20
-15.13010970178106
 30
0.0
 10
8.595062723291498
 20
-15.13163390346384
 30
0.0
 10
8.598829761724685
 20
-15.13371367619849
 30
0.0
 10
8.602228326489305
 20
-15.13632721845936
 30
0.0
 10
8.605182480388725
 20
-15.13943681980286
 30
0.0
 10
8.607674279079298
 20
-15.14302048491041
 30
0.0
 10
8.609302087639902
 20
-15.14639162736376
 30
0.0
 10
8.61040620421954
 20
-15.14936788925121
 30
0.0
 10
8.611086962588328
 20
-15.1519038282265
 30
0.0
 10
8.611688380269987
 20
-15.1546949551165
 30
0.0
 10
8.612187710457954
 20
-15.15774460731304
 30
0.0
 10
8.612552658747083
 20
-15.16106355760957
 30
0.0
 10
8.612823041443079
 20
-15.16464637460539
 30
0.0
 10
8.61300604407016
 20
-15.1684958428776
 30
0.0
 10
8.613018975222358
 20
-15.17115175360001
 30
0.0
 10
8.613025641025638
 20
-15.17252083333334
 30
0.0
  0
LINE
  5
B7
330
1F
100
AcDbEntity
  8
0
  6
Continuous
 62
     7
370
    15
100
AcDbLine
 10
8.613025641
 20
-15.1725208333
 30
0.0
 11
8.613025641
 21
-15.222
 31
0.0
  0
LINE
  5
B8
330
1F
100
AcDbEntity
  8
0
  6
Continuous
 62
     7
370
    15
100
AcDbLine
 10
8.613025641
 20
-15.222
 30
0.0
 11
8.6018076923
 21
-15.222
 31
0.0
  0
LINE
  5
B9
330
1F
100
AcDbEntity
  8
0
  6
Continuous
 62
     7
370
    15
100
AcDbLine
 10
8.6018076923
 20
-15.222
 30
0.0
 11
8.6018076923
 21
-15.1724707532
 31
0.0
  0
SPLINE
  5
BA
330
1F
100
AcDbEntity
  8
0
  6
Continuous
 62
     7
370
    15
100
AcDbSpline
210
0.0
220
0.0
230
1.0
 70
     8
 71
     3
 72
    23
 73
    19
 74
     0
 42
0.000000001
 43
0.00000001
 40
0.0
 40
0.0
 40
0.0
 40
0.0
 40
0.0783429851936541
 40
0.1505633028794222
 40
0.2161510566599558
 40
0.2756797924514273
 40
0.328707050365463
 40
0.3759044348322103
 40
0.4173018977400294
 40
0.4526927480535562
 40
0.5172652917530083
 40
0.5812165680623083
 40
0.6453218939727893
 40
0.7120244933797467
 40
0.7801300447160381
 40
0.8502182262116608
 40
0.9226485217347328
 40
0.9999999999999999
 40
0.9999999999999999
 40
0.9999999999999999
 40
0.9999999999999999
 10
8.60180769230769
 20
-15.17247075320514
 30
0.0
 10
8.601804910772831
 20
-15.1713021612788
 30
0.0
 10
8.601799565085859
 20
-15.16905630531974
 30
0.0
 10
8.601703363958563
 20
-15.1658330034909
 30
0.0
 10
8.60152210274229
 20
-15.16289484787507
 30
0.0
 10
8.601310151357753
 20
-15.1602458447271
 30
0.0
 10
8.601015729594165
 20
-15.1578798165665
 30
0.0
 10
8.600635517746495
 20
-15.15580151590336
 30
0.0
 10
8.600232743464398
 20
-15.15399459406904
 30
0.0
 10
8.599563600924796
 20
-15.15199152094054
 30
0.0
 10
8.59849403336709
 20
-15.14978187056613
 30
0.0
 10
8.596864837651625
 20
-15.14739888571631
 30
0.0
 10
8.594812333856451
 20
-15.14532457142405
 30
0.0
 10
8.59244232826491
 20
-15.14352391725198
 30
0.0
 10
8.589744169525853
 20
-15.14205985864133
 30
0.0
 10
8.586770429412825
 20
-15.14101428686624
 30
0.0
 10
8.583539570427307
 20
-15.14036704120866
 30
0.0
 10
8.581303042269782
 20
-15.14030254065236
 30
0.0
 10
8.58014803685897
 20
-15.14026923076924
 30
0.0
  0
SPLINE
  5
BB
330
1F
100
AcDbEntity
  8
0
  6
Continuous
 62
     7
370
    15
100
AcDbSpline
210
0.0
220
0.0
230
1.0
 70
     8
 71
     3
 72
    23
 73
    19
 74
     0
 42
0.000000001
 43
0.00000001
 40
0.0
 40
0.0
 40
0.0
 40
0.0
 40
0.0681582441559891
 40
0.1347066022023556
 40
0.201864997603585
 40
0.270788266277461
 40
0.3400242943604928
 40
0.4080827390537302
 40
0.4768131952581504
 40
0.547346064307074
 40
0.5856397954238821
 40
0.6288649531777686
 40
0.6771532033637948
 40
0.7308028113650886
 40
0.7898066155325114
 40
0.8543250087419947
 40
0.9243651340575442
 40
1.0
 40
1.0
 40
1.0
 40
1.0
 10
8.58014803685897
 20
-15.14026923076924
 30
0.0
 10
8.57873125277421
 20
-15.14031980781876
 30
0.0
 10
8.575931148803281
 20
-15.14041976729651
 30
0.0
 10
8.571843810010137
 20
-15.14144026275948
 30
0.0
 10
8.567916273702744
 20
-15.14297884314018
 30
0.0
 10
8.564265733241141
 20
-15.14520857375173
 30
0.0
 10
8.560907597861972
 20
-15.14788030103217
 30
0.0
 10
8.558018327226769
 20
-15.15105707230928
 30
0.0
 10
8.555631463453135
 20
-15.15465099827125
 30
0.0
 10
8.554015250026678
 20
-15.15797766621109
 30
0.0
 10
8.552994203553649
 20
-15.16096586063543
 30
0.0
 10
8.552320027991327
 20
-15.16357648106392
 30
0.0
 10
8.551795621153126
 20
-15.16654367991511
 30
0.0
 10
8.551303816538434
 20
-15.16984751887454
 30
0.0
 10
8.55098282625391
 20
-15.1735107396014
 30
0.0
 10
8.550691098670896
 20
-15.17751639677996
 30
0.0
 10
8.55055463928469
 20
-15.1818765381884
 30
0.0
 10
8.55053555147185
 20
-15.1848989199246
 30
0.0
 10
8.550525641025638
 20
-15.18646814903847
 30
0.0
  0
LINE
  5
BC
330
1F
100
AcDbEntity
  8
0
  6
Continuous
 62
     7
370
    15
100
AcDbLine
 10
8.550525641
 20
-15.186468149
 30
0.0
 11
8.550525641
 21
-15.222
 31
0.0
  0
LINE
  5
BD
330
1F
100
AcDbEntity
  8
0
  6
Continuous
 62
     7
370
    15
100
AcDbLine
 10
8.550525641
 20
-15.222
 30
0.0
 11
8.5393076923
 21
-15.222
 31
0.0
  0
LINE
  5
BE
330
1F
100
AcDbEntity
  8
0
  6
Continuous
 62
     7
370
    15
100
AcDbLine
 10
8.5393076923
 20
-15.222
 30
0.0
 11
8.5393076923
 21
-15.1755506811
 31
0.0
  0
SPLINE
  5
BF
330
1F
100
AcDbEntity
  8
0
  6
Continuous
 62
     7
370
    15
100
AcDbSpline
210
0.0
220
0.0
230
1.0
 70
     8
 71
     3
 72
    23
 73
    19
 74
     0
 42
0.000000001
 43
0.00000001
 40
0.0
 40
0.0
 40
0.0
 40
0.0
 40
0.0825297038220585
 40
0.1587788549175775
 40
0.2277380621151841
 40
0.2899456527966805
 40
0.3454988386981437
 40
0.3938963373401121
 40
0.4363737851900812
 40
0.4721222744615065
 40
0.5363836155048193
 40
0.5990779017254847
 40
0.6619482340244573
 40
0.7263105423531446
 40
0.7917711030502053
 40
0.8586473037978438
 40
0.9273053338076807
 40
1.0
 40
1.0
 40
1.0
 40
1.0
 10
8.53930769230769
 20
-15.17555068108975
 30
0.0
 10
8.53930485548711
 20
-15.17424020541957
 30
0.0
 10
8.539299397729451
 20
-15.17171898194882
 30
0.0
 10
8.539203814968152
 20
-15.16810349354486
 30
0.0
 10
8.539022149907575
 20
-15.16481488354154
 30
0.0
 10
8.538812130323068
 20
-15.16185697411892
 30
0.0
 10
8.538509981090279
 20
-15.1592351409489
 30
0.0
 10
8.538166775300645
 20
-15.1569353281631
 30
0.0
 10
8.537761467781833
 20
-15.15496330133869
 30
0.0
 10
8.537090400473938
 20
-15.15280032330787
 30
0.0
 10
8.536064883749315
 20
-15.1504174332013
 30
0.0
 10
8.534415302964032
 20
-15.14787668244478
 30
0.0
 10
8.532357889378996
 20
-15.14565282181897
 30
0.0
 10
8.529944643812405
 20
-15.14375429508913
 30
0.0
 10
8.527230155162759
 20
-15.14218495647133
 30
0.0
 10
8.524230747991007
 20
-15.14105425105038
 30
0.0
 10
8.520973429675418
 20
-15.14039624070672
 30
0.0
 10
8.518727797321528
 20
-15.14031236582545
 30
0.0
 10
8.517572916666664
 20
-15.14026923076924
 30
0.0
  0
SPLINE
  5
C0
330
1F
100
AcDbEntity
  8
0
  6
Continuous
 62
     7
370
    15
100
AcDbSpline
210
0.0
220
0.0
230
1.0
 70
     8
 71
     3
 72
    23
 73
    19
 74
     0
 42
0.000000001
 43
0.00000001
 40
0.0
 40
0.0
 40
0.0
 40
0.0
 40
0.0686770684130361
 40
0.1368709585090884
 40
0.2061143571452904
 40
0.2775381819697242
 40
0.349771977554899
 40
0.421250836155577
 40
0.4929107569233725
 40
0.567026588992728
 40
0.6066141532413332
 40
0.6497039535189775
 40
0.6973031504846852
 40
0.7490856597091488
 40
0.8048806474593166
 40
0.8654850057023216
 40
0.9302371271531199
 40
1.0
 40
1.0
 40
1.0
 40
1.0
 10
8.517572916666664
 20
-15.14026923076924
 30
0.0
 10
8.51621519482906
 20
-15.14032389005557
 30
0.0
 10
8.513509303421696
 20
-15.14043282407216
 30
0.0
 10
8.509534233076872
 20
-15.14141333385247
 30
0.0
 10
8.505695458661952
 20
-15.14294919366527
 30
0.0
 10
8.502054219419332
 20
-15.14507990148978
 30
0.0
 10
8.498708714122682
 20
-15.14771915429681
 30
0.0
 10
8.495779847433598
 20
-15.15082325771723
 30
0.0
 10
8.493317614379164
 20
-15.15435358034267
 30
0.0
 10
8.491684335275519
 20
-15.15764517021822
 30
0.0
 10
8.490630818342604
 20
-15.16055850146455
 30
0.0
 10
8.489930984961267
 20
-15.16303532102433
 30
0.0
 10
8.489329569753696
 20
-15.16578532989156
 30
0.0
 10
8.488882640407116
 20
-15.16881701243028
 30
0.0
 10
8.48845119699256
 20
-15.17211062293512
 30
0.0
 10
8.488242971668365
 20
-15.17568256899618
 30
0.0
 10
8.488040415877142
 20
-15.17952978641411
 30
0.0
 10
8.488030686780721
 20
-15.18218594874417
 30
0.0
 10
8.488025641025638
 20
-15.18356350160257
 30
0.0
  0
LINE
  5
C1
330
1F
100
AcDbEntity
  8
0
  6
Continuous
 62
     7
370
    15
100
AcDbLine
 10
8.488025641
 20
-15.1835635016
 30
0.0
 11
8.488025641
 21
-15.222
 31
0.0
  0
LINE
  5
C2
330
1F
100
AcDbEntity
  8
0
  6
Continuous
 62
     7
370
    15
100
AcDbLine
 10
9.0473205128
 20
-15.1306538462
 30
0.0
 11
9.0633461538
 21
-15.1306538462
 31
0.0
  0
LINE
  5
C3
330
1F
100
AcDbEntity
  8
0
  6
Continuous
 62
     7
370
    15
100
AcDbLine
 10
9.0633461538
 20
-15.1306538462
 30
0.0
 11
9.0633461538
 21
-15.0937948718
 31
0.0
  0
LINE
  5
C4
330
1F
100
AcDbEntity
  8
0
  6
Continuous
 62
     7
370
    15
100
AcDbLine
 10
9.0633461538
 20
-15.0937948718
 30
0.0
 11
9.0745641026
 21
-15.0937948718
 31
0.0
  0
LINE
  5
C5
330
1F
100
AcDbEntity
  8
0
  6
Continuous
 62
     7
370
    15
100
AcDbLine
 10
9.0745641026
 20
-15.0937948718
 30
0.0
 11
9.0745641026
 21
-15.1306538462
 31
0.0
  0
LINE
  5
C6
330
1F
100
AcDbEntity
  8
0
  6
Continuous
 62
     7
370
    15
100
AcDbLine
 10
9.0745641026
 20
-15.1306538462
 30
0.0
 11
9.0905897436
 21
-15.1306538462
 31
0.0
  0
LINE
  5
C7
330
1F
100
AcDbEntity
  8
0
  6
Continuous
 62
     7
370
    15
100
AcDbLine
 10
9.0905897436
 20
-15.1306538462
 30
0.0
 11
9.0905897436
 21
-15.1418717949
 31
0.0
  0
LINE
  5
C8
330
1F
100
AcDbEntity
  8
0
  6
Continuous
 62
     7
370
    15
100
AcDbLine
 10
9.0905897436
 20
-15.1418717949
 30
0.0
 11
9.0745641026
 21
-15.1418717949
 31
0.0
  0
LINE
  5
C9
330
1F
100
AcDbEntity
  8
0
  6
Continuous
 62
     7
370
    15
100
AcDbLine
 10
9.0745641026
 20
-15.1418717949
 30
0.0
 11
9.0745641026
 21
-15.222
 31
0.0
  0
LINE
  5
CA
330
1F
100
AcDbEntity
  8
0
  6
Continuous
 62
     7
370
    15
100
AcDbLine
 10
9.0745641026
 20
-15.222
 30
0.0
 11
9.0633461538
 21
-15.222
 31
0.0
  0
LINE
  5
CB
330
1F
100
AcDbEntity
  8
0
  6
Continuous
 62
     7
370
    15
100
AcDbLine
 10
9.0633461538
 20
-15.222
 30
0.0
 11
9.0633461538
 21
-15.1418717949
 31
0.0
  0
LINE
  5
CC
330
1F
100
AcDbEntity
  8
0
  6
Continuous
 62
     7
370
    15
100
AcDbLine
 10
9.0633461538
 20
-15.1418717949
 30
0.0
 11
9.0473205128
 21
-15.1418717949
 31
0.0
  0
LINE
  5
CD
330
1F
100
AcDbEntity
  8
0
  6
Continuous
 62
     7
370
    15
100
AcDbLine
 10
9.0473205128
 20
-15.1418717949
 30
0.0
 11
9.0473205128
 21
-15.1306538462
 31
0.0
  0
LINE
  5
CE
330
1F
100
AcDbEntity
  8
0
  6
Continuous
 62
     7
370
    15
100
AcDbLine
 10
-9.897
 20
15.947
 30
0.0
 11
-9.897
 21
-15.947
 31
0.0
  0
LINE
  5
CF
330
1F
100
AcDbEntity
  8
0
  6
Continuous
 62
     7
370
    15
100
AcDbLine
 10
-9.897
 20
-15.947
 30
0.0
 11
9.897
 21
-15.947
 31
0.0
  0
LINE
  5
D0
330
1F
100
AcDbEntity
  8
0
  6
Continuous
 62
     7
370
    15
100
AcDbLine
 10
9.897
 20
-15.947
 30
0.0
 11
9.897
 21
15.947
 31
0.0
  0
LINE
  5
D1
330
1F
100
AcDbEntity
  8
0
  6
Continuous
 62
     7
370
    15
100
AcDbLine
 10
9.897
 20
15.947
 30
0.0
 11
-9.897
 21
15.947
 31
0.0
  0
CIRCLE
  5
D2
330
1F
100
AcDbEntity
  8
0
  6
Continuous
 62
     7
370
    15
100
AcDbCircle
 10
6.515
 20
15.557
 30
0.0
 40
0.1500000000000004
  0
CIRCLE
  5
D3
330
1F
100
AcDbEntity
  8
0
  6
Continuous
 62
     7
370
    15
100
AcDbCircle
 10
6.515
 20
-15.072
 30
0.0
 40
0.1500000000000004
  0
CIRCLE
  5
D4
330
1F
100
AcDbEntity
  8
0
  6
Continuous
 62
     7
370
    15
100
AcDbCircle
 10
-6.501
 20
-15.072
 30
0.0
 40
0.1499999999999995
  0
CIRCLE
  5
D5
330
1F
100
AcDbEntity
  8
0
  6
Continuous
 62
     7
370
    15
100
AcDbCircle
 10
-6.501
 20
15.557
 30
0.0
 40
0.1499999999999986
  0
LINE
  5
D6
330
1F
100
AcDbEntity
  8
0
  6
Continuous
 62
     7
370
    15
100
AcDbLine
 10
8.7011666667
 20
-15.222
 30
0.0
 11
8.6899487179
 21
-15.222
 31
0.0
  0
LINE
  5
D7
330
1F
100
AcDbEntity
  8
0
  6
Continuous
 62
     7
370
    15
100
AcDbLine
 10
8.6899487179
 20
-15.222
 30
0.0
 11
8.6899487179
 21
-15.097
 31
0.0
  0
LINE
  5
D8
330
1F
100
AcDbEntity
  8
0
  6
Continuous
 62
     7
370
    15
100
AcDbLine
 10
8.6899487179
 20
-15.097
 30
0.0
 11
8.714963742
 21
-15.097
 31
0.0
  0
SPLINE
  5
D9
330
1F
100
AcDbEntity
  8
0
  6
Continuous
 62
     7
370
    15
100
AcDbSpline
210
0.0
220
0.0
230
1.0
 70
     8
 71
     3
 72
    15
 73
    11
 74
     0
 42
0.000000001
 43
0.00000001
 40
0.0
 40
0.0
 40
0.0
 40
0.0
 40
0.1762577548177928
 40
0.3384344138804755
 40
0.484822050787826
 40
0.6171575782663268
 40
0.7346983606124522
 40
0.8373851838323376
 40
0.9263724209295812
 40
1.0
 40
1.0
 40
1.0
 40
1.0
 10
8.714963741987177
 20
-15.09700000000001
 30
0.0
 10
8.71663306800552
 20
-15.09700555664244
 30
0.0
 10
8.71983835887727
 20
-15.09701622601143
 30
0.0
 10
8.724430261390118
 20
-15.09707571754387
 30
0.0
 10
8.72860265771155
 20
-15.09724623024773
 30
0.0
 10
8.732353366258591
 20
-15.09739296537191
 30
0.0
 10
8.735682318222029
 20
-15.09766053470488
 30
0.0
 10
8.738599721463029
 20
-15.09791627210202
 30
0.0
 10
8.74109213923093
 20
-15.09825104570126
 30
0.0
 10
8.742600919634596
 20
-15.09856195366433
 30
0.0
 10
8.743284054487177
 20
-15.09870272435898
 30
0.0
  0
SPLINE
  5
DA
330
1F
100
AcDbEntity
  8
0
  6
Continuous
 62
     7
370
    15
100
AcDbSpline
210
0.0
220
0.0
230
1.0
 70
     8
 71
     3
 72
    23
 73
    19
 74
     0
 42
0.000000001
 43
0.00000001
 40
0.0
 40
0.0
 40
0.0
 40
0.0
 40
0.0642168426314148
 40
0.1270637656931158
 40
0.1887445383478097
 40
0.249132102835031
 40
0.3094525327106281
 40
0.369826676247687
 40
0.4306501418384599
 40
0.4923519318794611
 40
0.554072106262513
 40
0.6156897837449767
 40
0.6767977025065357
 40
0.7384390482469548
 40
0.8013169100648777
 40
0.8651845117115425
 40
0.9316413244190799
 40
1.0
 40
1.0
 40
1.0
 40
1.0
 10
8.743284054487177
 20
-15.09870272435898
 30
0.0
 10
8.74419857677778
 20
-15.0989286802649
 30
0.0
 10
8.746008112116057
 20
-15.09937577182389
 30
0.0
 10
8.748613471617476
 20
-15.10032075756759
 30
0.0
 10
8.75109612604433
 20
-15.10141431558991
 30
0.0
 10
8.753445762627246
 20
-15.10269873417269
 30
0.0
 10
8.755650612312618
 20
-15.10418354773243
 30
0.0
 10
8.757733409126715
 20
-15.10584312353369
 30
0.0
 10
8.759703604247427
 20
-15.10766838088262
 30
0.0
 10
8.761481519611012
 20
-15.10970533950773
 30
0.0
 10
8.763157914314386
 20
-15.11184235771058
 30
0.0
 10
8.764571793832266
 20
-15.11415320616919
 30
0.0
 10
8.765790596679496
 20
-15.11656968929505
 30
0.0
 10
8.766760972286647
 20
-15.11911638278632
 30
0.0
 10
8.767542328482115
 20
-15.12176858892427
 30
0.0
 10
8.768093265602504
 20
-15.12455033166452
 30
0.0
 10
8.76842366516075
 20
-15.12744893791753
 30
0.0
 10
8.76845730285909
 20
-15.12942600608865
 30
0.0
 10
8.768474358974357
 20
-15.13042848557693
 30
0.0
  0
SPLINE
  5
DB
330
1F
100
AcDbEntity
  8
0
  6
Continuous
 62
     7
370
    15
100
AcDbSpline
210
0.0
220
0.0
230
1.0
 70
     8
 71
     3
 72
    23
 73
    19
 74
     0
 42
0.000000001
 43
0.00000001
 40
0.0
 40
0.0
 40
0.0
 40
0.0
 40
0.0787802355821373
 40
0.1537206442085817
 40
0.226713530308799
 40
0.2991911660659523
 40
0.3711899968376727
 40
0.4430064143534246
 40
0.5166891732948817
 40
0.5932172166234119
 40
0.6338729178078402
 40
0.6769891422899752
 40
0.7228995063258226
 40
0.7719586105061349
 40
0.8242113233348398
 40
0.8793786506272069
 40
0.9379481193304096
 40
1.0
 40
1.0
 40
1.0
 40
1.0
 10
8.768474358974357
 20
-15.13042848557693
 30
0.0
 10
8.768421894756198
 20
-15.13209402502732
 30
0.0
 10
8.768319523477995
 20
-15.13534392388047
 30
0.0
 10
8.76736505548942
 20
-15.14006038393078
 30
0.0
 10
8.765801608356256
 20
-15.1444600023108
 30
0.0
 10
8.763647205177348
 20
-15.14853723937921
 30
0.0
 10
8.760903652473294
 20
-15.15221261957064
 30
0.0
 10
8.757606338505319
 20
-15.15544085011721
 30
0.0
 10
8.753753423809256
 20
-15.15814227556688
 30
0.0
 10
8.75016666252572
 20
-15.16001559002051
 30
0.0
 10
8.746998298250837
 20
-15.16121533675711
 30
0.0
 10
8.744389965651266
 20
-15.16205949243064
 30
0.0
 10
8.741544716454985
 20
-15.16271170547625
 30
0.0
 10
8.738489811647636
 20
-15.16329599589663
 30
0.0
 10
8.735212538237198
 20
-15.16373712783989
 30
0.0
 10
8.731720751116159
 20
-15.16406022049952
 30
0.0
 10
8.728011959986508
 20
-15.16426215081017
 30
0.0
 10
8.72546413608104
 20
-15.16429222241335
 30
0.0
 10
8.724153445512819
 20
-15.16430769230771
 30
0.0
  0
LINE
  5
DC
330
1F
100
AcDbEntity
  8
0
  6
Continuous
 62
     7
370
    15
100
AcDbLine
 10
8.7241534455
 20
-15.1643076923
 30
0.0
 11
8.7700769231
 21
-15.222
 31
0.0
  0
LINE
  5
DD
330
1F
100
AcDbEntity
  8
0
  6
Continuous
 62
     7
370
    15
100
AcDbLine
 10
8.7700769231
 20
-15.222
 30
0.0
 11
8.7562047276
 21
-15.222
 31
0.0
  0
LINE
  5
DE
330
1F
100
AcDbEntity
  8
0
  6
Continuous
 62
     7
370
    15
100
AcDbLine
 10
8.7562047276
 20
-15.222
 30
0.0
 11
8.71028125
 21
-15.1643076923
 31
0.0
  0
LINE
  5
DF
330
1F
100
AcDbEntity
  8
0
  6
Continuous
 62
     7
370
    15
100
AcDbLine
 10
8.71028125
 20
-15.1643076923
 30
0.0
 11
8.7011666667
 21
-15.1643076923
 31
0.0
  0
LINE
  5
E0
330
1F
100
AcDbEntity
  8
0
  6
Continuous
 62
     7
370
    15
100
AcDbLine
 10
8.7011666667
 20
-15.1643076923
 30
0.0
 11
8.7011666667
 21
-15.222
 31
0.0
  0
LINE
  5
E1
330
1F
100
AcDbEntity
  8
0
  6
Continuous
 62
     7
370
    15
100
AcDbLine
 10
8.8021282051
 20
-15.222
 30
0.0
 11
8.7909102564
 21
-15.222
 31
0.0
  0
LINE
  5
E2
330
1F
100
AcDbEntity
  8
0
  6
Continuous
 62
     7
370
    15
100
AcDbLine
 10
8.7909102564
 20
-15.222
 30
0.0
 11
8.7909102564
 21
-15.1306538462
 31
0.0
  0
LINE
  5
E3
330
1F
100
AcDbEntity
  8
0
  6
Continuous
 62
     7
370
    15
100
AcDbLine
 10
8.7909102564
 20
-15.1306538462
 30
0.0
 11
8.8021282051
 21
-15.1306538462
 31
0.0
  0
LINE
  5
E4
330
1F
100
AcDbEntity
  8
0
  6
Continuous
 62
     7
370
    15
100
AcDbLine
 10
8.8021282051
 20
-15.1306538462
 30
0.0
 11
8.8021282051
 21
-15.222
 31
0.0
  0
SPLINE
  5
E5
330
1F
100
AcDbEntity
  8
0
  6
Continuous
 62
     7
370
    15
100
AcDbSpline
210
0.0
220
0.0
230
1.0
 70
     8
 71
     3
 72
    15
 73
    11
 74
     0
 42
0.000000001
 43
0.00000001
 40
0.0
 40
0.0
 40
0.0
 40
0.0
 40
0.131866751702324
 40
0.2566614034533538
 40
0.3842132129424529
 40
0.5133652331526032
 40
0.6404431518253837
 40
0.7610850047778349
 40
0.8791455246531155
 40
1.0
 40
1.0
 40
1.0
 40
1.0
 10
8.796469150641023
 20
-15.11142307692309
 30
0.0
 10
8.795780997956497
 20
-15.1113920154866
 30
0.0
 10
8.794441598665008
 20
-15.11133155845873
 30
0.0
 10
8.792499925724224
 20
-15.11077548639673
 30
0.0
 10
8.79072033681731
 20
-15.10986776950027
 30
0.0
 10
8.789125169936655
 20
-15.10864540574687
 30
0.0
 10
8.78779552018194
 20
-15.10718308798867
 30
0.0
 10
8.786827722846347
 20
-15.10552854177948
 30
0.0
 10
8.786217902779
 20
-15.10373535768598
 30
0.0
 10
8.786141308899907
 20
-15.10248849460351
 30
0.0
 10
8.786102564102562
 20
-15.10185777243591
 30
0.0
  0
SPLINE
  5
E6
330
1F
100
AcDbEntity
  8
0
  6
Continuous
 62
     7
370
    15
100
AcDbSpline
210
0.0
220
0.0
230
1.0
 70
     8
 71
     3
 72
    15
 73
    11
 74
     0
 42
0.000000001
 43
0.00000001
 40
0.0
 40
0.0
 40
0.0
 40
0.0
 40
0.1232898687278309
 40
0.2421490813339385
 40
0.3634374760537135
 40
0.4897453933413356
 40
0.6181148445930353
 40
0.7448937812572421
 40
0.8689322665891784
 40
1.0
 40
1.0
 40
1.0
 40
1.0
 10
8.786102564102562
 20
-15.10185777243591
 30
0.0
 10
8.786140460053163
 20
-15.10121024209295
 30
0.0
 10
8.786214890091243
 20
-15.09993845164252
 30
0.0
 10
8.786828179953336
 20
-15.0981136290384
 30
0.0
 10
8.787787458801967
 20
-15.09643571825971
 30
0.0
 10
8.78912605035674
 20
-15.09497052185164
 30
0.0
 10
8.790720102509253
 20
-15.09374747060988
 30
0.0
 10
8.792499986265202
 20
-15.09283993555624
 30
0.0
 10
8.794441582671581
 20
-15.09228381629302
 30
0.0
 10
8.795780992528313
 20
-15.09222336578107
 30
0.0
 10
8.796469150641023
 20
-15.09219230769232
 30
0.0
  0
SPLINE
  5
E7
330
1F
100
AcDbEntity
  8
0
  6
Continuous
 62
     7
370
    15
100
AcDbSpline
210
0.0
220
0.0
230
1.0
 70
     8
 71
     3
 72
    15
 73
    11
 74
     0
 42
0.000000001
 43
0.00000001
 40
0.0
 40
0.0
 40
0.0
 40
0.0
 40
0.1318992643310741
 40
0.2582840923170185
 40
0.3843411247791096
 40
0.5119796151257316
 40
0.6386320084211757
 40
0.7592297631646272
 40
0.877412168035174
 40
1.0
 40
1.0
 40
1.0
 40
1.0
 10
8.796469150641023
 20
-15.09219230769232
 30
0.0
 10
8.79716526906203
 20
-15.09222459884931
 30
0.0
 10
8.798528402627833
 20
-15.09228783113658
 30
0.0
 10
8.800499590759124
 20
-15.09282931246081
 30
0.0
 10
8.802294484047533
 20
-15.09374715836955
 30
0.0
 10
8.803886545936452
 20
-15.09497857554457
 30
0.0
 10
8.805252684746492
 20
-15.09642676995383
 30
0.0
 10
8.806209138688466
 20
-15.09811466167866
 30
0.0
 10
8.806823867121159
 20
-15.09993818449255
 30
0.0
 10
8.806898101238213
 20
-15.1012101519633
 30
0.0
 10
8.806935897435896
 20
-15.10185777243591
 30
0.0
  0
SPLINE
  5
E8
330
1F
100
AcDbEntity
  8
0
  6
Continuous
 62
     7
370
    15
100
AcDbSpline
210
0.0
220
0.0
230
1.0
 70
     8
 71
     3
 72
    15
 73
    11
 74
     0
 42
0.000000001
 43
0.00000001
 40
0.0
 40
0.0
 40
0.0
 40
0.0
 40
0.120162134992632
 40
0.2375463202769172
 40
0.3574970509273516
 40
0.4849171224652741
 40
0.6133292680851391
 40
0.7401503701286616
 40
0.8673012545632813
 40
1.0
 40
1.0
 40
1.0
 40
1.0
 10
8.806935897435896
 20
-15.10185777243591
 30
0.0
 10
8.80689724887072
 20
-15.10248858147745
 30
0.0
 10
8.806820845231242
 20
-15.1037356162994
 30
0.0
 10
8.806209613507983
 20
-15.10552752601557
 30
0.0
 10
8.805244533585038
 20
-15.1071919647114
 30
0.0
 10
8.803887421955531
 20
-15.10863734721898
 30
0.0
 10
8.802294251919749
 20
-15.10986808364721
 30
0.0
 10
8.800499652425101
 20
-15.11078611003668
 30
0.0
 10
8.798528386406726
 20
-15.11132754351402
 30
0.0
 10
8.797165263578574
 20
-15.11139078239755
 30
0.0
 10
8.796469150641023
 20
-15.11142307692309
 30
0.0
  0
SPLINE
  5
E9
330
1F
100
AcDbEntity
  8
0
  6
Continuous
 62
     7
370
    15
100
AcDbSpline
210
0.0
220
0.0
230
1.0
 70
     8
 71
     3
 72
    15
 73
    11
 74
     0
 42
0.000000001
 43
0.00000001
 40
0.0
 40
0.0
 40
0.0
 40
0.0
 40
0.1289191318119413
 40
0.255237724924851
 40
0.3786785959785117
 40
0.5010878871851138
 40
0.6227136794297735
 40
0.7462407949383875
 40
0.8715890472316684
 40
1.0
 40
1.0
 40
1.0
 40
1.0
 10
8.130653846153844
 20
-15.17657732371796
 30
0.0
 10
8.13069396438076
 20
-15.17504816136464
 30
0.0
 10
8.130773391575325
 20
-15.17202068270715
 30
0.0
 10
8.13135626689941
 20
-15.16755900196962
 30
0.0
 10
8.132333358202427
 20
-15.1632483809316
 30
0.0
 10
8.133716622361518
 20
-15.15910818536075
 30
0.0
 10
8.13548502203621
 20
-15.15511691978791
 30
0.0
 10
8.137640782319933
 20
-15.15128103296696
 30
0.0
 10
8.140204733482095
 20
-15.14760289723558
 30
0.0
 10
8.142176231751103
 20
-15.14532710866315
 30
0.0
 10
8.143173878205126
 20
-15.14417548076924
 30
0.0
  0
SPLINE
  5
EA
330
1F
100
AcDbEntity
  8
0
  6
Continuous
 62
     7
370
    15
100
AcDbSpline
210
0.0
220
0.0
230
1.0
 70
     8
 71
     3
 72
    15
 73
    11
 74
     0
 42
0.000000001
 43
0.00000001
 40
0.0
 40
0.0
 40
0.0
 40
0.0
 40
0.1284975211375097
 40
0.2527129855154475
 40
0.3748191325670444
 40
0.4964364263727399
 40
0.6179105567458426
 40
0.7412876173092912
 40
0.8687004007446185
 40
1.0
 40
1.0
 40
1.0
 40
1.0
 10
8.143173878205126
 20
-15.14417548076924
 30
0.0
 10
8.144332756456055
 20
-15.14296209008161
 30
0.0
 10
8.146611894450693
 20
-15.1405757437883
 30
0.0
 10
8.150445777583842
 20
-15.1375210107852
 30
0.0
 10
8.154463414052074
 20
-15.13488115100445
 30
0.0
 10
8.158739304271268
 20
-15.13275700045257
 30
0.0
 10
8.163227977769694
 20
-15.13108419624806
 30
0.0
 10
8.167950093574259
 20
-15.12992114213681
 30
0.0
 10
8.17288850484067
 20
-15.12916209374506
 30
0.0
 10
8.176265634165512
 20
-15.12908858739487
 30
0.0
 10
8.17797956730769
 20
-15.12905128205129
 30
0.0
  0
SPLINE
  5
EB
330
1F
100
AcDbEntity
  8
0
  6
Continuous
 62
     7
370
    15
100
AcDbSpline
210
0.0
220
0.0
230
1.0
 70
     8
 71
     3
 72
    15
 73
    11
 74
     0
 42
0.000000001
 43
0.00000001
 40
0.0
 40
0.0
 40
0.0
 40
0.0
 40
0.1317514273024145
 40
0.2583323505141761
 40
0.3821339760925386
 40
0.5038043916000909
 40
0.6246929865409223
 40
0.7468705897275739
 40
0.8715135042348039
 40
1.0
 40
1.0
 40
1.0
 40
1.0
 10
8.17797956730769
 20
-15.12905128205129
 30
0.0
 10
8.179693541337805
 20
-15.12908777816339
 30
0.0
 10
8.183054225536724
 20
-15.12915933812002
 30
0.0
 10
8.1879759357467
 20
-15.1299241583219
 30
0.0
 10
8.192673976315858
 20
-15.13109370704997
 30
0.0
 10
8.197166340321692
 20
-15.13271054855262
 30
0.0
 10
8.201395493730727
 20
-15.13487776107215
 30
0.0
 10
8.205423038163147
 20
-15.13746380718376
 30
0.0
 10
8.209237931337611
 20
-15.14052747123963
 30
0.0
 10
8.211524468096796
 20
-15.14289740225302
 30
0.0
 10
8.212685096153844
 20
-15.14410036057693
 30
0.0
  0
SPLINE
  5
EC
330
1F
100
AcDbEntity
  8
0
  6
Continuous
 62
     7
370
    15
100
AcDbSpline
210
0.0
220
0.0
230
1.0
 70
     8
 71
     3
 72
    15
 73
    11
 74
     0
 42
0.000000001
 43
0.00000001
 40
0.0
 40
0.0
 40
0.0
 40
0.0
 40
0.1281572795931941
 40
0.2538343627966975
 40
0.3765056225222149
 40
0.4985336856679058
 40
0.6213677287324637
 40
0.744564744904374
 40
0.87063379825533
 40
1.0
 40
1.0
 40
1.0
 40
1.0
 10
8.212685096153844
 20
-15.14410036057693
 30
0.0
 10
8.213684451656162
 20
-15.14525086006942
 30
0.0
 10
8.215663822378948
 20
-15.14752959371996
 30
0.0
 10
8.218201883764282
 20
-15.15122443704004
 30
0.0
 10
8.22038836805562
 20
-15.15505086920403
 30
0.0
 10
8.22214061666229
 20
-15.15905970229944
 30
0.0
 10
8.223522224651045
 20
-15.16321594055491
 30
0.0
 10
8.224503142374452
 20
-15.16753386952488
 30
0.0
 10
8.225086604336605
 20
-15.17200395335214
 30
0.0
 10
8.22516528172738
 20
-15.17503980471204
 30
0.0
 10
8.225205128205126
 20
-15.17657732371796
 30
0.0
  0
SPLINE
  5
ED
330
1F
100
AcDbEntity
  8
0
  6
Continuous
 62
     7
370
    15
100
AcDbSpline
210
0.0
220
0.0
230
1.0
 70
     8
 71
     3
 72
    23
 73
    19
 74
     0
 42
0.000000001
 43
0.00000001
 40
0.0
 40
0.0
 40
0.0
 40
0.0
 40
0.0624160261588335
 40
0.12333697853734
 40
0.1832651398531059
 40
0.243172443069717
 40
0.3028983539197397
 40
0.3637735975039139
 40
0.4256053049523866
 40
0.4896590425101879
 40
0.5537845767921186
 40
0.6162215328110824
 40
0.6778544713083372
 40
0.7395168974879323
 40
0.8020965355763683
 40
0.8658658412779717
 40
0.9315077951965028
 40
1.0
 40
1.0
 40
1.0
 40
1.0
 10
8.225205128205126
 20
-15.17657732371796
 30
0.0
 10
8.225170080443771
 20
-15.1781237543493
 30
0.0
 10
8.225100824432841
 20
-15.18117957339652
 30
0.0
 10
8.224445695276017
 20
-15.18568026503183
 30
0.0
 10
8.22342672792326
 20
-15.19004436584202
 30
0.0
 10
8.22196844798829
 20
-15.19425360490461
 30
0.0
 10
8.220098515514593
 20
-15.19832084874073
 30
0.0
 10
8.21781670524554
 20
-15.20222833264391
 30
0.0
 10
8.215107004632978
 20
-15.20598376597509
 30
0.0
 10
8.212035433320178
 20
-15.20955526019839
 30
0.0
 10
8.208640723457627
 20
-15.21284691072672
 30
0.0
 10
8.204958003874806
 20
-15.2157157774965
 30
0.0
 10
8.20105964552656
 20
-15.21817368908108
 30
0.0
 10
8.196893811481031
 20
-15.22015356106731
 30
0.0
 10
8.192498544094185
 20
-15.22171462179273
 30
0.0
 10
8.187864363090434
 20
-15.22281105095096
 30
0.0
 10
8.1829984677221
 20
-15.22347396822868
 30
0.0
 10
8.179676066959024
 20
-15.22355909584514
 30
0.0
 10
8.17797956730769
 20
-15.22360256410257
 30
0.0
  0
SPLINE
  5
EE
330
1F
100
AcDbEntity
  8
0
  6
Continuous
 62
     7
370
    15
100
AcDbSpline
210
0.0
220
0.0
230
1.0
 70
     8
 71
     3
 72
    23
 73
    19
 74
     0
 42
0.000000001
 43
0.00000001
 40
0.0
 40
0.0
 40
0.0
 40
0.0
 40
0.068742261605482
 40
0.1346351922242747
 40
0.198324187067135
 40
0.2608250125604121
 40
0.3227135881590274
 40
0.3845545346076069
 40
0.4469128577247402
 40
0.5109576325148231
 40
0.5749307010013294
 40
0.6366845377960884
 40
0.6974831152940666
 40
0.7571338075238463
 40
0.8169656636752506
 40
0.8768183516571832
 40
0.937662580383987
 40
1.0
 40
1.0
 40
1.0
 40
1.0
 10
8.17797956730769
 20
-15.22360256410257
 30
0.0
 10
8.176274755896657
 20
-15.22355894995194
 30
0.0
 10
8.172935796620806
 20
-15.22347352943454
 30
0.0
 10
8.16805272583783
 20
-15.22281362647991
 30
0.0
 10
8.163410239447298
 20
-15.22171512710242
 30
0.0
 10
8.15900921807161
 20
-15.2201484309335
 30
0.0
 10
8.154825473537493
 20
-15.21817362579959
 30
0.0
 10
8.150904527217874
 20
-15.21572320831465
 30
0.0
 10
8.147218815949449
 20
-15.21284605991329
 30
0.0
 10
8.1438233879346
 20
-15.20955549073293
 30
0.0
 10
8.140752009172953
 20
-15.20598370657837
 30
0.0
 10
8.138042258874693
 20
-15.20222834806074
 30
0.0
 10
8.135760461512191
 20
-15.1983208447237
 30
0.0
 10
8.13389052565926
 20
-15.19425360597582
 30
0.0
 10
8.132432246626472
 20
-15.19004436555479
 30
0.0
 10
8.131413279031175
 20
-15.18568026510979
 30
0.0
 10
8.130758149939531
 20
-15.18117957337634
 30
0.0
 10
8.1306888939197
 20
-15.17812375434252
 30
0.0
 10
8.130653846153844
 20
-15.17657732371796
 30
0.0
  0
LINE
  5
EF
330
1F
100
AcDbEntity
  8
0
  6
Continuous
 62
     7
370
    15
100
AcDbLine
 10
9.137
 20
-14.993483042
 30
0.0
 11
9.097
 21
-14.943483042
 31
0.0
  0
LINE
  5
F0
330
1F
100
AcDbEntity
  8
0
  6
Continuous
 62
     7
370
    15
100
AcDbLine
 10
9.117
 20
-14.993483042
 30
0.0
 11
9.137
 21
-14.993483042
 31
0.0
  0
LINE
  5
F1
330
1F
100
AcDbEntity
  8
0
  6
Continuous
 62
     7
370
    15
100
AcDbLine
 10
9.117
 20
-15.043483042
 30
0.0
 11
9.117
 21
-14.993483042
 31
0.0
  0
LINE
  5
F2
330
1F
100
AcDbEntity
  8
0
  6
Continuous
 62
     7
370
    15
100
AcDbLine
 10
9.077
 20
-15.043483042
 30
0.0
 11
9.117
 21
-15.043483042
 31
0.0
  0
LINE
  5
F3
330
1F
100
AcDbEntity
  8
0
  6
Continuous
 62
     7
370
    15
100
AcDbLine
 10
9.077
 20
-14.993483042
 30
0.0
 11
9.077
 21
-15.043483042
 31
0.0
  0
LINE
  5
F4
330
1F
100
AcDbEntity
  8
0
  6
Continuous
 62
     7
370
    15
100
AcDbLine
 10
9.057
 20
-14.993483042
 30
0.0
 11
9.077
 21
-14.993483042
 31
0.0
  0
LINE
  5
F5
330
1F
100
AcDbEntity
  8
0
  6
Continuous
 62
     7
370
    15
100
AcDbLine
 10
9.097
 20
-14.943483042
 30
0.0
 11
9.057
 21
-14.993483042
 31
0.0
  0
SPLINE
  5
F6
330
1F
100
AcDbEntity
  8
0
  6
Continuous
 62
     7
370
    15
100
AcDbSpline
210
0.0
220
0.0
230
1.0
 70
     8
 71
     3
 72
    15
 73
    11
 74
     0
 42
0.000000001
 43
0.00000001
 40
0.0
 40
0.0
 40
0.0
 40
0.0
 40
0.1289191318119413
 40
0.255237724924851
 40
0.3786785959785117
 40
0.5010878871851138
 40
0.6227136794297735
 40
0.7462407949383875
 40
0.8715890472316684
 40
1.0
 40
1.0
 40
1.0
 40
1.0
 10
8.35982051282051
 20
-15.17657732371796
 30
0.0
 10
8.359860631047425
 20
-15.17504816136464
 30
0.0
 10
8.359940058241992
 20
-15.17202068270716
 30
0.0
 10
8.360522933566074
 20
-15.16755900196962
 30
0.0
 10
8.361500024869095
 20
-15.1632483809316
 30
0.0
 10
8.362883289028185
 20
-15.15910818536075
 30
0.0
 10
8.364651688702876
 20
-15.15511691978791
 30
0.0
 10
8.366807448986602
 20
-15.15128103296697
 30
0.0
 10
8.369371400148761
 20
-15.14760289723558
 30
0.0
 10
8.37134289841777
 20
-15.14532710866315
 30
0.0
 10
8.372340544871793
 20
-15.14417548076924
 30
0.0
  0
SPLINE
  5
F7
330
1F
100
AcDbEntity
  8
0
  6
Continuous
 62
     7
370
    15
100
AcDbSpline
210
0.0
220
0.0
230
1.0
 70
     8
 71
     3
 72
    15
 73
    11
 74
     0
 42
0.000000001
 43
0.00000001
 40
0.0
 40
0.0
 40
0.0
 40
0.0
 40
0.1284975211375097
 40
0.2527129855154475
 40
0.3748191325670444
 40
0.4964364263727399
 40
0.6179105567458426
 40
0.7412876173092912
 40
0.8687004007446185
 40
1.0
 40
1.0
 40
1.0
 40
1.0
 10
8.372340544871793
 20
-15.14417548076924
 30
0.0
 10
8.373499423122722
 20
-15.14296209008162
 30
0.0
 10
8.37577856111736
 20
-15.1405757437883
 30
0.0
 10
8.379612444250508
 20
-15.1375210107852
 30
0.0
 10
8.383630080718742
 20
-15.13488115100445
 30
0.0
 10
8.387905970937938
 20
-15.13275700045257
 30
0.0
 10
8.392394644436362
 20
-15.13108419624806
 30
0.0
 10
8.397116760240923
 20
-15.12992114213681
 30
0.0
 10
8.402055171507337
 20
-15.12916209374506
 30
0.0
 10
8.405432300832178
 20
-15.12908858739487
 30
0.0
 10
8.407146233974355
 20
-15.12905128205129
 30
0.0
  0
SPLINE
  5
F8
330
1F
100
AcDbEntity
  8
0
  6
Continuous
 62
     7
370
    15
100
AcDbSpline
210
0.0
220
0.0
230
1.0
 70
     8
 71
     3
 72
    15
 73
    11
 74
     0
 42
0.000000001
 43
0.00000001
 40
0.0
 40
0.0
 40
0.0
 40
0.0
 40
0.1317514273024145
 40
0.2583323505141761
 40
0.3821339760925386
 40
0.5038043916000909
 40
0.6246929865409223
 40
0.7468705897275739
 40
0.8715135042348039
 40
1.0
 40
1.0
 40
1.0
 40
1.0
 10
8.407146233974355
 20
-15.12905128205129
 30
0.0
 10
8.408860208004473
 20
-15.12908777816339
 30
0.0
 10
8.412220892203393
 20
-15.12915933812003
 30
0.0
 10
8.417142602413367
 20
-15.1299241583219
 30
0.0
 10
8.421840642982524
 20
-15.13109370704997
 30
0.0
 10
8.42633300698836
 20
-15.13271054855262
 30
0.0
 10
8.430562160397391
 20
-15.13487776107215
 30
0.0
 10
8.434589704829813
 20
-15.13746380718377
 30
0.0
 10
8.438404598004277
 20
-15.14052747123964
 30
0.0
 10
8.440691134763464
 20
-15.14289740225302
 30
0.0
 10
8.44185176282051
 20
-15.14410036057694
 30
0.0
  0
SPLINE
  5
F9
330
1F
100
AcDbEntity
  8
0
  6
Continuous
 62
     7
370
    15
100
AcDbSpline
210
0.0
220
0.0
230
1.0
 70
     8
 71
     3
 72
    15
 73
    11
 74
     0
 42
0.000000001
 43
0.00000001
 40
0.0
 40
0.0
 40
0.0
 40
0.0
 40
0.1281572795931941
 40
0.2538343627966975
 40
0.3765056225222149
 40
0.4985336856679058
 40
0.6213677287324637
 40
0.744564744904374
 40
0.87063379825533
 40
1.0
 40
1.0
 40
1.0
 40
1.0
 10
8.44185176282051
 20
-15.14410036057694
 30
0.0
 10
8.442851118322832
 20
-15.14525086006942
 30
0.0
 10
8.444830489045616
 20
-15.14752959371996
 30
0.0
 10
8.44736855043095
 20
-15.15122443704004
 30
0.0
 10
8.449555034722286
 20
-15.15505086920403
 30
0.0
 10
8.451307283328958
 20
-15.15905970229944
 30
0.0
 10
8.45268889131771
 20
-15.16321594055491
 30
0.0
 10
8.45366980904112
 20
-15.16753386952488
 30
0.0
 10
8.454253271003273
 20
-15.17200395335215
 30
0.0
 10
8.454331948394048
 20
-15.17503980471204
 30
0.0
 10
8.454371794871792
 20
-15.17657732371796
 30
0.0
  0
SPLINE
  5
FA
330
1F
100
AcDbEntity
  8
0
  6
Continuous
 62
     7
370
    15
100
AcDbSpline
210
0.0
220
0.0
230
1.0
 70
     8
 71
     3
 72
    23
 73
    19
 74
     0
 42
0.000000001
 43
0.00000001
 40
0.0
 40
0.0
 40
0.0
 40
0.0
 40
0.0624160261588335
 40
0.12333697853734
 40
0.1832651398531059
 40
0.243172443069717
 40
0.3028983539197397
 40
0.3637735975039139
 40
0.4256053049523866
 40
0.4896590425101879
 40
0.5537845767921186
 40
0.6162215328110824
 40
0.6778544713083372
 40
0.7395168974879323
 40
0.8020965355763683
 40
0.8658658412779717
 40
0.9315077951965028
 40
1.0
 40
1.0
 40
1.0
 40
1.0
 10
8.454371794871792
 20
-15.17657732371796
 30
0.0
 10
8.454336747110437
 20
-15.17812375434931
 30
0.0
 10
8.45426749109951
 20
-15.18117957339653
 30
0.0
 10
8.453612361942685
 20
-15.18568026503183
 30
0.0
 10
8.452593394589924
 20
-15.19004436584202
 30
0.0
 10
8.451135114654958
 20
-15.19425360490461
 30
0.0
 10
8.449265182181259
 20
-15.19832084874074
 30
0.0
 10
8.446983371912209
 20
-15.20222833264391
 30
0.0
 10
8.444273671299642
 20
-15.20598376597509
 30
0.0
 10
8.441202099986846
 20
-15.20955526019839
 30
0.0
 10
8.43780739012429
 20
-15.21284691072673
 30
0.0
 10
8.434124670541474
 20
-15.2157157774965
 30
0.0
 10
8.430226312193223
 20
-15.21817368908108
 30
0.0
 10
8.4260604781477
 20
-15.22015356106732
 30
0.0
 10
8.421665210760851
 20
-15.22171462179273
 30
0.0
 10
8.417031029757101
 20
-15.22281105095096
 30
0.0
 10
8.412165134388768
 20
-15.22347396822869
 30
0.0
 10
8.40884273362569
 20
-15.22355909584515
 30
0.0
 10
8.407146233974355
 20
-15.22360256410258
 30
0.0
  0
SPLINE
  5
FB
330
1F
100
AcDbEntity
  8
0
  6
Continuous
 62
     7
370
    15
100
AcDbSpline
210
0.0
220
0.0
230
1.0
 70
     8
 71
     3
 72
    23
 73
    19
 74
     0
 42
0.000000001
 43
0.00000001
 40
0.0
 40
0.0
 40
0.0
 40
0.0
 40
0.068742261605482
 40
0.1346351922242747
 40
0.198324187067135
 40
0.2608250125604121
 40
0.3227135881590274
 40
0.3845545346076069
 40
0.4469128577247402
 40
0.5109576325148231
 40
0.5749307010013294
 40
0.6366845377960884
 40
0.6974831152940666
 40
0.7571338075238463
 40
0.8169656636752506
 40
0.8768183516571832
 40
0.937662580383987
 40
1.0
 40
1.0
 40
1.0
 40
1.0
 10
8.407146233974355
 20
-15.22360256410258
 30
0.0
 10
8.405441422563323
 20
-15.22355894995195
 30
0.0
 10
8.402102463287473
 20
-15.22347352943454
 30
0.0
 10
8.397219392504498
 20
-15.22281362647991
 30
0.0
 10
8.392576906113963
 20
-15.22171512710242
 30
0.0
 10
8.388175884738276
 20
-15.2201484309335
 30
0.0
 10
8.38399214020416
 20
-15.21817362579959
 30
0.0
 10
8.38007119388454
 20
-15.21572320831466
 30
0.0
 10
8.376385482616119
 20
-15.21284605991328
 30
0.0
 10
8.372990054601265
 20
-15.20955549073294
 30
0.0
 10
8.36991867583962
 20
-15.20598370657837
 30
0.0
 10
8.36720892554136
 20
-15.20222834806074
 30
0.0
 10
8.364927128178858
 20
-15.1983208447237
 30
0.0
 10
8.363057192325927
 20
-15.19425360597582
 30
0.0
 10
8.361598913293136
 20
-15.19004436555479
 30
0.0
 10
8.360579945697841
 20
-15.18568026510979
 30
0.0
 10
8.359924816606199
 20
-15.18117957337634
 30
0.0
 10
8.35985556058637
 20
-15.17812375434252
 30
0.0
 10
8.35982051282051
 20
-15.17657732371796
 30
0.0
  0
SPLINE
  5
FC
330
1F
100
AcDbEntity
  8
0
  6
Continuous
 62
     7
370
    15
100
AcDbSpline
210
0.0
220
0.0
230
1.0
 70
     8
 71
     3
 72
    23
 73
    19
 74
     0
 42
0.000000001
 43
0.00000001
 40
0.0
 40
0.0
 40
0.0
 40
0.0
 40
0.0570031325129206
 40
0.1118178691207274
 40
0.1644023722182071
 40
0.2158698048987882
 40
0.2668411100818445
 40
0.3174789632053613
 40
0.3699021362727366
 40
0.4234004494436236
 40
0.4797183982994444
 40
0.5392414966443092
 40
0.6024306889434266
 40
0.6710295461473299
 40
0.7444847975608381
 40
0.8234539713786845
 40
0.9087403127306781
 40
1.0
 40
1.0
 40
1.0
 40
1.0
 10
8.090589743589742
 20
-15.12819991987181
 30
0.0
 10
8.090570951440322
 20
-15.12750614231775
 30
0.0
 10
8.090534088587146
 20
-15.12614522188552
 30
0.0
 10
8.090232184922678
 20
-15.12416131637993
 30
0.0
 10
8.089719057264267
 20
-15.12229546807592
 30
0.0
 10
8.089059975362833
 20
-15.12052210699291
 30
0.0
 10
8.08813895076582
 20
-15.11889668377076
 30
0.0
 10
8.08705454136218
 20
-15.11736299821023
 30
0.0
 10
8.085744338137545
 20
-15.11597327969248
 30
0.0
 10
8.084253005542688
 20
-15.11467436903837
 30
0.0
 10
8.082538411869178
 20
-15.11352277875986
 30
0.0
 10
8.080601580018486
 20
-15.11251418007509
 30
0.0
 10
8.07841630583753
 20
-15.11170200947938
 30
0.0
 10
8.076019418159621
 20
-15.11099071831947
 30
0.0
 10
8.073374022177527
 20
-15.11049113639739
 30
0.0
 10
8.070510645270078
 20
-15.11007494398106
 30
0.0
 10
8.067405833876258
 20
-15.10986306033804
 30
0.0
 10
8.065257794500338
 20
-15.10983501166395
 30
0.0
 10
8.064147435897434
 20
-15.10982051282052
 30
0.0
  0
LINE
  5
FD
330
1F
100
AcDbEntity
  8
0
  6
Continuous
 62
     7
370
    15
100
AcDbLine
 10
8.0641474359
 20
-15.1098205128
 30
0.0
 11
8.0489230769
 21
-15.1098205128
 31
0.0
  0
LINE
  5
FE
330
1F
100
AcDbEntity
  8
0
  6
Continuous
 62
     7
370
    15
100
AcDbLine
 10
8.0489230769
 20
-15.1098205128
 30
0.0
 11
8.0489230769
 21
-15.1498846154
 31
0.0
  0
LINE
  5
FF
330
1F
100
AcDbEntity
  8
0
  6
Continuous
 62
     7
370
    15
100
AcDbLine
 10
8.0489230769
 20
-15.1498846154
 30
0.0
 11
8.0564601362
 21
-15.1498846154
 31
0.0
  0
SPLINE
  5
100
330
1F
100
AcDbEntity
  8
0
  6
Continuous
 62
     7
370
    15
100
AcDbSpline
210
0.0
220
0.0
230
1.0
 70
     8
 71
     3
 72
    23
 73
    19
 74
     0
 42
0.000000001
 43
0.00000001
 40
0.0
 40
0.0
 40
0.0
 40
0.0
 40
0.0723010339954997
 40
0.1397003317393694
 40
0.2022885114847658
 40
0.2605995332221916
 40
0.3131903291553242
 40
0.3617389329854319
 40
0.4057064756322319
 40
0.4455399848948686
 40
0.5188319558616211
 40
0.5897782395835857
 40
0.6588674786561525
 40
0.7284304780610482
 40
0.7972827036080867
 40
0.8648153774014391
 40
0.9313637528792592
 40
1.0
 40
1.0
 40
1.0
 40
1.0
 10
8.056460136217947
 20
-15.14988461538463
 30
0.0
 10
8.057561878909606
 20
-15.14987033242011
 30
0.0
 10
8.059690670311477
 20
-15.14984273482197
 30
0.0
 10
8.062773523760004
 20
-15.14976368064118
 30
0.0
 10
8.065635131552726
 20
-15.14954232194771
 30
0.0
 10
8.06827055416251
 20
-15.14932102687434
 30
0.0
 10
8.070675641447032
 20
-15.14896122017206
 30
0.0
 10
8.07284506507211
 20
-15.14853293006805
 30
0.0
 10
8.074812872105628
 20
-15.14807996917175
 30
0.0
 10
8.077082141589068
 20
-15.14730963035387
 30
0.0
 10
8.079656175462576
 20
-15.14617114195445
 30
0.0
 10
8.082400214896662
 20
-15.14440429066445
 30
0.0
 10
8.084819303096262
 20
-15.14229984947876
 30
0.0
 10
8.086862059800522
 20
-15.13987160084466
 30
0.0
 10
8.088533898033688
 20
-15.13719780849259
 30
0.0
 10
8.08969510214634
 20
-15.13432113419135
 30
0.0
 10
8.090482505152861
 20
-15.13131327233293
 30
0.0
 10
8.09055363127276
 20
-15.1292483347333
 30
0.0
 10
8.09058974358974
 20
-15.1281999198718
 30
0.0
  0
SPLINE
  5
101
330
1F
100
AcDbEntity
  8
0
  6
Continuous
 62
     7
370
    15
100
AcDbSpline
210
0.0
220
0.0
230
1.0
 70
     8
 71
     3
 72
    15
 73
    11
 74
     0
 42
0.000000001
 43
0.00000001
 40
0.0
 40
0.0
 40
0.0
 40
0.0
 40
0.0793064855229943
 40
0.171952818927903
 40
0.2770565073915941
 40
0.3947305758644575
 40
0.5261773212767622
 40
0.6713447665975846
 40
0.8292852571892387
 40
1.0
 40
1.0
 40
1.0
 40
1.0
 10
8.07974739583333
 20
-15.16418249198719
 30
0.0
 10
8.079139213838607
 20
-15.16405909613164
 30
0.0
 10
8.077820549826145
 20
-15.1637915484643
 30
0.0
 10
8.075670279096542
 20
-15.16350913048612
 30
0.0
 10
8.073215426635747
 20
-15.16325752120425
 30
0.0
 10
8.07045032387767
 20
-15.16307140843055
 30
0.0
 10
8.06737147240933
 20
-15.16287903187526
 30
0.0
 10
8.063972296741984
 20
-15.16280421683518
 30
0.0
 10
8.060266678361298
 20
-15.16271495754613
 30
0.0
 10
8.057695522204165
 20
-15.16270848846607
 30
0.0
 10
8.056359975961536
 20
-15.16270512820514
 30
0.0
  0
LINE
  5
102
330
1F
100
AcDbEntity
  8
0
  6
Continuous
 62
     7
370
    15
100
AcDbLine
 10
8.056359976
 20
-15.1627051282
 30
0.0
 11
8.0489230769
 21
-15.1627051282
 31
0.0
  0
LINE
  5
103
330
1F
100
AcDbEntity
  8
0
  6
Continuous
 62
     7
370
    15
100
AcDbLine
 10
8.0489230769
 20
-15.1627051282
 30
0.0
 11
8.0489230769
 21
-15.2091794872
 31
0.0
  0
LINE
  5
104
330
1F
100
AcDbEntity
  8
0
  6
Continuous
 62
     7
370
    15
100
AcDbLine
 10
8.0489230769
 20
-15.2091794872
 30
0.0
 11
8.0648986378
 21
-15.2091794872
 31
0.0
  0
SPLINE
  5
105
330
1F
100
AcDbEntity
  8
0
  6
Continuous
 62
     7
370
    15
100
AcDbSpline
210
0.0
220
0.0
230
1.0
 70
     8
 71
     3
 72
    23
 73
    19
 74
     0
 42
0.000000001
 43
0.00000001
 40
0.0
 40
0.0
 40
0.0
 40
0.0
 40
0.072502488933019
 40
0.1397389892678836
 40
0.2017951348259118
 40
0.2598219344148482
 40
0.3122059893846009
 40
0.3607734341243199
 40
0.4045403426007425
 40
0.4436980985527572
 40
0.5168407942439714
 40
0.5878743359442884
 40
0.6579654175616387
 40
0.7289693886473193
 40
0.7993077199548797
 40
0.8666357778344541
 40
0.9331163290572903
 40
1.0
 40
1.0
 40
1.0
 40
1.0
 10
8.06489863782051
 20
-15.2091794871795
 30
0.0
 10
8.066042170888833
 20
-15.20916578191533
 30
0.0
 10
8.068246180123731
 20
-15.20913936682543
 30
0.0
 10
8.071428366913768
 20
-15.20905313273398
 30
0.0
 10
8.074377763478093
 20
-15.20885698003044
 30
0.0
 10
8.077080911182714
 20
-15.2085481996853
 30
0.0
 10
8.079566998776665
 20
-15.20821325507201
 30
0.0
 10
8.08180620245627
 20
-15.20776285218195
 30
0.0
 10
8.08381667365132
 20
-15.20724681787747
 30
0.0
 10
8.086147898927727
 20
-15.20644916886908
 30
0.0
 10
8.08877302422348
 20
-15.20521000919347
 30
0.0
 10
8.09160198338011
 20
-15.20334164396424
 30
0.0
 10
8.094117205456676
 20
-15.20111581154378
 30
0.0
 10
8.096253107571199
 20
-15.19853970746615
 30
0.0
 10
8.09800357144784
 20
-15.19573858864728
 30
0.0
 10
8.099276980557972
 20
-15.19276911186326
 30
0.0
 10
8.100062368297937
 20
-15.18968034302688
 30
0.0
 10
8.100157445772577
 20
-15.1875743890075
 30
0.0
 10
8.100205128205126
 20
-15.18651822916668
 30
0.0
  0
SPLINE
  5
106
330
1F
100
AcDbEntity
  8
0
  6
Continuous
 62
     7
370
    15
100
AcDbSpline
210
0.0
220
0.0
230
1.0
 70
     8
 71
     3
 72
    19
 73
    15
 74
     0
 42
0.000000001
 43
0.00000001
 40
0.0
 40
0.0
 40
0.0
 40
0.0
 40
0.0602873979279793
 40
0.1196023547075439
 40
0.1775033710185568
 40
0.2351426637323416
 40
0.2921325932269419
 40
0.3508712086415653
 40
0.4100978625665936
 40
0.4707315215304578
 40
0.5948287040804081
 40
0.7225788240942868
 40
0.8566913895440027
 40
1.0
 40
1.0
 40
1.0
 40
1.0
 10
8.100205128205126
 20
-15.18651822916668
 30
0.0
 10
8.100195267335932
 20
-15.18585775271971
 30
0.0
 10
8.100175704654252
 20
-15.18454745337024
 30
0.0
 10
8.099880682692692
 20
-15.18262188839924
 30
0.0
 10
8.099451615914344
 20
-15.1807566786382
 30
0.0
 10
8.09889692184711
 20
-15.17894675933518
 30
0.0
 10
8.098089083736715
 20
-15.17722485303703
 30
0.0
 10
8.097145992843247
 20
-15.17555690448216
 30
0.0
 10
8.096040228498795
 20
-15.17394070878844
 30
0.0
 10
8.09431722257495
 20
-15.1718974140224
 30
0.0
 10
8.091811080270665
 20
-15.16954323499013
 30
0.0
 10
8.08825012400485
 20
-15.16723832419489
 30
0.0
 10
8.08420111336309
 20
-15.16537947394177
 30
0.0
 10
8.08126441718823
 20
-15.16459020692968
 30
0.0
 10
8.07974739583333
 20
-15.16418249198719
 30
0.0
  0
SPLINE
  5
107
330
1F
100
AcDbEntity
  8
0
  6
Continuous
 62
     7
370
    15
100
AcDbSpline
210
0.0
220
0.0
230
1.0
 70
     8
 71
     3
 72
    19
 73
    15
 74
     0
 42
0.000000001
 43
0.00000001
 40
0.0
 40
0.0
 40
0.0
 40
0.0
 40
0.0856056949735362
 40
0.1689832639222277
 40
0.2509075823297829
 40
0.3337080961143336
 40
0.4160049842563474
 40
0.497659567574385
 40
0.5798932856419776
 40
0.6639023210428443
 40
0.7484662538082508
 40
0.83179088647986
 40
0.9152519088316747
 40
1.0
 40
1.0
 40
1.0
 40
1.0
 10
8.177929487179485
 20
-15.21238461538463
 30
0.0
 10
8.179544714641386
 20
-15.2123378196608
 30
0.0
 10
8.182733128783381
 20
-15.21224544620186
 30
0.0
 10
8.18739238509888
 20
-15.21132691692588
 30
0.0
 10
8.1918535983799
 20
-15.20989464332929
 30
0.0
 10
8.196076147934075
 20
-15.20789742154799
 30
0.0
 10
8.199989240913851
 20
-15.20536126387764
 30
0.0
 10
8.203537423818245
 20
-15.20234567898215
 30
0.0
 10
8.206599874215893
 20
-15.198795184291
 30
0.0
 10
8.209218931534037
 20
-15.19484670111883
 30
0.0
 10
8.211345600916541
 20
-15.19058654568694
 30
0.0
 10
8.212887858123374
 20
-15.18609402881882
 30
0.0
 10
8.213816343333443
 20
-15.18142324160755
 30
0.0
 10
8.213929944359403
 20
-15.17825080122408
 30
0.0
 10
8.213987179487177
 20
-15.17665244391027
 30
0.0
  0
SPLINE
  5
108
330
1F
100
AcDbEntity
  8
0
  6
Continuous
 62
     7
370
    15
100
AcDbSpline
210
0.0
220
0.0
230
1.0
 70
     8
 71
     3
 72
    23
 73
    19
 74
     0
 42
0.000000001
 43
0.00000001
 40
0.0
 40
0.0
 40
0.0
 40
0.0
 40
0.0651847959860591
 40
0.1282737271139126
 40
0.1902702203927674
 40
0.2517683137756704
 40
0.3127686945781158
 40
0.3747932794097711
 40
0.437969586062721
 40
0.5030473998633691
 40
0.5681252136640171
 40
0.6309497487122603
 40
0.6923691093866848
 40
0.7529731677502584
 40
0.8136410669177424
 40
0.8743552086918206
 40
0.9365729684654903
 40
1.0
 40
1.0
 40
1.0
 40
1.0
 10
8.213987179487178
 20
-15.17665244391027
 30
0.0
 10
8.21395295555768
 20
-15.17541538827772
 30
0.0
 10
8.213885608089196
 20
-15.17298105164701
 30
0.0
 10
8.21336864507562
 20
-15.16940024973296
 30
0.0
 10
8.212541661516216
 20
-15.1659541212819
 30
0.0
 10
8.211399818042851
 20
-15.16263797830752
 30
0.0
 10
8.20987646040541
 20
-15.15947681743889
 30
0.0
 10
8.208004432081204
 20
-15.15647575575828
 30
0.0
 10
8.205853324030956
 20
-15.15356945054211
 30
0.0
 10
8.20335271257031
 20
-15.15087824908541
 30
0.0
 10
8.20066330621738
 20
-15.14838771206494
 30
0.0
 10
8.197789554853733
 20
-15.14622237672925
 30
0.0
 10
8.194797234190043
 20
-15.14438460546155
 30
0.0
 10
8.191676570523583
 20
-15.14286009686968
 30
0.0
 10
8.188410407393317
 20
-15.14171912042947
 30
0.0
 10
8.185024438494
 20
-15.14088424073292
 30
0.0
 10
8.181517338139011
 20
-15.14037387656747
 30
0.0
 10
8.179133086597579
 20
-15.14030433580099
 30
0.0
 10
8.177929487179485
 20
-15.14026923076924
 30
0.0
  0
SPLINE
  5
109
330
1F
100
AcDbEntity
  8
0
  6
Continuous
 62
     7
370
    15
100
AcDbSpline
210
0.0
220
0.0
230
1.0
 70
     8
 71
     3
 72
    23
 73
    19
 74
     0
 42
0.000000001
 43
0.00000001
 40
0.0
 40
0.0
 40
0.0
 40
0.0
 40
0.0638458997347785
 40
0.1260436278408372
 40
0.1871653577195705
 40
0.2473992895212666
 40
0.3083800306041627
 40
0.3697796166640501
 40
0.432583924686932
 40
0.4976407859952569
 40
0.5624011369620517
 40
0.6255571033330454
 40
0.6873320046201813
 40
0.7483127457030864
 40
0.8097910391226052
 40
0.8717675719729436
 40
0.9348361909503266
 40
1.0
 40
1.0
 40
1.0
 40
1.0
 10
8.177929487179485
 20
-15.14026923076924
 30
0.0
 10
8.17671742963228
 20
-15.1403036804719
 30
0.0
 10
8.174324603608428
 20
-15.14037169056366
 30
0.0
 10
8.170802475583141
 20
-15.14088897287474
 30
0.0
 10
8.167411755799845
 20
-15.14170852659148
 30
0.0
 10
8.164146011366576
 20
-15.14287295717219
 30
0.0
 10
8.161016255208851
 20
-15.14437648927617
 30
0.0
 10
8.158019490837308
 20
-15.14622321642621
 30
0.0
 10
8.155146903697736
 20
-15.1483886791576
 30
0.0
 10
8.152454687149131
 20
-15.15086948885796
 30
0.0
 10
8.149983890286189
 20
-15.15357945294865
 30
0.0
 10
8.14782396255062
 20
-15.15646689433741
 30
0.0
 10
8.145987351608795
 20
-15.15948497813299
 30
0.0
 10
8.144457345932441
 20
-15.16263684281657
 30
0.0
 10
8.143317803500455
 20
-15.16595442902738
 30
0.0
 10
8.142490195554569
 20
-15.16940016585692
 30
0.0
 10
8.141973401252319
 20
-15.17298107358842
 30
0.0
 10
8.141906030588467
 20
-15.17541539567075
 30
0.0
 10
8.141871794871792
 20
-15.17665244391027
 30
0.0
  0
SPLINE
  5
10A
330
1F
100
AcDbEntity
  8
0
  6
Continuous
 62
     7
370
    15
100
AcDbSpline
210
0.0
220
0.0
230
1.0
 70
     8
 71
     3
 72
    19
 73
    15
 74
     0
 42
0.000000001
 43
0.00000001
 40
0.0
 40
0.0
 40
0.0
 40
0.0
 40
0.0847327446980281
 40
0.1681786536463097
 40
0.2514881976122894
 40
0.3358406713895137
 40
0.4198344941507953
 40
0.5023448759880026
 40
0.5836490197324307
 40
0.665931005276262
 40
0.7487165252643996
 40
0.8310473361373696
 40
0.9144098067945708
 40
1.0
 40
1.0
 40
1.0
 40
1.0
 10
8.141871794871792
 20
-15.17665244391027
 30
0.0
 10
8.141929181430203
 20
-15.17825073059455
 30
0.0
 10
8.142043083017663
 20
-15.18142303079161
 30
0.0
 10
8.142969341461773
 20
-15.18609485660006
 30
0.0
 10
8.14451885145757
 20
-15.19057992274716
 30
0.0
 10
8.146611254304329
 20
-15.19485193653439
 30
0.0
 10
8.149232904971495
 20
-15.19880451789291
 30
0.0
 10
8.15232172878136
 20
-15.20232849947697
 30
0.0
 10
8.155844575222897
 20
-15.20537084988582
 30
0.0
 10
8.159759450229837
 20
-15.20789516579864
 30
0.0
 10
8.163986390155257
 20
-15.20990087135919
 30
0.0
 10
8.168459830194845
 20
-15.21132226334906
 30
0.0
 10
8.17312556926791
 20
-15.21224625236325
 30
0.0
 10
8.176314166808956
 20
-15.21233809073307
 30
0.0
 10
8.177929487179485
 20
-15.21238461538463
 30
0.0
  0
SPLINE
  5
10B
330
1F
100
AcDbEntity
  8
0
  6
Continuous
 62
     7
370
    15
100
AcDbSpline
210
0.0
220
0.0
230
1.0
 70
     8
 71
     3
 72
    19
 73
    15
 74
     0
 42
0.000000001
 43
0.00000001
 40
0.0
 40
0.0
 40
0.0
 40
0.0
 40
0.0856056949735362
 40
0.1689832639222277
 40
0.2509075823297829
 40
0.3337080961143336
 40
0.4160049842563474
 40
0.497659567574385
 40
0.5798932856419776
 40
0.6639023210428443
 40
0.7484662538082508
 40
0.83179088647986
 40
0.9152519088316747
 40
1.0
 40
1.0
 40
1.0
 40
1.0
 10
8.407096153846151
 20
-15.21238461538463
 30
0.0
 10
8.408711381308054
 20
-15.2123378196608
 30
0.0
 10
8.411899795450049
 20
-15.21224544620186
 30
0.0
 10
8.416559051765544
 20
-15.21132691692588
 30
0.0
 10
8.421020265046566
 20
-15.20989464332929
 30
0.0
 10
8.42524281460074
 20
-15.20789742154799
 30
0.0
 10
8.429155907580519
 20
-15.20536126387764
 30
0.0
 10
8.432704090484913
 20
-15.20234567898216
 30
0.0
 10
8.43576654088256
 20
-15.198795184291
 30
0.0
 10
8.438385598200705
 20
-15.19484670111883
 30
0.0
 10
8.440512267583205
 20
-15.19058654568695
 30
0.0
 10
8.44205452479004
 20
-15.18609402881882
 30
0.0
 10
8.44298301000011
 20
-15.18142324160755
 30
0.0
 10
8.44309661102607
 20
-15.17825080122408
 30
0.0
 10
8.443153846153843
 20
-15.17665244391027
 30
0.0
  0
SPLINE
  5
10C
330
1F
100
AcDbEntity
  8
0
  6
Continuous
 62
     7
370
    15
100
AcDbSpline
210
0.0
220
0.0
230
1.0
 70
     8
 71
     3
 72
    23
 73
    19
 74
     0
 42
0.000000001
 43
0.00000001
 40
0.0
 40
0.0
 40
0.0
 40
0.0
 40
0.0651847959860591
 40
0.1282737271139126
 40
0.1902702203927674
 40
0.2517683137756704
 40
0.3127686945781158
 40
0.3747932794097711
 40
0.437969586062721
 40
0.5030473998633691
 40
0.5681252136640171
 40
0.6309497487122603
 40
0.6923691093866848
 40
0.7529731677502584
 40
0.8136410669177424
 40
0.8743552086918206
 40
0.9365729684654903
 40
1.0
 40
1.0
 40
1.0
 40
1.0
 10
8.443153846153844
 20
-15.17665244391027
 30
0.0
 10
8.443119622224346
 20
-15.17541538827772
 30
0.0
 10
8.443052274755866
 20
-15.17298105164702
 30
0.0
 10
8.442535311742285
 20
-15.16940024973296
 30
0.0
 10
8.441708328182884
 20
-15.16595412128191
 30
0.0
 10
8.440566484709517
 20
-15.16263797830752
 30
0.0
 10
8.439043127072077
 20
-15.15947681743889
 30
0.0
 10
8.437171098747873
 20
-15.15647575575828
 30
0.0
 10
8.43501999069762
 20
-15.15356945054212
 30
0.0
 10
8.432519379236977
 20
-15.15087824908541
 30
0.0
 10
8.429829972884049
 20
-15.14838771206494
 30
0.0
 10
8.426956221520399
 20
-15.14622237672925
 30
0.0
 10
8.423963900856712
 20
-15.14438460546155
 30
0.0
 10
8.42084323719025
 20
-15.14286009686969
 30
0.0
 10
8.417577074059984
 20
-15.14171912042947
 30
0.0
 10
8.414191105160667
 20
-15.14088424073293
 30
0.0
 10
8.41068400480568
 20
-15.14037387656747
 30
0.0
 10
8.408299753264243
 20
-15.140304335801
 30
0.0
 10
8.407096153846151
 20
-15.14026923076924
 30
0.0
  0
SPLINE
  5
10D
330
1F
100
AcDbEntity
  8
0
  6
Continuous
 62
     7
370
    15
100
AcDbSpline
210
0.0
220
0.0
230
1.0
 70
     8
 71
     3
 72
    23
 73
    19
 74
     0
 42
0.000000001
 43
0.00000001
 40
0.0
 40
0.0
 40
0.0
 40
0.0
 40
0.0638458997347785
 40
0.1260436278408372
 40
0.1871653577195705
 40
0.2473992895212666
 40
0.3083800306041627
 40
0.3697796166640501
 40
0.432583924686932
 40
0.4976407859952569
 40
0.5624011369620517
 40
0.6255571033330454
 40
0.6873320046201813
 40
0.7483127457030864
 40
0.8097910391226052
 40
0.8717675719729436
 40
0.9348361909503266
 40
1.0
 40
1.0
 40
1.0
 40
1.0
 10
8.407096153846151
 20
-15.14026923076924
 30
0.0
 10
8.405884096298948
 20
-15.1403036804719
 30
0.0
 10
8.403491270275094
 20
-15.14037169056367
 30
0.0
 10
8.399969142249807
 20
-15.14088897287475
 30
0.0
 10
8.396578422466513
 20
-15.14170852659149
 30
0.0
 10
8.39331267803324
 20
-15.14287295717219
 30
0.0
 10
8.390182921875518
 20
-15.14437648927617
 30
0.0
 10
8.387186157503974
 20
-15.14622321642621
 30
0.0
 10
8.384313570364405
 20
-15.14838867915761
 30
0.0
 10
8.381621353815795
 20
-15.15086948885796
 30
0.0
 10
8.379150556952855
 20
-15.15357945294866
 30
0.0
 10
8.376990629217282
 20
-15.15646689433741
 30
0.0
 10
8.375154018275461
 20
-15.159484978133
 30
0.0
 10
8.373624012599109
 20
-15.16263684281657
 30
0.0
 10
8.37248447016712
 20
-15.16595442902738
 30
0.0
 10
8.371656862221236
 20
-15.16940016585692
 30
0.0
 10
8.371140067918985
 20
-15.17298107358842
 30
0.0
 10
8.371072697255135
 20
-15.17541539567075
 30
0.0
 10
8.37103846153846
 20
-15.17665244391027
 30
0.0
  0
SPLINE
  5
10E
330
1F
100
AcDbEntity
  8
0
  6
Continuous
 62
     7
370
    15
100
AcDbSpline
210
0.0
220
0.0
230
1.0
 70
     8
 71
     3
 72
    19
 73
    15
 74
     0
 42
0.000000001
 43
0.00000001
 40
0.0
 40
0.0
 40
0.0
 40
0.0
 40
0.0847327446980281
 40
0.1681786536463097
 40
0.2514881976122894
 40
0.3358406713895137
 40
0.4198344941507953
 40
0.5023448759880026
 40
0.5836490197324307
 40
0.665931005276262
 40
0.7487165252643996
 40
0.8310473361373696
 40
0.9144098067945708
 40
1.0
 40
1.0
 40
1.0
 40
1.0
 10
8.37103846153846
 20
-15.17665244391027
 30
0.0
 10
8.371095848096871
 20
-15.17825073059455
 30
0.0
 10
8.371209749684331
 20
-15.18142303079161
 30
0.0
 10
8.37213600812844
 20
-15.18609485660006
 30
0.0
 10
8.373685518124239
 20
-15.19057992274716
 30
0.0
 10
8.375777920970995
 20
-15.19485193653439
 30
0.0
 10
8.378399571638164
 20
-15.19880451789292
 30
0.0
 10
8.381488395448025
 20
-15.20232849947697
 30
0.0
 10
8.385011241889565
 20
-15.20537084988582
 30
0.0
 10
8.388926116896505
 20
-15.20789516579864
 30
0.0
 10
8.393153056821923
 20
-15.20990087135919
 30
0.0
 10
8.39762649686151
 20
-15.21132226334906
 30
0.0
 10
8.402292235934578
 20
-15.21224625236325
 30
0.0
 10
8.40548083347562
 20
-15.21233809073307
 30
0.0
 10
8.407096153846151
 20
-15.21238461538463
 30
0.0
  0
SPLINE
  5
10F
330
1F
100
AcDbEntity
  8
0
  6
Continuous
 62
     7
370
    15
100
AcDbSpline
210
0.0
220
0.0
230
1.0
 70
     8
 71
     3
 72
    23
 73
    19
 74
     0
 42
0.000000001
 43
0.00000001
 40
0.0
 40
0.0
 40
0.0
 40
0.0
 40
0.0688142958243007
 40
0.1363648245522378
 40
0.2040193535112623
 40
0.2730637386246252
 40
0.3429133195615072
 40
0.4109654441389674
 40
0.4791687665134572
 40
0.5493080065097765
 40
0.5876515764176583
 40
0.6306466687627953
 40
0.6788787856966495
 40
0.7319342992295832
 40
0.7911114229480541
 40
0.85528318951307
 40
0.9250859386773906
 40
1.0
 40
1.0
 40
1.0
 40
1.0
 10
8.757256410256407
 20
-15.13040344551283
 30
0.0
 10
8.757213477360391
 20
-15.12939821073677
 30
0.0
 10
8.757128400026344
 20
-15.12740620221253
 30
0.0
 10
8.756433801150393
 20
-15.12448991970227
 30
0.0
 10
8.755259180387657
 20
-15.12173752862616
 30
0.0
 10
8.753676243318917
 20
-15.11916022559075
 30
0.0
 10
8.751747702070258
 20
-15.11682073502452
 30
0.0
 10
8.749486351616875
 20
-15.11481905098675
 30
0.0
 10
8.746954023218661
 20
-15.1131672843911
 30
0.0
 10
8.744587194706092
 20
-15.11211177080139
 30
0.0
 10
8.74247168711708
 20
-15.11146463318547
 30
0.0
 10
8.74063491354419
 20
-15.11100923447793
 30
0.0
 10
8.738559503625641
 20
-15.11064336058758
 30
0.0
 10
8.736235380103784
 20
-15.11035021555632
 30
0.0
 10
8.73367246471861
 20
-15.11009825326172
 30
0.0
 10
8.730857798608199
 20
-15.10992854688107
 30
0.0
 10
8.727810056456011
 20
-15.10982805173443
 30
0.0
 10
8.725697666056316
 20
-15.1098230842744
 30
0.0
 10
8.724604166666664
 20
-15.10982051282052
 30
0.0
  0
LINE
  5
110
330
1F
100
AcDbEntity
  8
0
  6
Continuous
 62
     7
370
    15
100
AcDbLine
 10
8.7246041667
 20
-15.1098205128
 30
0.0
 11
8.7011666667
 21
-15.1098205128
 31
0.0
  0
LINE
  5
111
330
1F
100
AcDbEntity
  8
0
  6
Continuous
 62
     7
370
    15
100
AcDbLine
 10
8.7011666667
 20
-15.1098205128
 30
0.0
 11
8.7011666667
 21
-15.1514871795
 31
0.0
  0
LINE
  5
112
330
1F
100
AcDbEntity
  8
0
  6
Continuous
 62
     7
370
    15
100
AcDbLine
 10
8.7011666667
 20
-15.1514871795
 30
0.0
 11
8.7240532853
 21
-15.1516624599
 31
0.0
  0
SPLINE
  5
113
330
1F
100
AcDbEntity
  8
0
  6
Continuous
 62
     7
370
    15
100
AcDbSpline
210
0.0
220
0.0
230
1.0
 70
     8
 71
     3
 72
    23
 73
    19
 74
     0
 42
0.000000001
 43
0.00000001
 40
0.0
 40
0.0
 40
0.0
 40
0.0
 40
0.0716681496796072
 40
0.1389132862742017
 40
0.2011845700265699
 40
0.2591244282905593
 40
0.3122550414262488
 40
0.3606815096231207
 40
0.4050861433286381
 40
0.4451016585907105
 40
0.5187777804882704
 40
0.5894615790332219
 40
0.6584622419857283
 40
0.7272832183683852
 40
0.7963224869047237
 40
0.8631748932078684
 40
0.9309493809878935
 40
1.0
 40
1.0
 40
1.0
 40
1.0
 10
8.724053285256408
 20
-15.15166245993591
 30
0.0
 10
8.725121858075045
 20
-15.15166293267356
 30
0.0
 10
8.727193056543594
 20
-15.15166384897376
 30
0.0
 10
8.730189508858292
 20
-15.15152121410793
 30
0.0
 10
8.73297951284727
 20
-15.1513589527421
 30
0.0
 10
8.735552396853071
 20
-15.15111076183007
 30
0.0
 10
8.737909310257576
 20
-15.15079090212558
 30
0.0
 10
8.740049075015488
 20
-15.15039079554563
 30
0.0
 10
8.7419751840118
 20
-15.1499246504511
 30
0.0
 10
8.744221560384037
 20
-15.14920316381503
 30
0.0
 10
8.7467300079325
 20
-15.14806009173413
 30
0.0
 10
8.749456131499537
 20
-15.14639703820932
 30
0.0
 10
8.751777643562061
 20
-15.14430528395334
 30
0.0
 10
8.75373899578723
 20
-15.14191337480925
 30
0.0
 10
8.755315046911354
 20
-15.13928350877934
 30
0.0
 10
8.756426191709014
 20
-15.13644720987876
 30
0.0
 10
8.757131278933734
 20
-15.13347608137849
 30
0.0
 10
8.75721444127121
 20
-15.13143400609832
 30
0.0
 10
8.757256410256407
 20
-15.13040344551283
 30
0.0
  0
SPLINE
  5
114
330
1F
100
AcDbEntity
  8
0
  6
Continuous
 62
     7
370
    15
100
AcDbSpline
210
0.0
220
0.0
230
1.0
 70
     8
 71
     3
 72
    23
 73
    19
 74
     0
 42
0.000000001
 43
0.00000001
 40
0.0
 40
0.0
 40
0.0
 40
0.0
 40
0.070121499219553
 40
0.137121848674016
 40
0.2014871210766234
 40
0.263765119166858
 40
0.3245600950367263
 40
0.3847388869594515
 40
0.4449046043522563
 40
0.5052319196167103
 40
0.5654939949839681
 40
0.6250997441456744
 40
0.6843497139440724
 40
0.7438828254849718
 40
0.8046082057522953
 40
0.8672389137717428
 40
0.9320942880208533
 40
1.0
 40
1.0
 40
1.0
 40
1.0
 10
8.873567508012819
 20
-15.21078205128206
 30
0.0
 10
8.874887642234091
 20
-15.21075463667349
 30
0.0
 10
8.87746915071485
 20
-15.21070102769693
 30
0.0
 10
8.881239541300314
 20
-15.21024018846279
 30
0.0
 10
8.884812139170716
 20
-15.20949654645256
 30
0.0
 10
8.888183668540792
 20
-15.20844072411944
 30
0.0
 10
8.89136685929307
 20
-15.20709351873993
 30
0.0
 10
8.894325952671831
 20
-15.20538863954313
 30
0.0
 10
8.897124397245681
 20
-15.20344705268443
 30
0.0
 10
8.899672840445113
 20
-15.20118233789083
 30
0.0
 10
8.901977274928049
 20
-15.1986864452126
 30
0.0
 10
8.903985516602772
 20
-15.19597055610493
 30
0.0
 10
8.905696746925083
 20
-15.19307553756752
 30
0.0
 10
8.907113806562405
 20
-15.19000171593627
 30
0.0
 10
8.90819563528267
 20
-15.18672520332682
 30
0.0
 10
8.908921310461468
 20
-15.18325419062065
 30
0.0
 10
8.909428694217237
 20
-15.1796053070899
 30
0.0
 10
8.90947587009914
 20
-15.17710499936931
 30
0.0
 10
8.909499999999998
 20
-15.17582612179488
 30
0.0
  0
SPLINE
  5
115
330
1F
100
AcDbEntity
  8
0
  6
Continuous
 62
     7
370
    15
100
AcDbSpline
210
0.0
220
0.0
230
1.0
 70
     8
 71
     3
 72
    19
 73
    15
 74
     0
 42
0.000000001
 43
0.00000001
 40
0.0
 40
0.0
 40
0.0
 40
0.0
 40
0.0892427932208491
 40
0.1743490578004606
 40
0.2576131087527583
 40
0.3395273673229322
 40
0.4209973901479177
 40
0.5015790589405781
 40
0.5825417599975127
 40
0.6661326583338318
 40
0.7500491310216035
 40
0.832742939744281
 40
0.9156474213323872
 40
1.0
 40
1.0
 40
1.0
 40
1.0
 10
8.909499999999998
 20
-15.17582612179488
 30
0.0
 10
8.90945215827966
 20
-15.17416119843919
 30
0.0
 10
8.909358692369826
 20
-15.17090852326064
 30
0.0
 10
8.908476651024692
 20
-15.16616899583245
 30
0.0
 10
8.907054500660903
 20
-15.16171297176929
 30
0.0
 10
8.90505997379373
 20
-15.15755454405953
 30
0.0
 10
8.902560616340825
 20
-15.1537377744273
 30
0.0
 10
8.89955022888285
 20
-15.15033335141053
 30
0.0
 10
8.896080727789407
 20
-15.14733689224721
 30
0.0
 10
8.8921620813545
 20
-15.14484052819302
 30
0.0
 10
8.887946101171247
 20
-15.14282390553457
 30
0.0
 10
8.883534629882309
 20
-15.14131098510137
 30
0.0
 10
8.878934216885932
 20
-15.14045404527882
 30
0.0
 10
8.875816130830321
 20
-15.14033119016208
 30
0.0
 10
8.874243589743589
 20
-15.14026923076924
 30
0.0
  0
SPLINE
  5
116
330
1F
100
AcDbEntity
  8
0
  6
Continuous
 62
     7
370
    15
100
AcDbSpline
210
0.0
220
0.0
230
1.0
 70
     8
 71
     3
 72
    19
 73
    15
 74
     0
 42
0.000000001
 43
0.00000001
 40
0.0
 40
0.0
 40
0.0
 40
0.0
 40
0.0855188992526868
 40
0.1693092867993456
 40
0.2522179032131815
 40
0.336756454185846
 40
0.420595494256208
 40
0.502741103513881
 40
0.5848035507161554
 40
0.668268484623944
 40
0.7518231297771828
 40
0.8336286284455332
 40
0.9162197991152979
 40
1.0
 40
1.0
 40
1.0
 40
1.0
 10
8.874243589743589
 20
-15.14026923076924
 30
0.0
 10
8.872603207462001
 20
-15.14032498310861
 30
0.0
 10
8.869355598376748
 20
-15.14043536091863
 30
0.0
 10
8.864595300430826
 20
-15.14137767210266
 30
0.0
 10
8.859999695664287
 20
-15.14285431138855
 30
0.0
 10
8.855656644657676
 20
-15.14496654765407
 30
0.0
 10
8.851588533589602
 20
-15.14754134186643
 30
0.0
 10
8.847978718573241
 20
-15.15066063785182
 30
0.0
 10
8.844821400141354
 20
-15.15422300202604
 30
0.0
 10
8.84215058091656
 20
-15.15819622513336
 30
0.0
 10
8.840024460685314
 20
-15.16248273497156
 30
0.0
 10
8.838519338561557
 20
-15.16700097547635
 30
0.0
 10
8.837546123444431
 20
-15.17167793950486
 30
0.0
 10
8.837438707300022
 20
-15.17486981818979
 30
0.0
 10
8.837384615384613
 20
-15.17647716346155
 30
0.0
  0
SPLINE
  5
117
330
1F
100
AcDbEntity
  8
0
  6
Continuous
 62
     7
370
    15
100
AcDbSpline
210
0.0
220
0.0
230
1.0
 70
     8
 71
     3
 72
    23
 73
    19
 74
     0
 42
0.000000001
 43
0.00000001
 40
0.0
 40
0.0
 40
0.0
 40
0.0
 40
0.0649830441816034
 40
0.1278026449472763
 40
0.189056336471382
 40
0.2483946473749248
 40
0.3076907059547799
 40
0.3669766194961129
 40
0.4273400442260026
 40
0.4887947153913315
 40
0.550673693406009
 40
0.6120451114225
 40
0.6733691390064577
 40
0.7349297539342459
 40
0.7978099682993128
 40
0.8628916725659065
 40
0.9300953375428058
 40
0.9999999999999999
 40
0.9999999999999999
 40
0.9999999999999999
 40
0.9999999999999999
 10
8.837384615384613
 20
-15.17647716346155
 30
0.0
 10
8.837410535271484
 20
-15.17768906605235
 30
0.0
 10
8.837461512109218
 20
-15.18007252405242
 30
0.0
 10
8.837951639886032
 20
-15.1835703060066
 30
0.0
 10
8.838743817212027
 20
-15.18690174577926
 30
0.0
 10
8.83986657458018
 20
-15.19006704486702
 30
0.0
 10
8.841257742254685
 20
-15.19308435896989
 30
0.0
 10
8.843007469789306
 20
-15.19593290306808
 30
0.0
 10
8.845066433064124
 20
-15.19861521399929
 30
0.0
 10
8.847418516561502
 20
-15.20111145263418
 30
0.0
 10
8.850010530199688
 20
-15.20338505864915
 30
0.0
 10
8.85282193017504
 20
-15.20538284581484
 30
0.0
 10
8.855848903379423
 20
-15.20701680013352
 30
0.0
 10
8.859017003743839
 20
-15.2084289729055
 30
0.0
 10
8.862403102171756
 20
-15.20946036818888
 30
0.0
 10
8.865958426674089
 20
-15.21024746743961
 30
0.0
 10
8.869708130120028
 20
-15.21069778020903
 30
0.0
 10
8.872264263665535
 20
-15.21075359441605
 30
0.0
 10
8.873567508012819
 20
-15.21078205128206
 30
0.0
  0
ENDSEC
  0
SECTION
  2
OBJECTS
  0
DICTIONARY
  5
C
330
0
100
AcDbDictionary
281
     1
  3
ACAD_GROUP
350
D
  3
ACAD_LAYOUT
350
1A
  3
ACAD_MLINESTYLE
350
17
  3
ACAD_PLOTSETTINGS
350
19
  3
ACAD_PLOTSTYLENAME
350
E
  3
ACAD_SCALELIST
350
47
  0
DICTIONARY
  5
D
102
{ACAD_REACTORS
330
C
102
}
330
C
100
AcDbDictionary
281
     1
  0
DICTIONARY
  5
1A
102
{ACAD_REACTORS
330
C
102
}
330
C
100
AcDbDictionary
281
     1
  3
Layout1
350
1E
  3
Layout2
350
26
  3
Model
350
22
  0
DICTIONARY
  5
17
102
{ACAD_REACTORS
330
C
102
}
330
C
100
AcDbDictionary
281
     1
  3
Standard
350
18
  0
DICTIONARY
  5
19
102
{ACAD_REACTORS
330
C
102
}
330
C
100
AcDbDictionary
281
     1
  0
ACDBDICTIONARYWDFLT
  5
E
102
{ACAD_REACTORS
330
C
102
}
330
C
100
AcDbDictionary
281
     1
  3
Normal
350
F
100
AcDbDictionaryWithDefault
340
F
  0
DICTIONARY
  5
47
102
{ACAD_REACTORS
330
C
102
}
330
C
100
AcDbDictionary
281
     1
  3
A0
350
48
  3
A1
350
49
  3
A2
350
4A
  3
A3
350
4B
  3
A4
350
4C
  3
A5
350
4D
  3
A6
350
4E
  3
A7
350
4F
  3
A8
350
50
  3
A9
350
51
  3
B0
350
52
  3
B1
350
53
  3
B2
350
54
  3
B3
350
55
  3
B4
350
56
  3
B5
350
57
  3
B6
350
58
  3
B7
350
59
  3
B8
350
5A
  3
B9
350
5B
  3
C0
350
5C
  3
C1
350
5D
  3
C2
350
5E
  3
C3
350
5F
  3
C4
350
60
  3
C5
350
61
  3
C6
350
62
  3
C7
350
63
  3
C8
350
64
  3
C9
350
65
  3
D0
350
66
  3
D1
350
67
  3
D2
350
68
  0
LAYOUT
  5
1E
102
{ACAD_REACTORS
330
1A
102
}
330
1A
100
AcDbPlotSettings
  1

  2
none_device
  4

  6

 40
0.0
 41
0.0
 42
0.0
 43
0.0
 44
0.0
 45
0.0
 46
0.0
 47
0.0
 48
0.0
 49
0.0
140
0.0
141
0.0
142
1.0
143
1.0
 70
   688
 72
     0
 73
     0
 74
     5
  7

 75
    16
147
1.0
148
0.0
149
0.0
100
AcDbLayout
  1
Layout1
 70
     1
 71
     1
 10
0.0
 20
0.0
 11
12.0
 21
9.0
 12
0.0
 22
0.0
 32
0.0
 14
1.0000000000E+20
 24
1.0000000000E+20
 34
1.0000000000E+20
 15
-1.0000000000E+20
 25
-1.0000000000E+20
 35
-1.0000000000E+20
146
0.0
 13
0.0
 23
0.0
 33
0.0
 16
1.0
 26
0.0
 36
0.0
 17
0.0
 27
1.0
 37
0.0
 76
     0
330
1B
  0
LAYOUT
  5
26
102
{ACAD_REACTORS
330
1A
102
}
330
1A
100
AcDbPlotSettings
  1

  2
none_device
  4

  6

 40
0.0
 41
0.0
 42
0.0
 43
0.0
 44
0.0
 45
0.0
 46
0.0
 47
0.0
 48
0.0
 49
0.0
140
0.0
141
0.0
142
1.0
143
1.0
 70
   688
 72
     0
 73
     0
 74
     5
  7

 75
    16
147
1.0
148
0.0
149
0.0
100
AcDbLayout
  1
Layout2
 70
     1
 71
     2
 10
0.0
 20
0.0
 11
0.0
 21
0.0
 12
0.0
 22
0.0
 32
0.0
 14
0.0
 24
0.0
 34
0.0
 15
0.0
 25
0.0
 35
0.0
146
0.0
 13
0.0
 23
0.0
 33
0.0
 16
1.0
 26
0.0
 36
0.0
 17
0.0
 27
1.0
 37
0.0
 76
     0
330
23
  0
LAYOUT
  5
22
102
{ACAD_REACTORS
330
1A
102
}
330
1A
100
AcDbPlotSettings
  1

  2
none_device
  4
ANSI_A_(11.00_x_8.50_Inches)
  6

 40
6.35
 41
19.05
 42
6.35000508
 43
19.05000254
 44
279.4
 45
215.9
 46
133.34999746
 47
88.89999873
 48
0.0
 49
0.0
140
0.0
141
0.0
142
0.263842729
143
1.0
 70
  1696
 72
     0
 73
     0
 74
     0
  7

 75
     0
147
0.5913241897
148
-39.4088153714
149
0.0
100
AcDbLayout
  1
Model
 70
     1
 71
     0
 10
0.0
 20
0.0
 11
12.0
 21
9.0
 12
0.0
 22
0.0
 32
0.0
 14
-9.897
 24
-15.947
 34
0.0
 15
9.897
 25
15.947
 35
0.0
146
0.0
 13
0.0
 23
0.0
 33
0.0
 16
1.0
 26
0.0
 36
0.0
 17
0.0
 27
1.0
 37
0.0
 76
     0
330
1F
331
29
  0
MLINESTYLE
  5
18
102
{ACAD_REACTORS
330
17
102
}
330
17
100
AcDbMlineStyle
  2
Standard
 70
     0
  3

 62
   256
 51
90.0
 52
90.0
 71
     2
 49
0.5
 62
   256
  6
BYLAYER
 49
-0.5
 62
   256
  6
BYLAYER
  0
ACDBPLACEHOLDER
  5
F
102
{ACAD_REACTORS
330
E
102
}
330
E
  0
SCALE
  5
48
102
{ACAD_REACTORS
330
47
102
}
330
47
100
AcDbScale
 70
     0
300
1:1
140
1.0
141
1.0
290
     1
  0
SCALE
  5
49
102
{ACAD_REACTORS
330
47
102
}
330
47
100
AcDbScale
 70
     0
300
1:2
140
1.0
141
2.0
290
     0
  0
SCALE
  5
4A
102
{ACAD_REACTORS
330
47
102
}
330
47
100
AcDbScale
 70
     0
300
1:4
140
1.0
141
4.0
290
     0
  0
SCALE
  5
4B
102
{ACAD_REACTORS
330
47
102
}
330
47
100
AcDbScale
 70
     0
300
1:5
140
1.0
141
5.0
290
     0
  0
SCALE
  5
4C
102
{ACAD_REACTORS
330
47
102
}
330
47
100
AcDbScale
 70
     0
300
1:8
140
1.0
141
8.0
290
     0
  0
SCALE
  5
4D
102
{ACAD_REACTORS
330
47
102
}
330
47
100
AcDbScale
 70
     0
300
1:10
140
1.0
141
10.0
290
     0
  0
SCALE
  5
4E
102
{ACAD_REACTORS
330
47
102
}
330
47
100
AcDbScale
 70
     0
300
1:16
140
1.0
141
16.0
290
     0
  0
SCALE
  5
4F
102
{ACAD_REACTORS
330
47
102
}
330
47
100
AcDbScale
 70
     0
300
1:20
140
1.0
141
20.0
290
     0
  0
SCALE
  5
50
102
{ACAD_REACTORS
330
47
102
}
330
47
100
AcDbScale
 70
     0
300
1:30
140
1.0
141
30.0
290
     0
  0
SCALE
  5
51
102
{ACAD_REACTORS
330
47
102
}
330
47
100
AcDbScale
 70
     0
300
1:40
140
1.0
141
40.0
290
     0
  0
SCALE
  5
52
102
{ACAD_REACTORS
330
47
102
}
330
47
100
AcDbScale
 70
     0
300
1:50
140
1.0
141
50.0
290
     0
  0
SCALE
  5
53
102
{ACAD_REACTORS
330
47
102
}
330
47
100
AcDbScale
 70
     0
300
1:100
140
1.0
141
100.0
290
     0
  0
SCALE
  5
54
102
{ACAD_REACTORS
330
47
102
}
330
47
100
AcDbScale
 70
     0
300
2:1
140
2.0
141
1.0
290
     0
  0
SCALE
  5
55
102
{ACAD_REACTORS
330
47
102
}
330
47
100
AcDbScale
 70
     0
300
4:1
140
4.0
141
1.0
290
     0
  0
SCALE
  5
56
102
{ACAD_REACTORS
330
47
102
}
330
47
100
AcDbScale
 70
     0
300
8:1
140
8.0
141
1.0
290
     0
  0
SCALE
  5
57
102
{ACAD_REACTORS
330
47
102
}
330
47
100
AcDbScale
 70
     0
300
10:1
140
10.0
141
1.0
290
     0
  0
SCALE
  5
58
102
{ACAD_REACTORS
330
47
102
}
330
47
100
AcDbScale
 70
     0
300
100:1
140
100.0
141
1.0
290
     0
  0
SCALE
  5
59
102
{ACAD_REACTORS
330
47
102
}
330
47
100
AcDbScale
 70
     0
300
1/128" = 1'-0"
140
0.0078125
141
12.0
290
     0
  0
SCALE
  5
5A
102
{ACAD_REACTORS
330
47
102
}
330
47
100
AcDbScale
 70
     0
300
1/64" = 1'-0"
140
0.015625
141
12.0
290
     0
  0
SCALE
  5
5B
102
{ACAD_REACTORS
330
47
102
}
330
47
100
AcDbScale
 70
     0
300
1/32" = 1'-0"
140
0.03125
141
12.0
290
     0
  0
SCALE
  5
5C
102
{ACAD_REACTORS
330
47
102
}
330
47
100
AcDbScale
 70
     0
300
1/16" = 1'-0"
140
0.0625
141
12.0
290
     0
  0
SCALE
  5
5D
102
{ACAD_REACTORS
330
47
102
}
330
47
100
AcDbScale
 70
     0
300
3/32" = 1'-0"
140
0.09375
141
12.0
290
     0
  0
SCALE
  5
5E
102
{ACAD_REACTORS
330
47
102
}
330
47
100
AcDbScale
 70
     0
300
1/8" = 1'-0"
140
0.125
141
12.0
290
     0
  0
SCALE
  5
5F
102
{ACAD_REACTORS
330
47
102
}
330
47
100
AcDbScale
 70
     0
300
3/16" = 1'-0"
140
0.1875
141
12.0
290
     0
  0
SCALE
  5
60
102
{ACAD_REACTORS
330
47
102
}
330
47
100
AcDbScale
 70
     0
300
1/4" = 1'-0"
140
0.25
141
12.0
290
     0
  0
SCALE
  5
61
102
{ACAD_REACTORS
330
47
102
}
330
47
100
AcDbScale
 70
     0
300
3/8" = 1'-0"
140
0.375
141
12.0
290
     0
  0
SCALE
  5
62
102
{ACAD_REACTORS
330
47
102
}
330
47
100
AcDbScale
 70
     0
300
1/2" = 1'-0"
140
0.5
141
12.0
290
     0
  0
SCALE
  5
63
102
{ACAD_REACTORS
330
47
102
}
330
47
100
AcDbScale
 70
     0
300
3/4" = 1'-0"
140
0.75
141
12.0
290
     0
  0
SCALE
  5
64
102
{ACAD_REACTORS
330
47
102
}
330
47
100
AcDbScale
 70
     0
300
1" = 1'-0"
140
1.0
141
12.0
290
     0
  0
SCALE
  5
65
102
{ACAD_REACTORS
330
47
102
}
330
47
100
AcDbScale
 70
     0
300
1-1/2" = 1'-0"
140
1.5
141
12.0
290
     0
  0
SCALE
  5
66
102
{ACAD_REACTORS
330
47
102
}
330
47
100
AcDbScale
 70
     0
300
3" = 1'-0"
140
3.0
141
12.0
290
     0
  0
SCALE
  5
67
102
{ACAD_REACTORS
330
47
102
}
330
47
100
AcDbScale
 70
     0
300
6" = 1'-0"
140
6.0
141
12.0
290
     0
  0
SCALE
  5
68
102
{ACAD_REACTORS
330
47
102
}
330
47
100
AcDbScale
 70
     0
300
1'-0" = 1'-0"
140
12.0
141
12.0
290
     0
  0
ENDSEC
  0
EOF
