  0
SECTION
  2
HEADER
  9
$ACADVER
  1
AC1015
  9
$ACADMAINTVER
 70
     6
  9
$DWGCODEPAGE
  3
ANSI_1252
  9
$INSBASE
 10
0.0
 20
0.0
 30
0.0
  9
$EXTMIN
 10
-3.6802457983
 20
-9.6386596639
 30
0.0
  9
$EXTMAX
 10
17.0072542017
 20
7.8131403361
 30
0.0
  9
$LIMMIN
 10
0.0
 20
0.0
  9
$LIMMAX
 10
12.0
 20
9.0
  9
$ORTHOMODE
 70
     0
  9
$REGENMODE
 70
     1
  9
$FILLMODE
 70
     1
  9
$QTEXTMODE
 70
     0
  9
$MIRRTEXT
 70
     1
  9
$LTSCALE
 40
1.0
  9
$ATTMODE
 70
     1
  9
$TEXTSIZE
 40
0.1377952756
  9
$TRACEWID
 40
0.05
  9
$TEXTSTYLE
  7
Standard
  9
$CLAYER
  8
0
  9
$CELTYPE
  6
ByLayer
  9
$CECOLOR
 62
   256
  9
$CELTSCALE
 40
1.0
  9
$DISPSILH
 70
     0
  9
$DIMSCALE
 40
1.0
  9
$DIMASZ
 40
0.13
  9
$DIMEXO
 40
0.0393700787
  9
$DIMDLI
 40
0.38
  9
$DIMRND
 40
0.0
  9
$DIMDLE
 40
0.0
  9
$DIMEXE
 40
0.0393700787
  9
$DIMTP
 40
0.0
  9
$DIMTM
 40
0.0
  9
$DIMTXT
 40
0.1377952756
  9
$DIMCEN
 40
0.09
  9
$DIMTSZ
 40
0.0
  9
$DIMTOL
 70
     0
  9
$DIMLIM
 70
     0
  9
$DIMTIH
 70
     1
  9
$DIMTOH
 70
     1
  9
$DIMSE1
 70
     0
  9
$DIMSE2
 70
     0
  9
$DIMTAD
 70
     1
  9
$DIMZIN
 70
     0
  9
$DIMBLK
  1

  9
$DIMASO
 70
     1
  9
$DIMSHO
 70
     1
  9
$DIMPOST
  1

  9
$DIMAPOST
  1

  9
$DIMALT
 70
     0
  9
$DIMALTD
 70
     2
  9
$DIMALTF
 40
25.4
  9
$DIMLFAC
 40
1.0
  9
$DIMTOFL
 70
     0
  9
$DIMTVP
 40
0.0
  9
$DIMTIX
 70
     0
  9
$DIMSOXD
 70
     0
  9
$DIMSAH
 70
     0
  9
$DIMBLK1
  1

  9
$DIMBLK2
  1

  9
$DIMSTYLE
  2
Standard
  9
$DIMCLRD
 70
     0
  9
$DIMCLRE
 70
     0
  9
$DIMCLRT
 70
     0
  9
$DIMTFAC
 40
1.0
  9
$DIMGAP
 40
0.06
  9
$DIMJUST
 70
     0
  9
$DIMSD1
 70
     0
  9
$DIMSD2
 70
     0
  9
$DIMTOLJ
 70
     1
  9
$DIMTZIN
 70
     0
  9
$DIMALTZ
 70
     0
  9
$DIMALTTZ
 70
     0
  9
$DIMUPT
 70
     0
  9
$DIMDEC
 70
     4
  9
$DIMTDEC
 70
     4
  9
$DIMALTU
 70
     2
  9
$DIMALTTD
 70
     2
  9
$DIMTXSTY
  7
Standard
  9
$DIMAUNIT
 70
     0
  9
$DIMADEC
 70
     4
  9
$DIMALTRND
 40
0.0
  9
$DIMAZIN
 70
     0
  9
$DIMDSEP
 70
    46
  9
$DIMATFIT
 70
     3
  9
$DIMFRAC
 70
     0
  9
$DIMLDRBLK
  1

  9
$DIMLUNIT
 70
     2
  9
$DIMLWD
 70
    -2
  9
$DIMLWE
 70
    -2
  9
$DIMTMOVE
 70
     0
  9
$LUNITS
 70
     2
  9
$LUPREC
 70
     2
  9
$SKETCHINC
 40
0.1
  9
$FILLETRAD
 40
0.5
  9
$AUNITS
 70
     0
  9
$AUPREC
 70
     2
  9
$MENU
  1
.
  9
$ELEVATION
 40
0.0
  9
$PELEVATION
 40
0.0
  9
$THICKNESS
 40
0.0
  9
$LIMCHECK
 70
     0
  9
$CHAMFERA
 40
0.0
  9
$CHAMFERB
 40
0.0
  9
$CHAMFERC
 40
0.0
  9
$CHAMFERD
 40
0.0
  9
$SKPOLY
 70
     0
  9
$TDCREATE
 40
2457750.349917651
  9
$TDUCREATE
 40
2457750.558250984
  9
$TDUPDATE
 40
2457750.350085672
  9
$TDUUPDATE
 40
2457750.558419005
  9
$TDINDWG
 40
0.0000000116
  9
$TDUSRTIMER
 40
0.0000000116
  9
$USRTIMER
 70
     1
  9
$ANGBASE
 50
0.0
  9
$ANGDIR
 70
     0
  9
$PDMODE
 70
     0
  9
$PDSIZE
 40
-1.0
  9
$PLINEWID
 40
0.0
  9
$SPLFRAME
 70
     0
  9
$SPLINETYPE
 70
     6
  9
$SPLINESEGS
 70
     8
  9
$HANDSEED
  5
1D1
  9
$SURFTAB1
 70
     6
  9
$SURFTAB2
 70
     6
  9
$SURFTYPE
 70
     6
  9
$SURFU
 70
     6
  9
$SURFV
 70
     6
  9
$UCSBASE
  2

  9
$UCSNAME
  2

  9
$UCSORG
 10
0.0
 20
0.0
 30
0.0
  9
$UCSXDIR
 10
1.0
 20
0.0
 30
0.0
  9
$UCSYDIR
 10
0.0
 20
1.0
 30
0.0
  9
$UCSORTHOREF
  2

  9
$UCSORTHOVIEW
 70
     0
  9
$UCSORGTOP
 10
0.0
 20
0.0
 30
0.0
  9
$UCSORGBOTTOM
 10
0.0
 20
0.0
 30
0.0
  9
$UCSORGLEFT
 10
0.0
 20
0.0
 30
0.0
  9
$UCSORGRIGHT
 10
0.0
 20
0.0
 30
0.0
  9
$UCSORGFRONT
 10
0.0
 20
0.0
 30
0.0
  9
$UCSORGBACK
 10
0.0
 20
0.0
 30
0.0
  9
$PUCSBASE
  2

  9
$PUCSNAME
  2

  9
$PUCSORG
 10
0.0
 20
0.0
 30
0.0
  9
$PUCSXDIR
 10
1.0
 20
0.0
 30
0.0
  9
$PUCSYDIR
 10
0.0
 20
1.0
 30
0.0
  9
$PUCSORTHOREF
  2

  9
$PUCSORTHOVIEW
 70
     0
  9
$PUCSORGTOP
 10
0.0
 20
0.0
 30
0.0
  9
$PUCSORGBOTTOM
 10
0.0
 20
0.0
 30
0.0
  9
$PUCSORGLEFT
 10
0.0
 20
0.0
 30
0.0
  9
$PUCSORGRIGHT
 10
0.0
 20
0.0
 30
0.0
  9
$PUCSORGFRONT
 10
0.0
 20
0.0
 30
0.0
  9
$PUCSORGBACK
 10
0.0
 20
0.0
 30
0.0
  9
$USERI1
 70
     0
  9
$USERI2
 70
     0
  9
$USERI3
 70
     0
  9
$USERI4
 70
     0
  9
$USERI5
 70
     0
  9
$USERR1
 40
0.0
  9
$USERR2
 40
0.0
  9
$USERR3
 40
0.0
  9
$USERR4
 40
0.0
  9
$USERR5
 40
0.0
  9
$WORLDVIEW
 70
     1
  9
$SHADEDGE
 70
     3
  9
$SHADEDIF
 70
    70
  9
$TILEMODE
 70
     1
  9
$MAXACTVP
 70
    64
  9
$PINSBASE
 10
0.0
 20
0.0
 30
0.0
  9
$PLIMCHECK
 70
     0
  9
$PEXTMIN
 10
1.0000000000E+20
 20
1.0000000000E+20
 30
1.0000000000E+20
  9
$PEXTMAX
 10
-1.0000000000E+20
 20
-1.0000000000E+20
 30
-1.0000000000E+20
  9
$PLIMMIN
 10
0.0
 20
0.0
  9
$PLIMMAX
 10
12.0
 20
9.0
  9
$UNITMODE
 70
     0
  9
$VISRETAIN
 70
     1
  9
$PLINEGEN
 70
     0
  9
$PSLTSCALE
 70
     1
  9
$TREEDEPTH
 70
  3020
  9
$CMLSTYLE
  2
Standard
  9
$CMLJUST
 70
     0
  9
$CMLSCALE
 40
1.0
  9
$PROXYGRAPHICS
 70
     1
  9
$MEASUREMENT
 70
     0
  9
$CELWEIGHT
370
    -1
  9
$ENDCAPS
280
     0
  9
$JOINSTYLE
280
     0
  9
$LWDISPLAY
290
     1
  9
$INSUNITS
 70
     1
  9
$HYPERLINKBASE
  1

  9
$STYLESHEET
  1

  9
$XEDIT
290
     1
  9
$CEPSNTYPE
380
     0
  9
$PSTYLEMODE
290
     1
  9
$FINGERPRINTGUID
  2
{2F033FE1-AAB5-4F39-8911-EF8F852DF012}
  9
$VERSIONGUID
  2
{FAEB1C32-E019-11D5-929B-00C0DF256EC4}
  9
$EXTNAMES
290
     1
  9
$PSVPSCALE
 40
0.0
  9
$OLESTARTUP
290
     0
  0
ENDSEC
  0
SECTION
  2
CLASSES
  0
CLASS
  1
ACDBDICTIONARYWDFLT
  2
AcDbDictionaryWithDefault
  3
ObjectDBX Classes
 90
        0
280
     0
281
     0
  0
CLASS
  1
VISUALSTYLE
  2
AcDbVisualStyle
  3
ObjectDBX Classes
 90
     4095
280
     0
281
     0
  0
CLASS
  1
MATERIAL
  2
AcDbMaterial
  3
ObjectDBX Classes
 90
     1153
280
     0
281
     0
  0
CLASS
  1
SCALE
  2
AcDbScale
  3
ObjectDBX Classes
 90
     1153
280
     0
281
     0
  0
CLASS
  1
TABLESTYLE
  2
AcDbTableStyle
  3
ObjectDBX Classes
 90
     4095
280
     0
281
     0
  0
CLASS
  1
MLEADERSTYLE
  2
AcDbMLeaderStyle
  3
ACDB_MLEADERSTYLE_CLASS
 90
     4095
280
     0
281
     0
  0
CLASS
  1
SUN
  2
AcDbSun
  3
SCENEOE
 90
     1153
280
     0
281
     0
  0
CLASS
  1
ACDBPLACEHOLDER
  2
AcDbPlaceHolder
  3
ObjectDBX Classes
 90
        0
280
     0
281
     0
  0
CLASS
  1
LAYOUT
  2
AcDbLayout
  3
ObjectDBX Classes
 90
        0
280
     0
281
     0
  0
ENDSEC
  0
SECTION
  2
TABLES
  0
TABLE
  2
VPORT
  5
8
330
0
100
AcDbSymbolTable
 70
     1
  0
VPORT
  5
29
330
8
100
AcDbSymbolTableRecord
100
AcDbViewportTableRecord
  2
*Active
 70
     0
 10
0.0
 20
0.0
 11
1.0
 21
1.0
 12
6.6635042017
 22
-0.9127596639
 13
0.0
 23
0.0
 14
0.5
 24
0.5
 15
0.5
 25
0.5
 16
0.0
 26
0.0
 36
1.0
 17
0.0
 27
0.0
 37
0.0
 40
17.800836
 41
1.1854078089
 42
50.0
 43
0.0
 44
0.0
 50
0.0
 51
0.0
 71
     0
 72
   100
 73
     1
 74
     3
 75
     0
 76
     0
 77
     0
 78
     0
281
     0
 65
     1
110
0.0
120
0.0
130
0.0
111
1.0
121
0.0
131
0.0
112
0.0
122
1.0
132
0.0
 79
     0
146
0.0
  0
ENDTAB
  0
TABLE
  2
LTYPE
  5
5
330
0
100
AcDbSymbolTable
 70
     6
  0
LTYPE
  5
14
330
5
100
AcDbSymbolTableRecord
100
AcDbLinetypeTableRecord
  2
ByBlock
 70
     0
  3

 72
    65
 73
     0
 40
0.0
  0
LTYPE
  5
15
330
5
100
AcDbSymbolTableRecord
100
AcDbLinetypeTableRecord
  2
ByLayer
 70
     0
  3

 72
    65
 73
     0
 40
0.0
  0
LTYPE
  5
16
330
5
100
AcDbSymbolTableRecord
100
AcDbLinetypeTableRecord
  2
Continuous
 70
     0
  3
Solid line
 72
    65
 73
     0
 40
0.0
  0
LTYPE
  5
6E
330
5
100
AcDbSymbolTableRecord
100
AcDbLinetypeTableRecord
  2
HIDDEN
 70
     0
  3
Hidden __ __ __ __ __ __ __ __ __ __ __ __ __ __
 72
    65
 73
     2
 40
0.075
 49
0.05
 74
     0
 49
-0.025
 74
     0
  0
LTYPE
  5
6F
330
5
100
AcDbSymbolTableRecord
100
AcDbLinetypeTableRecord
  2
PHANTOM
 70
     0
  3
Phantom ______  __  __  ______  __  __  ______
 72
    65
 73
     6
 40
0.5
 49
0.25
 74
     0
 49
-0.05
 74
     0
 49
0.05
 74
     0
 49
-0.05
 74
     0
 49
0.05
 74
     0
 49
-0.05
 74
     0
  0
LTYPE
  5
70
330
5
100
AcDbSymbolTableRecord
100
AcDbLinetypeTableRecord
  2
CENTER
 70
     0
  3
Center ____ _ ____ _ ____ _ ____ _ ____ _ ____
 72
    65
 73
     4
 40
0.4
 49
0.25
 74
     0
 49
-0.05
 74
     0
 49
0.05
 74
     0
 49
-0.05
 74
     0
  0
LTYPE
  5
71
330
5
100
AcDbSymbolTableRecord
100
AcDbLinetypeTableRecord
  2
CENTERX2
 70
     0
  3
Center (2x) ________  __  ________  __  _____
 72
    65
 73
     4
 40
0.8
 49
0.5
 74
     0
 49
-0.1
 74
     0
 49
0.1
 74
     0
 49
-0.1
 74
     0
  0
LTYPE
  5
72
330
5
100
AcDbSymbolTableRecord
100
AcDbLinetypeTableRecord
  2
DOT2
 70
     0
  3
Dot (.5x) ........................................
 72
    65
 73
     2
 40
0.025
 49
0.0
 74
     0
 49
-0.025
 74
     0
  0
ENDTAB
  0
TABLE
  2
LAYER
  5
2
330
0
100
AcDbSymbolTable
 70
     1
  0
LAYER
  5
10
330
2
100
AcDbSymbolTableRecord
100
AcDbLayerTableRecord
  2
0
 70
     0
 62
     7
  6
Continuous
370
    -3
390
F
  0
ENDTAB
  0
TABLE
  2
STYLE
  5
3
330
0
100
AcDbSymbolTable
 70
     1
  0
STYLE
  5
11
330
3
100
AcDbSymbolTableRecord
100
AcDbTextStyleTableRecord
  2
Standard
 70
     0
 40
0.0
 41
1.0
 50
0.0
 71
     0
 42
0.1377952756
  3
txt
  4

  0
ENDTAB
  0
TABLE
  2
VIEW
  5
6
330
0
100
AcDbSymbolTable
 70
     0
  0
ENDTAB
  0
TABLE
  2
UCS
  5
7
330
0
100
AcDbSymbolTable
 70
     0
  0
ENDTAB
  0
TABLE
  2
APPID
  5
9
330
0
100
AcDbSymbolTable
 70
     1
  0
APPID
  5
12
330
9
100
AcDbSymbolTableRecord
100
AcDbRegAppTableRecord
  2
ACAD
 70
     0
  0
ENDTAB
  0
TABLE
  2
DIMSTYLE
  5
A
330
0
100
AcDbSymbolTable
 70
     1
100
AcDbDimStyleTable
  0
DIMSTYLE
105
27
330
A
100
AcDbSymbolTableRecord
100
AcDbDimStyleTableRecord
  2
Standard
 70
     0
178
     0
340
11
  0
ENDTAB
  0
TABLE
  2
BLOCK_RECORD
  5
1
330
0
100
AcDbSymbolTable
 70
     1
  0
BLOCK_RECORD
  5
1F
330
1
100
AcDbSymbolTableRecord
100
AcDbBlockTableRecord
  2
*Model_Space
340
22
  0
BLOCK_RECORD
  5
1B
330
1
100
AcDbSymbolTableRecord
100
AcDbBlockTableRecord
  2
*Paper_Space
340
1E
  0
BLOCK_RECORD
  5
23
330
1
100
AcDbSymbolTableRecord
100
AcDbBlockTableRecord
  2
*Paper_Space0
340
26
  0
ENDTAB
  0
ENDSEC
  0
SECTION
  2
BLOCKS
  0
BLOCK
  5
20
330
1F
100
AcDbEntity
  8
0
100
AcDbBlockBegin
  2
*Model_Space
 70
     0
 10
0.0
 20
0.0
 30
0.0
  3
*Model_Space
  1

  0
ENDBLK
  5
21
330
1F
100
AcDbEntity
  8
0
100
AcDbBlockEnd
  0
BLOCK
  5
1C
330
1B
100
AcDbEntity
 67
     1
  8
0
100
AcDbBlockBegin
  2
*Paper_Space
 70
     0
 10
0.0
 20
0.0
 30
0.0
  3
*Paper_Space
  1

  0
ENDBLK
  5
1D
330
1B
100
AcDbEntity
 67
     1
  8
0
100
AcDbBlockEnd
  0
BLOCK
  5
24
330
23
100
AcDbEntity
  8
0
100
AcDbBlockBegin
  2
*Paper_Space0
 70
     0
 10
0.0
 20
0.0
 30
0.0
  3
*Paper_Space0
  1

  0
ENDBLK
  5
25
330
23
100
AcDbEntity
  8
0
100
AcDbBlockEnd
  0
ENDSEC
  0
SECTION
  2
ENTITIES
  0
LINE
  5
73
330
1F
100
AcDbEntity
  8
0
  6
Continuous
 62
     7
370
    15
100
AcDbLine
 10
-1.8488108094
 20
-9.0148021319
 30
0.0
 11
-1.8311447485
 21
-9.0148021319
 31
0.0
  0
LINE
  5
74
330
1F
100
AcDbEntity
  8
0
  6
Continuous
 62
     7
370
    15
100
AcDbLine
 10
-1.8311447485
 20
-9.0148021319
 30
0.0
 11
-1.8311447485
 21
-8.9741701917
 31
0.0
  0
LINE
  5
75
330
1F
100
AcDbEntity
  8
0
  6
Continuous
 62
     7
370
    15
100
AcDbLine
 10
-1.8311447485
 20
-8.9741701917
 30
0.0
 11
-1.8187785058
 21
-8.9741701917
 31
0.0
  0
LINE
  5
76
330
1F
100
AcDbEntity
  8
0
  6
Continuous
 62
     7
370
    15
100
AcDbLine
 10
-1.8187785058
 20
-8.9741701917
 30
0.0
 11
-1.8187785058
 21
-9.0148021319
 31
0.0
  0
LINE
  5
77
330
1F
100
AcDbEntity
  8
0
  6
Continuous
 62
     7
370
    15
100
AcDbLine
 10
-1.8187785058
 20
-9.0148021319
 30
0.0
 11
-1.8011124448
 21
-9.0148021319
 31
0.0
  0
LINE
  5
78
330
1F
100
AcDbEntity
  8
0
  6
Continuous
 62
     7
370
    15
100
AcDbLine
 10
-1.8011124448
 20
-9.0148021319
 30
0.0
 11
-1.8011124448
 21
-9.0271683746
 31
0.0
  0
LINE
  5
79
330
1F
100
AcDbEntity
  8
0
  6
Continuous
 62
     7
370
    15
100
AcDbLine
 10
-1.8011124448
 20
-9.0271683746
 30
0.0
 11
-1.8187785058
 21
-9.0271683746
 31
0.0
  0
LINE
  5
7A
330
1F
100
AcDbEntity
  8
0
  6
Continuous
 62
     7
370
    15
100
AcDbLine
 10
-1.8187785058
 20
-9.0271683746
 30
0.0
 11
-1.8187785058
 21
-9.1154986795
 31
0.0
  0
LINE
  5
7B
330
1F
100
AcDbEntity
  8
0
  6
Continuous
 62
     7
370
    15
100
AcDbLine
 10
-1.8187785058
 20
-9.1154986795
 30
0.0
 11
-1.8311447485
 21
-9.1154986795
 31
0.0
  0
LINE
  5
7C
330
1F
100
AcDbEntity
  8
0
  6
Continuous
 62
     7
370
    15
100
AcDbLine
 10
-1.8311447485
 20
-9.1154986795
 30
0.0
 11
-1.8311447485
 21
-9.0271683746
 31
0.0
  0
LINE
  5
7D
330
1F
100
AcDbEntity
  8
0
  6
Continuous
 62
     7
370
    15
100
AcDbLine
 10
-1.8311447485
 20
-9.0271683746
 30
0.0
 11
-1.8488108094
 21
-9.0271683746
 31
0.0
  0
LINE
  5
7E
330
1F
100
AcDbEntity
  8
0
  6
Continuous
 62
     7
370
    15
100
AcDbLine
 10
-1.8488108094
 20
-9.0271683746
 30
0.0
 11
-1.8488108094
 21
-9.0148021319
 31
0.0
  0
LINE
  5
7F
330
1F
100
AcDbEntity
  8
0
  6
Continuous
 62
     7
370
    15
100
AcDbLine
 10
-1.9477407509
 20
-9.1154986795
 30
0.0
 11
-1.9601069936
 21
-9.1154986795
 31
0.0
  0
LINE
  5
80
330
1F
100
AcDbEntity
  8
0
  6
Continuous
 62
     7
370
    15
100
AcDbLine
 10
-1.9601069936
 20
-9.1154986795
 30
0.0
 11
-1.9601069936
 21
-8.9741701917
 31
0.0
  0
LINE
  5
81
330
1F
100
AcDbEntity
  8
0
  6
Continuous
 62
     7
370
    15
100
AcDbLine
 10
-1.9601069936
 20
-8.9741701917
 30
0.0
 11
-1.9477407509
 21
-8.9741701917
 31
0.0
  0
LINE
  5
82
330
1F
100
AcDbEntity
  8
0
  6
Continuous
 62
     7
370
    15
100
AcDbLine
 10
-1.9477407509
 20
-8.9741701917
 30
0.0
 11
-1.9477407509
 21
-9.0338207507
 31
0.0
  0
SPLINE
  5
83
330
1F
100
AcDbEntity
  8
0
  6
Continuous
 62
     7
370
    15
100
AcDbSpline
210
0.0
220
0.0
230
1.0
 70
     8
 71
     3
 72
    15
 73
    11
 74
     0
 42
0.000000001
 43
0.00000001
 40
0.0
 40
0.0
 40
0.0
 40
0.0
 40
0.1407235132503612
 40
0.2739958912186216
 40
0.4006841600587794
 40
0.5225546790047733
 40
0.6415337705510108
 40
0.7599691428622695
 40
0.8784045151735276
 40
1.0
 40
1.0
 40
1.0
 40
1.0
 10
-1.947740750873346
 20
-9.033820750686688
 30
0.0
 10
-1.946413298052645
 20
-9.032161538793204
 30
0.0
 10
-1.943828679389726
 20
-9.028930968215658
 30
0.0
 10
-1.939478438578116
 20
-9.024715960701378
 30
0.0
 10
-1.935011081408176
 20
-9.021062471676768
 30
0.0
 10
-1.93027230936775
 20
-9.01815418595967
 30
0.0
 10
-1.925349060535375
 20
-9.015856684256669
 30
0.0
 10
-1.920220570597227
 20
-9.014227249356313
 30
0.0
 10
-1.914885886688311
 20
-9.01322523767685
 30
0.0
 10
-1.9112628492852
 20
-9.013099315713731
 30
0.0
 10
-1.909427481137832
 20
-9.013035525822971
 30
0.0
  0
SPLINE
  5
84
330
1F
100
AcDbEntity
  8
0
  6
Continuous
 62
     7
370
    15
100
AcDbSpline
210
0.0
220
0.0
230
1.0
 70
     8
 71
     3
 72
    23
 73
    19
 74
     0
 42
0.000000001
 43
0.00000001
 40
0.0
 40
0.0
 40
0.0
 40
0.0
 40
0.0772285532334938
 40
0.1511549072635829
 40
0.2234536379509649
 40
0.2954972249195512
 40
0.3669198573541528
 40
0.4367940850066746
 40
0.5066964308522618
 40
0.5778638467408578
 40
0.6159118097672281
 40
0.6580480255185095
 40
0.7037759860580356
 40
0.7540801428690661
 40
0.8089794210802161
 40
0.8679131928433395
 40
0.9317018161757172
 40
0.9999999999999999
 40
0.9999999999999999
 40
0.9999999999999999
 40
0.9999999999999999
 10
-1.909427481137832
 20
-9.01303552582297
 30
0.0
 10
-1.907564079845801
 20
-9.013104243550028
 30
0.0
 10
-1.903916954039362
 20
-9.013238740717542
 30
0.0
 10
-1.898606660232154
 20
-9.014302259655746
 30
0.0
 10
-1.893647570668452
 20
-9.016119481627314
 30
0.0
 10
-1.889054427251706
 20
-9.018606372377429
 30
0.0
 10
-1.884927470672434
 20
-9.021703727780825
 30
0.0
 10
-1.881271968143836
 20
-9.025279771979234
 30
0.0
 10
-1.878286109923712
 20
-9.029424414425778
 30
0.0
 10
-1.876254648626261
 20
-9.033253400802518
 30
0.0
 10
-1.874932860915783
 20
-9.036660438359867
 30
0.0
 10
-1.874096174838429
 20
-9.039583135692675
 30
0.0
 10
-1.873386757581762
 20
-9.042839903930728
 30
0.0
 10
-1.872768657747821
 20
-9.046429066621815
 30
0.0
 10
-1.872356705716649
 20
-9.050367852894025
 30
0.0
 10
-1.872025815244461
 20
-9.05463849283298
 30
0.0
 10
-1.871790521771547
 20
-9.059240741577975
 30
0.0
 10
-1.871781403485178
 20
-9.06242657816792
 30
0.0
 10
-1.871776688688811
 20
-9.064073880103203
 30
0.0
  0
LINE
  5
85
330
1F
100
AcDbEntity
  8
0
  6
Continuous
 62
     7
370
    15
100
AcDbLine
 10
-1.8717766887
 20
-9.0640738801
 30
0.0
 11
-1.8717766887
 21
-9.1154986795
 31
0.0
  0
LINE
  5
86
330
1F
100
AcDbEntity
  8
0
  6
Continuous
 62
     7
370
    15
100
AcDbLine
 10
-1.8717766887
 20
-9.1154986795
 30
0.0
 11
-1.8841429314
 21
-9.1154986795
 31
0.0
  0
LINE
  5
87
330
1F
100
AcDbEntity
  8
0
  6
Continuous
 62
     7
370
    15
100
AcDbLine
 10
-1.8841429314
 20
-9.1154986795
 30
0.0
 11
-1.8841429314
 21
-9.0681315535
 31
0.0
  0
SPLINE
  5
88
330
1F
100
AcDbEntity
  8
0
  6
Continuous
 62
     7
370
    15
100
AcDbSpline
210
0.0
220
0.0
230
1.0
 70
     8
 71
     3
 72
    15
 73
    11
 74
     0
 42
0.000000001
 43
0.00000001
 40
0.0
 40
0.0
 40
0.0
 40
0.0
 40
0.1788665699309796
 40
0.342141307270013
 40
0.4898709911205428
 40
0.6233121032799284
 40
0.7400556234383134
 40
0.8414680041078538
 40
0.9289010934038053
 40
1.0
 40
1.0
 40
1.0
 40
1.0
 10
-1.884142931370015
 20
-9.068131553482973
 30
0.0
 10
-1.884150423620571
 20
-9.066760582241464
 30
0.0
 10
-1.884164755020792
 20
-9.064138147579806
 30
0.0
 10
-1.884212130790924
 20
-9.06038357638444
 30
0.0
 10
-1.884317887300189
 20
-9.05697821675562
 30
0.0
 10
-1.884488785955245
 20
-9.053932982434137
 30
0.0
 10
-1.884668522466265
 20
-9.051243627973063
 30
0.0
 10
-1.884915897158276
 20
-9.048914058900825
 30
0.0
 10
-1.885203701648001
 20
-9.046941075621222
 30
0.0
 10
-1.885462315089556
 20
-9.04575349181686
 30
0.0
 10
-1.885578298824083
 20
-9.045220880658423
 30
0.0
  0
SPLINE
  5
89
330
1F
100
AcDbEntity
  8
0
  6
Continuous
 62
     7
370
    15
100
AcDbSpline
210
0.0
220
0.0
230
1.0
 70
     8
 71
     3
 72
    15
 73
    11
 74
     0
 42
0.000000001
 43
0.00000001
 40
0.0
 40
0.0
 40
0.0
 40
0.0
 40
0.1362573959516421
 40
0.2619540501111568
 40
0.3796376751610114
 40
0.4943790325909177
 40
0.6098662115170757
 40
0.7298874857748378
 40
0.859212547919229
 40
1.0
 40
1.0
 40
1.0
 40
1.0
 10
-1.885578298824083
 20
-9.045220880658423
 30
0.0
 10
-1.886028072253067
 20
-9.043658114372672
 30
0.0
 10
-1.886892759050667
 20
-9.04065370529036
 30
0.0
 10
-1.888902521932196
 20
-9.036572508043141
 30
0.0
 10
-1.891412719218026
 20
-9.033092793841877
 30
0.0
 10
-1.894477572035969
 20
-9.030261522654893
 30
0.0
 10
-1.898042861961514
 20
-9.02804059590863
 30
0.0
 10
-1.902131836926508
 20
-9.02650249424714
 30
0.0
 10
-1.906706012849064
 20
-9.025547859523865
 30
0.0
 10
-1.909928511737975
 20
-9.025451823953482
 30
0.0
 10
-1.911608135539205
 20
-9.025401768504173
 30
0.0
  0
SPLINE
  5
8A
330
1F
100
AcDbEntity
  8
0
  6
Continuous
 62
     7
370
    15
100
AcDbSpline
210
0.0
220
0.0
230
1.0
 70
     8
 71
     3
 72
    23
 73
    19
 74
     0
 42
0.000000001
 43
0.00000001
 40
0.0
 40
0.0
 40
0.0
 40
0.0
 40
0.0640199753991838
 40
0.1266938772026801
 40
0.1890843947192439
 40
0.2503626319435301
 40
0.3125164793751657
 40
0.3742426024152302
 40
0.4378501622567329
 40
0.5026573259791329
 40
0.5677454391232027
 40
0.6305759140873912
 40
0.6927720900845415
 40
0.754267545621944
 40
0.8151205536325553
 40
0.8760513585553895
 40
0.9379817981186438
 40
1.0
 40
1.0
 40
1.0
 40
1.0
 10
-1.911608135539205
 20
-9.025401768504173
 30
0.0
 10
-1.912602929758807
 20
-9.025420501823763
 30
0.0
 10
-1.914571601816464
 20
-9.025457574579214
 30
0.0
 10
-1.917490840628042
 20
-9.025829775309123
 30
0.0
 10
-1.920322693522554
 20
-9.026437992576794
 30
0.0
 10
-1.923094432808136
 20
-9.027261005911788
 30
0.0
 10
-1.925747314607831
 20
-9.02838090892266
 30
0.0
 10
-1.928358665984811
 20
-9.029677373069449
 30
0.0
 10
-1.930854500982644
 20
-9.031264312241234
 30
0.0
 10
-1.933279139441749
 20
-9.033044854266416
 30
0.0
 10
-1.935535735242797
 20
-9.035016104649001
 30
0.0
 10
-1.937635227978065
 20
-9.037096693428987
 30
0.0
 10
-1.939506816173204
 20
-9.039312243202593
 30
0.0
 10
-1.941202429991114
 20
-9.04162720840247
 30
0.0
 10
-1.942666142024782
 20
-9.044073342003273
 30
0.0
 10
-1.94394382242218
 20
-9.046627055326528
 30
0.0
 10
-1.945027904957154
 20
-9.049291706729367
 30
0.0
 10
-1.945566593628633
 20
-9.051141118605706
 30
0.0
 10
-1.945836128674679
 20
-9.052066479285518
 30
0.0
  0
SPLINE
  5
8B
330
1F
100
AcDbEntity
  8
0
  6
Continuous
 62
     7
370
    15
100
AcDbSpline
210
0.0
220
0.0
230
1.0
 70
     8
 71
     3
 72
    15
 73
    11
 74
     0
 42
0.000000001
 43
0.00000001
 40
0.0
 40
0.0
 40
0.0
 40
0.0
 40
0.075999078197629
 40
0.1656113455724321
 40
0.26904502724774
 40
0.3874479753729443
 40
0.5188266584719452
 40
0.6653935553138696
 40
0.8250827975617914
 40
1.0
 40
1.0
 40
1.0
 40
1.0
 10
-1.945836128674679
 20
-9.052066479285518
 30
0.0
 10
-1.945991224235183
 20
-9.052736595463355
 30
0.0
 10
-1.946329196551118
 20
-9.054196861094638
 30
0.0
 10
-1.946695922270977
 20
-9.056605299044714
 30
0.0
 10
-1.947024181980247
 20
-9.059403975107962
 30
0.0
 10
-1.947301683939495
 20
-9.062588644411312
 30
0.0
 10
-1.947471884190885
 20
-9.06617097678363
 30
0.0
 10
-1.947655279496882
 20
-9.070126526354048
 30
0.0
 10
-1.947723547763959
 20
-9.074480070480345
 30
0.0
 10
-1.947734845122388
 20
-9.077507452662978
 30
0.0
 10
-1.947740750873346
 20
-9.07909003193038
 30
0.0
  0
LINE
  5
8C
330
1F
100
AcDbEntity
  8
0
  6
Continuous
 62
     7
370
    15
100
AcDbLine
 10
-1.9477407509
 20
-9.0790900319
 30
0.0
 11
-1.9477407509
 21
-9.1154986795
 31
0.0
  0
SPLINE
  5
8D
330
1F
100
AcDbEntity
  8
0
  6
Continuous
 62
     7
370
    15
100
AcDbSpline
210
0.0
220
0.0
230
1.0
 70
     8
 71
     3
 72
    15
 73
    11
 74
     0
 42
0.000000001
 43
0.00000001
 40
0.0
 40
0.0
 40
0.0
 40
0.0
 40
0.1318667517023296
 40
0.2566614034533605
 40
0.3842132129425055
 40
0.5133652331525815
 40
0.640443151825412
 40
0.7610850047778804
 40
0.879145524653192
 40
0.9999999999999999
 40
0.9999999999999999
 40
0.9999999999999999
 40
0.9999999999999999
 10
-2.12533987009402
 20
-8.993602858752508
 30
0.0
 10
-2.126098463604522
 20
-8.993568617798902
 30
0.0
 10
-2.127574966760491
 20
-8.99350197225637
 30
0.0
 10
-2.129715393624358
 20
-8.9928889794321
 30
0.0
 10
-2.131677145175277
 20
-8.991888346632875
 30
0.0
 10
-2.133435596854738
 20
-8.990540859030698
 30
0.0
 10
-2.134901352489861
 20
-8.988928855202758
 30
0.0
 10
-2.13596821569445
 20
-8.987104945995783
 30
0.0
 10
-2.136640458288372
 20
-8.985128207625
 30
0.0
 10
-2.136724892485801
 20
-8.983753712888419
 30
0.0
 10
-2.136767603286025
 20
-8.983058428609164
 30
0.0
  0
SPLINE
  5
8E
330
1F
100
AcDbEntity
  8
0
  6
Continuous
 62
     7
370
    15
100
AcDbSpline
210
0.0
220
0.0
230
1.0
 70
     8
 71
     3
 72
    15
 73
    11
 74
     0
 42
0.000000001
 43
0.00000001
 40
0.0
 40
0.0
 40
0.0
 40
0.0
 40
0.123289868727819
 40
0.2421490813340196
 40
0.3634374760537467
 40
0.4897453933414087
 40
0.6181148445930247
 40
0.7448937812572672
 40
0.8689322665891951
 40
1.0
 40
1.0
 40
1.0
 40
1.0
 10
-2.136767603286025
 20
-8.983058428609162
 30
0.0
 10
-2.13672582822237
 20
-8.982344615632675
 30
0.0
 10
-2.136643779361492
 20
-8.980942641907793
 30
0.0
 10
-2.135967711796988
 20
-8.97893102643868
 30
0.0
 10
-2.134910239050455
 20
-8.977081361013353
 30
0.0
 10
-2.133434626312916
 20
-8.9754661838706
 30
0.0
 10
-2.131677403467625
 20
-8.97411793840725
 30
0.0
 10
-2.129715326886264
 20
-8.973117506064645
 30
0.0
 10
-2.127574984391045
 20
-8.97250446120755
 30
0.0
 10
-2.126098469588345
 20
-8.972437822847928
 30
0.0
 10
-2.12533987009402
 20
-8.972403585584733
 30
0.0
  0
SPLINE
  5
8F
330
1F
100
AcDbEntity
  8
0
  6
Continuous
 62
     7
370
    15
100
AcDbSpline
210
0.0
220
0.0
230
1.0
 70
     8
 71
     3
 72
    15
 73
    11
 74
     0
 42
0.000000001
 43
0.00000001
 40
0.0
 40
0.0
 40
0.0
 40
0.0
 40
0.1318992643310822
 40
0.2582840923169658
 40
0.3843411247790816
 40
0.5119796151256787
 40
0.6386320084211332
 40
0.7592297631645403
 40
0.8774121680351825
 40
1.0
 40
1.0
 40
1.0
 40
1.0
 10
-2.12533987009402
 20
-8.972403585584733
 30
0.0
 10
-2.124572495456692
 20
-8.972439182135744
 30
0.0
 10
-2.123069828533759
 20
-8.97250888701935
 30
0.0
 10
-2.120896865239419
 20
-8.973105795565756
 30
0.0
 10
-2.118918242716767
 20
-8.9741175942053
 30
0.0
 10
-2.117163213862836
 20
-8.975475061957292
 30
0.0
 10
-2.115657234072247
 20
-8.977071496739153
 30
0.0
 10
-2.11460287539605
 20
-8.978932164782274
 30
0.0
 10
-2.113925222005684
 20
-8.980942347411755
 30
0.0
 10
-2.113843389120741
 20
-8.982344516277152
 30
0.0
 10
-2.113801724020933
 20
-8.983058428609162
 30
0.0
  0
SPLINE
  5
90
330
1F
100
AcDbEntity
  8
0
  6
Continuous
 62
     7
370
    15
100
AcDbSpline
210
0.0
220
0.0
230
1.0
 70
     8
 71
     3
 72
    15
 73
    11
 74
     0
 42
0.000000001
 43
0.00000001
 40
0.0
 40
0.0
 40
0.0
 40
0.0
 40
0.120162134992559
 40
0.2375463202768781
 40
0.3574970509273327
 40
0.4849171224652755
 40
0.6133292680851254
 40
0.7401503701286826
 40
0.8673012545632512
 40
1.0
 40
1.0
 40
1.0
 40
1.0
 10
-2.113801724020933
 20
-8.983058428609162
 30
0.0
 10
-2.113844328738447
 20
-8.983753808654956
 30
0.0
 10
-2.11392855322291
 20
-8.985128492710652
 30
0.0
 10
-2.114602351972964
 20
-8.987103826256025
 30
0.0
 10
-2.115666219604559
 20
-8.988938640566392
 30
0.0
 10
-2.117162248172516
 20
-8.99053197561412
 30
0.0
 10
-2.118918498605662
 20
-8.99188869293658
 30
0.0
 10
-2.120896797261178
 20
-8.992900690531265
 30
0.0
 10
-2.123069846415294
 20
-8.993497546333066
 30
0.0
 10
-2.124572501501443
 20
-8.99356725848814
 30
0.0
 10
-2.12533987009402
 20
-8.993602858752508
 30
0.0
  0
LINE
  5
91
330
1F
100
AcDbEntity
  8
0
  6
Continuous
 62
     7
370
    15
100
AcDbLine
 10
-2.2303977264
 20
-9.1154986795
 30
0.0
 11
-2.2427639691
 21
-9.1154986795
 31
0.0
  0
LINE
  5
92
330
1F
100
AcDbEntity
  8
0
  6
Continuous
 62
     7
370
    15
100
AcDbLine
 10
-2.2427639691
 20
-9.1154986795
 30
0.0
 11
-2.2427639691
 21
-8.9777034039
 31
0.0
  0
LINE
  5
93
330
1F
100
AcDbEntity
  8
0
  6
Continuous
 62
     7
370
    15
100
AcDbLine
 10
-2.2427639691
 20
-8.9777034039
 30
0.0
 11
-2.2151883521
 21
-8.9777034039
 31
0.0
  0
SPLINE
  5
94
330
1F
100
AcDbEntity
  8
0
  6
Continuous
 62
     7
370
    15
100
AcDbSpline
210
0.0
220
0.0
230
1.0
 70
     8
 71
     3
 72
    15
 73
    11
 74
     0
 42
0.000000001
 43
0.00000001
 40
0.0
 40
0.0
 40
0.0
 40
0.0
 40
0.1762577548177992
 40
0.3384344138804686
 40
0.4848220507878292
 40
0.6171575782663286
 40
0.7346983606124721
 40
0.8373851838323597
 40
0.9263724209295824
 40
0.9999999999999999
 40
0.9999999999999999
 40
0.9999999999999999
 40
0.9999999999999999
 10
-2.215188352074638
 20
-8.977703403876674
 30
0.0
 10
-2.213348150164654
 20
-8.977709529309273
 30
0.0
 10
-2.209814758652487
 20
-8.9777212908184
 30
0.0
 10
-2.204752818874549
 20
-8.977786872035255
 30
0.0
 10
-2.200153326866666
 20
-8.977974838795419
 30
0.0
 10
-2.196018687523472
 20
-8.978136594050428
 30
0.0
 10
-2.192348976697633
 20
-8.978431552370235
 30
0.0
 10
-2.189132941628816
 20
-8.978713467611174
 30
0.0
 10
-2.186385394483099
 20
-8.979082509374122
 30
0.0
 10
-2.184722171990872
 20
-8.979425242561748
 30
0.0
 10
-2.183969109948654
 20
-8.979580422855072
 30
0.0
  0
SPLINE
  5
95
330
1F
100
AcDbEntity
  8
0
  6
Continuous
 62
     7
370
    15
100
AcDbSpline
210
0.0
220
0.0
230
1.0
 70
     8
 71
     3
 72
    23
 73
    19
 74
     0
 42
0.000000001
 43
0.00000001
 40
0.0
 40
0.0
 40
0.0
 40
0.0
 40
0.064216842631428
 40
0.1270637656931291
 40
0.1887445383478272
 40
0.2491321028350414
 40
0.3094525327106242
 40
0.3698266762476877
 40
0.4306501418384647
 40
0.4923519318794719
 40
0.5540721062625261
 40
0.6156897837449717
 40
0.6767977025065398
 40
0.7384390482469502
 40
0.8013169100649061
 40
0.8651845117115357
 40
0.9316413244190732
 40
1.0
 40
1.0
 40
1.0
 40
1.0
 10
-2.183969109948654
 20
-8.979580422855072
 30
0.0
 10
-2.182960975140117
 20
-8.979829508105684
 30
0.0
 10
-2.180966211775087
 20
-8.980322364942372
 30
0.0
 10
-2.178094161930998
 20
-8.981364081510232
 30
0.0
 10
-2.175357377523448
 20
-8.982569578542703
 30
0.0
 10
-2.172767226959602
 20
-8.983985473043415
 30
0.0
 10
-2.170336683999348
 20
-8.985622275392723
 30
0.0
 10
-2.16804068751137
 20
-8.987451729031905
 30
0.0
 10
-2.165868818874363
 20
-8.989463823747277
 30
0.0
 10
-2.16390891217435
 20
-8.991709289948172
 30
0.0
 10
-2.162060918013146
 20
-8.994065058045804
 30
0.0
 10
-2.160502310670604
 20
-8.99661245004743
 30
0.0
 10
-2.159158748476806
 20
-8.999276289713729
 30
0.0
 10
-2.158089043083098
 20
-9.00208366836552
 30
0.0
 10
-2.157227705544785
 20
-9.005007360171133
 30
0.0
 10
-2.156620373286086
 20
-9.008073848231257
 30
0.0
 10
-2.156256153300622
 20
-9.011269162210942
 30
0.0
 10
-2.156219072373318
 20
-9.01344860743896
 30
0.0
 10
-2.156200270356487
 20
-9.01455370293785
 30
0.0
  0
SPLINE
  5
96
330
1F
100
AcDbEntity
  8
0
  6
Continuous
 62
     7
370
    15
100
AcDbSpline
210
0.0
220
0.0
230
1.0
 70
     8
 71
     3
 72
    23
 73
    19
 74
     0
 42
0.000000001
 43
0.00000001
 40
0.0
 40
0.0
 40
0.0
 40
0.0
 40
0.0787802355821468
 40
0.1537206442085852
 40
0.226713530308777
 40
0.2991911660659418
 40
0.3711899968376738
 40
0.443006414353415
 40
0.5166891732948854
 40
0.5932172166234112
 40
0.6338729178078489
 40
0.6769891422899804
 40
0.7228995063258296
 40
0.7719586105061473
 40
0.8242113233348384
 40
0.8793786506272037
 40
0.9379481193304172
 40
1.0
 40
1.0
 40
1.0
 40
1.0
 10
-2.156200270356487
 20
-9.01455370293785
 30
0.0
 10
-2.156258104927688
 20
-9.016389730678437
 30
0.0
 10
-2.156370955155626
 20
-9.01997229634332
 30
0.0
 10
-2.157423124591848
 20
-9.02517154364288
 30
0.0
 10
-2.159146609620539
 20
-9.030021516660215
 30
0.0
 10
-2.1615215422587
 20
-9.034516108704135
 30
0.0
 10
-2.164545931066319
 20
-9.038567708915165
 30
0.0
 10
-2.168180765361726
 20
-9.042126388257834
 30
0.0
 10
-2.17242807290069
 20
-9.045104337572441
 30
0.0
 10
-2.176381982977035
 20
-9.047169408623672
 30
0.0
 10
-2.179874668004462
 20
-9.048491964081348
 30
0.0
 10
-2.182749995279581
 20
-9.049422529390753
 30
0.0
 10
-2.185886490456582
 20
-9.050141504401667
 30
0.0
 10
-2.189254102055239
 20
-9.050785604077669
 30
0.0
 10
-2.192866844397448
 20
-9.051271891259228
 30
0.0
 10
-2.196716058546628
 20
-9.051628056395815
 30
0.0
 10
-2.200804489713168
 20
-9.051850656738269
 30
0.0
 10
-2.20361311449085
 20
-9.051883806537042
 30
0.0
 10
-2.205057970235349
 20
-9.051900859963895
 30
0.0
  0
LINE
  5
97
330
1F
100
AcDbEntity
  8
0
  6
Continuous
 62
     7
370
    15
100
AcDbLine
 10
-2.2050579702
 20
-9.05190086
 30
0.0
 11
-2.1544336643
 21
-9.1154986795
 31
0.0
  0
LINE
  5
98
330
1F
100
AcDbEntity
  8
0
  6
Continuous
 62
     7
370
    15
100
AcDbLine
 10
-2.1544336643
 20
-9.1154986795
 30
0.0
 11
-2.1697258483
 21
-9.1154986795
 31
0.0
  0
LINE
  5
99
330
1F
100
AcDbEntity
  8
0
  6
Continuous
 62
     7
370
    15
100
AcDbLine
 10
-2.1697258483
 20
-9.1154986795
 30
0.0
 11
-2.2203501543
 21
-9.05190086
 31
0.0
  0
LINE
  5
9A
330
1F
100
AcDbEntity
  8
0
  6
Continuous
 62
     7
370
    15
100
AcDbLine
 10
-2.2203501543
 20
-9.05190086
 30
0.0
 11
-2.2303977264
 21
-9.05190086
 31
0.0
  0
LINE
  5
9B
330
1F
100
AcDbEntity
  8
0
  6
Continuous
 62
     7
370
    15
100
AcDbLine
 10
-2.2303977264
 20
-9.05190086
 30
0.0
 11
-2.2303977264
 21
-9.1154986795
 31
0.0
  0
LINE
  5
9C
330
1F
100
AcDbEntity
  8
0
  6
Continuous
 62
     7
370
    15
100
AcDbLine
 10
-2.71781539
 20
-9.1154986795
 30
0.0
 11
-2.7550797373
 21
-9.1154986795
 31
0.0
  0
LINE
  5
9D
330
1F
100
AcDbEntity
  8
0
  6
Continuous
 62
     7
370
    15
100
AcDbLine
 10
-2.7550797373
 20
-9.1154986795
 30
0.0
 11
-2.7550797373
 21
-8.9777034039
 31
0.0
  0
LINE
  5
9E
330
1F
100
AcDbEntity
  8
0
  6
Continuous
 62
     7
370
    15
100
AcDbLine
 10
-2.7550797373
 20
-8.9777034039
 30
0.0
 11
-2.7281942008
 21
-8.9777034039
 31
0.0
  0
SPLINE
  5
9F
330
1F
100
AcDbEntity
  8
0
  6
Continuous
 62
     7
370
    15
100
AcDbSpline
210
0.0
220
0.0
230
1.0
 70
     8
 71
     3
 72
    23
 73
    19
 74
     0
 42
0.000000001
 43
0.00000001
 40
0.0
 40
0.0
 40
0.0
 40
0.0
 40
0.0625940971873312
 40
0.1213229386347493
 40
0.1766801421977669
 40
0.2283650957096703
 40
0.2768684458368086
 40
0.3218791276660511
 40
0.3640986251098934
 40
0.4033556962427
 40
0.477967948163379
 40
0.5505354613647873
 40
0.62358445674032
 40
0.6981748822642172
 40
0.7733536703408864
 40
0.8472811254977426
 40
0.9228183395566738
 40
1.0
 40
1.0
 40
1.0
 40
1.0
 10
-2.728194200802681
 20
-8.977703403876674
 30
0.0
 10
-2.726878118984263
 20
-8.97771032318383
 30
0.0
 10
-2.72432722487653
 20
-8.97772373452316
 30
0.0
 10
-2.720617798032878
 20
-8.97793173181241
 30
0.0
 10
-2.717143435409236
 20
-8.978215340862754
 30
0.0
 10
-2.713903129411184
 20
-8.97866534451016
 30
0.0
 10
-2.710898377348542
 20
-8.979208327862343
 30
0.0
 10
-2.708120123913982
 20
-8.97986587967692
 30
0.0
 10
-2.705577203745938
 20
-8.980654329033575
 30
0.0
 10
-2.702541269241759
 20
-8.981908119633275
 30
0.0
 10
-2.699079825900073
 20
-8.98377123649744
 30
0.0
 10
-2.695331857683421
 20
-8.986524329613545
 30
0.0
 10
-2.69212696637006
 20
-8.989891749421432
 30
0.0
 10
-2.689363725533803
 20
-8.993690279162548
 30
0.0
 10
-2.68716683106092
 20
-8.997868852853536
 30
0.0
 10
-2.685577488646917
 20
-9.002327876033748
 30
0.0
 10
-2.684571273081614
 20
-9.007009834377039
 30
0.0
 10
-2.684467791419571
 20
-9.010224132718728
 30
0.0
 10
-2.6844154934536
 20
-9.011848587351336
 30
0.0
  0
SPLINE
  5
A0
330
1F
100
AcDbEntity
  8
0
  6
Continuous
 62
     7
370
    15
100
AcDbSpline
210
0.0
220
0.0
230
1.0
 70
     8
 71
     3
 72
    15
 73
    11
 74
     0
 42
0.000000001
 43
0.00000001
 40
0.0
 40
0.0
 40
0.0
 40
0.0
 40
0.1305691070873317
 40
0.256580608694095
 40
0.3805516168036909
 40
0.5036229172007112
 40
0.6257393231697862
 40
0.74754858195962
 40
0.8717661185648697
 40
0.9999999999999999
 40
0.9999999999999999
 40
0.9999999999999999
 40
0.9999999999999999
 10
-2.684415493453599
 20
-9.011848587351336
 30
0.0
 10
-2.684458533549764
 20
-9.013370341511886
 30
0.0
 10
-2.684543111397605
 20
-9.016360731945785
 30
0.0
 10
-2.685351881450074
 20
-9.020734515775848
 30
0.0
 10
-2.686618049498876
 20
-9.024897949587949
 30
0.0
 10
-2.688378098678559
 20
-9.02883583877759
 30
0.0
 10
-2.690665578843838
 20
-9.032459209373874
 30
0.0
 10
-2.693376536271598
 20
-9.035797290714232
 30
0.0
 10
-2.696647276527148
 20
-9.038708749651041
 30
0.0
 10
-2.699097797786515
 20
-9.040336422979811
 30
0.0
 10
-2.700342551549703
 20
-9.041163207278654
 30
0.0
  0
SPLINE
  5
A1
330
1F
100
AcDbEntity
  8
0
  6
Continuous
 62
     7
370
    15
100
AcDbSpline
210
0.0
220
0.0
230
1.0
 70
     8
 71
     3
 72
    19
 73
    15
 74
     0
 42
0.000000001
 43
0.00000001
 40
0.0
 40
0.0
 40
0.0
 40
0.0
 40
0.106057493303387
 40
0.2029142570846137
 40
0.2903001653958354
 40
0.3702225656250384
 40
0.4463837207709788
 40
0.5213968999648217
 40
0.5982910828464543
 40
0.6761424688569285
 40
0.7555286995560218
 40
0.8348871724576592
 40
0.9166460487466424
 40
1.0
 40
1.0
 40
1.0
 40
1.0
 10
-2.700342551549703
 20
-9.041163207278654
 30
0.0
 10
-2.698777180384554
 20
-9.041764191488912
 30
0.0
 10
-2.695782237574343
 20
-9.042914023158005
 30
0.0
 10
-2.691660741021903
 20
-9.04494691544135
 30
0.0
 10
-2.68810976287245
 20
-9.047158022149677
 30
0.0
 10
-2.685102001219489
 20
-9.049572661919111
 30
0.0
 10
-2.682529652600723
 20
-9.052175371005335
 30
0.0
 10
-2.680283473798642
 20
-9.055004312511178
 30
0.0
 10
-2.678366884264749
 20
-9.058096389592967
 30
0.0
 10
-2.676724643179488
 20
-9.061419363426129
 30
0.0
 10
-2.675443196091843
 20
-9.06493930312522
 30
0.0
 10
-2.674483514817443
 20
-9.06862319194795
 30
0.0
 10
-2.673933615245168
 20
-9.07245782010521
 30
0.0
 10
-2.673855361651539
 20
-9.075067480709087
 30
0.0
 10
-2.673815856869711
 20
-9.076384916343866
 30
0.0
  0
SPLINE
  5
A2
330
1F
100
AcDbEntity
  8
0
  6
Continuous
 62
     7
370
    15
100
AcDbSpline
210
0.0
220
0.0
230
1.0
 70
     8
 71
     3
 72
    23
 73
    19
 74
     0
 42
0.000000001
 43
0.00000001
 40
0.0
 40
0.0
 40
0.0
 40
0.0
 40
0.0611602766365153
 40
0.1203345577261983
 40
0.1781802550631214
 40
0.2352351259863586
 40
0.292682961444176
 40
0.3511862482150758
 40
0.410456609509695
 40
0.471719854462996
 40
0.5337612027725935
 40
0.595739023887094
 40
0.6578875151248875
 40
0.7212951802914601
 40
0.786822514541889
 40
0.8546861538286871
 40
0.9254779862699941
 40
1.0
 40
1.0
 40
1.0
 40
1.0
 10
-2.673815856869711
 20
-9.076384916343866
 30
0.0
 10
-2.673854315374567
 20
-9.07773006878961
 30
0.0
 10
-2.67392998356031
 20
-9.080376693911909
 30
0.0
 10
-2.674488250166479
 20
-9.084264691335148
 30
0.0
 10
-2.675433490599194
 20
-9.087980240414401
 30
0.0
 10
-2.676735504235598
 20
-9.091547373591728
 30
0.0
 10
-2.678434807959942
 20
-9.094959189909474
 30
0.0
 10
-2.68050283805173
 20
-9.09821955463335
 30
0.0
 10
-2.682968647643182
 20
-9.101295709381903
 30
0.0
 10
-2.685727028310578
 20
-9.104221836275714
 30
0.0
 10
-2.688847585219583
 20
-9.106852851525318
 30
0.0
 10
-2.692214347224407
 20
-9.109195989583633
 30
0.0
 10
-2.695869714149354
 20
-9.111122999903143
 30
0.0
 10
-2.699753650921655
 20
-9.11274174090719
 30
0.0
 10
-2.703909726359224
 20
-9.113978244783768
 30
0.0
 10
-2.708319277830083
 20
-9.114843306748309
 30
0.0
 10
-2.712978502311773
 20
-9.11542618222069
 30
0.0
 10
-2.716175736607505
 20
-9.11547410367325
 30
0.0
 10
-2.717815389980958
 20
-9.115498679467226
 30
0.0
  0
CIRCLE
  5
A3
330
1F
100
AcDbEntity
  8
0
  6
Continuous
 62
     7
370
    15
100
AcDbCircle
 10
-1.7364957983
 20
-3.1020931639
 30
0.0
 40
0.1004999999999998
  0
CIRCLE
  5
A4
330
1F
100
AcDbEntity
  8
0
  6
Continuous
 62
     7
370
    15
100
AcDbCircle
 10
15.0635042017
 20
-3.1020931639
 30
0.0
 40
0.1005000000000003
  0
CIRCLE
  5
A5
330
1F
100
AcDbEntity
  8
0
  6
Continuous
 62
     7
370
    15
100
AcDbCircle
 10
15.0635042017
 20
1.2365738361
 30
0.0
 40
0.1005000000000003
  0
CIRCLE
  5
A6
330
1F
100
AcDbEntity
  8
0
  6
Continuous
 62
     7
370
    15
100
AcDbCircle
 10
-1.7364957983
 20
1.2365738361
 30
0.0
 40
0.1004999999999998
  0
CIRCLE
  5
A7
330
1F
100
AcDbEntity
  8
0
  6
Continuous
 62
     7
370
    15
100
AcDbCircle
 10
15.2585042017
 20
3.5672403361
 30
0.0
 40
0.0884999999999998
  0
CIRCLE
  5
A8
330
1F
100
AcDbEntity
  8
0
  6
Continuous
 62
     7
370
    15
100
AcDbCircle
 10
10.9685042017
 20
3.5672403361
 30
0.0
 40
0.0885000000000016
  0
CIRCLE
  5
A9
330
1F
100
AcDbEntity
  8
0
  6
Continuous
 62
     7
370
    15
100
AcDbCircle
 10
6.6785042017
 20
3.5672403361
 30
0.0
 40
0.0884999999999998
  0
CIRCLE
  5
AA
330
1F
100
AcDbEntity
  8
0
  6
Continuous
 62
     7
370
    15
100
AcDbCircle
 10
2.3885042017
 20
3.5672403361
 30
0.0
 40
0.0884999999999998
  0
CIRCLE
  5
AB
330
1F
100
AcDbEntity
  8
0
  6
Continuous
 62
     7
370
    15
100
AcDbCircle
 10
15.9735042017
 20
-5.4327596639
 30
0.0
 40
0.1562499999999982
  0
CIRCLE
  5
AC
330
1F
100
AcDbEntity
  8
0
  6
Continuous
 62
     7
370
    15
100
AcDbCircle
 10
13.1135042017
 20
-5.4327596639
 30
0.0
 40
0.15625
  0
CIRCLE
  5
AD
330
1F
100
AcDbEntity
  8
0
  6
Continuous
 62
     7
370
    15
100
AcDbCircle
 10
11.6835042017
 20
-5.4327596639
 30
0.0
 40
0.1562499999999982
  0
CIRCLE
  5
AE
330
1F
100
AcDbEntity
  8
0
  6
Continuous
 62
     7
370
    15
100
AcDbCircle
 10
8.8235042017
 20
-5.4327596639
 30
0.0
 40
0.15625
  0
CIRCLE
  5
AF
330
1F
100
AcDbEntity
  8
0
  6
Continuous
 62
     7
370
    15
100
AcDbCircle
 10
7.3935042017
 20
-5.4327596639
 30
0.0
 40
0.15625
  0
CIRCLE
  5
B0
330
1F
100
AcDbEntity
  8
0
  6
Continuous
 62
     7
370
    15
100
AcDbCircle
 10
5.9635042017
 20
-5.4327596639
 30
0.0
 40
0.15625
  0
CIRCLE
  5
B1
330
1F
100
AcDbEntity
  8
0
  6
Continuous
 62
     7
370
    15
100
AcDbCircle
 10
4.5335042017
 20
-5.4327596639
 30
0.0
 40
0.15625
  0
CIRCLE
  5
B2
330
1F
100
AcDbEntity
  8
0
  6
Continuous
 62
     7
370
    15
100
AcDbCircle
 10
1.6735042017
 20
-5.4327596639
 30
0.0
 40
0.1562499999999996
  0
CIRCLE
  5
B3
330
1F
100
AcDbEntity
  8
0
  6
Continuous
 62
     7
370
    15
100
AcDbCircle
 10
0.2435042017
 20
-5.4327596639
 30
0.0
 40
0.1562499999999996
  0
CIRCLE
  5
B4
330
1F
100
AcDbEntity
  8
0
  6
Continuous
 62
     7
370
    15
100
AcDbCircle
 10
-2.6164957983
 20
-5.4327596639
 30
0.0
 40
0.15625
  0
CIRCLE
  5
B5
330
1F
100
AcDbEntity
  8
0
  6
Continuous
 62
     7
370
    15
100
AcDbCircle
 10
15.9735042017
 20
-0.9327596639
 30
0.0
 40
0.1562499999999982
  0
CIRCLE
  5
B6
330
1F
100
AcDbEntity
  8
0
  6
Continuous
 62
     7
370
    15
100
AcDbCircle
 10
14.5435042017
 20
-0.9327596639
 30
0.0
 40
0.1562499999999982
  0
CIRCLE
  5
B7
330
1F
100
AcDbEntity
  8
0
  6
Continuous
 62
     7
370
    15
100
AcDbCircle
 10
13.1135042017
 20
-0.9327596639
 30
0.0
 40
0.15625
  0
CIRCLE
  5
B8
330
1F
100
AcDbEntity
  8
0
  6
Continuous
 62
     7
370
    15
100
AcDbCircle
 10
11.6835042017
 20
-0.9327596639
 30
0.0
 40
0.1562499999999982
  0
CIRCLE
  5
B9
330
1F
100
AcDbEntity
  8
0
  6
Continuous
 62
     7
370
    15
100
AcDbCircle
 10
10.2535042017
 20
-0.9327596639
 30
0.0
 40
0.15625
  0
CIRCLE
  5
BA
330
1F
100
AcDbEntity
  8
0
  6
Continuous
 62
     7
370
    15
100
AcDbCircle
 10
8.8235042017
 20
-0.9327596639
 30
0.0
 40
0.15625
  0
CIRCLE
  5
BB
330
1F
100
AcDbEntity
  8
0
  6
Continuous
 62
     7
370
    15
100
AcDbCircle
 10
4.5335042017
 20
-0.9327596639
 30
0.0
 40
0.15625
  0
CIRCLE
  5
BC
330
1F
100
AcDbEntity
  8
0
  6
Continuous
 62
     7
370
    15
100
AcDbCircle
 10
3.1035042017
 20
-0.9327596639
 30
0.0
 40
0.15625
  0
CIRCLE
  5
BD
330
1F
100
AcDbEntity
  8
0
  6
Continuous
 62
     7
370
    15
100
AcDbCircle
 10
1.6735042017
 20
-0.9327596639
 30
0.0
 40
0.1562499999999996
  0
CIRCLE
  5
BE
330
1F
100
AcDbEntity
  8
0
  6
Continuous
 62
     7
370
    15
100
AcDbCircle
 10
0.2435042017
 20
-0.9327596639
 30
0.0
 40
0.1562499999999996
  0
CIRCLE
  5
BF
330
1F
100
AcDbEntity
  8
0
  6
Continuous
 62
     7
370
    15
100
AcDbCircle
 10
-1.1864957983
 20
-0.9327596639
 30
0.0
 40
0.1562499999999993
  0
CIRCLE
  5
C0
330
1F
100
AcDbEntity
  8
0
  6
Continuous
 62
     7
370
    15
100
AcDbCircle
 10
-2.6164957983
 20
-0.9327596639
 30
0.0
 40
0.15625
  0
CIRCLE
  5
C1
330
1F
100
AcDbEntity
  8
0
  6
Continuous
 62
     7
370
    15
100
AcDbCircle
 10
15.9735042017
 20
3.5672403361
 30
0.0
 40
0.1562499999999982
  0
CIRCLE
  5
C2
330
1F
100
AcDbEntity
  8
0
  6
Continuous
 62
     7
370
    15
100
AcDbCircle
 10
13.1135042017
 20
3.5672403361
 30
0.0
 40
0.15625
  0
CIRCLE
  5
C3
330
1F
100
AcDbEntity
  8
0
  6
Continuous
 62
     7
370
    15
100
AcDbCircle
 10
11.6835042017
 20
3.5672403361
 30
0.0
 40
0.1562499999999982
  0
CIRCLE
  5
C4
330
1F
100
AcDbEntity
  8
0
  6
Continuous
 62
     7
370
    15
100
AcDbCircle
 10
8.8235042017
 20
3.5672403361
 30
0.0
 40
0.15625
  0
CIRCLE
  5
C5
330
1F
100
AcDbEntity
  8
0
  6
Continuous
 62
     7
370
    15
100
AcDbCircle
 10
7.3935042017
 20
3.5672403361
 30
0.0
 40
0.15625
  0
CIRCLE
  5
C6
330
1F
100
AcDbEntity
  8
0
  6
Continuous
 62
     7
370
    15
100
AcDbCircle
 10
5.9635042017
 20
3.5672403361
 30
0.0
 40
0.15625
  0
CIRCLE
  5
C7
330
1F
100
AcDbEntity
  8
0
  6
Continuous
 62
     7
370
    15
100
AcDbCircle
 10
4.5335042017
 20
3.5672403361
 30
0.0
 40
0.15625
  0
CIRCLE
  5
C8
330
1F
100
AcDbEntity
  8
0
  6
Continuous
 62
     7
370
    15
100
AcDbCircle
 10
1.6735042017
 20
3.5672403361
 30
0.0
 40
0.1562499999999996
  0
CIRCLE
  5
C9
330
1F
100
AcDbEntity
  8
0
  6
Continuous
 62
     7
370
    15
100
AcDbCircle
 10
15.9735042017
 20
-4.6827596639
 30
0.0
 40
0.1562499999999982
  0
CIRCLE
  5
CA
330
1F
100
AcDbEntity
  8
0
  6
Continuous
 62
     7
370
    15
100
AcDbCircle
 10
13.1135042017
 20
-4.6827596639
 30
0.0
 40
0.1562499999999982
  0
CIRCLE
  5
CB
330
1F
100
AcDbEntity
  8
0
  6
Continuous
 62
     7
370
    15
100
AcDbCircle
 10
11.6835042017
 20
-4.6827596639
 30
0.0
 40
0.1562499999999982
  0
CIRCLE
  5
CC
330
1F
100
AcDbEntity
  8
0
  6
Continuous
 62
     7
370
    15
100
AcDbCircle
 10
8.8235042017
 20
-4.6827596639
 30
0.0
 40
0.15625
  0
CIRCLE
  5
CD
330
1F
100
AcDbEntity
  8
0
  6
Continuous
 62
     7
370
    15
100
AcDbCircle
 10
7.3935042017
 20
-4.6827596639
 30
0.0
 40
0.15625
  0
CIRCLE
  5
CE
330
1F
100
AcDbEntity
  8
0
  6
Continuous
 62
     7
370
    15
100
AcDbCircle
 10
5.9635042017
 20
-4.6827596639
 30
0.0
 40
0.1562499999999991
  0
CIRCLE
  5
CF
330
1F
100
AcDbEntity
  8
0
  6
Continuous
 62
     7
370
    15
100
AcDbCircle
 10
4.5335042017
 20
-4.6827596639
 30
0.0
 40
0.1562499999999991
  0
CIRCLE
  5
D0
330
1F
100
AcDbEntity
  8
0
  6
Continuous
 62
     7
370
    15
100
AcDbCircle
 10
1.6735042017
 20
-4.6827596639
 30
0.0
 40
0.1562499999999996
  0
CIRCLE
  5
D1
330
1F
100
AcDbEntity
  8
0
  6
Continuous
 62
     7
370
    15
100
AcDbCircle
 10
0.2435042017
 20
-4.6827596639
 30
0.0
 40
0.1562499999999996
  0
CIRCLE
  5
D2
330
1F
100
AcDbEntity
  8
0
  6
Continuous
 62
     7
370
    15
100
AcDbCircle
 10
-2.6164957983
 20
-4.6827596639
 30
0.0
 40
0.15625
  0
CIRCLE
  5
D3
330
1F
100
AcDbEntity
  8
0
  6
Continuous
 62
     7
370
    15
100
AcDbCircle
 10
15.9735042017
 20
-0.1827596639
 30
0.0
 40
0.1562499999999982
  0
CIRCLE
  5
D4
330
1F
100
AcDbEntity
  8
0
  6
Continuous
 62
     7
370
    15
100
AcDbCircle
 10
14.5435042017
 20
-0.1827596639
 30
0.0
 40
0.15625
  0
CIRCLE
  5
D5
330
1F
100
AcDbEntity
  8
0
  6
Continuous
 62
     7
370
    15
100
AcDbCircle
 10
13.1135042017
 20
-0.1827596639
 30
0.0
 40
0.1562499999999982
  0
CIRCLE
  5
D6
330
1F
100
AcDbEntity
  8
0
  6
Continuous
 62
     7
370
    15
100
AcDbCircle
 10
11.6835042017
 20
-0.1827596639
 30
0.0
 40
0.1562499999999982
  0
CIRCLE
  5
D7
330
1F
100
AcDbEntity
  8
0
  6
Continuous
 62
     7
370
    15
100
AcDbCircle
 10
10.2535042017
 20
-0.1827596639
 30
0.0
 40
0.1562499999999982
  0
CIRCLE
  5
D8
330
1F
100
AcDbEntity
  8
0
  6
Continuous
 62
     7
370
    15
100
AcDbCircle
 10
8.8235042017
 20
-0.1827596639
 30
0.0
 40
0.15625
  0
CIRCLE
  5
D9
330
1F
100
AcDbEntity
  8
0
  6
Continuous
 62
     7
370
    15
100
AcDbCircle
 10
4.5335042017
 20
-0.1827596639
 30
0.0
 40
0.1562499999999991
  0
CIRCLE
  5
DA
330
1F
100
AcDbEntity
  8
0
  6
Continuous
 62
     7
370
    15
100
AcDbCircle
 10
3.1035042017
 20
-0.1827596639
 30
0.0
 40
0.15625
  0
CIRCLE
  5
DB
330
1F
100
AcDbEntity
  8
0
  6
Continuous
 62
     7
370
    15
100
AcDbCircle
 10
1.6735042017
 20
-0.1827596639
 30
0.0
 40
0.1562499999999996
  0
CIRCLE
  5
DC
330
1F
100
AcDbEntity
  8
0
  6
Continuous
 62
     7
370
    15
100
AcDbCircle
 10
0.2435042017
 20
-0.1827596639
 30
0.0
 40
0.1562499999999996
  0
CIRCLE
  5
DD
330
1F
100
AcDbEntity
  8
0
  6
Continuous
 62
     7
370
    15
100
AcDbCircle
 10
-1.1864957983
 20
-0.1827596639
 30
0.0
 40
0.1562499999999993
  0
CIRCLE
  5
DE
330
1F
100
AcDbEntity
  8
0
  6
Continuous
 62
     7
370
    15
100
AcDbCircle
 10
-2.6164957983
 20
-0.1827596639
 30
0.0
 40
0.15625
  0
CIRCLE
  5
DF
330
1F
100
AcDbEntity
  8
0
  6
Continuous
 62
     7
370
    15
100
AcDbCircle
 10
15.9735042017
 20
4.3172403361
 30
0.0
 40
0.1562499999999982
  0
CIRCLE
  5
E0
330
1F
100
AcDbEntity
  8
0
  6
Continuous
 62
     7
370
    15
100
AcDbCircle
 10
13.1135042017
 20
4.3172403361
 30
0.0
 40
0.1562499999999982
  0
CIRCLE
  5
E1
330
1F
100
AcDbEntity
  8
0
  6
Continuous
 62
     7
370
    15
100
AcDbCircle
 10
11.6835042017
 20
4.3172403361
 30
0.0
 40
0.1562499999999982
  0
CIRCLE
  5
E2
330
1F
100
AcDbEntity
  8
0
  6
Continuous
 62
     7
370
    15
100
AcDbCircle
 10
8.8235042017
 20
4.3172403361
 30
0.0
 40
0.15625
  0
CIRCLE
  5
E3
330
1F
100
AcDbEntity
  8
0
  6
Continuous
 62
     7
370
    15
100
AcDbCircle
 10
7.3935042017
 20
4.3172403361
 30
0.0
 40
0.15625
  0
CIRCLE
  5
E4
330
1F
100
AcDbEntity
  8
0
  6
Continuous
 62
     7
370
    15
100
AcDbCircle
 10
5.9635042017
 20
4.3172403361
 30
0.0
 40
0.1562499999999991
  0
CIRCLE
  5
E5
330
1F
100
AcDbEntity
  8
0
  6
Continuous
 62
     7
370
    15
100
AcDbCircle
 10
4.5335042017
 20
4.3172403361
 30
0.0
 40
0.1562499999999991
  0
CIRCLE
  5
E6
330
1F
100
AcDbEntity
  8
0
  6
Continuous
 62
     7
370
    15
100
AcDbCircle
 10
1.6735042017
 20
4.3172403361
 30
0.0
 40
0.1562499999999996
  0
CIRCLE
  5
E7
330
1F
100
AcDbEntity
  8
0
  6
Continuous
 62
     7
370
    15
100
AcDbCircle
 10
15.9735042017
 20
-3.9327596639
 30
0.0
 40
0.15625
  0
CIRCLE
  5
E8
330
1F
100
AcDbEntity
  8
0
  6
Continuous
 62
     7
370
    15
100
AcDbCircle
 10
13.1135042017
 20
-3.9327596639
 30
0.0
 40
0.15625
  0
CIRCLE
  5
E9
330
1F
100
AcDbEntity
  8
0
  6
Continuous
 62
     7
370
    15
100
AcDbCircle
 10
11.6835042017
 20
-3.9327596639
 30
0.0
 40
0.1562500000000018
  0
CIRCLE
  5
EA
330
1F
100
AcDbEntity
  8
0
  6
Continuous
 62
     7
370
    15
100
AcDbCircle
 10
8.8235042017
 20
-3.9327596639
 30
0.0
 40
0.1562499999999982
  0
CIRCLE
  5
EB
330
1F
100
AcDbEntity
  8
0
  6
Continuous
 62
     7
370
    15
100
AcDbCircle
 10
7.3935042017
 20
-3.9327596639
 30
0.0
 40
0.15625
  0
CIRCLE
  5
EC
330
1F
100
AcDbEntity
  8
0
  6
Continuous
 62
     7
370
    15
100
AcDbCircle
 10
5.9635042017
 20
-3.9327596639
 30
0.0
 40
0.15625
  0
CIRCLE
  5
ED
330
1F
100
AcDbEntity
  8
0
  6
Continuous
 62
     7
370
    15
100
AcDbCircle
 10
4.5335042017
 20
-3.9327596639
 30
0.0
 40
0.1562500000000009
  0
CIRCLE
  5
EE
330
1F
100
AcDbEntity
  8
0
  6
Continuous
 62
     7
370
    15
100
AcDbCircle
 10
1.6735042017
 20
-3.9327596639
 30
0.0
 40
0.1562500000000004
  0
CIRCLE
  5
EF
330
1F
100
AcDbEntity
  8
0
  6
Continuous
 62
     7
370
    15
100
AcDbCircle
 10
0.2435042017
 20
-3.9327596639
 30
0.0
 40
0.1562500000000001
  0
CIRCLE
  5
F0
330
1F
100
AcDbEntity
  8
0
  6
Continuous
 62
     7
370
    15
100
AcDbCircle
 10
-2.6164957983
 20
-3.9327596639
 30
0.0
 40
0.1562500000000004
  0
CIRCLE
  5
F1
330
1F
100
AcDbEntity
  8
0
  6
Continuous
 62
     7
370
    15
100
AcDbCircle
 10
15.9735042017
 20
0.5672403361
 30
0.0
 40
0.15625
  0
CIRCLE
  5
F2
330
1F
100
AcDbEntity
  8
0
  6
Continuous
 62
     7
370
    15
100
AcDbCircle
 10
14.5435042017
 20
0.5672403361
 30
0.0
 40
0.1562500000000018
  0
CIRCLE
  5
F3
330
1F
100
AcDbEntity
  8
0
  6
Continuous
 62
     7
370
    15
100
AcDbCircle
 10
13.1135042017
 20
0.5672403361
 30
0.0
 40
0.15625
  0
CIRCLE
  5
F4
330
1F
100
AcDbEntity
  8
0
  6
Continuous
 62
     7
370
    15
100
AcDbCircle
 10
11.6835042017
 20
0.5672403361
 30
0.0
 40
0.1562500000000018
  0
CIRCLE
  5
F5
330
1F
100
AcDbEntity
  8
0
  6
Continuous
 62
     7
370
    15
100
AcDbCircle
 10
10.2535042017
 20
0.5672403361
 30
0.0
 40
0.15625
  0
CIRCLE
  5
F6
330
1F
100
AcDbEntity
  8
0
  6
Continuous
 62
     7
370
    15
100
AcDbCircle
 10
8.8235042017
 20
0.5672403361
 30
0.0
 40
0.1562499999999982
  0
CIRCLE
  5
F7
330
1F
100
AcDbEntity
  8
0
  6
Continuous
 62
     7
370
    15
100
AcDbCircle
 10
4.5335042017
 20
0.5672403361
 30
0.0
 40
0.1562500000000009
  0
CIRCLE
  5
F8
330
1F
100
AcDbEntity
  8
0
  6
Continuous
 62
     7
370
    15
100
AcDbCircle
 10
3.1035042017
 20
0.5672403361
 30
0.0
 40
0.1562500000000004
  0
CIRCLE
  5
F9
330
1F
100
AcDbEntity
  8
0
  6
Continuous
 62
     7
370
    15
100
AcDbCircle
 10
1.6735042017
 20
0.5672403361
 30
0.0
 40
0.1562500000000004
  0
CIRCLE
  5
FA
330
1F
100
AcDbEntity
  8
0
  6
Continuous
 62
     7
370
    15
100
AcDbCircle
 10
0.2435042017
 20
0.5672403361
 30
0.0
 40
0.1562500000000001
  0
CIRCLE
  5
FB
330
1F
100
AcDbEntity
  8
0
  6
Continuous
 62
     7
370
    15
100
AcDbCircle
 10
-1.1864957983
 20
0.5672403361
 30
0.0
 40
0.15625
  0
CIRCLE
  5
FC
330
1F
100
AcDbEntity
  8
0
  6
Continuous
 62
     7
370
    15
100
AcDbCircle
 10
-2.6164957983
 20
0.5672403361
 30
0.0
 40
0.1562500000000004
  0
CIRCLE
  5
FD
330
1F
100
AcDbEntity
  8
0
  6
Continuous
 62
     7
370
    15
100
AcDbCircle
 10
15.9735042017
 20
5.0672403361
 30
0.0
 40
0.15625
  0
CIRCLE
  5
FE
330
1F
100
AcDbEntity
  8
0
  6
Continuous
 62
     7
370
    15
100
AcDbCircle
 10
13.1135042017
 20
5.0672403361
 30
0.0
 40
0.15625
  0
CIRCLE
  5
FF
330
1F
100
AcDbEntity
  8
0
  6
Continuous
 62
     7
370
    15
100
AcDbCircle
 10
11.6835042017
 20
5.0672403361
 30
0.0
 40
0.1562500000000018
  0
CIRCLE
  5
100
330
1F
100
AcDbEntity
  8
0
  6
Continuous
 62
     7
370
    15
100
AcDbCircle
 10
8.8235042017
 20
5.0672403361
 30
0.0
 40
0.1562499999999982
  0
CIRCLE
  5
101
330
1F
100
AcDbEntity
  8
0
  6
Continuous
 62
     7
370
    15
100
AcDbCircle
 10
7.3935042017
 20
5.0672403361
 30
0.0
 40
0.15625
  0
CIRCLE
  5
102
330
1F
100
AcDbEntity
  8
0
  6
Continuous
 62
     7
370
    15
100
AcDbCircle
 10
5.9635042017
 20
5.0672403361
 30
0.0
 40
0.15625
  0
CIRCLE
  5
103
330
1F
100
AcDbEntity
  8
0
  6
Continuous
 62
     7
370
    15
100
AcDbCircle
 10
4.5335042017
 20
5.0672403361
 30
0.0
 40
0.1562500000000009
  0
CIRCLE
  5
104
330
1F
100
AcDbEntity
  8
0
  6
Continuous
 62
     7
370
    15
100
AcDbCircle
 10
1.6735042017
 20
5.0672403361
 30
0.0
 40
0.1562500000000004
  0
CIRCLE
  5
105
330
1F
100
AcDbEntity
  8
0
  6
Continuous
 62
     7
370
    15
100
AcDbCircle
 10
15.9735042017
 20
-6.9327596639
 30
0.0
 40
0.1562499999999982
  0
CIRCLE
  5
106
330
1F
100
AcDbEntity
  8
0
  6
Continuous
 62
     7
370
    15
100
AcDbCircle
 10
13.1135042017
 20
-6.9327596639
 30
0.0
 40
0.1562499999999982
  0
CIRCLE
  5
107
330
1F
100
AcDbEntity
  8
0
  6
Continuous
 62
     7
370
    15
100
AcDbCircle
 10
11.6835042017
 20
-6.9327596639
 30
0.0
 40
0.1562499999999982
  0
CIRCLE
  5
108
330
1F
100
AcDbEntity
  8
0
  6
Continuous
 62
     7
370
    15
100
AcDbCircle
 10
8.8235042017
 20
-6.9327596639
 30
0.0
 40
0.15625
  0
CIRCLE
  5
109
330
1F
100
AcDbEntity
  8
0
  6
Continuous
 62
     7
370
    15
100
AcDbCircle
 10
7.3935042017
 20
-6.9327596639
 30
0.0
 40
0.15625
  0
CIRCLE
  5
10A
330
1F
100
AcDbEntity
  8
0
  6
Continuous
 62
     7
370
    15
100
AcDbCircle
 10
5.9635042017
 20
-6.9327596639
 30
0.0
 40
0.15625
  0
CIRCLE
  5
10B
330
1F
100
AcDbEntity
  8
0
  6
Continuous
 62
     7
370
    15
100
AcDbCircle
 10
4.5335042017
 20
-6.9327596639
 30
0.0
 40
0.15625
  0
CIRCLE
  5
10C
330
1F
100
AcDbEntity
  8
0
  6
Continuous
 62
     7
370
    15
100
AcDbCircle
 10
1.6735042017
 20
-6.9327596639
 30
0.0
 40
0.1562499999999998
  0
CIRCLE
  5
10D
330
1F
100
AcDbEntity
  8
0
  6
Continuous
 62
     7
370
    15
100
AcDbCircle
 10
0.2435042017
 20
-6.9327596639
 30
0.0
 40
0.1562499999999996
  0
CIRCLE
  5
10E
330
1F
100
AcDbEntity
  8
0
  6
Continuous
 62
     7
370
    15
100
AcDbCircle
 10
-2.6164957983
 20
-6.9327596639
 30
0.0
 40
0.15625
  0
CIRCLE
  5
10F
330
1F
100
AcDbEntity
  8
0
  6
Continuous
 62
     7
370
    15
100
AcDbCircle
 10
15.9735042017
 20
-2.4327596639
 30
0.0
 40
0.1562499999999982
  0
CIRCLE
  5
110
330
1F
100
AcDbEntity
  8
0
  6
Continuous
 62
     7
370
    15
100
AcDbCircle
 10
14.5435042017
 20
-2.4327596639
 30
0.0
 40
0.15625
  0
CIRCLE
  5
111
330
1F
100
AcDbEntity
  8
0
  6
Continuous
 62
     7
370
    15
100
AcDbCircle
 10
13.1135042017
 20
-2.4327596639
 30
0.0
 40
0.1562499999999982
  0
CIRCLE
  5
112
330
1F
100
AcDbEntity
  8
0
  6
Continuous
 62
     7
370
    15
100
AcDbCircle
 10
11.6835042017
 20
-2.4327596639
 30
0.0
 40
0.1562499999999982
  0
CIRCLE
  5
113
330
1F
100
AcDbEntity
  8
0
  6
Continuous
 62
     7
370
    15
100
AcDbCircle
 10
10.2535042017
 20
-2.4327596639
 30
0.0
 40
0.1562499999999982
  0
CIRCLE
  5
114
330
1F
100
AcDbEntity
  8
0
  6
Continuous
 62
     7
370
    15
100
AcDbCircle
 10
8.8235042017
 20
-2.4327596639
 30
0.0
 40
0.15625
  0
CIRCLE
  5
115
330
1F
100
AcDbEntity
  8
0
  6
Continuous
 62
     7
370
    15
100
AcDbCircle
 10
4.5335042017
 20
-2.4327596639
 30
0.0
 40
0.15625
  0
CIRCLE
  5
116
330
1F
100
AcDbEntity
  8
0
  6
Continuous
 62
     7
370
    15
100
AcDbCircle
 10
3.1035042017
 20
-2.4327596639
 30
0.0
 40
0.15625
  0
CIRCLE
  5
117
330
1F
100
AcDbEntity
  8
0
  6
Continuous
 62
     7
370
    15
100
AcDbCircle
 10
1.6735042017
 20
-2.4327596639
 30
0.0
 40
0.1562499999999998
  0
CIRCLE
  5
118
330
1F
100
AcDbEntity
  8
0
  6
Continuous
 62
     7
370
    15
100
AcDbCircle
 10
0.2435042017
 20
-2.4327596639
 30
0.0
 40
0.1562499999999996
  0
CIRCLE
  5
119
330
1F
100
AcDbEntity
  8
0
  6
Continuous
 62
     7
370
    15
100
AcDbCircle
 10
-1.1864957983
 20
-2.4327596639
 30
0.0
 40
0.1562499999999996
  0
CIRCLE
  5
11A
330
1F
100
AcDbEntity
  8
0
  6
Continuous
 62
     7
370
    15
100
AcDbCircle
 10
-2.6164957983
 20
-2.4327596639
 30
0.0
 40
0.15625
  0
CIRCLE
  5
11B
330
1F
100
AcDbEntity
  8
0
  6
Continuous
 62
     7
370
    15
100
AcDbCircle
 10
15.9735042017
 20
2.0672403361
 30
0.0
 40
0.1562499999999982
  0
CIRCLE
  5
11C
330
1F
100
AcDbEntity
  8
0
  6
Continuous
 62
     7
370
    15
100
AcDbCircle
 10
13.1135042017
 20
2.0672403361
 30
0.0
 40
0.1562499999999982
  0
CIRCLE
  5
11D
330
1F
100
AcDbEntity
  8
0
  6
Continuous
 62
     7
370
    15
100
AcDbCircle
 10
11.6835042017
 20
2.0672403361
 30
0.0
 40
0.1562499999999982
  0
CIRCLE
  5
11E
330
1F
100
AcDbEntity
  8
0
  6
Continuous
 62
     7
370
    15
100
AcDbCircle
 10
8.8235042017
 20
2.0672403361
 30
0.0
 40
0.15625
  0
CIRCLE
  5
11F
330
1F
100
AcDbEntity
  8
0
  6
Continuous
 62
     7
370
    15
100
AcDbCircle
 10
7.3935042017
 20
2.0672403361
 30
0.0
 40
0.15625
  0
CIRCLE
  5
120
330
1F
100
AcDbEntity
  8
0
  6
Continuous
 62
     7
370
    15
100
AcDbCircle
 10
5.9635042017
 20
2.0672403361
 30
0.0
 40
0.15625
  0
CIRCLE
  5
121
330
1F
100
AcDbEntity
  8
0
  6
Continuous
 62
     7
370
    15
100
AcDbCircle
 10
4.5335042017
 20
2.0672403361
 30
0.0
 40
0.15625
  0
CIRCLE
  5
122
330
1F
100
AcDbEntity
  8
0
  6
Continuous
 62
     7
370
    15
100
AcDbCircle
 10
1.6735042017
 20
2.0672403361
 30
0.0
 40
0.1562499999999998
  0
CIRCLE
  5
123
330
1F
100
AcDbEntity
  8
0
  6
Continuous
 62
     7
370
    15
100
AcDbCircle
 10
15.9735042017
 20
-6.1827596639
 30
0.0
 40
0.1562500000000018
  0
CIRCLE
  5
124
330
1F
100
AcDbEntity
  8
0
  6
Continuous
 62
     7
370
    15
100
AcDbCircle
 10
13.1135042017
 20
-6.1827596639
 30
0.0
 40
0.15625
  0
CIRCLE
  5
125
330
1F
100
AcDbEntity
  8
0
  6
Continuous
 62
     7
370
    15
100
AcDbCircle
 10
11.6835042017
 20
-6.1827596639
 30
0.0
 40
0.1562500000000018
  0
CIRCLE
  5
126
330
1F
100
AcDbEntity
  8
0
  6
Continuous
 62
     7
370
    15
100
AcDbCircle
 10
8.8235042017
 20
-6.1827596639
 30
0.0
 40
0.15625
  0
CIRCLE
  5
127
330
1F
100
AcDbEntity
  8
0
  6
Continuous
 62
     7
370
    15
100
AcDbCircle
 10
7.3935042017
 20
-6.1827596639
 30
0.0
 40
0.1562499999999991
  0
CIRCLE
  5
128
330
1F
100
AcDbEntity
  8
0
  6
Continuous
 62
     7
370
    15
100
AcDbCircle
 10
5.9635042017
 20
-6.1827596639
 30
0.0
 40
0.1562499999999991
  0
CIRCLE
  5
129
330
1F
100
AcDbEntity
  8
0
  6
Continuous
 62
     7
370
    15
100
AcDbCircle
 10
4.5335042017
 20
-6.1827596639
 30
0.0
 40
0.15625
  0
CIRCLE
  5
12A
330
1F
100
AcDbEntity
  8
0
  6
Continuous
 62
     7
370
    15
100
AcDbCircle
 10
1.6735042017
 20
-6.1827596639
 30
0.0
 40
0.1562500000000002
  0
CIRCLE
  5
12B
330
1F
100
AcDbEntity
  8
0
  6
Continuous
 62
     7
370
    15
100
AcDbCircle
 10
0.2435042017
 20
-6.1827596639
 30
0.0
 40
0.1562500000000002
  0
CIRCLE
  5
12C
330
1F
100
AcDbEntity
  8
0
  6
Continuous
 62
     7
370
    15
100
AcDbCircle
 10
-2.6164957983
 20
-6.1827596639
 30
0.0
 40
0.1562500000000004
  0
CIRCLE
  5
12D
330
1F
100
AcDbEntity
  8
0
  6
Continuous
 62
     7
370
    15
100
AcDbCircle
 10
15.9735042017
 20
-1.6827596639
 30
0.0
 40
0.1562500000000018
  0
CIRCLE
  5
12E
330
1F
100
AcDbEntity
  8
0
  6
Continuous
 62
     7
370
    15
100
AcDbCircle
 10
14.5435042017
 20
-1.6827596639
 30
0.0
 40
0.15625
  0
CIRCLE
  5
12F
330
1F
100
AcDbEntity
  8
0
  6
Continuous
 62
     7
370
    15
100
AcDbCircle
 10
13.1135042017
 20
-1.6827596639
 30
0.0
 40
0.15625
  0
CIRCLE
  5
130
330
1F
100
AcDbEntity
  8
0
  6
Continuous
 62
     7
370
    15
100
AcDbCircle
 10
11.6835042017
 20
-1.6827596639
 30
0.0
 40
0.1562500000000018
  0
CIRCLE
  5
131
330
1F
100
AcDbEntity
  8
0
  6
Continuous
 62
     7
370
    15
100
AcDbCircle
 10
10.2535042017
 20
-1.6827596639
 30
0.0
 40
0.15625
  0
CIRCLE
  5
132
330
1F
100
AcDbEntity
  8
0
  6
Continuous
 62
     7
370
    15
100
AcDbCircle
 10
8.8235042017
 20
-1.6827596639
 30
0.0
 40
0.15625
  0
CIRCLE
  5
133
330
1F
100
AcDbEntity
  8
0
  6
Continuous
 62
     7
370
    15
100
AcDbCircle
 10
4.5335042017
 20
-1.6827596639
 30
0.0
 40
0.15625
  0
CIRCLE
  5
134
330
1F
100
AcDbEntity
  8
0
  6
Continuous
 62
     7
370
    15
100
AcDbCircle
 10
3.1035042017
 20
-1.6827596639
 30
0.0
 40
0.1562500000000004
  0
CIRCLE
  5
135
330
1F
100
AcDbEntity
  8
0
  6
Continuous
 62
     7
370
    15
100
AcDbCircle
 10
1.6735042017
 20
-1.6827596639
 30
0.0
 40
0.1562500000000002
  0
CIRCLE
  5
136
330
1F
100
AcDbEntity
  8
0
  6
Continuous
 62
     7
370
    15
100
AcDbCircle
 10
0.2435042017
 20
-1.6827596639
 30
0.0
 40
0.1562500000000002
  0
CIRCLE
  5
137
330
1F
100
AcDbEntity
  8
0
  6
Continuous
 62
     7
370
    15
100
AcDbCircle
 10
-1.1864957983
 20
-1.6827596639
 30
0.0
 40
0.15625
  0
CIRCLE
  5
138
330
1F
100
AcDbEntity
  8
0
  6
Continuous
 62
     7
370
    15
100
AcDbCircle
 10
-2.6164957983
 20
-1.6827596639
 30
0.0
 40
0.1562500000000004
  0
CIRCLE
  5
139
330
1F
100
AcDbEntity
  8
0
  6
Continuous
 62
     7
370
    15
100
AcDbCircle
 10
15.9735042017
 20
2.8172403361
 30
0.0
 40
0.1562500000000018
  0
CIRCLE
  5
13A
330
1F
100
AcDbEntity
  8
0
  6
Continuous
 62
     7
370
    15
100
AcDbCircle
 10
13.1135042017
 20
2.8172403361
 30
0.0
 40
0.15625
  0
CIRCLE
  5
13B
330
1F
100
AcDbEntity
  8
0
  6
Continuous
 62
     7
370
    15
100
AcDbCircle
 10
11.6835042017
 20
2.8172403361
 30
0.0
 40
0.1562500000000018
  0
CIRCLE
  5
13C
330
1F
100
AcDbEntity
  8
0
  6
Continuous
 62
     7
370
    15
100
AcDbCircle
 10
8.8235042017
 20
2.8172403361
 30
0.0
 40
0.15625
  0
CIRCLE
  5
13D
330
1F
100
AcDbEntity
  8
0
  6
Continuous
 62
     7
370
    15
100
AcDbCircle
 10
7.3935042017
 20
2.8172403361
 30
0.0
 40
0.1562499999999991
  0
CIRCLE
  5
13E
330
1F
100
AcDbEntity
  8
0
  6
Continuous
 62
     7
370
    15
100
AcDbCircle
 10
5.9635042017
 20
2.8172403361
 30
0.0
 40
0.1562499999999991
  0
CIRCLE
  5
13F
330
1F
100
AcDbEntity
  8
0
  6
Continuous
 62
     7
370
    15
100
AcDbCircle
 10
4.5335042017
 20
2.8172403361
 30
0.0
 40
0.15625
  0
CIRCLE
  5
140
330
1F
100
AcDbEntity
  8
0
  6
Continuous
 62
     7
370
    15
100
AcDbCircle
 10
1.6735042017
 20
2.8172403361
 30
0.0
 40
0.1562500000000002
  0
CIRCLE
  5
141
330
1F
100
AcDbEntity
  8
0
  6
Continuous
 62
     7
370
    15
100
AcDbCircle
 10
-2.6164957983
 20
2.8172403361
 30
0.0
 40
0.1562500000000004
  0
CIRCLE
  5
142
330
1F
100
AcDbEntity
  8
0
  6
Continuous
 62
     7
370
    15
100
AcDbCircle
 10
-2.6164957983
 20
3.5672403361
 30
0.0
 40
0.15625
  0
CIRCLE
  5
143
330
1F
100
AcDbEntity
  8
0
  6
Continuous
 62
     7
370
    15
100
AcDbCircle
 10
-2.6164957983
 20
4.3172403361
 30
0.0
 40
0.15625
  0
CIRCLE
  5
144
330
1F
100
AcDbEntity
  8
0
  6
Continuous
 62
     7
370
    15
100
AcDbCircle
 10
-2.6164957983
 20
5.0672403361
 30
0.0
 40
0.1562500000000004
  0
CIRCLE
  5
145
330
1F
100
AcDbEntity
  8
0
  6
Continuous
 62
     7
370
    15
100
AcDbCircle
 10
-2.6164957983
 20
2.0672403361
 30
0.0
 40
0.15625
  0
CIRCLE
  5
146
330
1F
100
AcDbEntity
  8
0
  6
Continuous
 62
     7
370
    15
100
AcDbCircle
 10
6.6635042017
 20
-0.9127596639
 30
0.0
 40
0.2999999999999998
  0
CIRCLE
  5
147
330
1F
100
AcDbEntity
  8
0
  6
Continuous
 62
     7
370
    15
100
AcDbCircle
 10
0.2435042017
 20
2.8172403361
 30
0.0
 40
0.1562500000000002
  0
CIRCLE
  5
148
330
1F
100
AcDbEntity
  8
0
  6
Continuous
 62
     7
370
    15
100
AcDbCircle
 10
0.2435042017
 20
2.0672403361
 30
0.0
 40
0.1562499999999996
  0
CIRCLE
  5
149
330
1F
100
AcDbEntity
  8
0
  6
Continuous
 62
     7
370
    15
100
AcDbCircle
 10
0.2435042017
 20
5.0672403361
 30
0.0
 40
0.1562500000000001
  0
CIRCLE
  5
14A
330
1F
100
AcDbEntity
  8
0
  6
Continuous
 62
     7
370
    15
100
AcDbCircle
 10
0.2435042017
 20
4.3172403361
 30
0.0
 40
0.1562499999999996
  0
CIRCLE
  5
14B
330
1F
100
AcDbEntity
  8
0
  6
Continuous
 62
     7
370
    15
100
AcDbCircle
 10
0.2435042017
 20
3.5672403361
 30
0.0
 40
0.1562499999999996
  0
CIRCLE
  5
14C
330
1F
100
AcDbEntity
  8
0
  6
Continuous
 62
     7
370
    15
100
AcDbCircle
 10
-1.1864957983
 20
2.0872403361
 30
0.0
 40
0.140625
  0
CIRCLE
  5
14D
330
1F
100
AcDbEntity
  8
0
  6
Continuous
 62
     7
370
    15
100
AcDbCircle
 10
-1.1864957983
 20
5.0872403361
 30
0.0
 40
0.1406249999999998
  0
CIRCLE
  5
14E
330
1F
100
AcDbEntity
  8
0
  6
Continuous
 62
     7
370
    15
100
AcDbCircle
 10
-1.1864957983
 20
3.5872403361
 30
0.0
 40
0.140625
  0
CIRCLE
  5
14F
330
1F
100
AcDbEntity
  8
0
  6
Continuous
 62
     7
370
    15
100
AcDbCircle
 10
3.1035042017
 20
2.0872403361
 30
0.0
 40
0.140625
  0
CIRCLE
  5
150
330
1F
100
AcDbEntity
  8
0
  6
Continuous
 62
     7
370
    15
100
AcDbCircle
 10
14.5435042017
 20
-6.9127596639
 30
0.0
 40
0.140625
  0
CIRCLE
  5
151
330
1F
100
AcDbEntity
  8
0
  6
Continuous
 62
     7
370
    15
100
AcDbCircle
 10
14.5435042017
 20
-5.4127596639
 30
0.0
 40
0.140625
  0
CIRCLE
  5
152
330
1F
100
AcDbEntity
  8
0
  6
Continuous
 62
     7
370
    15
100
AcDbCircle
 10
14.5435042017
 20
-3.9127596639
 30
0.0
 40
0.140625
  0
CIRCLE
  5
153
330
1F
100
AcDbEntity
  8
0
  6
Continuous
 62
     7
370
    15
100
AcDbCircle
 10
10.2535042017
 20
-3.9127596639
 30
0.0
 40
0.140625
  0
CIRCLE
  5
154
330
1F
100
AcDbEntity
  8
0
  6
Continuous
 62
     7
370
    15
100
AcDbCircle
 10
10.2535042017
 20
-5.4127596639
 30
0.0
 40
0.140625
  0
CIRCLE
  5
155
330
1F
100
AcDbEntity
  8
0
  6
Continuous
 62
     7
370
    15
100
AcDbCircle
 10
10.2535042017
 20
-6.9127596639
 30
0.0
 40
0.140625
  0
CIRCLE
  5
156
330
1F
100
AcDbEntity
  8
0
  6
Continuous
 62
     7
370
    15
100
AcDbCircle
 10
14.5435042017
 20
3.5872403361
 30
0.0
 40
0.140625
  0
CIRCLE
  5
157
330
1F
100
AcDbEntity
  8
0
  6
Continuous
 62
     7
370
    15
100
AcDbCircle
 10
14.5435042017
 20
2.0872403361
 30
0.0
 40
0.140625
  0
CIRCLE
  5
158
330
1F
100
AcDbEntity
  8
0
  6
Continuous
 62
     7
370
    15
100
AcDbCircle
 10
10.2535042017
 20
5.0872403361
 30
0.0
 40
0.140625
  0
CIRCLE
  5
159
330
1F
100
AcDbEntity
  8
0
  6
Continuous
 62
     7
370
    15
100
AcDbCircle
 10
10.2535042017
 20
3.5872403361
 30
0.0
 40
0.140625
  0
CIRCLE
  5
15A
330
1F
100
AcDbEntity
  8
0
  6
Continuous
 62
     7
370
    15
100
AcDbCircle
 10
3.1035042017
 20
3.5872403361
 30
0.0
 40
0.140625
  0
CIRCLE
  5
15B
330
1F
100
AcDbEntity
  8
0
  6
Continuous
 62
     7
370
    15
100
AcDbCircle
 10
3.1035042017
 20
5.0872403361
 30
0.0
 40
0.140625
  0
CIRCLE
  5
15C
330
1F
100
AcDbEntity
  8
0
  6
Continuous
 62
     7
370
    15
100
AcDbCircle
 10
10.2535042017
 20
2.0872403361
 30
0.0
 40
0.140625
  0
CIRCLE
  5
15D
330
1F
100
AcDbEntity
  8
0
  6
Continuous
 62
     7
370
    15
100
AcDbCircle
 10
-1.1864957983
 20
-3.9127596639
 30
0.0
 40
0.1406249999999998
  0
CIRCLE
  5
15E
330
1F
100
AcDbEntity
  8
0
  6
Continuous
 62
     7
370
    15
100
AcDbCircle
 10
3.1035042017
 20
-6.9127596639
 30
0.0
 40
0.140625
  0
CIRCLE
  5
15F
330
1F
100
AcDbEntity
  8
0
  6
Continuous
 62
     7
370
    15
100
AcDbCircle
 10
3.1035042017
 20
-5.4127596639
 30
0.0
 40
0.140625
  0
CIRCLE
  5
160
330
1F
100
AcDbEntity
  8
0
  6
Continuous
 62
     7
370
    15
100
AcDbCircle
 10
3.1035042017
 20
-3.9127596639
 30
0.0
 40
0.140625
  0
CIRCLE
  5
161
330
1F
100
AcDbEntity
  8
0
  6
Continuous
 62
     7
370
    15
100
AcDbCircle
 10
-1.1864957983
 20
-5.4127596639
 30
0.0
 40
0.140625
  0
CIRCLE
  5
162
330
1F
100
AcDbEntity
  8
0
  6
Continuous
 62
     7
370
    15
100
AcDbCircle
 10
-1.1864957983
 20
-6.9127596639
 30
0.0
 40
0.140625
  0
CIRCLE
  5
163
330
1F
100
AcDbEntity
  8
0
  6
Continuous
 62
     7
370
    15
100
AcDbCircle
 10
14.5435042017
 20
5.0872403361
 30
0.0
 40
0.140625
  0
CIRCLE
  5
164
330
1F
100
AcDbEntity
  8
0
  6
Continuous
 62
     7
370
    15
100
AcDbCircle
 10
5.5385042017
 20
-2.4327596639
 30
0.0
 40
0.140625
  0
CIRCLE
  5
165
330
1F
100
AcDbEntity
  8
0
  6
Continuous
 62
     7
370
    15
100
AcDbCircle
 10
7.7885042017
 20
-2.4327596639
 30
0.0
 40
0.140625
  0
CIRCLE
  5
166
330
1F
100
AcDbEntity
  8
0
  6
Continuous
 62
     7
370
    15
100
AcDbCircle
 10
7.7885042017
 20
-0.9327596639
 30
0.0
 40
0.140625
  0
CIRCLE
  5
167
330
1F
100
AcDbEntity
  8
0
  6
Continuous
 62
     7
370
    15
100
AcDbCircle
 10
7.7885042017
 20
0.5672403361
 30
0.0
 40
0.140625
  0
CIRCLE
  5
168
330
1F
100
AcDbEntity
  8
0
  6
Continuous
 62
     7
370
    15
100
AcDbCircle
 10
5.5385042017
 20
-0.9327596639
 30
0.0
 40
0.140625
  0
CIRCLE
  5
169
330
1F
100
AcDbEntity
  8
0
  6
Continuous
 62
     7
370
    15
100
AcDbCircle
 10
5.5385042017
 20
0.5672403361
 30
0.0
 40
0.140625
  0
CIRCLE
  5
16A
330
1F
100
AcDbEntity
  8
0
  6
Continuous
 62
     7
370
    15
100
AcDbCircle
 10
-1.9014957983
 20
-5.4327596639
 30
0.0
 40
0.0885
  0
CIRCLE
  5
16B
330
1F
100
AcDbEntity
  8
0
  6
Continuous
 62
     7
370
    15
100
AcDbCircle
 10
-1.9014957983
 20
3.5672403361
 30
0.0
 40
0.0885
  0
CIRCLE
  5
16C
330
1F
100
AcDbEntity
  8
0
  6
Continuous
 62
     7
370
    15
100
AcDbCircle
 10
6.1135042017
 20
-1.4627596639
 30
0.0
 40
0.048
  0
CIRCLE
  5
16D
330
1F
100
AcDbEntity
  8
0
  6
Continuous
 62
     7
370
    15
100
AcDbCircle
 10
7.2135042017
 20
-1.4627596639
 30
0.0
 40
0.048
  0
CIRCLE
  5
16E
330
1F
100
AcDbEntity
  8
0
  6
Continuous
 62
     7
370
    15
100
AcDbCircle
 10
7.2135042017
 20
-0.3627596639
 30
0.0
 40
0.048
  0
CIRCLE
  5
16F
330
1F
100
AcDbEntity
  8
0
  6
Continuous
 62
     7
370
    15
100
AcDbCircle
 10
6.1135042017
 20
-0.3627596639
 30
0.0
 40
0.048
  0
CIRCLE
  5
170
330
1F
100
AcDbEntity
  8
0
  6
Continuous
 62
     7
370
    15
100
AcDbCircle
 10
2.3885042017
 20
-5.4327596639
 30
0.0
 40
0.0884999999999998
  0
CIRCLE
  5
171
330
1F
100
AcDbEntity
  8
0
  6
Continuous
 62
     7
370
    15
100
AcDbCircle
 10
6.6785042017
 20
-5.4327596639
 30
0.0
 40
0.0884999999999998
  0
CIRCLE
  5
172
330
1F
100
AcDbEntity
  8
0
  6
Continuous
 62
     7
370
    15
100
AcDbCircle
 10
10.9685042017
 20
-5.4327596639
 30
0.0
 40
0.0885000000000016
  0
CIRCLE
  5
173
330
1F
100
AcDbEntity
  8
0
  6
Continuous
 62
     7
370
    15
100
AcDbCircle
 10
15.2585042017
 20
-5.4327596639
 30
0.0
 40
0.0884999999999998
  0
CIRCLE
  5
174
330
1F
100
AcDbEntity
  8
0
  6
Continuous
 62
     7
370
    15
100
AcDbCircle
 10
15.2285042017
 20
-0.9327596639
 30
0.0
 40
0.0885000000000016
  0
CIRCLE
  5
175
330
1F
100
AcDbEntity
  8
0
  6
Continuous
 62
     7
370
    15
100
AcDbCircle
 10
10.9385042017
 20
-0.9327596639
 30
0.0
 40
0.0884999999999998
  0
CIRCLE
  5
176
330
1F
100
AcDbEntity
  8
0
  6
Continuous
 62
     7
370
    15
100
AcDbCircle
 10
9.5085042017
 20
-0.9327596639
 30
0.0
 40
0.0884999999999998
  0
CIRCLE
  5
177
330
1F
100
AcDbEntity
  8
0
  6
Continuous
 62
     7
370
    15
100
AcDbCircle
 10
3.8185042017
 20
-0.9327596639
 30
0.0
 40
0.0884999999999998
  0
CIRCLE
  5
178
330
1F
100
AcDbEntity
  8
0
  6
Continuous
 62
     7
370
    15
100
AcDbCircle
 10
2.3885042017
 20
-0.9327596639
 30
0.0
 40
0.0884999999999998
  0
CIRCLE
  5
179
330
1F
100
AcDbEntity
  8
0
  6
Continuous
 62
     7
370
    15
100
AcDbCircle
 10
-1.9014957983
 20
-0.9327596639
 30
0.0
 40
0.0884999999999998
  0
LINE
  5
17A
330
1F
100
AcDbEntity
  8
0
  6
Continuous
 62
     7
370
    15
100
AcDbLine
 10
-3.6802457983
 20
7.6631403361
 30
0.0
 11
-3.6802457983
 21
-9.4886596639
 31
0.0
  0
ARC
  5
17B
330
1F
100
AcDbEntity
  8
0
  6
Continuous
 62
     7
370
    15
100
AcDbCircle
 10
-3.5302457983
 20
-9.4886596639
 30
0.0
 40
0.1499999999999995
100
AcDbArc
 50
180.0
 51
270.0
  0
LINE
  5
17C
330
1F
100
AcDbEntity
  8
0
  6
Continuous
 62
     7
370
    15
100
AcDbLine
 10
-3.5302457983
 20
-9.6386596639
 30
0.0
 11
16.8572542017
 21
-9.6386596639
 31
0.0
  0
ARC
  5
17D
330
1F
100
AcDbEntity
  8
0
  6
Continuous
 62
     7
370
    15
100
AcDbCircle
 10
16.8572542017
 20
-9.4886596639
 30
0.0
 40
0.1500000000000004
100
AcDbArc
 50
270.0
 51
0.0
  0
LINE
  5
17E
330
1F
100
AcDbEntity
  8
0
  6
Continuous
 62
     7
370
    15
100
AcDbLine
 10
17.0072542017
 20
-9.4886596639
 30
0.0
 11
17.0072542017
 21
7.6631403361
 31
0.0
  0
ARC
  5
17F
330
1F
100
AcDbEntity
  8
0
  6
Continuous
 62
     7
370
    15
100
AcDbCircle
 10
16.8572542017
 20
7.6631403361
 30
0.0
 40
0.1500000000000004
100
AcDbArc
 50
0.0
 51
90.0
  0
LINE
  5
180
330
1F
100
AcDbEntity
  8
0
  6
Continuous
 62
     7
370
    15
100
AcDbLine
 10
16.8572542017
 20
7.8131403361
 30
0.0
 11
-3.5302457983
 21
7.8131403361
 31
0.0
  0
ARC
  5
181
330
1F
100
AcDbEntity
  8
0
  6
Continuous
 62
     7
370
    15
100
AcDbCircle
 10
-3.5302457983
 20
7.6631403361
 30
0.0
 40
0.1500000000000004
100
AcDbArc
 50
90.0
 51
180.0
  0
LINE
  5
182
330
1F
100
AcDbEntity
  8
0
  6
Continuous
 62
     7
370
    15
100
AcDbLine
 10
-2.5589864605
 20
-9.0334343056
 30
0.0
 11
-2.5589864605
 21
-9.0148021319
 31
0.0
  0
LINE
  5
183
330
1F
100
AcDbEntity
  8
0
  6
Continuous
 62
     7
370
    15
100
AcDbLine
 10
-2.5589864605
 20
-9.0148021319
 30
0.0
 11
-2.5466202179
 21
-9.0148021319
 31
0.0
  0
LINE
  5
184
330
1F
100
AcDbEntity
  8
0
  6
Continuous
 62
     7
370
    15
100
AcDbLine
 10
-2.5466202179
 20
-9.0148021319
 30
0.0
 11
-2.5466202179
 21
-9.1154986795
 31
0.0
  0
LINE
  5
185
330
1F
100
AcDbEntity
  8
0
  6
Continuous
 62
     7
370
    15
100
AcDbLine
 10
-2.5466202179
 20
-9.1154986795
 30
0.0
 11
-2.5589864605
 21
-9.1154986795
 31
0.0
  0
LINE
  5
186
330
1F
100
AcDbEntity
  8
0
  6
Continuous
 62
     7
370
    15
100
AcDbLine
 10
-2.5589864605
 20
-9.1154986795
 30
0.0
 11
-2.5589864605
 21
-9.0980810475
 31
0.0
  0
SPLINE
  5
187
330
1F
100
AcDbEntity
  8
0
  6
Continuous
 62
     7
370
    15
100
AcDbSpline
210
0.0
220
0.0
230
1.0
 70
     8
 71
     3
 72
    15
 73
    11
 74
     0
 42
0.000000001
 43
0.00000001
 40
0.0
 40
0.0
 40
0.0
 40
0.0
 40
0.1342983790141613
 40
0.2620849753823047
 40
0.386269912134496
 40
0.507164596622802
 40
0.6273002357255134
 40
0.7481449416029989
 40
0.8723701771613549
 40
1.0
 40
1.0
 40
1.0
 40
1.0
 10
-2.558986460544252
 20
-9.098081047476512
 30
0.0
 10
-2.560380901120086
 20
-9.099657409443358
 30
0.0
 10
-2.563102169438229
 20
-9.10273369964363
 30
0.0
 10
-2.567647095342616
 20
-9.106752682812557
 30
0.0
 10
-2.572464740141929
 20
-9.110074663975551
 30
0.0
 10
-2.577531721288806
 20
-9.112757731522812
 30
0.0
 10
-2.582843463152767
 20
-9.114773166811682
 30
0.0
 10
-2.588388190998288
 20
-9.116205692761516
 30
0.0
 10
-2.594168166622916
 20
-9.117126709894285
 30
0.0
 10
-2.598115109724885
 20
-9.117218679259205
 30
0.0
 10
-2.600115258747361
 20
-9.117265285564539
 30
0.0
  0
SPLINE
  5
188
330
1F
100
AcDbEntity
  8
0
  6
Continuous
 62
     7
370
    15
100
AcDbSpline
210
0.0
220
0.0
230
1.0
 70
     8
 71
     3
 72
    23
 73
    19
 74
     0
 42
0.000000001
 43
0.00000001
 40
0.0
 40
0.0
 40
0.0
 40
0.0
 40
0.0646199913407682
 40
0.1274334841444706
 40
0.1890041265579418
 40
0.2499300706860472
 40
0.3106684537406717
 40
0.3723289611368237
 40
0.4349391099970127
 40
0.4995755441940376
 40
0.5641912077719267
 40
0.626735216929477
 40
0.6881093335613997
 40
0.7492936065367458
 40
0.8103305278109487
 40
0.8719011702244149
 40
0.9350459146845245
 40
1.0
 40
1.0
 40
1.0
 40
1.0
 10
-2.600115258747361
 20
-9.117265285564539
 30
0.0
 10
-2.60189352464628
 20
-9.117217003191739
 30
0.0
 10
-2.605400343736358
 20
-9.117121788214742
 30
0.0
 10
-2.610558968820568
 20
-9.116383114843947
 30
0.0
 10
-2.615523230610043
 20
-9.115196869897408
 30
0.0
 10
-2.620297820084915
 20
-9.113547228578833
 30
0.0
 10
-2.624851841558701
 20
-9.111359007254501
 30
0.0
 10
-2.629224286309577
 20
-9.108739273079635
 30
0.0
 10
-2.633392502530804
 20
-9.10561955535993
 30
0.0
 10
-2.637292956820719
 20
-9.102053097550758
 30
0.0
 10
-2.64088476785914
 20
-9.098179279157703
 30
0.0
 10
-2.644036786466312
 20
-9.0940475647138
 30
0.0
 10
-2.646664860476342
 20
-9.08967582046606
 30
0.0
 10
-2.64886250144907
 20
-9.085119397084615
 30
0.0
 10
-2.65055527091524
 20
-9.080343219150203
 30
0.0
 10
-2.651735335256103
 20
-9.075363803089578
 30
0.0
 10
-2.652473148118335
 20
-9.070187036414787
 30
0.0
 10
-2.652568323735851
 20
-9.066661858340153
 30
0.0
 10
-2.652616583701934
 20
-9.06487437349105
 30
0.0
  0
SPLINE
  5
189
330
1F
100
AcDbEntity
  8
0
  6
Continuous
 62
     7
370
    15
100
AcDbSpline
210
0.0
220
0.0
230
1.0
 70
     8
 71
     3
 72
    23
 73
    19
 74
     0
 42
0.000000001
 43
0.00000001
 40
0.0
 40
0.0
 40
0.0
 40
0.0
 40
0.0637745323056261
 40
0.1260788099895074
 40
0.1869040927472051
 40
0.2475739349176138
 40
0.3080033561644494
 40
0.3691318984609802
 40
0.4320332277442024
 40
0.4967907944370883
 40
0.5616108232295668
 40
0.6249138657484634
 40
0.6867263492419253
 40
0.7480788332577712
 40
0.8095822911398941
 40
0.8716307425688263
 40
0.9348858208285535
 40
1.0
 40
1.0
 40
1.0
 40
1.0
 10
-2.652616583701934
 20
-9.06487437349105
 30
0.0
 10
-2.652567254119852
 20
-9.063123833980441
 30
0.0
 10
-2.652469732197209
 20
-9.059663111802516
 30
0.0
 10
-2.651743227479087
 20
-9.054573399283386
 30
0.0
 10
-2.65052153422479
 20
-9.049671105553733
 30
0.0
 10
-2.648807052033219
 20
-9.04497201330083
 30
0.0
 10
-2.646608549869316
 20
-9.040470436523321
 30
0.0
 10
-2.643934215734637
 20
-9.036163191444
 30
0.0
 10
-2.640783856494525
 20
-9.032038412016355
 30
0.0
 10
-2.637151871966322
 20
-9.028193088125853
 30
0.0
 10
-2.633217432196139
 20
-9.024641095438083
 30
0.0
 10
-2.62900842704199
 20
-9.021554125145073
 30
0.0
 10
-2.62462955769865
 20
-9.01888810747515
 30
0.0
 10
-2.620012903741075
 20
-9.016775765888287
 30
0.0
 10
-2.615226797252336
 20
-9.015066746024331
 30
0.0
 10
-2.610228630096933
 20
-9.013884345705414
 30
0.0
 10
-2.605039197865612
 20
-9.013187600774703
 30
0.0
 10
-2.601515950146532
 20
-9.013086704548284
 30
0.0
 10
-2.599728813663574
 20
-9.01303552582297
 30
0.0
  0
SPLINE
  5
18A
330
1F
100
AcDbEntity
  8
0
  6
Continuous
 62
     7
370
    15
100
AcDbSpline
210
0.0
220
0.0
230
1.0
 70
     8
 71
     3
 72
    15
 73
    11
 74
     0
 42
0.000000001
 43
0.00000001
 40
0.0
 40
0.0
 40
0.0
 40
0.0
 40
0.1298621417207337
 40
0.2546535308972938
 40
0.3760145541937236
 40
0.4952552518176051
 40
0.6147977192994625
 40
0.7381055541683429
 40
0.8651963000723638
 40
1.0
 40
1.0
 40
1.0
 40
1.0
 10
-2.599728813663574
 20
-9.01303552582297
 30
0.0
 10
-2.59767370110204
 20
-9.01309213021438
 30
0.0
 10
-2.593643722362653
 20
-9.013203128754418
 30
0.0
 10
-2.587748918848212
 20
-9.014126858176429
 30
0.0
 10
-2.582172364600041
 20
-9.015687427749455
 30
0.0
 10
-2.57687101215791
 20
-9.01781016389211
 30
0.0
 10
-2.571863898532131
 20
-9.020630979997698
 30
0.0
 10
-2.567198426708668
 20
-9.02418924617973
 30
0.0
 10
-2.562825769885526
 20
-9.028462521257293
 30
0.0
 10
-2.560291112733589
 20
-9.031744822220652
 30
0.0
 10
-2.558986460544252
 20
-9.0334343056029
 30
0.0
  0
SPLINE
  5
18B
330
1F
100
AcDbEntity
  8
0
  6
Continuous
 62
     7
370
    15
100
AcDbSpline
210
0.0
220
0.0
230
1.0
 70
     8
 71
     3
 72
    31
 73
    27
 74
     0
 42
0.000000001
 43
0.00000001
 40
0.0
 40
0.0
 40
0.0
 40
0.0
 40
0.0412914469532474
 40
0.0821355032144651
 40
0.122636035225964
 40
0.1628308697551141
 40
0.203006600577046
 40
0.2435260831621538
 40
0.2841729362467826
 40
0.3254098107964559
 40
0.366854666098756
 40
0.4075505951658519
 40
0.4481873740566026
 40
0.4886828510840618
 40
0.5290149651896812
 40
0.5698427286954836
 40
0.611370238164666
 40
0.6532377352823752
 40
0.6954461190732812
 40
0.7377513945470107
 40
0.7800433605771124
 40
0.8228070703900483
 40
0.8659781422330267
 40
0.9095950301662478
 40
0.954231404704789
 40
1.0
 40
1.0
 40
1.0
 40
1.0
 10
-2.521887732500641
 20
-9.065978502301869
 30
0.0
 10
-2.521870369660621
 20
-9.064790374957198
 30
0.0
 10
-2.521835832106051
 20
-9.062426993566179
 30
0.0
 10
-2.521439693218699
 20
-9.058919313775572
 30
0.0
 10
-2.520927942315796
 20
-9.05545834742406
 30
0.0
 10
-2.520060787312945
 20
-9.052087964772538
 30
0.0
 10
-2.519059187640875
 20
-9.048757047840674
 30
0.0
 10
-2.517780623397356
 20
-9.045505744639742
 30
0.0
 10
-2.516280804699799
 20
-9.042318946496852
 30
0.0
 10
-2.514577972128929
 20
-9.03920486265422
 30
0.0
 10
-2.512661092400215
 20
-9.036214723304429
 30
0.0
 10
-2.510539784004545
 20
-9.033389775876463
 30
0.0
 10
-2.508293943995914
 20
-9.030696084322225
 30
0.0
 10
-2.505818506514152
 20
-9.028226644925557
 30
0.0
 10
-2.503218520142263
 20
-9.025882700387008
 30
0.0
 10
-2.500420426611079
 20
-9.023726868720455
 30
0.0
 10
-2.497440274970904
 20
-9.021752813957836
 30
0.0
 10
-2.494322821326059
 20
-9.019924033822381
 30
0.0
 10
-2.491069879935074
 20
-9.018295709606424
 30
0.0
 10
-2.487701113386055
 20
-9.01689282622618
 30
0.0
 10
-2.484236820896155
 20
-9.015693905915777
 30
0.0
 10
-2.480671460888611
 20
-9.014744735866877
 30
0.0
 10
-2.477028698166724
 20
-9.013948774318003
 30
0.0
 10
-2.473279826593783
 20
-9.013448071707076
 30
0.0
 10
-2.469439187922172
 20
-9.01309428143461
 30
0.0
 10
-2.466838557106667
 20
-9.013055273868838
 30
0.0
 10
-2.465521956708193
 20
-9.013035525822968
 30
0.0
  0
SPLINE
  5
18C
330
1F
100
AcDbEntity
  8
0
  6
Continuous
 62
     7
370
    15
100
AcDbSpline
210
0.0
220
0.0
230
1.0
 70
     8
 71
     3
 72
    19
 73
    15
 74
     0
 42
0.000000001
 43
0.00000001
 40
0.0
 40
0.0
 40
0.0
 40
0.0
 40
0.0912688044343247
 40
0.1820814045527806
 40
0.2719096545272042
 40
0.3620494585053587
 40
0.4500663484251198
 40
0.5339764739707212
 40
0.6136024537413226
 40
0.6901976142648861
 40
0.7654128769004226
 40
0.8414365506928775
 40
0.9197327486057739
 40
1.0
 40
1.0
 40
1.0
 40
1.0
 10
-2.465521956708193
 20
-9.013035525822968
 30
0.0
 10
-2.463873133556782
 20
-9.013071820746735
 30
0.0
 10
-2.460583728845844
 20
-9.013144229175207
 30
0.0
 10
-2.455704173465592
 20
-9.013753624931951
 30
0.0
 10
-2.450896488667945
 20
-9.014672381483539
 30
0.0
 10
-2.446245027900467
 20
-9.016033516513913
 30
0.0
 10
-2.441806188749384
 20
-9.017681691936003
 30
0.0
 10
-2.437651249765397
 20
-9.019532586202892
 30
0.0
 10
-2.433878017329559
 20
-9.021681980038181
 30
0.0
 10
-2.43041630122173
 20
-9.024033165644383
 30
0.0
 10
-2.427259627310244
 20
-9.026685169806697
 30
0.0
 10
-2.424375592169485
 20
-9.029669695688838
 30
0.0
 10
-2.421705054799032
 20
-9.032971210612994
 30
0.0
 10
-2.420191011041399
 20
-9.035404507120296
 30
0.0
 10
-2.419424578856386
 20
-9.036636279154282
 30
0.0
  0
LINE
  5
18D
330
1F
100
AcDbEntity
  8
0
  6
Continuous
 62
     7
370
    15
100
AcDbLine
 10
-2.4194245789
 20
-9.0366362792
 30
0.0
 11
-2.4297757865
 21
-9.0430678295
 31
0.0
  0
SPLINE
  5
18E
330
1F
100
AcDbEntity
  8
0
  6
Continuous
 62
     7
370
    15
100
AcDbSpline
210
0.0
220
0.0
230
1.0
 70
     8
 71
     3
 72
    15
 73
    11
 74
     0
 42
0.000000001
 43
0.00000001
 40
0.0
 40
0.0
 40
0.0
 40
0.0
 40
0.1283242377690959
 40
0.2525844750621329
 40
0.3735064833109031
 40
0.4933644513855717
 40
0.6146085973434205
 40
0.7384702442356608
 40
0.8659947178700214
 40
1.0
 40
1.0
 40
1.0
 40
1.0
 10
-2.429775786457839
 20
-9.043067829477318
 30
0.0
 10
-2.430910820527838
 20
-9.041657262790764
 30
0.0
 10
-2.433144942387686
 20
-9.038880801755361
 30
0.0
 10
-2.437024439881671
 20
-9.035297733516261
 30
0.0
 10
-2.441158747528148
 20
-9.032220290926935
 30
0.0
 10
-2.445618513186209
 20
-9.029712269235885
 30
0.0
 10
-2.450397481692201
 20
-9.027774416859126
 30
0.0
 10
-2.455476806544594
 20
-9.026403148925942
 30
0.0
 10
-2.460855763430581
 20
-9.025548651176765
 30
0.0
 10
-2.464543369691824
 20
-9.025451531615136
 30
0.0
 10
-2.466432862977121
 20
-9.02540176850417
 30
0.0
  0
SPLINE
  5
18F
330
1F
100
AcDbEntity
  8
0
  6
Continuous
 62
     7
370
    15
100
AcDbSpline
210
0.0
220
0.0
230
1.0
 70
     8
 71
     3
 72
    23
 73
    19
 74
     0
 42
0.000000001
 43
0.00000001
 40
0.0
 40
0.0
 40
0.0
 40
0.0
 40
0.0695216413260416
 40
0.1369209822612563
 40
0.2019692428653336
 40
0.2654615503849164
 40
0.3282478845128334
 40
0.3908167166700967
 40
0.4535501756793866
 40
0.517541981632314
 40
0.5807383719174765
 40
0.6419215091741688
 40
0.7015967244089338
 40
0.7603128802455051
 40
0.8187565130146974
 40
0.8777180795361987
 40
0.9380940530276981
 40
1.0
 40
1.0
 40
1.0
 40
1.0
 10
-2.466432862977121
 20
-9.02540176850417
 30
0.0
 10
-2.467943058131119
 20
-9.025443376465182
 30
0.0
 10
-2.470917346423911
 20
-9.025525322213056
 30
0.0
 10
-2.475283730417874
 20
-9.026037546360726
 30
0.0
 10
-2.479442878178993
 20
-9.026968334089332
 30
0.0
 10
-2.483420858844389
 20
-9.028194749707144
 30
0.0
 10
-2.487189379259003
 20
-9.029838461909513
 30
0.0
 10
-2.490758313056141
 20
-9.031838846008748
 30
0.0
 10
-2.494159316599516
 20
-9.034163650745379
 30
0.0
 10
-2.497293833975137
 20
-9.036856979304375
 30
0.0
 10
-2.50016111771852
 20
-9.039786060707858
 30
0.0
 10
-2.50264532693267
 20
-9.042925969974098
 30
0.0
 10
-2.504808198318235
 20
-9.046182658604284
 30
0.0
 10
-2.506505283213479
 20
-9.049637451605141
 30
0.0
 10
-2.507894069452703
 20
-9.053211311969578
 30
0.0
 10
-2.508807719853698
 20
-9.056971699988543
 30
0.0
 10
-2.509416566129798
 20
-9.060870440444281
 30
0.0
 10
-2.509486224736794
 20
-9.063528642795946
 30
0.0
 10
-2.509521489819438
 20
-9.064874373491048
 30
0.0
  0
SPLINE
  5
190
330
1F
100
AcDbEntity
  8
0
  6
Continuous
 62
     7
370
    15
100
AcDbSpline
210
0.0
220
0.0
230
1.0
 70
     8
 71
     3
 72
    19
 73
    15
 74
     0
 42
0.000000001
 43
0.00000001
 40
0.0
 40
0.0
 40
0.0
 40
0.0
 40
0.0805252423525501
 40
0.1599654769449873
 40
0.2403213612945732
 40
0.322528527629409
 40
0.4050235832074859
 40
0.4865966363996197
 40
0.5678654736293265
 40
0.651332773384527
 40
0.7362375672940296
 40
0.821529069009542
 40
0.9090049060738475
 40
1.0
 40
1.0
 40
1.0
 40
1.0
 10
-2.509521489819438
 20
-9.064874373491048
 30
0.0
 10
-2.509451440519775
 20
-9.066636940854481
 30
0.0
 10
-2.509312285773972
 20
-9.070138326515695
 30
0.0
 10
-2.50822167712427
 20
-9.075306755719403
 30
0.0
 10
-2.506436464237818
 20
-9.08030375140276
 30
0.0
 10
-2.503993241770974
 20
-9.085093835541468
 30
0.0
 10
-2.500903590809862
 20
-9.089526676300036
 30
0.0
 10
-2.497274749735107
 20
-9.093502402850628
 30
0.0
 10
-2.493104707087158
 20
-9.09694397876494
 30
0.0
 10
-2.488430205876133
 20
-9.099797227783803
 30
0.0
 10
-2.483361003378362
 20
-9.102090982414198
 30
0.0
 10
-2.477951944136316
 20
-9.103725129378178
 30
0.0
 10
-2.472247228370732
 20
-9.104711443258285
 30
0.0
 10
-2.468341450926239
 20
-9.104835692984187
 30
0.0
 10
-2.466350053316309
 20
-9.104899042883334
 30
0.0
  0
SPLINE
  5
191
330
1F
100
AcDbEntity
  8
0
  6
Continuous
 62
     7
370
    15
100
AcDbSpline
210
0.0
220
0.0
230
1.0
 70
     8
 71
     3
 72
    15
 73
    11
 74
     0
 42
0.000000001
 43
0.00000001
 40
0.0
 40
0.0
 40
0.0
 40
0.0
 40
0.1299810785766143
 40
0.2554473120268483
 40
0.3772983447181217
 40
0.4984417785420208
 40
0.6193721253366273
 40
0.7418565019578184
 40
0.868563689145757
 40
1.0
 40
1.0
 40
1.0
 40
1.0
 10
-2.466350053316309
 20
-9.104899042883334
 30
0.0
 10
-2.464525046057329
 20
-9.104847881576411
 30
0.0
 10
-2.460938422497646
 20
-9.104747336031807
 30
0.0
 10
-2.455695615998825
 20
-9.103899739050393
 30
0.0
 10
-2.450704280926002
 20
-9.102512194420013
 30
0.0
 10
-2.445964594682879
 20
-9.100577247567719
 30
0.0
 10
-2.441485218066491
 20
-9.098076164264489
 30
0.0
 10
-2.437295093069704
 20
-9.094991157539614
 30
0.0
 10
-2.433310843531182
 20
-9.091410976424724
 30
0.0
 10
-2.430968442878344
 20
-9.088642552358195
 30
0.0
 10
-2.429775786457839
 20
-9.087232981910187
 30
0.0
  0
LINE
  5
192
330
1F
100
AcDbEntity
  8
0
  6
Continuous
 62
     7
370
    15
100
AcDbLine
 10
-2.4297757865
 20
-9.0872329819
 30
0.0
 11
-2.4194245789
 21
-9.0940233741
 31
0.0
  0
SPLINE
  5
193
330
1F
100
AcDbEntity
  8
0
  6
Continuous
 62
     7
370
    15
100
AcDbSpline
210
0.0
220
0.0
230
1.0
 70
     8
 71
     3
 72
    23
 73
    19
 74
     0
 42
0.000000001
 43
0.00000001
 40
0.0
 40
0.0
 40
0.0
 40
0.0
 40
0.0596333961362551
 40
0.1190688615049975
 40
0.1781965462156675
 40
0.2369566475521828
 40
0.2959319880757997
 40
0.3558557687429145
 40
0.4164733051171436
 40
0.4777415997317969
 40
0.5399029904536046
 40
0.6025375151243967
 40
0.6654223850767779
 40
0.7297652560446434
 40
0.7948287708416023
 40
0.8618265399701615
 40
0.9300109324340672
 40
1.0
 40
1.0
 40
1.0
 40
1.0
 10
-2.419424578856386
 20
-9.094023374096741
 30
0.0
 10
-2.420038267920082
 20
-9.094924583817903
 30
0.0
 10
-2.421263609136026
 20
-9.09672401203143
 30
0.0
 10
-2.423311940846813
 20
-9.09926118197904
 30
0.0
 10
-2.425521383039915
 20
-9.101636051361021
 30
0.0
 10
-2.427883315988201
 20
-9.103845436799178
 30
0.0
 10
-2.430366899052281
 20
-9.105942209209159
 30
0.0
 10
-2.433056974233215
 20
-9.10782612946553
 30
0.0
 10
-2.435866801456202
 20
-9.109603090989777
 30
0.0
 10
-2.438829366720914
 20
-9.111202022966273
 30
0.0
 10
-2.441914039871031
 20
-9.112639279719973
 30
0.0
 10
-2.445116480407045
 20
-9.113875152582944
 30
0.0
 10
-2.448422772246092
 20
-9.114936967776075
 30
0.0
 10
-2.451836802804315
 20
-9.115780957806509
 30
0.0
 10
-2.455365302737764
 20
-9.116454612864793
 30
0.0
 10
-2.458999146612746
 20
-9.116901608989364
 30
0.0
 10
-2.462737082896295
 20
-9.11723528147438
 30
0.0
 10
-2.465263545546236
 20
-9.117255197493845
 30
0.0
 10
-2.466543275858203
 20
-9.117265285564537
 30
0.0
  0
SPLINE
  5
194
330
1F
100
AcDbEntity
  8
0
  6
Continuous
 62
     7
370
    15
100
AcDbSpline
210
0.0
220
0.0
230
1.0
 70
     8
 71
     3
 72
    23
 73
    19
 74
     0
 42
0.000000001
 43
0.00000001
 40
0.0
 40
0.0
 40
0.0
 40
0.0
 40
0.0695585437274115
 40
0.1363352505575696
 40
0.2010957661175451
 40
0.2644499547795253
 40
0.3270049911572395
 40
0.3893913874403755
 40
0.4519764903030297
 40
0.515669982884784
 40
0.5789732464632439
 40
0.6401670288004204
 40
0.6997398434247516
 40
0.7586849854260559
 40
0.8178204012910985
 40
0.8769839874813263
 40
0.9376342848620853
 40
1.0
 40
1.0
 40
1.0
 40
1.0
 10
-2.466543275858203
 20
-9.117265285564537
 30
0.0
 10
-2.468496460255184
 20
-9.117230195808629
 30
0.0
 10
-2.472324715849367
 20
-9.117161419632373
 30
0.0
 10
-2.477927964180632
 20
-9.116405180443394
 30
0.0
 10
-2.483282832968482
 20
-9.115265116810383
 30
0.0
 10
-2.488387492730916
 20
-9.113628749333484
 30
0.0
 10
-2.49324273817377
 20
-9.111522262118614
 30
0.0
 10
-2.497844042041655
 20
-9.108949155245066
 30
0.0
 10
-2.502176168742302
 20
-9.105888061154403
 30
0.0
 10
-2.506196278300158
 20
-9.102393463935087
 30
0.0
 10
-2.509888461219441
 20
-9.09860446232207
 30
0.0
 10
-2.513058783674226
 20
-9.094515882875916
 30
0.0
 10
-2.515808597478078
 20
-9.090278046346704
 30
0.0
 10
-2.51801676846515
 20
-9.08579735634503
 30
0.0
 10
-2.519774521474496
 20
-9.081133365299646
 30
0.0
 10
-2.520975499134924
 20
-9.076248710183897
 30
0.0
 10
-2.521752260462409
 20
-9.071183660811567
 30
0.0
 10
-2.521842157294
 20
-9.067729610336986
 30
0.0
 10
-2.521887732500641
 20
-9.065978502301869
 30
0.0
  0
LINE
  5
195
330
1F
100
AcDbEntity
  8
0
  6
Continuous
 62
     7
370
    15
100
AcDbLine
 10
-2.3823258508
 20
-9.1154986795
 30
0.0
 11
-2.3946920935
 21
-9.1154986795
 31
0.0
  0
LINE
  5
196
330
1F
100
AcDbEntity
  8
0
  6
Continuous
 62
     7
370
    15
100
AcDbLine
 10
-2.3946920935
 20
-9.1154986795
 30
0.0
 11
-2.3946920935
 21
-8.9741701917
 31
0.0
  0
LINE
  5
197
330
1F
100
AcDbEntity
  8
0
  6
Continuous
 62
     7
370
    15
100
AcDbLine
 10
-2.3946920935
 20
-8.9741701917
 30
0.0
 11
-2.3823258508
 21
-8.9741701917
 31
0.0
  0
LINE
  5
198
330
1F
100
AcDbEntity
  8
0
  6
Continuous
 62
     7
370
    15
100
AcDbLine
 10
-2.3823258508
 20
-8.9741701917
 30
0.0
 11
-2.3823258508
 21
-9.0558757237
 31
0.0
  0
LINE
  5
199
330
1F
100
AcDbEntity
  8
0
  6
Continuous
 62
     7
370
    15
100
AcDbLine
 10
-2.3823258508
 20
-9.0558757237
 30
0.0
 11
-2.3365045052
 21
-9.0148021319
 31
0.0
  0
LINE
  5
19A
330
1F
100
AcDbEntity
  8
0
  6
Continuous
 62
     7
370
    15
100
AcDbLine
 10
-2.3365045052
 20
-9.0148021319
 30
0.0
 11
-2.3187280313
 21
-9.0148021319
 31
0.0
  0
LINE
  5
19B
330
1F
100
AcDbEntity
  8
0
  6
Continuous
 62
     7
370
    15
100
AcDbLine
 10
-2.3187280313
 20
-9.0148021319
 30
0.0
 11
-2.3718918336
 21
-9.0625004965
 31
0.0
  0
LINE
  5
19C
330
1F
100
AcDbEntity
  8
0
  6
Continuous
 62
     7
370
    15
100
AcDbLine
 10
-2.3718918336
 20
-9.0625004965
 30
0.0
 11
-2.313428213
 21
-9.1154986795
 31
0.0
  0
LINE
  5
19D
330
1F
100
AcDbEntity
  8
0
  6
Continuous
 62
     7
370
    15
100
AcDbLine
 10
-2.313428213
 20
-9.1154986795
 30
0.0
 11
-2.3311770837
 21
-9.1154986795
 31
0.0
  0
LINE
  5
19E
330
1F
100
AcDbEntity
  8
0
  6
Continuous
 62
     7
370
    15
100
AcDbLine
 10
-2.3311770837
 20
-9.1154986795
 30
0.0
 11
-2.3823258508
 21
-9.0690976662
 31
0.0
  0
LINE
  5
19F
330
1F
100
AcDbEntity
  8
0
  6
Continuous
 62
     7
370
    15
100
AcDbLine
 10
-2.3823258508
 20
-9.0690976662
 30
0.0
 11
-2.3823258508
 21
-9.1154986795
 31
0.0
  0
LINE
  5
1A0
330
1F
100
AcDbEntity
  8
0
  6
Continuous
 62
     7
370
    15
100
AcDbLine
 10
-2.6927457983
 20
-8.877098909
 30
0.0
 11
-2.7327457983
 21
-8.827098909
 31
0.0
  0
LINE
  5
1A1
330
1F
100
AcDbEntity
  8
0
  6
Continuous
 62
     7
370
    15
100
AcDbLine
 10
-2.7127457983
 20
-8.877098909
 30
0.0
 11
-2.6927457983
 21
-8.877098909
 31
0.0
  0
LINE
  5
1A2
330
1F
100
AcDbEntity
  8
0
  6
Continuous
 62
     7
370
    15
100
AcDbLine
 10
-2.7127457983
 20
-8.927098909
 30
0.0
 11
-2.7127457983
 21
-8.877098909
 31
0.0
  0
LINE
  5
1A3
330
1F
100
AcDbEntity
  8
0
  6
Continuous
 62
     7
370
    15
100
AcDbLine
 10
-2.7527457983
 20
-8.927098909
 30
0.0
 11
-2.7127457983
 21
-8.927098909
 31
0.0
  0
LINE
  5
1A4
330
1F
100
AcDbEntity
  8
0
  6
Continuous
 62
     7
370
    15
100
AcDbLine
 10
-2.7527457983
 20
-8.877098909
 30
0.0
 11
-2.7527457983
 21
-8.927098909
 31
0.0
  0
LINE
  5
1A5
330
1F
100
AcDbEntity
  8
0
  6
Continuous
 62
     7
370
    15
100
AcDbLine
 10
-2.7727457983
 20
-8.877098909
 30
0.0
 11
-2.7527457983
 21
-8.877098909
 31
0.0
  0
LINE
  5
1A6
330
1F
100
AcDbEntity
  8
0
  6
Continuous
 62
     7
370
    15
100
AcDbLine
 10
-2.7327457983
 20
-8.827098909
 30
0.0
 11
-2.7727457983
 21
-8.877098909
 31
0.0
  0
SPLINE
  5
1A7
330
1F
100
AcDbEntity
  8
0
  6
Continuous
 62
     7
370
    15
100
AcDbSpline
210
0.0
220
0.0
230
1.0
 70
     8
 71
     3
 72
    15
 73
    11
 74
     0
 42
0.000000001
 43
0.00000001
 40
0.0
 40
0.0
 40
0.0
 40
0.0
 40
0.1209110787487126
 40
0.2387622286387253
 40
0.354754859084862
 40
0.4703593994502202
 40
0.5891440987928745
 40
0.716328904836353
 40
0.8524452858576071
 40
0.9999999999999999
 40
0.9999999999999999
 40
0.9999999999999999
 40
0.9999999999999999
 10
-2.040597983863453
 20
-9.01303552582297
 30
0.0
 10
-2.038745584691033
 20
-9.013088938156912
 30
0.0
 10
-2.035087665505194
 20
-9.013194411104642
 30
0.0
 10
-2.029704555173363
 20
-9.014022015253586
 30
0.0
 10
-2.024509978796318
 20
-9.01534146459814
 30
0.0
 10
-2.019474623848405
 20
-9.017231843752084
 30
0.0
 10
-2.014557472234182
 20
-9.019812553922755
 30
0.0
 10
-2.009774729899142
 20
-9.023211882584578
 30
0.0
 10
-2.005112559262335
 20
-9.027460321156704
 30
0.0
 10
-2.002235479319512
 20
-9.030718307942813
 30
0.0
 10
-2.000738933792789
 20
-9.03241298645289
 30
0.0
  0
LINE
  5
1A8
330
1F
100
AcDbEntity
  8
0
  6
Continuous
 62
     7
370
    15
100
AcDbLine
 10
-2.0007389338
 20
-9.0324129865
 30
0.0
 11
-2.0007389338
 21
-9.0148021319
 31
0.0
  0
LINE
  5
1A9
330
1F
100
AcDbEntity
  8
0
  6
Continuous
 62
     7
370
    15
100
AcDbLine
 10
-2.0007389338
 20
-9.0148021319
 30
0.0
 11
-1.9883726911
 21
-9.0148021319
 31
0.0
  0
LINE
  5
1AA
330
1F
100
AcDbEntity
  8
0
  6
Continuous
 62
     7
370
    15
100
AcDbLine
 10
-1.9883726911
 20
-9.0148021319
 30
0.0
 11
-1.9883726911
 21
-9.0947134546
 31
0.0
  0
SPLINE
  5
1AB
330
1F
100
AcDbEntity
  8
0
  6
Continuous
 62
     7
370
    15
100
AcDbSpline
210
0.0
220
0.0
230
1.0
 70
     8
 71
     3
 72
    15
 73
    11
 74
     0
 42
0.000000001
 43
0.00000001
 40
0.0
 40
0.0
 40
0.0
 40
0.0
 40
0.1634452548497803
 40
0.315488712712925
 40
0.4562908239366613
 40
0.5858641495747636
 40
0.705428685806739
 40
0.8133707129824247
 40
0.9117182381600921
 40
1.0
 40
1.0
 40
1.0
 40
1.0
 10
-1.988372691111586
 20
-9.094713454603506
 30
0.0
 10
-1.988383598299416
 20
-9.09641572210771
 30
0.0
 10
-1.988404651799263
 20
-9.099701508434691
 30
0.0
 10
-1.988556264840784
 20
-9.104452621805278
 30
0.0
 10
-1.988875976542373
 20
-9.108841050369522
 30
0.0
 10
-1.989238523052357
 20
-9.1128868085817
 30
0.0
 10
-1.989760047316905
 20
-9.116571143623428
 30
0.0
 10
-1.99039691216881
 20
-9.119905049319257
 30
0.0
 10
-1.991114852292909
 20
-9.122891725003024
 30
0.0
 10
-1.991745569515519
 20
-9.124731285673395
 30
0.0
 10
-1.992043919407568
 20
-9.125601458086244
 30
0.0
  0
SPLINE
  5
1AC
330
1F
100
AcDbEntity
  8
0
  6
Continuous
 62
     7
370
    15
100
AcDbSpline
210
0.0
220
0.0
230
1.0
 70
     8
 71
     3
 72
    23
 73
    19
 74
     0
 42
0.000000001
 43
0.00000001
 40
0.0
 40
0.0
 40
0.0
 40
0.0
 40
0.0613707062984602
 40
0.1209064680177815
 40
0.1794236650000191
 40
0.2376066874397758
 40
0.2959384682493711
 40
0.3542182268208602
 40
0.4135370665946735
 40
0.4740867825531881
 40
0.5351211890802636
 40
0.5969876649622258
 40
0.6600198335468059
 40
0.7242774964844924
 40
0.7900118502255343
 40
0.8577476843344483
 40
0.9278290322155465
 40
1.0
 40
1.0
 40
1.0
 40
1.0
 10
-1.992043919407568
 20
-9.125601458086244
 30
0.0
 10
-1.992484440617667
 20
-9.126732557361496
 30
0.0
 10
-1.993352311737498
 20
-9.128960936772398
 30
0.0
 10
-1.994977730377614
 20
-9.13211976829971
 30
0.0
 10
-1.996797962803551
 20
-9.13509403561649
 30
0.0
 10
-1.998876968734075
 20
-9.137867163620614
 30
0.0
 10
-2.001205346845561
 20
-9.140425231036454
 30
0.0
 10
-2.003728240237471
 20
-9.142823813685268
 30
0.0
 10
-2.006494783206823
 20
-9.145012166731924
 30
0.0
 10
-2.009503393923592
 20
-9.146952532773533
 30
0.0
 10
-2.012684718065362
 20
-9.148700054590597
 30
0.0
 10
-2.016036926808143
 20
-9.150213698967905
 30
0.0
 10
-2.019541117294903
 20
-9.15153207863809
 30
0.0
 10
-2.023230207515333
 20
-9.152519590280992
 30
0.0
 10
-2.027046358478642
 20
-9.153375287941108
 30
0.0
 10
-2.031034446316454
 20
-9.153932165334583
 30
0.0
 10
-2.035171170600124
 20
-9.154311183371084
 30
0.0
 10
-2.037983980839509
 20
-9.15434623191357
 30
0.0
 10
-2.03941104539182
 20
-9.154364013608152
 30
0.0
  0
SPLINE
  5
1AD
330
1F
100
AcDbEntity
  8
0
  6
Continuous
 62
     7
370
    15
100
AcDbSpline
210
0.0
220
0.0
230
1.0
 70
     8
 71
     3
 72
    19
 73
    15
 74
     0
 42
0.000000001
 43
0.00000001
 40
0.0
 40
0.0
 40
0.0
 40
0.0
 40
0.0964914237691194
 40
0.1884736749923094
 40
0.276839914958813
 40
0.3621365621714233
 40
0.4434367545654571
 40
0.520165520998626
 40
0.5927096635690009
 40
0.6629173343528166
 40
0.7354188002027056
 40
0.8148809699994153
 40
0.9030605557399938
 40
1.0
 40
1.0
 40
1.0
 40
1.0
 10
-2.039411045391819
 20
-9.15436401360815
 30
0.0
 10
-2.041493121557243
 20
-9.154330293694345
 30
0.0
 10
-2.045559975700158
 20
-9.154264429643147
 30
0.0
 10
-2.051489306120813
 20
-9.15349707078128
 30
0.0
 10
-2.057120594306879
 20
-9.152412252943748
 30
0.0
 10
-2.062379431184834
 20
-9.15077030697397
 30
0.0
 10
-2.067232584604937
 20
-9.148760976669596
 30
0.0
 10
-2.071646910413211
 20
-9.146454088758007
 30
0.0
 10
-2.075582780787928
 20
-9.143808840379997
 30
0.0
 10
-2.079130956890411
 20
-9.140797005698248
 30
0.0
 10
-2.082333381698918
 20
-9.13721575838969
 30
0.0
 10
-2.085346267131222
 20
-9.132995331455643
 30
0.0
 10
-2.088246304212243
 20
-9.128071438181976
 30
0.0
 10
-2.089945856884201
 20
-9.124457551834947
 30
0.0
 10
-2.090835844755841
 20
-9.122565103856484
 30
0.0
  0
LINE
  5
1AE
330
1F
100
AcDbEntity
  8
0
  6
Continuous
 62
     7
370
    15
100
AcDbLine
 10
-2.0908358448
 20
-9.1225651039
 30
0.0
 11
-2.0784696021
 21
-9.1225651039
 31
0.0
  0
SPLINE
  5
1AF
330
1F
100
AcDbEntity
  8
0
  6
Continuous
 62
     7
370
    15
100
AcDbSpline
210
0.0
220
0.0
230
1.0
 70
     8
 71
     3
 72
    15
 73
    11
 74
     0
 42
0.000000001
 43
0.00000001
 40
0.0
 40
0.0
 40
0.0
 40
0.0
 40
0.1247164867023028
 40
0.2438053739155046
 40
0.3600615340644389
 40
0.4751119996584062
 40
0.5935250978119071
 40
0.7193501703843577
 40
0.8538547713042661
 40
1.0
 40
1.0
 40
1.0
 40
1.0
 10
-2.078469602074638
 20
-9.122565103856486
 30
0.0
 10
-2.077475026905134
 20
-9.124144075343589
 30
0.0
 10
-2.075530754920732
 20
-9.127230770166333
 30
0.0
 10
-2.071894987953534
 20
-9.131227351108647
 30
0.0
 10
-2.067910486916234
 20
-9.134642837907366
 30
0.0
 10
-2.063442782853855
 20
-9.137395230587078
 30
0.0
 10
-2.058473286184247
 20
-9.139470419224944
 30
0.0
 10
-2.052999007201193
 20
-9.14094976160431
 30
0.0
 10
-2.046975400046277
 20
-9.141835441401806
 30
0.0
 10
-2.04278176956663
 20
-9.1419421852656
 30
0.0
 10
-2.040597983863453
 20
-9.141997770926947
 30
0.0
  0
SPLINE
  5
1B0
330
1F
100
AcDbEntity
  8
0
  6
Continuous
 62
     7
370
    15
100
AcDbSpline
210
0.0
220
0.0
230
1.0
 70
     8
 71
     3
 72
    23
 73
    19
 74
     0
 42
0.000000001
 43
0.00000001
 40
0.0
 40
0.0
 40
0.0
 40
0.0
 40
0.098171297827694
 40
0.1892644356875826
 40
0.2744630560180338
 40
0.3550231712817368
 40
0.4309204620429364
 40
0.5010860453857474
 40
0.5666076270375926
 40
0.6297208634282933
 40
0.6627106951128605
 40
0.6987655616316046
 40
0.7386105373889585
 40
0.7825812280784435
 40
0.8304087872491288
 40
0.8825778660702797
 40
0.9392286810451805
 40
1.0
 40
1.0
 40
1.0
 40
1.0
 10
-2.040597983863453
 20
-9.141997770926947
 30
0.0
 10
-2.03844180707826
 20
-9.141941465856275
 30
0.0
 10
-2.034284914060422
 20
-9.14183291531592
 30
0.0
 10
-2.028307308979895
 20
-9.14094936633274
 30
0.0
 10
-2.022850815355173
 20
-9.139470097287003
 30
0.0
 10
-2.017946870448598
 20
-9.137398900978097
 30
0.0
 10
-2.013653336254215
 20
-9.134861483397994
 30
0.0
 10
-2.009952076754823
 20
-9.132026834799184
 30
0.0
 10
-2.006954254859445
 20
-9.128830732318296
 30
0.0
 10
-2.004937996329136
 20
-9.125886566724175
 30
0.0
 10
-2.003684664927608
 20
-9.123263569492009
 30
0.0
 10
-2.002886545369905
 20
-9.121005593273209
 30
0.0
 10
-2.002237963895326
 20
-9.118452330373113
 30
0.0
 10
-2.00169545060652
 20
-9.115612340758048
 30
0.0
 10
-2.001247776851734
 20
-9.11248156685777
 30
0.0
 10
-2.000964198806558
 20
-9.109052850189466
 30
0.0
 10
-2.000759245595052
 20
-9.105333983168922
 30
0.0
 10
-2.000745860955341
 20
-9.102755513160664
 30
0.0
 10
-2.000738933792789
 20
-9.101421037129247
 30
0.0
  0
LINE
  5
1B1
330
1F
100
AcDbEntity
  8
0
  6
Continuous
 62
     7
370
    15
100
AcDbLine
 10
-2.0007389338
 20
-9.1014210371
 30
0.0
 11
-2.0007389338
 21
-9.0962040285
 31
0.0
  0
SPLINE
  5
1B2
330
1F
100
AcDbEntity
  8
0
  6
Continuous
 62
     7
370
    15
100
AcDbSpline
210
0.0
220
0.0
230
1.0
 70
     8
 71
     3
 72
    15
 73
    11
 74
     0
 42
0.000000001
 43
0.00000001
 40
0.0
 40
0.0
 40
0.0
 40
0.0
 40
0.1265607130145242
 40
0.2508952618879438
 40
0.3747192653150399
 40
0.4998264235934747
 40
0.6249635314328619
 40
0.7490394747387384
 40
0.8731801199413497
 40
1.0
 40
1.0
 40
1.0
 40
1.0
 10
-2.000738933792789
 20
-9.096204028498116
 30
0.0
 10
-2.001994095895249
 20
-9.097697800236586
 30
0.0
 10
-2.004482342183595
 20
-9.100659068726605
 30
0.0
 10
-2.008779481047095
 20
-9.104539448123974
 30
0.0
 10
-2.013473060402602
 20
-9.107881421757888
 30
0.0
 10
-2.01855508963104
 20
-9.110622312880453
 30
0.0
 10
-2.023901083416818
 20
-9.112814494951683
 30
0.0
 10
-2.029453139732463
 20
-9.114347682388798
 30
0.0
 10
-2.03516148836243
 20
-9.11533822962858
 30
0.0
 10
-2.039029683237418
 20
-9.115444816881963
 30
0.0
 10
-2.040984428947241
 20
-9.115498679467224
 30
0.0
  0
SPLINE
  5
1B3
330
1F
100
AcDbEntity
  8
0
  6
Continuous
 62
     7
370
    15
100
AcDbSpline
210
0.0
220
0.0
230
1.0
 70
     8
 71
     3
 72
    31
 73
    27
 74
     0
 42
0.000000001
 43
0.00000001
 40
0.0
 40
0.0
 40
0.0
 40
0.0
 40
0.042864759031189
 40
0.0852222575672296
 40
0.1272022841437356
 40
0.169025312608596
 40
0.2108820330997101
 40
0.2529626777271187
 40
0.2956282851000464
 40
0.3385532936306097
 40
0.3814632477171846
 40
0.4235815621432655
 40
0.4650661653954448
 40
0.5063122188418615
 40
0.547039505461617
 40
0.5876758328931662
 40
0.6286747862975571
 40
0.66994646460276
 40
0.7110355744560783
 40
0.7519958286352203
 40
0.7926726074834974
 40
0.833446017885438
 40
0.8741906070422388
 40
0.9154935830294646
 40
0.9574778068391461
 40
1.0
 40
1.0
 40
1.0
 40
1.0
 10
-2.040984428947241
 20
-9.115498679467224
 30
0.0
 10
-2.042135463176435
 20
-9.115478402834528
 30
0.0
 10
-2.044423910324304
 20
-9.115438089522307
 30
0.0
 10
-2.047823703522426
 20
-9.115085381749667
 30
0.0
 10
-2.051173327078661
 20
-9.114573620242018
 30
0.0
 10
-2.054464968953739
 20
-9.113822382486756
 30
0.0
 10
-2.057703378917004
 20
-9.112858141284441
 30
0.0
 10
-2.060883205378473
 20
-9.111652757869107
 30
0.0
 10
-2.064030194613388
 20
-9.110289957937347
 30
0.0
 10
-2.0670871433481
 20
-9.108684729455499
 30
0.0
 10
-2.070023605188039
 20
-9.106898811862582
 30
0.0
 10
-2.072817431374468
 20
-9.104964209866122
 30
0.0
 10
-2.075453988031456
 20
-9.102891048911738
 30
0.0
 10
-2.077908180529469
 20
-9.100658885927635
 30
0.0
 10
-2.080176789641631
 20
-9.098270951566915
 30
0.0
 10
-2.082290327754022
 20
-9.095752701447523
 30
0.0
 10
-2.084213845355084
 20
-9.09306897147329
 30
0.0
 10
-2.085986813435419
 20
-9.090268697554661
 30
0.0
 10
-2.087524512269008
 20
-9.087333228113263
 30
0.0
 10
-2.088874290687324
 20
-9.084326216482248
 30
0.0
 10
-2.090047889310975
 20
-9.081254092289907
 30
0.0
 10
-2.090983535048635
 20
-9.078106570138159
 30
0.0
 10
-2.091698145807285
 20
-9.074885634356022
 30
0.0
 10
-2.092230044507643
 20
-9.07159656156579
 30
0.0
 10
-2.09253173473031
 20
-9.068229223470121
 30
0.0
 10
-2.092578778984022
 20
-9.06596066641521
 30
0.0
 10
-2.092602450853156
 20
-9.064819167050508
 30
0.0
  0
SPLINE
  5
1B4
330
1F
100
AcDbEntity
  8
0
  6
Continuous
 62
     7
370
    15
100
AcDbSpline
210
0.0
220
0.0
230
1.0
 70
     8
 71
     3
 72
    31
 73
    27
 74
     0
 42
0.000000001
 43
0.00000001
 40
0.0
 40
0.0
 40
0.0
 40
0.0
 40
0.0420341186638466
 40
0.0839054330862348
 40
0.1250689344486272
 40
0.1661584697031447
 40
0.2072102728707355
 40
0.248490732056248
 40
0.2898781122327894
 40
0.3321695142040855
 40
0.3744758421539223
 40
0.4162249804562116
 40
0.4576095869585025
 40
0.4990731704672227
 40
0.5405533615534504
 40
0.5822488491953561
 40
0.6245497501260003
 40
0.6674328009210326
 40
0.7103225433055348
 40
0.7524671185698651
 40
0.7940647568438047
 40
0.8352157072950129
 40
0.8762283442246861
 40
0.9174461887061532
 40
0.9586431404713226
 40
1.0
 40
1.0
 40
1.0
 40
1.0
 10
-2.092602450853156
 20
-9.064819167050508
 30
0.0
 10
-2.092582011236008
 20
-9.063677312877312
 30
0.0
 10
-2.092541211167317
 20
-9.061398027097843
 30
0.0
 10
-2.092188810405451
 20
-9.058016948932984
 30
0.0
 10
-2.091686125782456
 20
-9.0546811443959
 30
0.0
 10
-2.090890544325925
 20
-9.05142499708519
 30
0.0
 10
-2.089932964699512
 20
-9.048211424181117
 30
0.0
 10
-2.088746997275997
 20
-9.045064162117676
 30
0.0
 10
-2.087321061869032
 20
-9.041982252310307
 30
0.0
 10
-2.085706504795156
 20
-9.038963412489617
 30
0.0
 10
-2.083892170438798
 20
-9.036048152059129
 30
0.0
 10
-2.081902702690489
 20
-9.033279386472326
 30
0.0
 10
-2.079735699766876
 20
-9.03067748993982
 30
0.0
 10
-2.077421057419621
 20
-9.028216213488301
 30
0.0
 10
-2.074930513441736
 20
-9.025919304306553
 30
0.0
 10
-2.072265356262787
 20
-9.023792337185156
 30
0.0
 10
-2.069451857040493
 20
-9.021799658985566
 30
0.0
 10
-2.066481296017031
 20
-9.019984252010726
 30
0.0
 10
-2.063399509067555
 20
-9.018378651754032
 30
0.0
 10
-2.060284791831615
 20
-9.016913588882984
 30
0.0
 10
-2.057095884941032
 20
-9.01575082827156
 30
0.0
 10
-2.053892241656625
 20
-9.014726296813468
 30
0.0
 10
-2.050617441862806
 20
-9.014000501726075
 30
0.0
 10
-2.047311638964284
 20
-9.013440570941908
 30
0.0
 10
-2.043963515430612
 20
-9.013099440192882
 30
0.0
 10
-2.04172127546811
 20
-9.013056858106951
 30
0.0
 10
-2.040597983863453
 20
-9.01303552582297
 30
0.0
  0
LINE
  5
1B5
330
1F
100
AcDbEntity
  8
0
  6
Continuous
 62
     7
370
    15
100
AcDbLine
 10
-2.1191015423
 20
-9.1154986795
 30
0.0
 11
-2.131467785
 21
-9.1154986795
 31
0.0
  0
LINE
  5
1B6
330
1F
100
AcDbEntity
  8
0
  6
Continuous
 62
     7
370
    15
100
AcDbLine
 10
-2.131467785
 20
-9.1154986795
 30
0.0
 11
-2.131467785
 21
-9.0148021319
 31
0.0
  0
LINE
  5
1B7
330
1F
100
AcDbEntity
  8
0
  6
Continuous
 62
     7
370
    15
100
AcDbLine
 10
-2.131467785
 20
-9.0148021319
 30
0.0
 11
-2.1191015423
 21
-9.0148021319
 31
0.0
  0
LINE
  5
1B8
330
1F
100
AcDbEntity
  8
0
  6
Continuous
 62
     7
370
    15
100
AcDbLine
 10
-2.1191015423
 20
-9.0148021319
 30
0.0
 11
-2.1191015423
 21
-9.1154986795
 31
0.0
  0
SPLINE
  5
1B9
330
1F
100
AcDbEntity
  8
0
  6
Continuous
 62
     7
370
    15
100
AcDbSpline
210
0.0
220
0.0
230
1.0
 70
     8
 71
     3
 72
    19
 73
    15
 74
     0
 42
0.000000001
 43
0.00000001
 40
0.0
 40
0.0
 40
0.0
 40
0.0
 40
0.0848023883688276
 40
0.1686635395998411
 40
0.2525519243727865
 40
0.3382396894642385
 40
0.4231026613931546
 40
0.5055560510576207
 40
0.5861756559890503
 40
0.6671357203303531
 40
0.7484991803055401
 40
0.8304523987582794
 40
0.9134557062010054
 40
1.0
 40
1.0
 40
1.0
 40
1.0
 10
-2.599673607223032
 20
-9.104899042883337
 30
0.0
 10
-2.597884374830821
 20
-9.104833689972873
 30
0.0
 10
-2.594325769062261
 20
-9.104703709515787
 30
0.0
 10
-2.589072276626038
 20
-9.103708384110538
 30
0.0
 10
-2.583974049744233
 20
-9.102063943230613
 30
0.0
 10
-2.579100536815951
 20
-9.099784450052114
 30
0.0
 10
-2.574560531652652
 20
-9.096959357300262
 30
0.0
 10
-2.570485812061452
 20
-9.09365199151164
 30
0.0
 10
-2.567040301495567
 20
-9.089805409459595
 30
0.0
 10
-2.564119332614535
 20
-9.085577990048375
 30
0.0
 10
-2.56182896187837
 20
-9.08094365947905
 30
0.0
 10
-2.560160613091083
 20
-9.076009242520549
 30
0.0
 10
-2.559174238847921
 20
-9.070774567396729
 30
0.0
 10
-2.559049918783253
 20
-9.067197247437726
 30
0.0
 10
-2.558986460544252
 20
-9.065371231455918
 30
0.0
  0
SPLINE
  5
1BA
330
1F
100
AcDbEntity
  8
0
  6
Continuous
 62
     7
370
    15
100
AcDbSpline
210
0.0
220
0.0
230
1.0
 70
     8
 71
     3
 72
    23
 73
    19
 74
     0
 42
0.000000001
 43
0.00000001
 40
0.0
 40
0.0
 40
0.0
 40
0.0
 40
0.0656337996756875
 40
0.1291880880571245
 40
0.1912186831121846
 40
0.2519128178811512
 40
0.3125074743865456
 40
0.3734944337751941
 40
0.4351515996540518
 40
0.4987414744066506
 40
0.5620952169966261
 40
0.6241865668116563
 40
0.6854757184651936
 40
0.746096814806049
 40
0.807611636447779
 40
0.8699665806571858
 40
0.9339510189149095
 40
0.9999999999999999
 40
0.9999999999999999
 40
0.9999999999999999
 40
0.9999999999999999
 10
-2.558986460544252
 20
-9.065371231455918
 30
0.0
 10
-2.559024242291166
 20
-9.063979978286323
 30
0.0
 10
-2.5590986087254
 20
-9.061241551776327
 30
0.0
 10
-2.559666741384086
 20
-9.057220783367978
 30
0.0
 10
-2.560570478644398
 20
-9.05337299887899
 30
0.0
 10
-2.561843949904888
 20
-9.049694152853059
 30
0.0
 10
-2.5635168351181
 20
-9.046204585317657
 30
0.0
 10
-2.565534463696305
 20
-9.04287924042749
 30
0.0
 10
-2.567932316048021
 20
-9.039735413207422
 30
0.0
 10
-2.570671792272429
 20
-9.03681639466496
 30
0.0
 10
-2.573670422293906
 20
-9.034153935520902
 30
0.0
 10
-2.576843435704616
 20
-9.031777390610984
 30
0.0
 10
-2.58022842574231
 20
-9.02982507672359
 30
0.0
 10
-2.583768466565844
 20
-9.028209278633135
 30
0.0
 10
-2.587469700206082
 20
-9.026923485330078
 30
0.0
 10
-2.591362244293426
 20
-9.026065702110861
 30
0.0
 10
-2.595404724093704
 20
-9.025476713093719
 30
0.0
 10
-2.598162442810096
 20
-9.025427013063435
 30
0.0
 10
-2.59956319434195
 20
-9.025401768504173
 30
0.0
  0
SPLINE
  5
1BB
330
1F
100
AcDbEntity
  8
0
  6
Continuous
 62
     7
370
    15
100
AcDbSpline
210
0.0
220
0.0
230
1.0
 70
     8
 71
     3
 72
    19
 73
    15
 74
     0
 42
0.000000001
 43
0.00000001
 40
0.0
 40
0.0
 40
0.0
 40
0.0
 40
0.0859205174117676
 40
0.1695934351247473
 40
0.252475514868542
 40
0.3362444769570519
 40
0.4195045210415704
 40
0.5020359066440873
 40
0.5847746476768693
 40
0.6698464747058065
 40
0.7541848663887899
 40
0.8366582383293252
 40
0.918009725708813
 40
1.0
 40
1.0
 40
1.0
 40
1.0
 10
-2.59956319434195
 20
-9.025401768504173
 30
0.0
 10
-2.601370845439275
 20
-9.025466084950255
 30
0.0
 10
-2.604938861186121
 20
-9.025593035384855
 30
0.0
 10
-2.610176814023225
 20
-9.02658411787244
 30
0.0
 10
-2.615189153160549
 20
-9.028233117650538
 30
0.0
 10
-2.619950809627817
 20
-9.030488310609929
 30
0.0
 10
-2.624386566187761
 20
-9.033324087642091
 30
0.0
 10
-2.628350883936946
 20
-9.036754063362242
 30
0.0
 10
-2.631876187139938
 20
-9.040684654470693
 30
0.0
 10
-2.634841079432564
 20
-9.045098123383694
 30
0.0
 10
-2.637258028130191
 20
-9.049829544291907
 30
0.0
 10
-2.63895751757652
 20
-9.054775388311636
 30
0.0
 10
-2.640078354088689
 20
-9.059846450420162
 30
0.0
 10
-2.640192862772212
 20
-9.063285926238185
 30
0.0
 10
-2.640250341020731
 20
-9.065012389592402
 30
0.0
  0
SPLINE
  5
1BC
330
1F
100
AcDbEntity
  8
0
  6
Continuous
 62
     7
370
    15
100
AcDbSpline
210
0.0
220
0.0
230
1.0
 70
     8
 71
     3
 72
    19
 73
    15
 74
     0
 42
0.000000001
 43
0.00000001
 40
0.0
 40
0.0
 40
0.0
 40
0.0
 40
0.0815893489321931
 40
0.1628588951679367
 40
0.2454836892755749
 40
0.3308071391580193
 40
0.4164933737762859
 40
0.4998932031606325
 40
0.5830481559950204
 40
0.6671578520621627
 40
0.7513119292929168
 40
0.8337847893576144
 40
0.9162564885439795
 40
0.9999999999999999
 40
0.9999999999999999
 40
0.9999999999999999
 40
0.9999999999999999
 10
-2.640250341020731
 20
-9.065012389592402
 30
0.0
 10
-2.640176920024283
 20
-9.066728535544527
 30
0.0
 10
-2.640030365816902
 20
-9.070154100736167
 30
0.0
 10
-2.638977188872099
 20
-9.075232076199484
 30
0.0
 10
-2.637210264721171
 20
-9.080179085729457
 30
0.0
 10
-2.634799159889359
 20
-9.084953140592438
 30
0.0
 10
-2.631780001435473
 20
-9.089385585488646
 30
0.0
 10
-2.628280448185385
 20
-9.093391102124928
 30
0.0
 10
-2.624266657582516
 20
-9.096835574104169
 30
0.0
 10
-2.61982069273708
 20
-9.099718943143758
 30
0.0
 10
-2.615072347445727
 20
-9.102048176249879
 30
0.0
 10
-2.610078885576717
 20
-9.103668870718653
 30
0.0
 10
-2.604934175413076
 20
-9.10471524003441
 30
0.0
 10
-2.601436052033079
 20
-9.104837463531934
 30
0.0
 10
-2.599673607223032
 20
-9.104899042883337
 30
0.0
  0
SPLINE
  5
1BD
330
1F
100
AcDbEntity
  8
0
  6
Continuous
 62
     7
370
    15
100
AcDbSpline
210
0.0
220
0.0
230
1.0
 70
     8
 71
     3
 72
    23
 73
    19
 74
     0
 42
0.000000001
 43
0.00000001
 40
0.0
 40
0.0
 40
0.0
 40
0.0
 40
0.0570031325129335
 40
0.1118178691207432
 40
0.1644023722182174
 40
0.2158698048988108
 40
0.2668411100818737
 40
0.3174789632053702
 40
0.369902136272765
 40
0.423400449443652
 40
0.4797183982994609
 40
0.5392414966443003
 40
0.6024306889434315
 40
0.6710295461473437
 40
0.7444847975608598
 40
0.8234539713786851
 40
0.9087403127306672
 40
1.0
 40
1.0
 40
1.0
 40
1.0
 10
-2.696781736134803
 20
-9.01209701633377
 30
0.0
 10
-2.696802451890071
 20
-9.011332222179695
 30
0.0
 10
-2.696843088106172
 20
-9.009831994931565
 30
0.0
 10
-2.697175895295342
 20
-9.007645012484454
 30
0.0
 10
-2.697741547832178
 20
-9.005588171834374
 30
0.0
 10
-2.698468094810134
 20
-9.003633285601131
 30
0.0
 10
-2.699483397515504
 20
-9.001841480474354
 30
0.0
 10
-2.700678809456525
 20
-9.000150803478489
 30
0.0
 10
-2.70212312797187
 20
-8.998618830309322
 30
0.0
 10
-2.703767116659113
 20
-8.997186960296906
 30
0.0
 10
-2.705657219921253
 20
-8.995917490698558
 30
0.0
 10
-2.707792310150361
 20
-8.994805649628736
 30
0.0
 10
-2.710201273814406
 20
-8.993910343460232
 30
0.0
 10
-2.712843512199502
 20
-8.993126242968993
 30
0.0
 10
-2.715759696746691
 20
-8.992575522739925
 30
0.0
 10
-2.718916175227346
 20
-8.992116727950279
 30
0.0
 10
-2.722338801960691
 20
-8.991883155430413
 30
0.0
 10
-2.724706719382962
 20
-8.991852235632194
 30
0.0
 10
-2.725930736740497
 20
-8.991836252655192
 30
0.0
  0
LINE
  5
1BE
330
1F
100
AcDbEntity
  8
0
  6
Continuous
 62
     7
370
    15
100
AcDbLine
 10
-2.7259307367
 20
-8.9918362527
 30
0.0
 11
-2.7427134947
 21
-8.9918362527
 31
0.0
  0
LINE
  5
1BF
330
1F
100
AcDbEntity
  8
0
  6
Continuous
 62
     7
370
    15
100
AcDbLine
 10
-2.7427134947
 20
-8.9918362527
 30
0.0
 11
-2.7427134947
 21
-9.0360014051
 31
0.0
  0
LINE
  5
1C0
330
1F
100
AcDbEntity
  8
0
  6
Continuous
 62
     7
370
    15
100
AcDbLine
 10
-2.7427134947
 20
-9.0360014051
 30
0.0
 11
-2.7344049254
 21
-9.0360014051
 31
0.0
  0
SPLINE
  5
1C1
330
1F
100
AcDbEntity
  8
0
  6
Continuous
 62
     7
370
    15
100
AcDbSpline
210
0.0
220
0.0
230
1.0
 70
     8
 71
     3
 72
    23
 73
    19
 74
     0
 42
0.000000001
 43
0.00000001
 40
0.0
 40
0.0
 40
0.0
 40
0.0
 40
0.0723010339955059
 40
0.1397003317393889
 40
0.2022885114847794
 40
0.2605995332222013
 40
0.3131903291553391
 40
0.3617389329854313
 40
0.4057064756322241
 40
0.4455399848948782
 40
0.5188319558616125
 40
0.5897782395835912
 40
0.6588674786561485
 40
0.72843047806107
 40
0.7972827036081096
 40
0.8648153774014599
 40
0.9313637528792668
 40
1.0
 40
1.0
 40
1.0
 40
1.0
 10
-2.734404925363553
 20
-9.036001405088061
 30
0.0
 10
-2.733190405860937
 20
-9.035985660087805
 30
0.0
 10
-2.730843706677769
 20
-9.035955237538674
 30
0.0
 10
-2.727445285553409
 20
-9.035868091197653
 30
0.0
 10
-2.724290757277968
 20
-9.035624073740287
 30
0.0
 10
-2.721385566999467
 20
-9.035380126415308
 30
0.0
 10
-2.718734289677946
 20
-9.034983489105707
 30
0.0
 10
-2.716342799067625
 20
-9.034511358282387
 30
0.0
 10
-2.714173562967684
 20
-9.034012031310086
 30
0.0
 10
-2.7116720060568
 20
-9.033162838912427
 30
0.0
 10
-2.708834488400969
 20
-9.031907812330386
 30
0.0
 10
-2.70580956304056
 20
-9.029960102246926
 30
0.0
 10
-2.703142851639424
 20
-9.027640245821763
 30
0.0
 10
-2.7008909938552
 20
-9.024963436303848
 30
0.0
 10
-2.699048022574546
 20
-9.022015948671637
 30
0.0
 10
-2.697767955048788
 20
-9.018844811646648
 30
0.0
 10
-2.696899951734513
 20
-9.015529058416902
 30
0.0
 10
-2.696821544988167
 20
-9.013252749251953
 30
0.0
 10
-2.696781736134803
 20
-9.01209701633377
 30
0.0
  0
SPLINE
  5
1C2
330
1F
100
AcDbEntity
  8
0
  6
Continuous
 62
     7
370
    15
100
AcDbSpline
210
0.0
220
0.0
230
1.0
 70
     8
 71
     3
 72
    15
 73
    11
 74
     0
 42
0.000000001
 43
0.00000001
 40
0.0
 40
0.0
 40
0.0
 40
0.0
 40
0.0793064855229966
 40
0.1719528189279228
 40
0.277056507391592
 40
0.3947305758644642
 40
0.5261773212767503
 40
0.6713447665976034
 40
0.8292852571892593
 40
1.0
 40
1.0
 40
1.0
 40
1.0
 10
-2.708733930511948
 20
-9.05176284386254
 30
0.0
 10
-2.709404367356527
 20
-9.051626816935162
 30
0.0
 10
-2.710858012724595
 20
-9.051331882498735
 30
0.0
 10
-2.713228389906832
 20
-9.051020555593638
 30
0.0
 10
-2.715934526477788
 20
-9.050743191030955
 30
0.0
 10
-2.718982671250468
 20
-9.050538027343412
 30
0.0
 10
-2.722376680743132
 20
-9.050325958699784
 30
0.0
 10
-2.726123803526031
 20
-9.050243485427256
 30
0.0
 10
-2.73020873717403
 20
-9.050145089360585
 30
0.0
 10
-2.733043082544098
 20
-9.050137958091222
 30
0.0
 10
-2.734515338244635
 20
-9.05013425386658
 30
0.0
  0
LINE
  5
1C3
330
1F
100
AcDbEntity
  8
0
  6
Continuous
 62
     7
370
    15
100
AcDbLine
 10
-2.7345153382
 20
-9.0501342539
 30
0.0
 11
-2.7427134947
 21
-9.0501342539
 31
0.0
  0
LINE
  5
1C4
330
1F
100
AcDbEntity
  8
0
  6
Continuous
 62
     7
370
    15
100
AcDbLine
 10
-2.7427134947
 20
-9.0501342539
 30
0.0
 11
-2.7427134947
 21
-9.1013658307
 31
0.0
  0
LINE
  5
1C5
330
1F
100
AcDbEntity
  8
0
  6
Continuous
 62
     7
370
    15
100
AcDbLine
 10
-2.7427134947
 20
-9.1013658307
 30
0.0
 11
-2.7251026401
 21
-9.1013658307
 31
0.0
  0
SPLINE
  5
1C6
330
1F
100
AcDbEntity
  8
0
  6
Continuous
 62
     7
370
    15
100
AcDbSpline
210
0.0
220
0.0
230
1.0
 70
     8
 71
     3
 72
    23
 73
    19
 74
     0
 42
0.000000001
 43
0.00000001
 40
0.0
 40
0.0
 40
0.0
 40
0.0
 40
0.0725024889330327
 40
0.1397389892678931
 40
0.201795134825923
 40
0.259821934414866
 40
0.312205989384595
 40
0.3607734341243414
 40
0.4045403426007491
 40
0.4436980985527677
 40
0.5168407942439708
 40
0.5878743359442807
 40
0.6579654175616245
 40
0.7289693886473064
 40
0.7993077199548799
 40
0.8666357778344704
 40
0.933116329057273
 40
1.0
 40
1.0
 40
1.0
 40
1.0
 10
-2.725102640132381
 20
-9.101365830688707
 30
0.0
 10
-2.72384205249801
 20
-9.101350722523481
 30
0.0
 10
-2.721412436018592
 20
-9.101321603526747
 30
0.0
 10
-2.717904513572885
 20
-9.101226542323563
 30
0.0
 10
-2.71465321027363
 20
-9.101010310996832
 30
0.0
 10
-2.711673362410266
 20
-9.100669923214793
 30
0.0
 10
-2.708932793409057
 20
-9.100300692932425
 30
0.0
 10
-2.706464379903984
 20
-9.09980418580953
 30
0.0
 10
-2.704248112444869
 20
-9.099235329095922
 30
0.0
 10
-2.701678257809463
 20
-9.098356030976436
 30
0.0
 10
-2.698784418900763
 20
-9.096990028184416
 30
0.0
 10
-2.695665881247785
 20
-9.094930412971097
 30
0.0
 10
-2.692893195494086
 20
-9.09247673943674
 30
0.0
 10
-2.690538657730045
 20
-9.089636939666121
 30
0.0
 10
-2.688609012511699
 20
-9.086549092149259
 30
0.0
 10
-2.687205254437543
 20
-9.083275653174748
 30
0.0
 10
-2.686339472676948
 20
-9.079870711150395
 30
0.0
 10
-2.686234662862386
 20
-9.077549187034535
 30
0.0
 10
-2.686182099550914
 20
-9.076384916343866
 30
0.0
  0
SPLINE
  5
1C7
330
1F
100
AcDbEntity
  8
0
  6
Continuous
 62
     7
370
    15
100
AcDbSpline
210
0.0
220
0.0
230
1.0
 70
     8
 71
     3
 72
    19
 73
    15
 74
     0
 42
0.000000001
 43
0.00000001
 40
0.0
 40
0.0
 40
0.0
 40
0.0
 40
0.060287397927953
 40
0.1196023547075175
 40
0.1775033710185488
 40
0.2351426637323205
 40
0.2921325932269404
 40
0.3508712086415546
 40
0.4100978625665981
 40
0.4707315215304452
 40
0.5948287040804047
 40
0.7225788240942955
 40
0.8566913895440081
 40
1.0
 40
1.0
 40
1.0
 40
1.0
 10
-2.686182099550914
 20
-9.076384916343866
 30
0.0
 10
-2.686192969800418
 20
-9.075656832071616
 30
0.0
 10
-2.686214534961327
 20
-9.07421240759189
 30
0.0
 10
-2.686539756021313
 20
-9.072089737545122
 30
0.0
 10
-2.687012743021069
 20
-9.070033600800667
 30
0.0
 10
-2.687624216795971
 20
-9.068038414167406
 30
0.0
 10
-2.688514746996406
 20
-9.066140249744262
 30
0.0
 10
-2.689554374752985
 20
-9.064301566297933
 30
0.0
 10
-2.69077332757364
 20
-9.062519933249757
 30
0.0
 10
-2.692672704182603
 20
-9.06026748232655
 30
0.0
 10
-2.695435380738506
 20
-9.057672324338226
 30
0.0
 10
-2.699360844338621
 20
-9.055131477792296
 30
0.0
 10
-2.703824320636624
 20
-9.053082351529008
 30
0.0
 10
-2.707061623506547
 20
-9.052212293405447
 30
0.0
 10
-2.708733930511948
 20
-9.05176284386254
 30
0.0
  0
SPLINE
  5
1C8
330
1F
100
AcDbEntity
  8
0
  6
Continuous
 62
     7
370
    15
100
AcDbSpline
210
0.0
220
0.0
230
1.0
 70
     8
 71
     3
 72
    23
 73
    19
 74
     0
 42
0.000000001
 43
0.00000001
 40
0.0
 40
0.0
 40
0.0
 40
0.0
 40
0.0701214992195643
 40
0.1371218486740225
 40
0.2014871210766372
 40
0.2637651191668761
 40
0.3245600950367349
 40
0.3847388869594621
 40
0.4449046043522728
 40
0.5052319196167108
 40
0.5654939949839918
 40
0.6250997441456857
 40
0.6843497139440979
 40
0.7438828254849698
 40
0.8046082057523118
 40
0.8672389137717573
 40
0.932094288020854
 40
1.0
 40
1.0
 40
1.0
 40
1.0
 10
-2.040349554881018
 20
-9.103132436786023
 30
0.0
 10
-2.038894288810323
 20
-9.103102215957676
 30
0.0
 10
-2.036048531429959
 20
-9.103043119448087
 30
0.0
 10
-2.031892195351497
 20
-9.10253510769392
 30
0.0
 10
-2.027953898486485
 20
-9.101715344847987
 30
0.0
 10
-2.024237251936795
 20
-9.100551446213055
 30
0.0
 10
-2.020728222761053
 20
-9.099066337920682
 30
0.0
 10
-2.01746623006006
 20
-9.097186943530513
 30
0.0
 10
-2.01438133052983
 20
-9.095046611560289
 30
0.0
 10
-2.011572023065892
 20
-9.092550075567338
 30
0.0
 10
-2.009031701588635
 20
-9.089798697811812
 30
0.0
 10
-2.006817891868469
 20
-9.086804804307299
 30
0.0
 10
-2.004931496237578
 20
-9.083613445289673
 30
0.0
 10
-2.003369383251549
 20
-9.08022498049933
 30
0.0
 10
-2.002176816158349
 20
-9.076613076835361
 30
0.0
 10
-2.001376859268333
 20
-9.072786763615962
 30
0.0
 10
-2.000817538592683
 20
-9.068764372322226
 30
0.0
 10
-2.000765533683501
 20
-9.066008127590862
 30
0.0
 10
-2.000738933792789
 20
-9.064598341288344
 30
0.0
  0
SPLINE
  5
1C9
330
1F
100
AcDbEntity
  8
0
  6
Continuous
 62
     7
370
    15
100
AcDbSpline
210
0.0
220
0.0
230
1.0
 70
     8
 71
     3
 72
    19
 73
    15
 74
     0
 42
0.000000001
 43
0.00000001
 40
0.0
 40
0.0
 40
0.0
 40
0.0
 40
0.0892427932208571
 40
0.1743490578004789
 40
0.2576131087527765
 40
0.3395273673229448
 40
0.4209973901479384
 40
0.5015790589405765
 40
0.582541759997511
 40
0.6661326583338222
 40
0.7500491310216058
 40
0.832742939744284
 40
0.9156474213323842
 40
0.9999999999999999
 40
0.9999999999999999
 40
0.9999999999999999
 40
0.9999999999999999
 10
-2.000738933792789
 20
-9.064598341288344
 30
0.0
 10
-2.000791672697097
 20
-9.062762992707272
 30
0.0
 10
-2.000894705983525
 20
-9.059177366526193
 30
0.0
 10
-2.001867035025411
 20
-9.05395269062109
 30
0.0
 10
-2.003434759835887
 20
-9.049040538110516
 30
0.0
 10
-2.005633450870564
 20
-9.044456444572214
 30
0.0
 10
-2.008388648062741
 20
-9.0402489819855
 30
0.0
 10
-2.011707185417995
 20
-9.036496074722917
 30
0.0
 10
-2.015531832292651
 20
-9.033192891393274
 30
0.0
 10
-2.019851600016172
 20
-9.030440994010702
 30
0.0
 10
-2.024499137226055
 20
-9.028217945410836
 30
0.0
 10
-2.029362176442211
 20
-9.026550159106526
 30
0.0
 10
-2.034433497855535
 20
-9.025605501034423
 30
0.0
 10
-2.037870758074322
 20
-9.02547007019706
 30
0.0
 10
-2.039604267933714
 20
-9.025401768504173
 30
0.0
  0
SPLINE
  5
1CA
330
1F
100
AcDbEntity
  8
0
  6
Continuous
 62
     7
370
    15
100
AcDbSpline
210
0.0
220
0.0
230
1.0
 70
     8
 71
     3
 72
    19
 73
    15
 74
     0
 42
0.000000001
 43
0.00000001
 40
0.0
 40
0.0
 40
0.0
 40
0.0
 40
0.0855188992526823
 40
0.1693092867993428
 40
0.252217903213182
 40
0.3367564541858597
 40
0.4205954942561959
 40
0.5027411035138927
 40
0.5848035507161481
 40
0.668268484623957
 40
0.7518231297771605
 40
0.8336286284455269
 40
0.916219799115299
 40
1.0
 40
1.0
 40
1.0
 40
1.0
 10
-2.039604267933714
 20
-9.025401768504173
 30
0.0
 10
-2.041412563362235
 20
-9.02546322777591
 30
0.0
 10
-2.044992604873538
 20
-9.025584904101915
 30
0.0
 10
-2.050240177412343
 20
-9.026623672336298
 30
0.0
 10
-2.055306198414837
 20
-9.028251463675058
 30
0.0
 10
-2.060093813697707
 20
-9.030579913101635
 30
0.0
 10
-2.064578345583777
 20
-9.033418268926276
 30
0.0
 10
-2.068557669223857
 20
-9.036856862925918
 30
0.0
 10
-2.072038177731451
 20
-9.040783878551048
 30
0.0
 10
-2.074982387900516
 20
-9.045163809535483
 30
0.0
 10
-2.077326142486138
 20
-9.0498890959713
 30
0.0
 10
-2.078985332228867
 20
-9.054869833535632
 30
0.0
 10
-2.080058167791051
 20
-9.060025541913518
 30
0.0
 10
-2.080176579288824
 20
-9.063544148337854
 30
0.0
 10
-2.080236208171953
 20
-9.065316025015377
 30
0.0
  0
SPLINE
  5
1CB
330
1F
100
AcDbEntity
  8
0
  6
Continuous
 62
     7
370
    15
100
AcDbSpline
210
0.0
220
0.0
230
1.0
 70
     8
 71
     3
 72
    23
 73
    19
 74
     0
 42
0.000000001
 43
0.00000001
 40
0.0
 40
0.0
 40
0.0
 40
0.0
 40
0.0649830441815907
 40
0.127802644947283
 40
0.1890563364713576
 40
0.2483946473749315
 40
0.3076907059547573
 40
0.3669766194961135
 40
0.4273400442260109
 40
0.4887947153913498
 40
0.5506736934060061
 40
0.6120451114224913
 40
0.6733691390064673
 40
0.7349297539342551
 40
0.7978099682993275
 40
0.8628916725659024
 40
0.9300953375428157
 40
0.9999999999999999
 40
0.9999999999999999
 40
0.9999999999999999
 40
0.9999999999999999
 10
-2.080236208171953
 20
-9.065316025015377
 30
0.0
 10
-2.080207635068317
 20
-9.066651980627288
 30
0.0
 10
-2.080151440129081
 20
-9.069279414643114
 30
0.0
 10
-2.079611141792436
 20
-9.073135237269769
 30
0.0
 10
-2.07873787544882
 20
-9.076807690562456
 30
0.0
 10
-2.077500190161094
 20
-9.080296996643462
 30
0.0
 10
-2.075966619496286
 20
-9.083623169670242
 30
0.0
 10
-2.074037785993549
 20
-9.086763297022582
 30
0.0
 10
-2.071768062698478
 20
-9.089720175214461
 30
0.0
 10
-2.069175214748611
 20
-9.092471934339546
 30
0.0
 10
-2.066317876879743
 20
-9.094978271678873
 30
0.0
 10
-2.063218695804552
 20
-9.097180556743421
 30
0.0
 10
-2.059881874949331
 20
-9.098981766228567
 30
0.0
 10
-2.056389480846819
 20
-9.100538492118948
 30
0.0
 10
-2.052656773918411
 20
-9.101675463297473
 30
0.0
 10
-2.048737518561507
 20
-9.102543131762845
 30
0.0
 10
-2.044603987203777
 20
-9.103039539540157
 30
0.0
 10
-2.041786202192985
 20
-9.103101067012473
 30
0.0
 10
-2.040349554881018
 20
-9.103132436786023
 30
0.0
  0
SPLINE
  5
1CC
330
1F
100
AcDbEntity
  8
0
  6
Continuous
 62
     7
370
    15
100
AcDbSpline
210
0.0
220
0.0
230
1.0
 70
     8
 71
     3
 72
    23
 73
    19
 74
     0
 42
0.000000001
 43
0.00000001
 40
0.0
 40
0.0
 40
0.0
 40
0.0
 40
0.0688142958243114
 40
0.1363648245522202
 40
0.2040193535112342
 40
0.2730637386246034
 40
0.3429133195614891
 40
0.4109654441389456
 40
0.4791687665134406
 40
0.5493080065097764
 40
0.5876515764176433
 40
0.6306466687627874
 40
0.6788787856966481
 40
0.7319342992295778
 40
0.791111422948041
 40
0.855283189513075
 40
0.9250859386773843
 40
1.0
 40
1.0
 40
1.0
 40
1.0
 10
-2.168566513037691
 20
-9.01452609971758
 30
0.0
 10
-2.1686138406396
 20
-9.013417966893577
 30
0.0
 10
-2.16870762667713
 20
-9.011222051984971
 30
0.0
 10
-2.169473326225426
 20
-9.00800725236735
 30
0.0
 10
-2.170768183759145
 20
-9.004973120472435
 30
0.0
 10
-2.172513153756183
 20
-9.00213199901607
 30
0.0
 10
-2.174639104738959
 20
-8.999553033037548
 30
0.0
 10
-2.177131932010402
 20
-8.997346452208514
 30
0.0
 10
-2.179923475126545
 20
-8.995525607142444
 30
0.0
 10
-2.182532577423865
 20
-8.99436204885458
 30
0.0
 10
-2.1848646330338
 20
-8.993648668805525
 30
0.0
 10
-2.186889422799191
 20
-8.993146654482253
 30
0.0
 10
-2.18917727625271
 20
-8.992743328933836
 30
0.0
 10
-2.191739302182315
 20
-8.992420176930873
 30
0.0
 10
-2.194564563236836
 20
-8.992142423220288
 30
0.0
 10
-2.197667344775873
 20
-8.991955345320363
 30
0.0
 10
-2.201027060534191
 20
-8.991844563268945
 30
0.0
 10
-2.203355679872436
 20
-8.991839087328767
 30
0.0
 10
-2.204561112270479
 20
-8.991836252655192
 30
0.0
  0
LINE
  5
1CD
330
1F
100
AcDbEntity
  8
0
  6
Continuous
 62
     7
370
    15
100
AcDbLine
 10
-2.2045611123
 20
-8.9918362527
 30
0.0
 11
-2.2303977264
 21
-8.9918362527
 31
0.0
  0
LINE
  5
1CE
330
1F
100
AcDbEntity
  8
0
  6
Continuous
 62
     7
370
    15
100
AcDbLine
 10
-2.2303977264
 20
-8.9918362527
 30
0.0
 11
-2.2303977264
 21
-9.0377680112
 31
0.0
  0
LINE
  5
1CF
330
1F
100
AcDbEntity
  8
0
  6
Continuous
 62
     7
370
    15
100
AcDbLine
 10
-2.2303977264
 20
-9.0377680112
 30
0.0
 11
-2.2051683831
 21
-9.0379612337
 31
0.0
  0
SPLINE
  5
1D0
330
1F
100
AcDbEntity
  8
0
  6
Continuous
 62
     7
370
    15
100
AcDbSpline
210
0.0
220
0.0
230
1.0
 70
     8
 71
     3
 72
    23
 73
    19
 74
     0
 42
0.000000001
 43
0.00000001
 40
0.0
 40
0.0
 40
0.0
 40
0.0
 40
0.0716681496796054
 40
0.1389132862742011
 40
0.2011845700265586
 40
0.2591244282905456
 40
0.312255041426236
 40
0.360681509623107
 40
0.405086143328644
 40
0.445101658590709
 40
0.5187777804882503
 40
0.5894615790331965
 40
0.6584622419857181
 40
0.7272832183683576
 40
0.7963224869047135
 40
0.8631748932078777
 40
0.930949380987855
 40
1.0
 40
1.0
 40
1.0
 40
1.0
 10
-2.205168383116431
 20
-9.03796123372727
 30
0.0
 10
-2.203990428828169
 20
-9.037961754855388
 30
0.0
 10
-2.201707217917956
 20
-9.037962764950104
 30
0.0
 10
-2.198404042137979
 20
-9.03780552966492
 30
0.0
 10
-2.195328447189492
 20
-9.037626658867957
 30
0.0
 10
-2.192492197104357
 20
-9.037353062586979
 30
0.0
 10
-2.189894024847431
 20
-9.037000461337936
 30
0.0
 10
-2.187535229051304
 20
-9.036559398966334
 30
0.0
 10
-2.18541195929159
 20
-9.036045538232207
 30
0.0
 10
-2.182935638881247
 20
-9.035250198633388
 30
0.0
 10
-2.180170421111289
 20
-9.033990119174126
 30
0.0
 10
-2.177165245525578
 20
-9.032156831823945
 30
0.0
 10
-2.174606098370047
 20
-9.029850960990581
 30
0.0
 10
-2.172443977806858
 20
-9.027214210753005
 30
0.0
 10
-2.170706598614917
 20
-9.02431514583814
 30
0.0
 10
-2.169481714585997
 20
-9.021188517128834
 30
0.0
 10
-2.168704453078436
 20
-9.017913257364759
 30
0.0
 10
-2.168612778060742
 20
-9.015662150756699
 30
0.0
 10
-2.168566513037691
 20
-9.014526099717578
 30
0.0
  0
ENDSEC
  0
SECTION
  2
OBJECTS
  0
DICTIONARY
  5
C
330
0
100
AcDbDictionary
281
     1
  3
ACAD_GROUP
350
D
  3
ACAD_LAYOUT
350
1A
  3
ACAD_MLINESTYLE
350
17
  3
ACAD_PLOTSETTINGS
350
19
  3
ACAD_PLOTSTYLENAME
350
E
  3
ACAD_SCALELIST
350
47
  0
DICTIONARY
  5
D
102
{ACAD_REACTORS
330
C
102
}
330
C
100
AcDbDictionary
281
     1
  0
DICTIONARY
  5
1A
102
{ACAD_REACTORS
330
C
102
}
330
C
100
AcDbDictionary
281
     1
  3
Layout1
350
1E
  3
Layout2
350
26
  3
Model
350
22
  0
DICTIONARY
  5
17
102
{ACAD_REACTORS
330
C
102
}
330
C
100
AcDbDictionary
281
     1
  3
Standard
350
18
  0
DICTIONARY
  5
19
102
{ACAD_REACTORS
330
C
102
}
330
C
100
AcDbDictionary
281
     1
  0
ACDBDICTIONARYWDFLT
  5
E
102
{ACAD_REACTORS
330
C
102
}
330
C
100
AcDbDictionary
281
     1
  3
Normal
350
F
100
AcDbDictionaryWithDefault
340
F
  0
DICTIONARY
  5
47
102
{ACAD_REACTORS
330
C
102
}
330
C
100
AcDbDictionary
281
     1
  3
A0
350
48
  3
A1
350
49
  3
A2
350
4A
  3
A3
350
4B
  3
A4
350
4C
  3
A5
350
4D
  3
A6
350
4E
  3
A7
350
4F
  3
A8
350
50
  3
A9
350
51
  3
B0
350
52
  3
B1
350
53
  3
B2
350
54
  3
B3
350
55
  3
B4
350
56
  3
B5
350
57
  3
B6
350
58
  3
B7
350
59
  3
B8
350
5A
  3
B9
350
5B
  3
C0
350
5C
  3
C1
350
5D
  3
C2
350
5E
  3
C3
350
5F
  3
C4
350
60
  3
C5
350
61
  3
C6
350
62
  3
C7
350
63
  3
C8
350
64
  3
C9
350
65
  3
D0
350
66
  3
D1
350
67
  3
D2
350
68
  0
LAYOUT
  5
1E
102
{ACAD_REACTORS
330
1A
102
}
330
1A
100
AcDbPlotSettings
  1

  2
none_device
  4

  6

 40
0.0
 41
0.0
 42
0.0
 43
0.0
 44
0.0
 45
0.0
 46
0.0
 47
0.0
 48
0.0
 49
0.0
140
0.0
141
0.0
142
1.0
143
1.0
 70
   688
 72
     0
 73
     0
 74
     5
  7

 75
    16
147
1.0
148
0.0
149
0.0
100
AcDbLayout
  1
Layout1
 70
     1
 71
     1
 10
0.0
 20
0.0
 11
12.0
 21
9.0
 12
0.0
 22
0.0
 32
0.0
 14
1.0000000000E+20
 24
1.0000000000E+20
 34
1.0000000000E+20
 15
-1.0000000000E+20
 25
-1.0000000000E+20
 35
-1.0000000000E+20
146
0.0
 13
0.0
 23
0.0
 33
0.0
 16
1.0
 26
0.0
 36
0.0
 17
0.0
 27
1.0
 37
0.0
 76
     0
330
1B
  0
LAYOUT
  5
26
102
{ACAD_REACTORS
330
1A
102
}
330
1A
100
AcDbPlotSettings
  1

  2
none_device
  4

  6

 40
0.0
 41
0.0
 42
0.0
 43
0.0
 44
0.0
 45
0.0
 46
0.0
 47
0.0
 48
0.0
 49
0.0
140
0.0
141
0.0
142
1.0
143
1.0
 70
   688
 72
     0
 73
     0
 74
     5
  7

 75
    16
147
1.0
148
0.0
149
0.0
100
AcDbLayout
  1
Layout2
 70
     1
 71
     2
 10
0.0
 20
0.0
 11
0.0
 21
0.0
 12
0.0
 22
0.0
 32
0.0
 14
0.0
 24
0.0
 34
0.0
 15
0.0
 25
0.0
 35
0.0
146
0.0
 13
0.0
 23
0.0
 33
0.0
 16
1.0
 26
0.0
 36
0.0
 17
0.0
 27
1.0
 37
0.0
 76
     0
330
23
  0
LAYOUT
  5
22
102
{ACAD_REACTORS
330
1A
102
}
330
1A
100
AcDbPlotSettings
  1

  2
none_device
  4
ANSI_A_(11.00_x_8.50_Inches)
  6

 40
6.35
 41
19.05
 42
6.35000508
 43
19.05000254
 44
279.4
 45
215.9
 46
51.738699395
 47
100.0790268712
 48
0.0
 49
0.0
140
0.0
141
0.0
142
0.4821852187
143
1.0
 70
  1696
 72
     0
 73
     0
 74
     0
  7

 75
     0
147
0.5913241897
148
-39.4088153714
149
0.0
100
AcDbLayout
  1
Model
 70
     1
 71
     0
 10
0.0
 20
0.0
 11
12.0
 21
9.0
 12
0.0
 22
0.0
 32
0.0
 14
-3.6802457983
 24
-9.6386596639
 34
0.0
 15
17.0072542017
 25
7.8131403361
 35
0.0
146
0.0
 13
0.0
 23
0.0
 33
0.0
 16
1.0
 26
0.0
 36
0.0
 17
0.0
 27
1.0
 37
0.0
 76
     0
330
1F
331
29
  0
MLINESTYLE
  5
18
102
{ACAD_REACTORS
330
17
102
}
330
17
100
AcDbMlineStyle
  2
Standard
 70
     0
  3

 62
   256
 51
90.0
 52
90.0
 71
     2
 49
0.5
 62
   256
  6
BYLAYER
 49
-0.5
 62
   256
  6
BYLAYER
  0
ACDBPLACEHOLDER
  5
F
102
{ACAD_REACTORS
330
E
102
}
330
E
  0
SCALE
  5
48
102
{ACAD_REACTORS
330
47
102
}
330
47
100
AcDbScale
 70
     0
300
1:1
140
1.0
141
1.0
290
     1
  0
SCALE
  5
49
102
{ACAD_REACTORS
330
47
102
}
330
47
100
AcDbScale
 70
     0
300
1:2
140
1.0
141
2.0
290
     0
  0
SCALE
  5
4A
102
{ACAD_REACTORS
330
47
102
}
330
47
100
AcDbScale
 70
     0
300
1:4
140
1.0
141
4.0
290
     0
  0
SCALE
  5
4B
102
{ACAD_REACTORS
330
47
102
}
330
47
100
AcDbScale
 70
     0
300
1:5
140
1.0
141
5.0
290
     0
  0
SCALE
  5
4C
102
{ACAD_REACTORS
330
47
102
}
330
47
100
AcDbScale
 70
     0
300
1:8
140
1.0
141
8.0
290
     0
  0
SCALE
  5
4D
102
{ACAD_REACTORS
330
47
102
}
330
47
100
AcDbScale
 70
     0
300
1:10
140
1.0
141
10.0
290
     0
  0
SCALE
  5
4E
102
{ACAD_REACTORS
330
47
102
}
330
47
100
AcDbScale
 70
     0
300
1:16
140
1.0
141
16.0
290
     0
  0
SCALE
  5
4F
102
{ACAD_REACTORS
330
47
102
}
330
47
100
AcDbScale
 70
     0
300
1:20
140
1.0
141
20.0
290
     0
  0
SCALE
  5
50
102
{ACAD_REACTORS
330
47
102
}
330
47
100
AcDbScale
 70
     0
300
1:30
140
1.0
141
30.0
290
     0
  0
SCALE
  5
51
102
{ACAD_REACTORS
330
47
102
}
330
47
100
AcDbScale
 70
     0
300
1:40
140
1.0
141
40.0
290
     0
  0
SCALE
  5
52
102
{ACAD_REACTORS
330
47
102
}
330
47
100
AcDbScale
 70
     0
300
1:50
140
1.0
141
50.0
290
     0
  0
SCALE
  5
53
102
{ACAD_REACTORS
330
47
102
}
330
47
100
AcDbScale
 70
     0
300
1:100
140
1.0
141
100.0
290
     0
  0
SCALE
  5
54
102
{ACAD_REACTORS
330
47
102
}
330
47
100
AcDbScale
 70
     0
300
2:1
140
2.0
141
1.0
290
     0
  0
SCALE
  5
55
102
{ACAD_REACTORS
330
47
102
}
330
47
100
AcDbScale
 70
     0
300
4:1
140
4.0
141
1.0
290
     0
  0
SCALE
  5
56
102
{ACAD_REACTORS
330
47
102
}
330
47
100
AcDbScale
 70
     0
300
8:1
140
8.0
141
1.0
290
     0
  0
SCALE
  5
57
102
{ACAD_REACTORS
330
47
102
}
330
47
100
AcDbScale
 70
     0
300
10:1
140
10.0
141
1.0
290
     0
  0
SCALE
  5
58
102
{ACAD_REACTORS
330
47
102
}
330
47
100
AcDbScale
 70
     0
300
100:1
140
100.0
141
1.0
290
     0
  0
SCALE
  5
59
102
{ACAD_REACTORS
330
47
102
}
330
47
100
AcDbScale
 70
     0
300
1/128" = 1'-0"
140
0.0078125
141
12.0
290
     0
  0
SCALE
  5
5A
102
{ACAD_REACTORS
330
47
102
}
330
47
100
AcDbScale
 70
     0
300
1/64" = 1'-0"
140
0.015625
141
12.0
290
     0
  0
SCALE
  5
5B
102
{ACAD_REACTORS
330
47
102
}
330
47
100
AcDbScale
 70
     0
300
1/32" = 1'-0"
140
0.03125
141
12.0
290
     0
  0
SCALE
  5
5C
102
{ACAD_REACTORS
330
47
102
}
330
47
100
AcDbScale
 70
     0
300
1/16" = 1'-0"
140
0.0625
141
12.0
290
     0
  0
SCALE
  5
5D
102
{ACAD_REACTORS
330
47
102
}
330
47
100
AcDbScale
 70
     0
300
3/32" = 1'-0"
140
0.09375
141
12.0
290
     0
  0
SCALE
  5
5E
102
{ACAD_REACTORS
330
47
102
}
330
47
100
AcDbScale
 70
     0
300
1/8" = 1'-0"
140
0.125
141
12.0
290
     0
  0
SCALE
  5
5F
102
{ACAD_REACTORS
330
47
102
}
330
47
100
AcDbScale
 70
     0
300
3/16" = 1'-0"
140
0.1875
141
12.0
290
     0
  0
SCALE
  5
60
102
{ACAD_REACTORS
330
47
102
}
330
47
100
AcDbScale
 70
     0
300
1/4" = 1'-0"
140
0.25
141
12.0
290
     0
  0
SCALE
  5
61
102
{ACAD_REACTORS
330
47
102
}
330
47
100
AcDbScale
 70
     0
300
3/8" = 1'-0"
140
0.375
141
12.0
290
     0
  0
SCALE
  5
62
102
{ACAD_REACTORS
330
47
102
}
330
47
100
AcDbScale
 70
     0
300
1/2" = 1'-0"
140
0.5
141
12.0
290
     0
  0
SCALE
  5
63
102
{ACAD_REACTORS
330
47
102
}
330
47
100
AcDbScale
 70
     0
300
3/4" = 1'-0"
140
0.75
141
12.0
290
     0
  0
SCALE
  5
64
102
{ACAD_REACTORS
330
47
102
}
330
47
100
AcDbScale
 70
     0
300
1" = 1'-0"
140
1.0
141
12.0
290
     0
  0
SCALE
  5
65
102
{ACAD_REACTORS
330
47
102
}
330
47
100
AcDbScale
 70
     0
300
1-1/2" = 1'-0"
140
1.5
141
12.0
290
     0
  0
SCALE
  5
66
102
{ACAD_REACTORS
330
47
102
}
330
47
100
AcDbScale
 70
     0
300
3" = 1'-0"
140
3.0
141
12.0
290
     0
  0
SCALE
  5
67
102
{ACAD_REACTORS
330
47
102
}
330
47
100
AcDbScale
 70
     0
300
6" = 1'-0"
140
6.0
141
12.0
290
     0
  0
SCALE
  5
68
102
{ACAD_REACTORS
330
47
102
}
330
47
100
AcDbScale
 70
     0
300
1'-0" = 1'-0"
140
12.0
141
12.0
290
     0
  0
ENDSEC
  0
EOF
