  0
SECTION
  2
HEADER
  9
$ACADVER
  1
AC1015
  9
$ACADMAINTVER
 70
     6
  9
$DWGCODEPAGE
  3
ANSI_1252
  9
$INSBASE
 10
0.0
 20
0.0
 30
0.0
  9
$EXTMIN
 10
-11.5
 20
-9.8895
 30
0.0
  9
$EXTMAX
 10
11.5
 20
9.8895
 30
0.0
  9
$LIMMIN
 10
0.0
 20
0.0
  9
$LIMMAX
 10
12.0
 20
9.0
  9
$ORTHOMODE
 70
     0
  9
$REGENMODE
 70
     1
  9
$FILLMODE
 70
     1
  9
$QTEXTMODE
 70
     0
  9
$MIRRTEXT
 70
     1
  9
$LTSCALE
 40
1.0
  9
$ATTMODE
 70
     1
  9
$TEXTSIZE
 40
0.125
  9
$TRACEWID
 40
0.05
  9
$TEXTSTYLE
  7
Standard
  9
$CLAYER
  8
0
  9
$CELTYPE
  6
ByLayer
  9
$CECOLOR
 62
   256
  9
$CELTSCALE
 40
1.0
  9
$DISPSILH
 70
     0
  9
$DIMSCALE
 40
1.0
  9
$DIMASZ
 40
0.13
  9
$DIMEXO
 40
0.05
  9
$DIMDLI
 40
0.38
  9
$DIMRND
 40
0.0
  9
$DIMDLE
 40
0.0
  9
$DIMEXE
 40
0.125
  9
$DIMTP
 40
0.0
  9
$DIMTM
 40
0.0
  9
$DIMTXT
 40
0.125
  9
$DIMCEN
 40
0.09
  9
$DIMTSZ
 40
0.0
  9
$DIMTOL
 70
     0
  9
$DIMLIM
 70
     0
  9
$DIMTIH
 70
     1
  9
$DIMTOH
 70
     1
  9
$DIMSE1
 70
     0
  9
$DIMSE2
 70
     0
  9
$DIMTAD
 70
     0
  9
$DIMZIN
 70
     0
  9
$DIMBLK
  1

  9
$DIMASO
 70
     1
  9
$DIMSHO
 70
     1
  9
$DIMPOST
  1

  9
$DIMAPOST
  1

  9
$DIMALT
 70
     0
  9
$DIMALTD
 70
     2
  9
$DIMALTF
 40
25.4
  9
$DIMLFAC
 40
1.0
  9
$DIMTOFL
 70
     0
  9
$DIMTVP
 40
0.0
  9
$DIMTIX
 70
     0
  9
$DIMSOXD
 70
     0
  9
$DIMSAH
 70
     0
  9
$DIMBLK1
  1

  9
$DIMBLK2
  1

  9
$DIMSTYLE
  2
Standard
  9
$DIMCLRD
 70
     0
  9
$DIMCLRE
 70
     0
  9
$DIMCLRT
 70
     0
  9
$DIMTFAC
 40
1.0
  9
$DIMGAP
 40
0.06
  9
$DIMJUST
 70
     0
  9
$DIMSD1
 70
     0
  9
$DIMSD2
 70
     0
  9
$DIMTOLJ
 70
     1
  9
$DIMTZIN
 70
     0
  9
$DIMALTZ
 70
     0
  9
$DIMALTTZ
 70
     0
  9
$DIMUPT
 70
     0
  9
$DIMDEC
 70
     3
  9
$DIMTDEC
 70
     3
  9
$DIMALTU
 70
     2
  9
$DIMALTTD
 70
     2
  9
$DIMTXSTY
  7
Standard
  9
$DIMAUNIT
 70
     0
  9
$DIMADEC
 70
     2
  9
$DIMALTRND
 40
0.0
  9
$DIMAZIN
 70
     0
  9
$DIMDSEP
 70
    46
  9
$DIMATFIT
 70
     3
  9
$DIMFRAC
 70
     0
  9
$DIMLDRBLK
  1

  9
$DIMLUNIT
 70
     2
  9
$DIMLWD
 70
    -2
  9
$DIMLWE
 70
    -2
  9
$DIMTMOVE
 70
     0
  9
$LUNITS
 70
     2
  9
$LUPREC
 70
     3
  9
$SKETCHINC
 40
0.1
  9
$FILLETRAD
 40
0.5
  9
$AUNITS
 70
     0
  9
$AUPREC
 70
     2
  9
$MENU
  1
.
  9
$ELEVATION
 40
0.0
  9
$PELEVATION
 40
0.0
  9
$THICKNESS
 40
0.0
  9
$LIMCHECK
 70
     0
  9
$CHAMFERA
 40
0.0
  9
$CHAMFERB
 40
0.0
  9
$CHAMFERC
 40
0.0
  9
$CHAMFERD
 40
0.0
  9
$SKPOLY
 70
     0
  9
$TDCREATE
 40
2457750.346167581
  9
$TDUCREATE
 40
2457750.554500914
  9
$TDUPDATE
 40
2457750.34626287
  9
$TDUUPDATE
 40
2457750.554596204
  9
$TDINDWG
 40
0.0000000116
  9
$TDUSRTIMER
 40
0.0000000116
  9
$USRTIMER
 70
     1
  9
$ANGBASE
 50
0.0
  9
$ANGDIR
 70
     0
  9
$PDMODE
 70
     0
  9
$PDSIZE
 40
-1.0
  9
$PLINEWID
 40
0.0
  9
$SPLFRAME
 70
     0
  9
$SPLINETYPE
 70
     6
  9
$SPLINESEGS
 70
     8
  9
$HANDSEED
  5
10A
  9
$SURFTAB1
 70
     6
  9
$SURFTAB2
 70
     6
  9
$SURFTYPE
 70
     6
  9
$SURFU
 70
     6
  9
$SURFV
 70
     6
  9
$UCSBASE
  2

  9
$UCSNAME
  2

  9
$UCSORG
 10
0.0
 20
0.0
 30
0.0
  9
$UCSXDIR
 10
1.0
 20
0.0
 30
0.0
  9
$UCSYDIR
 10
0.0
 20
1.0
 30
0.0
  9
$UCSORTHOREF
  2

  9
$UCSORTHOVIEW
 70
     0
  9
$UCSORGTOP
 10
0.0
 20
0.0
 30
0.0
  9
$UCSORGBOTTOM
 10
0.0
 20
0.0
 30
0.0
  9
$UCSORGLEFT
 10
0.0
 20
0.0
 30
0.0
  9
$UCSORGRIGHT
 10
0.0
 20
0.0
 30
0.0
  9
$UCSORGFRONT
 10
0.0
 20
0.0
 30
0.0
  9
$UCSORGBACK
 10
0.0
 20
0.0
 30
0.0
  9
$PUCSBASE
  2

  9
$PUCSNAME
  2

  9
$PUCSORG
 10
0.0
 20
0.0
 30
0.0
  9
$PUCSXDIR
 10
1.0
 20
0.0
 30
0.0
  9
$PUCSYDIR
 10
0.0
 20
1.0
 30
0.0
  9
$PUCSORTHOREF
  2

  9
$PUCSORTHOVIEW
 70
     0
  9
$PUCSORGTOP
 10
0.0
 20
0.0
 30
0.0
  9
$PUCSORGBOTTOM
 10
0.0
 20
0.0
 30
0.0
  9
$PUCSORGLEFT
 10
0.0
 20
0.0
 30
0.0
  9
$PUCSORGRIGHT
 10
0.0
 20
0.0
 30
0.0
  9
$PUCSORGFRONT
 10
0.0
 20
0.0
 30
0.0
  9
$PUCSORGBACK
 10
0.0
 20
0.0
 30
0.0
  9
$USERI1
 70
     0
  9
$USERI2
 70
     0
  9
$USERI3
 70
     0
  9
$USERI4
 70
     0
  9
$USERI5
 70
     0
  9
$USERR1
 40
0.0
  9
$USERR2
 40
0.0
  9
$USERR3
 40
0.0
  9
$USERR4
 40
0.0
  9
$USERR5
 40
0.0
  9
$WORLDVIEW
 70
     1
  9
$SHADEDGE
 70
     3
  9
$SHADEDIF
 70
    70
  9
$TILEMODE
 70
     1
  9
$MAXACTVP
 70
    64
  9
$PINSBASE
 10
0.0
 20
0.0
 30
0.0
  9
$PLIMCHECK
 70
     0
  9
$PEXTMIN
 10
1.0000000000E+20
 20
1.0000000000E+20
 30
1.0000000000E+20
  9
$PEXTMAX
 10
-1.0000000000E+20
 20
-1.0000000000E+20
 30
-1.0000000000E+20
  9
$PLIMMIN
 10
0.0
 20
0.0
  9
$PLIMMAX
 10
12.0
 20
9.0
  9
$UNITMODE
 70
     0
  9
$VISRETAIN
 70
     1
  9
$PLINEGEN
 70
     0
  9
$PSLTSCALE
 70
     1
  9
$TREEDEPTH
 70
  3020
  9
$CMLSTYLE
  2
Standard
  9
$CMLJUST
 70
     0
  9
$CMLSCALE
 40
1.0
  9
$PROXYGRAPHICS
 70
     1
  9
$MEASUREMENT
 70
     0
  9
$CELWEIGHT
370
    -1
  9
$ENDCAPS
280
     0
  9
$JOINSTYLE
280
     0
  9
$LWDISPLAY
290
     1
  9
$INSUNITS
 70
     1
  9
$HYPERLINKBASE
  1

  9
$STYLESHEET
  1

  9
$XEDIT
290
     1
  9
$CEPSNTYPE
380
     0
  9
$PSTYLEMODE
290
     1
  9
$FINGERPRINTGUID
  2
{A1CEA9C3-852A-4EA8-853B-FC8BA80C2816}
  9
$VERSIONGUID
  2
{FAEB1C32-E019-11D5-929B-00C0DF256EC4}
  9
$EXTNAMES
290
     1
  9
$PSVPSCALE
 40
0.0
  9
$OLESTARTUP
290
     0
  0
ENDSEC
  0
SECTION
  2
CLASSES
  0
CLASS
  1
ACDBDICTIONARYWDFLT
  2
AcDbDictionaryWithDefault
  3
ObjectDBX Classes
 90
        0
280
     0
281
     0
  0
CLASS
  1
VISUALSTYLE
  2
AcDbVisualStyle
  3
ObjectDBX Classes
 90
     4095
280
     0
281
     0
  0
CLASS
  1
MATERIAL
  2
AcDbMaterial
  3
ObjectDBX Classes
 90
     1153
280
     0
281
     0
  0
CLASS
  1
SCALE
  2
AcDbScale
  3
ObjectDBX Classes
 90
     1153
280
     0
281
     0
  0
CLASS
  1
TABLESTYLE
  2
AcDbTableStyle
  3
ObjectDBX Classes
 90
     4095
280
     0
281
     0
  0
CLASS
  1
MLEADERSTYLE
  2
AcDbMLeaderStyle
  3
ACDB_MLEADERSTYLE_CLASS
 90
     4095
280
     0
281
     0
  0
CLASS
  1
SUN
  2
AcDbSun
  3
SCENEOE
 90
     1153
280
     0
281
     0
  0
CLASS
  1
ACDBPLACEHOLDER
  2
AcDbPlaceHolder
  3
ObjectDBX Classes
 90
        0
280
     0
281
     0
  0
CLASS
  1
LAYOUT
  2
AcDbLayout
  3
ObjectDBX Classes
 90
        0
280
     0
281
     0
  0
ENDSEC
  0
SECTION
  2
TABLES
  0
TABLE
  2
VPORT
  5
8
330
0
100
AcDbSymbolTable
 70
     1
  0
VPORT
  5
29
330
8
100
AcDbSymbolTableRecord
100
AcDbViewportTableRecord
  2
*Active
 70
     0
 10
0.0
 20
0.0
 11
1.0
 21
1.0
 12
0.0
 22
0.0
 13
0.0
 23
0.0
 14
0.5
 24
0.5
 15
0.5
 25
0.5
 16
0.0
 26
0.0
 36
1.0
 17
0.0
 27
0.0
 37
0.0
 40
20.17458
 41
1.1628494868
 42
50.0
 43
0.0
 44
0.0
 50
0.0
 51
0.0
 71
     0
 72
   100
 73
     1
 74
     3
 75
     0
 76
     0
 77
     0
 78
     0
281
     0
 65
     1
110
0.0
120
0.0
130
0.0
111
1.0
121
0.0
131
0.0
112
0.0
122
1.0
132
0.0
 79
     0
146
0.0
  0
ENDTAB
  0
TABLE
  2
LTYPE
  5
5
330
0
100
AcDbSymbolTable
 70
     6
  0
LTYPE
  5
14
330
5
100
AcDbSymbolTableRecord
100
AcDbLinetypeTableRecord
  2
ByBlock
 70
     0
  3

 72
    65
 73
     0
 40
0.0
  0
LTYPE
  5
15
330
5
100
AcDbSymbolTableRecord
100
AcDbLinetypeTableRecord
  2
ByLayer
 70
     0
  3

 72
    65
 73
     0
 40
0.0
  0
LTYPE
  5
16
330
5
100
AcDbSymbolTableRecord
100
AcDbLinetypeTableRecord
  2
Continuous
 70
     0
  3
Solid line
 72
    65
 73
     0
 40
0.0
  0
LTYPE
  5
6E
330
5
100
AcDbSymbolTableRecord
100
AcDbLinetypeTableRecord
  2
HIDDEN
 70
     0
  3
Hidden __ __ __ __ __ __ __ __ __ __ __ __ __ __
 72
    65
 73
     2
 40
0.075
 49
0.05
 74
     0
 49
-0.025
 74
     0
  0
LTYPE
  5
6F
330
5
100
AcDbSymbolTableRecord
100
AcDbLinetypeTableRecord
  2
PHANTOM
 70
     0
  3
Phantom ______  __  __  ______  __  __  ______
 72
    65
 73
     6
 40
0.5
 49
0.25
 74
     0
 49
-0.05
 74
     0
 49
0.05
 74
     0
 49
-0.05
 74
     0
 49
0.05
 74
     0
 49
-0.05
 74
     0
  0
LTYPE
  5
70
330
5
100
AcDbSymbolTableRecord
100
AcDbLinetypeTableRecord
  2
CENTER
 70
     0
  3
Center ____ _ ____ _ ____ _ ____ _ ____ _ ____
 72
    65
 73
     4
 40
0.4
 49
0.25
 74
     0
 49
-0.05
 74
     0
 49
0.05
 74
     0
 49
-0.05
 74
     0
  0
LTYPE
  5
71
330
5
100
AcDbSymbolTableRecord
100
AcDbLinetypeTableRecord
  2
CENTERX2
 70
     0
  3
Center (2x) ________  __  ________  __  _____
 72
    65
 73
     4
 40
0.8
 49
0.5
 74
     0
 49
-0.1
 74
     0
 49
0.1
 74
     0
 49
-0.1
 74
     0
  0
LTYPE
  5
72
330
5
100
AcDbSymbolTableRecord
100
AcDbLinetypeTableRecord
  2
DOT2
 70
     0
  3
Dot (.5x) ........................................
 72
    65
 73
     2
 40
0.025
 49
0.0
 74
     0
 49
-0.025
 74
     0
  0
ENDTAB
  0
TABLE
  2
LAYER
  5
2
330
0
100
AcDbSymbolTable
 70
     1
  0
LAYER
  5
10
330
2
100
AcDbSymbolTableRecord
100
AcDbLayerTableRecord
  2
0
 70
     0
 62
     7
  6
Continuous
370
    -3
390
F
  0
ENDTAB
  0
TABLE
  2
STYLE
  5
3
330
0
100
AcDbSymbolTable
 70
     1
  0
STYLE
  5
11
330
3
100
AcDbSymbolTableRecord
100
AcDbTextStyleTableRecord
  2
Standard
 70
     0
 40
0.0
 41
1.0
 50
0.0
 71
     0
 42
0.125
  3
txt
  4

  0
ENDTAB
  0
TABLE
  2
VIEW
  5
6
330
0
100
AcDbSymbolTable
 70
     0
  0
ENDTAB
  0
TABLE
  2
UCS
  5
7
330
0
100
AcDbSymbolTable
 70
     0
  0
ENDTAB
  0
TABLE
  2
APPID
  5
9
330
0
100
AcDbSymbolTable
 70
     1
  0
APPID
  5
12
330
9
100
AcDbSymbolTableRecord
100
AcDbRegAppTableRecord
  2
ACAD
 70
     0
  0
ENDTAB
  0
TABLE
  2
DIMSTYLE
  5
A
330
0
100
AcDbSymbolTable
 70
     1
100
AcDbDimStyleTable
  0
DIMSTYLE
105
27
330
A
100
AcDbSymbolTableRecord
100
AcDbDimStyleTableRecord
  2
Standard
 70
     0
178
     0
340
11
  0
ENDTAB
  0
TABLE
  2
BLOCK_RECORD
  5
1
330
0
100
AcDbSymbolTable
 70
     1
  0
BLOCK_RECORD
  5
1F
330
1
100
AcDbSymbolTableRecord
100
AcDbBlockTableRecord
  2
*Model_Space
340
22
  0
BLOCK_RECORD
  5
1B
330
1
100
AcDbSymbolTableRecord
100
AcDbBlockTableRecord
  2
*Paper_Space
340
1E
  0
BLOCK_RECORD
  5
23
330
1
100
AcDbSymbolTableRecord
100
AcDbBlockTableRecord
  2
*Paper_Space0
340
26
  0
ENDTAB
  0
ENDSEC
  0
SECTION
  2
BLOCKS
  0
BLOCK
  5
20
330
1F
100
AcDbEntity
  8
0
100
AcDbBlockBegin
  2
*Model_Space
 70
     0
 10
0.0
 20
0.0
 30
0.0
  3
*Model_Space
  1

  0
ENDBLK
  5
21
330
1F
100
AcDbEntity
  8
0
100
AcDbBlockEnd
  0
BLOCK
  5
1C
330
1B
100
AcDbEntity
 67
     1
  8
0
100
AcDbBlockBegin
  2
*Paper_Space
 70
     0
 10
0.0
 20
0.0
 30
0.0
  3
*Paper_Space
  1

  0
ENDBLK
  5
1D
330
1B
100
AcDbEntity
 67
     1
  8
0
100
AcDbBlockEnd
  0
BLOCK
  5
24
330
23
100
AcDbEntity
  8
0
100
AcDbBlockBegin
  2
*Paper_Space0
 70
     0
 10
0.0
 20
0.0
 30
0.0
  3
*Paper_Space0
  1

  0
ENDBLK
  5
25
330
23
100
AcDbEntity
  8
0
100
AcDbBlockEnd
  0
ENDSEC
  0
SECTION
  2
ENTITIES
  0
LINE
  5
73
330
1F
100
AcDbEntity
  8
0
  6
Continuous
 62
     7
370
    15
100
AcDbLine
 10
-10.93
 20
9.2823524704
 30
0.0
 11
-10.89
 21
9.2323524704
 31
0.0
  0
LINE
  5
74
330
1F
100
AcDbEntity
  8
0
  6
Continuous
 62
     7
370
    15
100
AcDbLine
 10
-10.91
 20
9.2823524704
 30
0.0
 11
-10.93
 21
9.2823524704
 31
0.0
  0
LINE
  5
75
330
1F
100
AcDbEntity
  8
0
  6
Continuous
 62
     7
370
    15
100
AcDbLine
 10
-10.91
 20
9.3323524704
 30
0.0
 11
-10.91
 21
9.2823524704
 31
0.0
  0
LINE
  5
76
330
1F
100
AcDbEntity
  8
0
  6
Continuous
 62
     7
370
    15
100
AcDbLine
 10
-10.87
 20
9.3323524704
 30
0.0
 11
-10.91
 21
9.3323524704
 31
0.0
  0
LINE
  5
77
330
1F
100
AcDbEntity
  8
0
  6
Continuous
 62
     7
370
    15
100
AcDbLine
 10
-10.87
 20
9.2823524704
 30
0.0
 11
-10.87
 21
9.3323524704
 31
0.0
  0
LINE
  5
78
330
1F
100
AcDbEntity
  8
0
  6
Continuous
 62
     7
370
    15
100
AcDbLine
 10
-10.85
 20
9.2823524704
 30
0.0
 11
-10.87
 21
9.2823524704
 31
0.0
  0
LINE
  5
79
330
1F
100
AcDbEntity
  8
0
  6
Continuous
 62
     7
370
    15
100
AcDbLine
 10
-10.89
 20
9.2323524704
 30
0.0
 11
-10.85
 21
9.2823524704
 31
0.0
  0
LINE
  5
7A
330
1F
100
AcDbEntity
  8
0
  6
Continuous
 62
     7
370
    15
100
AcDbLine
 10
-10.1976923077
 20
9.4330558894
 30
0.0
 11
-10.1976923077
 21
9.4161538462
 31
0.0
  0
LINE
  5
7B
330
1F
100
AcDbEntity
  8
0
  6
Continuous
 62
     7
370
    15
100
AcDbLine
 10
-10.1976923077
 20
9.4161538462
 30
0.0
 11
-10.2089102564
 21
9.4161538462
 31
0.0
  0
LINE
  5
7C
330
1F
100
AcDbEntity
  8
0
  6
Continuous
 62
     7
370
    15
100
AcDbLine
 10
-10.2089102564
 20
9.4161538462
 30
0.0
 11
-10.2089102564
 21
9.5075
 31
0.0
  0
LINE
  5
7D
330
1F
100
AcDbEntity
  8
0
  6
Continuous
 62
     7
370
    15
100
AcDbLine
 10
-10.2089102564
 20
9.5075
 30
0.0
 11
-10.1976923077
 21
9.5075
 31
0.0
  0
LINE
  5
7E
330
1F
100
AcDbEntity
  8
0
  6
Continuous
 62
     7
370
    15
100
AcDbLine
 10
-10.1976923077
 20
9.5075
 30
0.0
 11
-10.1976923077
 21
9.4916997196
 31
0.0
  0
SPLINE
  5
7F
330
1F
100
AcDbEntity
  8
0
  6
Continuous
 62
     7
370
    15
100
AcDbSpline
210
0.0
220
0.0
230
1.0
 70
     8
 71
     3
 72
    15
 73
    11
 74
     0
 42
0.000000001
 43
0.00000001
 40
0.0
 40
0.0
 40
0.0
 40
0.0
 40
0.1342794253839499
 40
0.2624376805010247
 40
0.3857880719678766
 40
0.5066656944993637
 40
0.6267843787699036
 40
0.748180486094887
 40
0.8723881896533026
 40
1.0
 40
1.0
 40
1.0
 40
1.0
 10
-10.19769230769231
 20
9.491699719551281
 30
0.0
 10
-10.19642563715078
 20
9.49312773338774
 30
0.0
 10
-10.19395003764677
 20
9.495918664596243
 30
0.0
 10
-10.18985492710532
 20
9.499587277179488
 30
0.0
 10
-10.18547825068048
 20
9.502582518773409
 30
0.0
 10
-10.1808945732323
 20
9.505013762244678
 30
0.0
 10
-10.17606841555076
 20
9.506846479571138
 30
0.0
 10
-10.17102812140706
 20
9.508137606229518
 30
0.0
 10
-10.1657776344712
 20
9.508977502455659
 30
0.0
 10
-10.1621970869408
 20
9.509060502885823
 30
0.0
 10
-10.16038261217949
 20
9.509102564102562
 30
0.0
  0
SPLINE
  5
80
330
1F
100
AcDbEntity
  8
0
  6
Continuous
 62
     7
370
    15
100
AcDbSpline
210
0.0
220
0.0
230
1.0
 70
     8
 71
     3
 72
    23
 73
    19
 74
     0
 42
0.000000001
 43
0.00000001
 40
0.0
 40
0.0
 40
0.0
 40
0.0
 40
0.064627267008091
 40
0.1274478320825765
 40
0.1890254068323246
 40
0.2499582107091305
 40
0.3107034323946401
 40
0.3720844592356916
 40
0.4347016574718336
 40
0.4993453691875102
 40
0.5639683079454432
 40
0.6265193590321848
 40
0.68807421729658
 40
0.7492653791062663
 40
0.8103091726242381
 40
0.8718867473739929
 40
0.9350386014010384
 40
1.0
 40
1.0
 40
1.0
 40
1.0
 10
-10.16038261217949
 20
9.509102564102562
 30
0.0
 10
-10.15876946658733
 20
9.509058772361419
 30
0.0
 10
-10.15558827205332
 20
9.508972413108891
 30
0.0
 10
-10.15090872519082
 20
9.50830222632365
 30
0.0
 10
-10.14640519781473
 20
9.507226518599989
 30
0.0
 10
-10.14207481974156
 20
9.505728637902308
 30
0.0
 10
-10.13794693282876
 20
9.503752002869893
 30
0.0
 10
-10.13399827753006
 20
9.501360001464842
 30
0.0
 10
-10.13021963838535
 20
9.498539409271368
 30
0.0
 10
-10.12668287720543
 20
9.495302315132346
 30
0.0
 10
-10.1234218957567
 20
9.491790089235579
 30
0.0
 10
-10.12056886635037
 20
9.488033073545779
 30
0.0
 10
-10.11815083103894
 20
9.484082870581323
 30
0.0
 10
-10.11616363907778
 20
9.479940590576884
 30
0.0
 10
-10.11462584574079
 20
9.475609261536935
 30
0.0
 10
-10.11355595767237
 20
9.471091854840406
 30
0.0
 10
-10.11288649309466
 20
9.466395887214608
 30
0.0
 10
-10.11280017759227
 20
9.463198033464906
 30
0.0
 10
-10.11275641025641
 20
9.461576522435896
 30
0.0
  0
SPLINE
  5
81
330
1F
100
AcDbEntity
  8
0
  6
Continuous
 62
     7
370
    15
100
AcDbSpline
210
0.0
220
0.0
230
1.0
 70
     8
 71
     3
 72
    23
 73
    19
 74
     0
 42
0.000000001
 43
0.00000001
 40
0.0
 40
0.0
 40
0.0
 40
0.0
 40
0.0637814724964979
 40
0.1260925303724591
 40
0.1869244323723059
 40
0.2476008768692144
 40
0.3080368742790119
 40
0.369349289953972
 40
0.4322574644027484
 40
0.4970220782641088
 40
0.5618491610224137
 40
0.624889458137858
 40
0.6869962791359567
 40
0.7480514182236284
 40
0.8095615691495404
 40
0.871616772930533
 40
0.9348787348521481
 40
1.0
 40
1.0
 40
1.0
 40
1.0
 10
-10.11275641025641
 20
9.461576522435896
 30
0.0
 10
-10.11280114833393
 20
9.459988526253786
 30
0.0
 10
-10.11288959309975
 20
9.456849143467743
 30
0.0
 10
-10.11354879418673
 20
9.452232144927443
 30
0.0
 10
-10.11465646296596
 20
9.447784703072928
 30
0.0
 10
-10.11621389757052
 20
9.443523292880396
 30
0.0
 10
-10.1182021462525
 20
9.439430752246226
 30
0.0
 10
-10.12066176630419
 20
9.435539101274333
 30
0.0
 10
-10.12351376761658
 20
9.431788808664011
 30
0.0
 10
-10.12680960071045
 20
9.42830013964863
 30
0.0
 10
-10.13037810561635
 20
9.42508930845529
 30
0.0
 10
-10.13417788587155
 20
9.422261861669542
 30
0.0
 10
-10.13816156201739
 20
9.419875993142213
 30
0.0
 10
-10.14233712189019
 20
9.417936513981113
 30
0.0
 10
-10.14667499883439
 20
9.416395285772614
 30
0.0
 10
-10.15120814537733
 20
9.415320901310514
 30
0.0
 10
-10.15591594660411
 20
9.41468933523261
 30
0.0
 10
-10.15911200201873
 20
9.414597741943366
 30
0.0
 10
-10.16073317307693
 20
9.414551282051281
 30
0.0
  0
SPLINE
  5
82
330
1F
100
AcDbEntity
  8
0
  6
Continuous
 62
     7
370
    15
100
AcDbSpline
210
0.0
220
0.0
230
1.0
 70
     8
 71
     3
 72
    15
 73
    11
 74
     0
 42
0.000000001
 43
0.00000001
 40
0.0
 40
0.0
 40
0.0
 40
0.0
 40
0.1298635398584123
 40
0.2546562725792813
 40
0.3765790035058079
 40
0.4958209849134871
 40
0.6156516375024222
 40
0.7381460152074618
 40
0.8656460753711792
 40
1.0
 40
1.0
 40
1.0
 40
1.0
 10
-10.16073317307693
 20
9.414551282051281
 30
0.0
 10
-10.16259749095683
 20
9.414602437524788
 30
0.0
 10
-10.16625333033037
 20
9.41470275099399
 30
0.0
 10
-10.17160820208295
 20
9.415544684252236
 30
0.0
 10
-10.17667630456759
 20
9.41695390136917
 30
0.0
 10
-10.18150153545011
 20
9.418877337526384
 30
0.0
 10
-10.18601608462408
 20
9.421467521530406
 30
0.0
 10
-10.19026335230122
 20
9.424672448802855
 30
0.0
 10
-10.19419294309987
 20
9.42856981722269
 30
0.0
 10
-10.19650567472633
 20
9.431534664349172
 30
0.0
 10
-10.19769230769231
 20
9.433055889423075
 30
0.0
  0
SPLINE
  5
83
330
1F
100
AcDbEntity
  8
0
  6
Continuous
 62
     7
370
    15
100
AcDbSpline
210
0.0
220
0.0
230
1.0
 70
     8
 71
     3
 72
    15
 73
    11
 74
     0
 42
0.000000001
 43
0.00000001
 40
0.0
 40
0.0
 40
0.0
 40
0.0
 40
0.1209179157970359
 40
0.2381815274225982
 40
0.3547627846678807
 40
0.4703738620175533
 40
0.5891652781701018
 40
0.7158667261471447
 40
0.8524369422159528
 40
1.0
 40
1.0
 40
1.0
 40
1.0
 10
-10.6663421474359
 20
9.414551282051281
 30
0.0
 10
-10.66802267376468
 20
9.414598979680806
 30
0.0
 10
-10.67133293862681
 20
9.414692933452505
 30
0.0
 10
-10.67621418489124
 20
9.415453023026485
 30
0.0
 10
-10.68092946245544
 20
9.416637706385304
 30
0.0
 10
-10.68550292619631
 20
9.418359866930142
 30
0.0
 10
-10.68996249208566
 20
9.420690426060892
 30
0.0
 10
-10.69428132063109
 20
9.423799672599483
 30
0.0
 10
-10.69853334712653
 20
9.427626190800927
 30
0.0
 10
-10.701144113039
 20
9.430590111229042
 30
0.0
 10
-10.7025
 20
9.432129407051281
 30
0.0
  0
LINE
  5
84
330
1F
100
AcDbEntity
  8
0
  6
Continuous
 62
     7
370
    15
100
AcDbLine
 10
-10.7025
 20
9.4321294071
 30
0.0
 11
-10.7025
 21
9.4161538462
 31
0.0
  0
LINE
  5
85
330
1F
100
AcDbEntity
  8
0
  6
Continuous
 62
     7
370
    15
100
AcDbLine
 10
-10.7025
 20
9.4161538462
 30
0.0
 11
-10.7137179487
 21
9.4161538462
 31
0.0
  0
LINE
  5
86
330
1F
100
AcDbEntity
  8
0
  6
Continuous
 62
     7
370
    15
100
AcDbLine
 10
-10.7137179487
 20
9.4161538462
 30
0.0
 11
-10.7137179487
 21
9.4886448317
 31
0.0
  0
SPLINE
  5
87
330
1F
100
AcDbEntity
  8
0
  6
Continuous
 62
     7
370
    15
100
AcDbSpline
210
0.0
220
0.0
230
1.0
 70
     8
 71
     3
 72
    15
 73
    11
 74
     0
 42
0.000000001
 43
0.00000001
 40
0.0
 40
0.0
 40
0.0
 40
0.0
 40
0.1634452548497368
 40
0.3154887127129139
 40
0.456290823936681
 40
0.5858641495747707
 40
0.7054286858067713
 40
0.813370712982457
 40
0.911718238160121
 40
1.0
 40
1.0
 40
1.0
 40
1.0
 10
-10.71371794871795
 20
9.488644831730769
 30
0.0
 10
-10.71370805434042
 20
9.490189031538154
 30
0.0
 10
-10.71368895580841
 20
9.49316970913477
 30
0.0
 10
-10.71355142112075
 20
9.497479647692375
 30
0.0
 10
-10.71326139693431
 20
9.501460579318515
 30
0.0
 10
-10.71293251545739
 20
9.505130659982415
 30
0.0
 10
-10.71245941844598
 20
9.50847287819884
 30
0.0
 10
-10.71188169104461
 20
9.511497206937204
 30
0.0
 10
-10.71123041678917
 20
9.514206548450325
 30
0.0
 10
-10.71065826616581
 20
9.515875292772742
 30
0.0
 10
-10.71038762019231
 20
9.516664663461537
 30
0.0
  0
SPLINE
  5
88
330
1F
100
AcDbEntity
  8
0
  6
Continuous
 62
     7
370
    15
100
AcDbSpline
210
0.0
220
0.0
230
1.0
 70
     8
 71
     3
 72
    23
 73
    19
 74
     0
 42
0.000000001
 43
0.00000001
 40
0.0
 40
0.0
 40
0.0
 40
0.0
 40
0.0613737922932725
 40
0.1209125477381013
 40
0.1794326872278925
 40
0.2376186353713698
 40
0.2956423677156265
 40
0.3542642412267834
 40
0.4132986386654756
 40
0.4734618961290964
 40
0.5351315353424023
 40
0.5970011221486751
 40
0.6598764172509977
 40
0.7242636319184634
 40
0.7900012910780922
 40
0.8577405312490024
 40
0.9278254031351024
 40
1.0
 40
1.0
 40
1.0
 40
1.0
 10
-10.71038762019231
 20
9.516664663461539
 30
0.0
 10
-10.70998804128907
 20
9.517690765403623
 30
0.0
 10
-10.70920083063436
 20
9.519712289500811
 30
0.0
 10
-10.7077258159216
 20
9.52257732271183
 30
0.0
 10
-10.70607656132317
 20
9.525277180628787
 30
0.0
 10
-10.70418671794423
 20
9.527781775605877
 30
0.0
 10
-10.70210182558283
 20
9.530127667535918
 30
0.0
 10
-10.69979597572894
 20
9.532281017261974
 30
0.0
 10
-10.69727479389262
 20
9.534239124980529
 30
0.0
 10
-10.69456086539125
 20
9.536020553550173
 30
0.0
 10
-10.69167350081709
 20
9.53761248058938
 30
0.0
 10
-10.68862851000777
 20
9.539000039976806
 30
0.0
 10
-10.68543352646928
 20
9.540147517119328
 30
0.0
 10
-10.68210267822278
 20
9.54109367286217
 30
0.0
 10
-10.67863449652554
 20
9.54185644938656
 30
0.0
 10
-10.67501789751069
 20
9.542365515563542
 30
0.0
 10
-10.67126497534354
 20
9.542708261787993
 30
0.0
 10
-10.66871339906296
 20
9.542740204359795
 30
0.0
 10
-10.66741887019231
 20
9.542756410256409
 30
0.0
  0
SPLINE
  5
89
330
1F
100
AcDbEntity
  8
0
  6
Continuous
 62
     7
370
    15
100
AcDbSpline
210
0.0
220
0.0
230
1.0
 70
     8
 71
     3
 72
    19
 73
    15
 74
     0
 42
0.000000001
 43
0.00000001
 40
0.0
 40
0.0
 40
0.0
 40
0.0
 40
0.0964909490234896
 40
0.1884222618082748
 40
0.2768735276833662
 40
0.3617621718593512
 40
0.4430619642498458
 40
0.520167881823039
 40
0.5927116674703865
 40
0.6629189928267902
 40
0.7354201019635864
 40
0.8148818808000055
 40
0.9030610326898985
 40
1.0
 40
1.0
 40
1.0
 40
1.0
 10
-10.66741887019231
 20
9.542756410256409
 30
0.0
 10
-10.66553063937555
 20
9.542722052616616
 30
0.0
 10
-10.66184340523689
 20
9.542654960891793
 30
0.0
 10
-10.6564568597465
 20
9.542011471031671
 30
0.0
 10
-10.65136446598373
 20
9.540979962724913
 30
0.0
 10
-10.64660047815572
 20
9.53949498793067
 30
0.0
 10
-10.64220114852096
 20
9.53766648185594
 30
0.0
 10
-10.63818075044582
 20
9.535588447862718
 30
0.0
 10
-10.6346063726941
 20
9.533180520411346
 30
0.0
 10
-10.63138711774479
 20
9.530449425199222
 30
0.0
 10
-10.62848221488298
 20
9.527200424341032
 30
0.0
 10
-10.62574905090053
 20
9.523371984165898
 30
0.0
 10
-10.62311831717802
 20
9.518905282066104
 30
0.0
 10
-10.6215765780102
 20
9.515626974946763
 30
0.0
 10
-10.62076923076923
 20
9.513910256410256
 30
0.0
  0
LINE
  5
8A
330
1F
100
AcDbEntity
  8
0
  6
Continuous
 62
     7
370
    15
100
AcDbLine
 10
-10.6207692308
 20
9.5139102564
 30
0.0
 11
-10.6319871795
 21
9.5139102564
 31
0.0
  0
SPLINE
  5
8B
330
1F
100
AcDbEntity
  8
0
  6
Continuous
 62
     7
370
    15
100
AcDbSpline
210
0.0
220
0.0
230
1.0
 70
     8
 71
     3
 72
    15
 73
    11
 74
     0
 42
0.000000001
 43
0.00000001
 40
0.0
 40
0.0
 40
0.0
 40
0.0
 40
0.1247358891350183
 40
0.2438433032822478
 40
0.3597202588892598
 40
0.4747886231506122
 40
0.5934618615699015
 40
0.7193065090403257
 40
0.8538320351525207
 40
1.0
 40
1.0
 40
1.0
 40
1.0
 10
-10.63198717948718
 20
9.513910256410258
 30
0.0
 10
-10.63288981028156
 20
9.515342149904557
 30
0.0
 10
-10.63465434233463
 20
9.518141325362553
 30
0.0
 10
-10.63794312546969
 20
9.521769237740424
 30
0.0
 10
-10.64157383547749
 20
9.524841232209601
 30
0.0
 10
-10.64562350835315
 20
9.527333803291782
 30
0.0
 10
-10.65012038836084
 20
9.529252671827864
 30
0.0
 10
-10.65509356865601
 20
9.5305854966258
 30
0.0
 10
-10.66055665932527
 20
9.531391847943691
 30
0.0
 10
-10.66436105260695
 20
9.531488257402028
 30
0.0
 10
-10.6663421474359
 20
9.53153846153846
 30
0.0
  0
SPLINE
  5
8C
330
1F
100
AcDbEntity
  8
0
  6
Continuous
 62
     7
370
    15
100
AcDbSpline
210
0.0
220
0.0
230
1.0
 70
     8
 71
     3
 72
    23
 73
    19
 74
     0
 42
0.000000001
 43
0.00000001
 40
0.0
 40
0.0
 40
0.0
 40
0.0
 40
0.0981757678428211
 40
0.1892730534293327
 40
0.2748796632563305
 40
0.3556078771492098
 40
0.4311479323664386
 40
0.5010596743009459
 40
0.5665842393345701
 40
0.6297003494483339
 40
0.6626916832526493
 40
0.6987481914508218
 40
0.7385949814619137
 40
0.7821563398101243
 40
0.8304010652845213
 40
0.8825725195104723
 40
0.9392259139562019
 40
1.0
 40
1.0
 40
1.0
 40
1.0
 10
-10.6663421474359
 20
9.53153846153846
 30
0.0
 10
-10.66829824494543
 20
9.53148783077162
 30
0.0
 10
-10.67206940514686
 20
9.531390219721073
 30
0.0
 10
-10.67749809368251
 20
9.530581561227322
 30
0.0
 10
-10.68246493054564
 20
9.529255967905977
 30
0.0
 10
-10.68690639269188
 20
9.52734471833439
 30
0.0
 10
-10.69078012742572
 20
9.525030372076209
 30
0.0
 10
-10.69415044176604
 20
9.522495493676997
 30
0.0
 10
-10.69686063690922
 20
9.519592582514075
 30
0.0
 10
-10.6986910442879
 20
9.51692349636213
 30
0.0
 10
-10.69982768345437
 20
9.514543807956628
 30
0.0
 10
-10.70055219768873
 20
9.51249564056218
 30
0.0
 10
-10.70113650499669
 20
9.510187021795808
 30
0.0
 10
-10.70163809195001
 20
9.507612455309607
 30
0.0
 10
-10.7020355423595
 20
9.504770949063438
 30
0.0
 10
-10.70229630994961
 20
9.501652813904714
 30
0.0
 10
-10.70248138986414
 20
9.498279139776933
 30
0.0
 10
-10.7024936531759
 20
9.49594011796031
 30
0.0
 10
-10.7025
 20
9.49472956730769
 30
0.0
  0
LINE
  5
8D
330
1F
100
AcDbEntity
  8
0
  6
Continuous
 62
     7
370
    15
100
AcDbLine
 10
-10.7025
 20
9.4947295673
 30
0.0
 11
-10.7025
 21
9.4899969952
 31
0.0
  0
SPLINE
  5
8E
330
1F
100
AcDbEntity
  8
0
  6
Continuous
 62
     7
370
    15
100
AcDbSpline
210
0.0
220
0.0
230
1.0
 70
     8
 71
     3
 72
    15
 73
    11
 74
     0
 42
0.000000001
 43
0.00000001
 40
0.0
 40
0.0
 40
0.0
 40
0.0
 40
0.126583814380625
 40
0.2509410582742098
 40
0.3744426922751274
 40
0.4995726865995682
 40
0.6247326359516876
 40
0.7489936664398212
 40
0.8731569712690141
 40
1.0
 40
1.0
 40
1.0
 40
1.0
 10
-10.7025
 20
9.489996995192307
 30
0.0
 10
-10.70136100521376
 20
9.491351509590364
 30
0.0
 10
-10.69910305021039
 20
9.494036712893488
 30
0.0
 10
-10.69521413088158
 20
9.49756157962861
 30
0.0
 10
-10.69093964242485
 20
9.500560684460408
 30
0.0
 10
-10.68634000614155
 20
9.503055339160078
 30
0.0
 10
-10.6814837720792
 20
9.5050318262458
 30
0.0
 10
-10.67645679896999
 20
9.506463963616401
 30
0.0
 10
-10.67127319946695
 20
9.507352278497219
 30
0.0
 10
-10.66776460998985
 20
9.507450410283326
 30
0.0
 10
-10.66599158653846
 20
9.507499999999999
 30
0.0
  0
SPLINE
  5
8F
330
1F
100
AcDbEntity
  8
0
  6
Continuous
 62
     7
370
    15
100
AcDbSpline
210
0.0
220
0.0
230
1.0
 70
     8
 71
     3
 72
    31
 73
    27
 74
     0
 42
0.000000001
 43
0.00000001
 40
0.0
 40
0.0
 40
0.0
 40
0.0
 40
0.0428646750620492
 40
0.0851901850503494
 40
0.1272246606253641
 40
0.1690476071617704
 40
0.2109042456583977
 40
0.2528659971727396
 40
0.2956703380493235
 40
0.338595262492733
 40
0.3815051325216297
 40
0.4236233644407742
 40
0.4651078864274514
 40
0.506353859075645
 40
0.5470810659134183
 40
0.5877173137411719
 40
0.6287161868313961
 40
0.6698066456510329
 40
0.7110568902060967
 40
0.7520170641469
 40
0.7925737365282483
 40
0.8334463441533667
 40
0.8741908534942884
 40
0.9154937485717882
 40
0.957477890137224
 40
1.0
 40
1.0
 40
1.0
 40
1.0
 10
-10.66599158653846
 20
9.507499999999999
 30
0.0
 10
-10.66494783057582
 20
9.50747796907462
 30
0.0
 10
-10.66287344733425
 20
9.507434184335628
 30
0.0
 10
-10.65978295522832
 20
9.507167838981946
 30
0.0
 10
-10.65675202466321
 20
9.506649174661288
 30
0.0
 10
-10.65376134835967
 20
9.505985022584873
 30
0.0
 10
-10.65083181988163
 20
9.505094745325435
 30
0.0
 10
-10.64792833828801
 20
9.504049844423841
 30
0.0
 10
-10.64509306849132
 20
9.50276642999072
 30
0.0
 10
-10.64231154581981
 20
9.50132148057514
 30
0.0
 10
-10.63964920406148
 20
9.499697982752572
 30
0.0
 10
-10.63711443871778
 20
9.497943909710184
 30
0.0
 10
-10.63472274939921
 20
9.496063055433611
 30
0.0
 10
-10.63249662490696
 20
9.49403810202864
 30
0.0
 10
-10.63043792449944
 20
9.4918723474288
 30
0.0
 10
-10.62852345364318
 20
9.4895862277496
 30
0.0
 10
-10.6267705310821
 20
9.487161733027119
 30
0.0
 10
-10.62520187210614
 20
9.48459792666397
 30
0.0
 10
-10.62376874692177
 20
9.481957315297851
 30
0.0
 10
-10.62254173179108
 20
9.479227251057333
 30
0.0
 10
-10.62152315145148
 20
9.476425005235473
 30
0.0
 10
-10.6206254689737
 20
9.473585610236752
 30
0.0
 10
-10.61998979888786
 20
9.470657288578371
 30
0.0
 10
-10.61950372840228
 20
9.467674746950197
 30
0.0
 10
-10.61923101147346
 20
9.464619789417036
 30
0.0
 10
-10.61918820576956
 20
9.462561924811682
 30
0.0
 10
-10.61916666666667
 20
9.461526442307692
 30
0.0
  0
SPLINE
  5
90
330
1F
100
AcDbEntity
  8
0
  6
Continuous
 62
     7
370
    15
100
AcDbSpline
210
0.0
220
0.0
230
1.0
 70
     8
 71
     3
 72
    31
 73
    27
 74
     0
 42
0.000000001
 43
0.00000001
 40
0.0
 40
0.0
 40
0.0
 40
0.0
 40
0.0420381014212667
 40
0.0839133831752912
 40
0.1250807848036053
 40
0.1661742133157216
 40
0.2072299061657708
 40
0.2486350747185396
 40
0.2900263763736546
 40
0.3323217854801293
 40
0.3746321219793844
 40
0.4163852160370358
 40
0.4575581951483422
 40
0.4990257073559299
 40
0.5405098287146215
 40
0.5822092670284742
 40
0.6245141759943346
 40
0.6674012899836054
 40
0.7102950961963864
 40
0.7524436646839654
 40
0.7940452443585783
 40
0.8352000938865083
 40
0.876216616787613
 40
0.917438366684047
 40
0.9586392218846019
 40
1.0
 40
1.0
 40
1.0
 40
1.0
 10
-10.61916666666667
 20
9.461526442307692
 30
0.0
 10
-10.61918519534378
 20
9.460490612490583
 30
0.0
 10
-10.61922218093376
 20
9.458422964775563
 30
0.0
 10
-10.61954205135784
 20
9.455355917487626
 30
0.0
 10
-10.61999733920918
 20
9.452329591419753
 30
0.0
 10
-10.62072171670204
 20
9.449376821826062
 30
0.0
 10
-10.62158124021372
 20
9.446454981172492
 30
0.0
 10
-10.62269600683771
 20
9.443611638811376
 30
0.0
 10
-10.62398036016711
 20
9.440809165865444
 30
0.0
 10
-10.62544831474572
 20
9.438072138205651
 30
0.0
 10
-10.62709153279338
 20
9.435425736754715
 30
0.0
 10
-10.62890027298368
 20
9.4329241625968
 30
0.0
 10
-10.63083672359675
 20
9.430546607903171
 30
0.0
 10
-10.63293985508588
 20
9.428323567066949
 30
0.0
 10
-10.635197235483
 20
9.426238377597134
 30
0.0
 10
-10.63761542667418
 20
9.42430933722059
 30
0.0
 10
-10.6401675323964
 20
9.422501578056059
 30
0.0
 10
-10.64286229381105
 20
9.420854776065559
 30
0.0
 10
-10.64565790458165
 20
9.419398258816416
 30
0.0
 10
-10.64848340076705
 20
9.41806923971671
 30
0.0
 10
-10.65137619416822
 20
9.41701444915112
 30
0.0
 10
-10.65428235647694
 20
9.416085052910628
 30
0.0
 10
-10.65725306766882
 20
9.415426653040424
 30
0.0
 10
-10.66025190316867
 20
9.414918715840065
 30
0.0
 10
-10.66328912951355
 20
9.414609261514835
 30
0.0
 10
-10.66532316148001
 20
9.414570633480128
 30
0.0
 10
-10.6663421474359
 20
9.414551282051281
 30
0.0
  0
CIRCLE
  5
91
330
1F
100
AcDbEntity
  8
0
  6
Continuous
 62
     7
370
    15
100
AcDbCircle
 10
-8.4
 20
2.1838333333
 30
0.0
 40
0.1004999999999994
  0
CIRCLE
  5
92
330
1F
100
AcDbEntity
  8
0
  6
Continuous
 62
     7
370
    15
100
AcDbCircle
 10
-8.4
 20
-2.1548333333
 30
0.0
 40
0.1004999999999998
  0
CIRCLE
  5
93
330
1F
100
AcDbEntity
  8
0
  6
Continuous
 62
     7
370
    15
100
AcDbCircle
 10
8.4
 20
-2.1548333333
 30
0.0
 40
0.1004999999999998
  0
CIRCLE
  5
94
330
1F
100
AcDbEntity
  8
0
  6
Continuous
 62
     7
370
    15
100
AcDbCircle
 10
8.4
 20
2.1838333333
 30
0.0
 40
0.1004999999999994
  0
CIRCLE
  5
95
330
1F
100
AcDbEntity
  8
0
  6
Continuous
 62
     7
370
    15
100
AcDbCircle
 10
-11.004
 20
2.1838333333
 30
0.0
 40
0.1139999999999999
  0
CIRCLE
  5
96
330
1F
100
AcDbEntity
  8
0
  6
Continuous
 62
     7
370
    15
100
AcDbCircle
 10
11.004
 20
2.1838333333
 30
0.0
 40
0.1139999999999999
  0
CIRCLE
  5
97
330
1F
100
AcDbEntity
  8
0
  6
Continuous
 62
     7
370
    15
100
AcDbCircle
 10
11.004
 20
6.5225
 30
0.0
 40
0.1139999999999999
  0
CIRCLE
  5
98
330
1F
100
AcDbEntity
  8
0
  6
Continuous
 62
     7
370
    15
100
AcDbCircle
 10
-11.004
 20
6.5225
 30
0.0
 40
0.1139999999999999
  0
CIRCLE
  5
99
330
1F
100
AcDbEntity
  8
0
  6
Continuous
 62
     7
370
    15
100
AcDbCircle
 10
-2.8
 20
9.3935
 30
0.0
 40
0.113999999999999
  0
CIRCLE
  5
9A
330
1F
100
AcDbEntity
  8
0
  6
Continuous
 62
     7
370
    15
100
AcDbCircle
 10
-2.8
 20
-9.3645
 30
0.0
 40
0.113999999999999
  0
CIRCLE
  5
9B
330
1F
100
AcDbEntity
  8
0
  6
Continuous
 62
     7
370
    15
100
AcDbCircle
 10
-8.4
 20
-9.3645
 30
0.0
 40
0.113999999999999
  0
CIRCLE
  5
9C
330
1F
100
AcDbEntity
  8
0
  6
Continuous
 62
     7
370
    15
100
AcDbCircle
 10
-8.4
 20
9.3935
 30
0.0
 40
0.113999999999999
  0
LINE
  5
9D
330
1F
100
AcDbEntity
  8
0
  6
Continuous
 62
     7
370
    15
100
AcDbLine
 10
11.5
 20
-9.8895
 30
0.0
 11
11.5
 21
9.8895
 31
0.0
  0
LINE
  5
9E
330
1F
100
AcDbEntity
  8
0
  6
Continuous
 62
     7
370
    15
100
AcDbLine
 10
11.5
 20
9.8895
 30
0.0
 11
-11.5
 21
9.8895
 31
0.0
  0
LINE
  5
9F
330
1F
100
AcDbEntity
  8
0
  6
Continuous
 62
     7
370
    15
100
AcDbLine
 10
-11.5
 20
9.8895
 30
0.0
 11
-11.5
 21
-9.8895
 31
0.0
  0
LINE
  5
A0
330
1F
100
AcDbEntity
  8
0
  6
Continuous
 62
     7
370
    15
100
AcDbLine
 10
-11.5
 20
-9.8895
 30
0.0
 11
11.5
 21
-9.8895
 31
0.0
  0
CIRCLE
  5
A1
330
1F
100
AcDbEntity
  8
0
  6
Continuous
 62
     7
370
    15
100
AcDbCircle
 10
2.8
 20
-9.3645
 30
0.0
 40
0.113999999999999
  0
CIRCLE
  5
A2
330
1F
100
AcDbEntity
  8
0
  6
Continuous
 62
     7
370
    15
100
AcDbCircle
 10
8.4
 20
-9.3645
 30
0.0
 40
0.113999999999999
  0
CIRCLE
  5
A3
330
1F
100
AcDbEntity
  8
0
  6
Continuous
 62
     7
370
    15
100
AcDbCircle
 10
2.8
 20
9.3935
 30
0.0
 40
0.113999999999999
  0
CIRCLE
  5
A4
330
1F
100
AcDbEntity
  8
0
  6
Continuous
 62
     7
370
    15
100
AcDbCircle
 10
8.4
 20
9.3935
 30
0.0
 40
0.113999999999999
  0
CIRCLE
  5
A5
330
1F
100
AcDbEntity
  8
0
  6
Continuous
 62
     7
370
    15
100
AcDbCircle
 10
11.004
 20
-2.1548333333
 30
0.0
 40
0.1139999999999999
  0
CIRCLE
  5
A6
330
1F
100
AcDbEntity
  8
0
  6
Continuous
 62
     7
370
    15
100
AcDbCircle
 10
11.004
 20
-6.4935
 30
0.0
 40
0.1139999999999999
  0
CIRCLE
  5
A7
330
1F
100
AcDbEntity
  8
0
  6
Continuous
 62
     7
370
    15
100
AcDbCircle
 10
-11.004
 20
-2.1548333333
 30
0.0
 40
0.1139999999999999
  0
CIRCLE
  5
A8
330
1F
100
AcDbEntity
  8
0
  6
Continuous
 62
     7
370
    15
100
AcDbCircle
 10
-11.004
 20
-6.4935
 30
0.0
 40
0.1139999999999999
  0
LINE
  5
A9
330
1F
100
AcDbEntity
  8
0
  6
Continuous
 62
     7
370
    15
100
AcDbLine
 10
-10.8403205128
 20
9.4161538462
 30
0.0
 11
-10.8563461538
 21
9.4161538462
 31
0.0
  0
LINE
  5
AA
330
1F
100
AcDbEntity
  8
0
  6
Continuous
 62
     7
370
    15
100
AcDbLine
 10
-10.8563461538
 20
9.4161538462
 30
0.0
 11
-10.8563461538
 21
9.3792948718
 31
0.0
  0
LINE
  5
AB
330
1F
100
AcDbEntity
  8
0
  6
Continuous
 62
     7
370
    15
100
AcDbLine
 10
-10.8563461538
 20
9.3792948718
 30
0.0
 11
-10.8675641026
 21
9.3792948718
 31
0.0
  0
LINE
  5
AC
330
1F
100
AcDbEntity
  8
0
  6
Continuous
 62
     7
370
    15
100
AcDbLine
 10
-10.8675641026
 20
9.3792948718
 30
0.0
 11
-10.8675641026
 21
9.4161538462
 31
0.0
  0
LINE
  5
AD
330
1F
100
AcDbEntity
  8
0
  6
Continuous
 62
     7
370
    15
100
AcDbLine
 10
-10.8675641026
 20
9.4161538462
 30
0.0
 11
-10.8835897436
 21
9.4161538462
 31
0.0
  0
LINE
  5
AE
330
1F
100
AcDbEntity
  8
0
  6
Continuous
 62
     7
370
    15
100
AcDbLine
 10
-10.8835897436
 20
9.4161538462
 30
0.0
 11
-10.8835897436
 21
9.4273717949
 31
0.0
  0
LINE
  5
AF
330
1F
100
AcDbEntity
  8
0
  6
Continuous
 62
     7
370
    15
100
AcDbLine
 10
-10.8835897436
 20
9.4273717949
 30
0.0
 11
-10.8675641026
 21
9.4273717949
 31
0.0
  0
LINE
  5
B0
330
1F
100
AcDbEntity
  8
0
  6
Continuous
 62
     7
370
    15
100
AcDbLine
 10
-10.8675641026
 20
9.4273717949
 30
0.0
 11
-10.8675641026
 21
9.5075
 31
0.0
  0
LINE
  5
B1
330
1F
100
AcDbEntity
  8
0
  6
Continuous
 62
     7
370
    15
100
AcDbLine
 10
-10.8675641026
 20
9.5075
 30
0.0
 11
-10.8563461538
 21
9.5075
 31
0.0
  0
LINE
  5
B2
330
1F
100
AcDbEntity
  8
0
  6
Continuous
 62
     7
370
    15
100
AcDbLine
 10
-10.8563461538
 20
9.5075
 30
0.0
 11
-10.8563461538
 21
9.4273717949
 31
0.0
  0
LINE
  5
B3
330
1F
100
AcDbEntity
  8
0
  6
Continuous
 62
     7
370
    15
100
AcDbLine
 10
-10.8563461538
 20
9.4273717949
 30
0.0
 11
-10.8403205128
 21
9.4273717949
 31
0.0
  0
LINE
  5
B4
330
1F
100
AcDbEntity
  8
0
  6
Continuous
 62
     7
370
    15
100
AcDbLine
 10
-10.8403205128
 20
9.4273717949
 30
0.0
 11
-10.8403205128
 21
9.4161538462
 31
0.0
  0
LINE
  5
B5
330
1F
100
AcDbEntity
  8
0
  6
Continuous
 62
     7
370
    15
100
AcDbLine
 10
-10.7505769231
 20
9.5075
 30
0.0
 11
-10.7393589744
 21
9.5075
 31
0.0
  0
LINE
  5
B6
330
1F
100
AcDbEntity
  8
0
  6
Continuous
 62
     7
370
    15
100
AcDbLine
 10
-10.7393589744
 20
9.5075
 30
0.0
 11
-10.7393589744
 21
9.3792948718
 31
0.0
  0
LINE
  5
B7
330
1F
100
AcDbEntity
  8
0
  6
Continuous
 62
     7
370
    15
100
AcDbLine
 10
-10.7393589744
 20
9.3792948718
 30
0.0
 11
-10.7505769231
 21
9.3792948718
 31
0.0
  0
LINE
  5
B8
330
1F
100
AcDbEntity
  8
0
  6
Continuous
 62
     7
370
    15
100
AcDbLine
 10
-10.7505769231
 20
9.3792948718
 30
0.0
 11
-10.7505769231
 21
9.4334064503
 31
0.0
  0
SPLINE
  5
B9
330
1F
100
AcDbEntity
  8
0
  6
Continuous
 62
     7
370
    15
100
AcDbSpline
210
0.0
220
0.0
230
1.0
 70
     8
 71
     3
 72
    15
 73
    11
 74
     0
 42
0.000000001
 43
0.00000001
 40
0.0
 40
0.0
 40
0.0
 40
0.0
 40
0.1406957450163189
 40
0.2735071488112464
 40
0.4006465955511104
 40
0.52281461591334
 40
0.6417702299384398
 40
0.7594166393349671
 40
0.878428508973851
 40
1.0
 40
1.0
 40
1.0
 40
1.0
 10
-10.75057692307692
 20
9.433406450320513
 30
0.0
 10
-10.75178302980556
 20
9.431903400984437
 30
0.0
 10
-10.75412765517053
 20
9.42898153054418
 30
0.0
 10
-10.75804715059342
 20
9.42512799069092
 30
0.0
 10
-10.76213129350884
 20
9.421845691149052
 30
0.0
 10
-10.76641474338916
 20
9.419165378880143
 30
0.0
 10
-10.77087929542748
 20
9.417086107595097
 30
0.0
 10
-10.77553592015987
 20
9.415631437488324
 30
0.0
 10
-10.78037274581749
 20
9.414724337516915
 30
0.0
 10
-10.78366758512375
 20
9.414609374910977
 30
0.0
 10
-10.78533253205128
 20
9.414551282051283
 30
0.0
  0
SPLINE
  5
BA
330
1F
100
AcDbEntity
  8
0
  6
Continuous
 62
     7
370
    15
100
AcDbSpline
210
0.0
220
0.0
230
1.0
 70
     8
 71
     3
 72
    23
 73
    19
 74
     0
 42
0.000000001
 43
0.00000001
 40
0.0
 40
0.0
 40
0.0
 40
0.0
 40
0.0772305928389181
 40
0.1512346712091986
 40
0.2234053275399631
 40
0.2957864604553146
 40
0.3672109791610309
 40
0.4370870521912886
 40
0.506683402709342
 40
0.5778526981287656
 40
0.6159016660015093
 40
0.6580389945698758
 40
0.703768162784435
 40
0.7540736481278025
 40
0.8089743762284063
 40
0.8679097044319222
 40
0.9317000124212981
 40
1.0
 40
1.0
 40
1.0
 40
1.0
 10
-10.78533253205128
 20
9.414551282051283
 30
0.0
 10
-10.78702371851834
 20
9.414610089547361
 30
0.0
 10
-10.7903354376169
 20
9.414725247699163
 30
0.0
 10
-10.79513993064363
 20
9.415739936911539
 30
0.0
 10
-10.7996585816441
 20
9.417345700123619
 30
0.0
 10
-10.80383103036824
 20
9.419602481809045
 30
0.0
 10
-10.80759284881711
 20
9.422404561848802
 30
0.0
 10
-10.81085561791031
 20
9.42569091907914
 30
0.0
 10
-10.81359271976683
 20
9.429418269106705
 30
0.0
 10
-10.81542404371875
 20
9.432892594477886
 30
0.0
 10
-10.81662429688
 20
9.435982274598398
 30
0.0
 10
-10.81738300817847
 20
9.438633811032968
 30
0.0
 10
-10.81802663727088
 20
9.441588094078517
 30
0.0
 10
-10.81858731562964
 20
9.444843999171857
 30
0.0
 10
-10.81896102304427
 20
9.448417034363256
 30
0.0
 10
-10.8192611855548
 20
9.452291116868546
 30
0.0
 10
-10.81947463106065
 20
9.45646601335811
 30
0.0
 10
-10.81948290254639
 20
9.459356022349125
 30
0.0
 10
-10.81948717948718
 20
9.460850360576924
 30
0.0
  0
LINE
  5
BB
330
1F
100
AcDbEntity
  8
0
  6
Continuous
 62
     7
370
    15
100
AcDbLine
 10
-10.8194871795
 20
9.4608503606
 30
0.0
 11
-10.8194871795
 21
9.5075
 31
0.0
  0
LINE
  5
BC
330
1F
100
AcDbEntity
  8
0
  6
Continuous
 62
     7
370
    15
100
AcDbLine
 10
-10.8194871795
 20
9.5075
 30
0.0
 11
-10.8082692308
 21
9.5075
 31
0.0
  0
LINE
  5
BD
330
1F
100
AcDbEntity
  8
0
  6
Continuous
 62
     7
370
    15
100
AcDbLine
 10
-10.8082692308
 20
9.5075
 30
0.0
 11
-10.8082692308
 21
9.46453125
 31
0.0
  0
SPLINE
  5
BE
330
1F
100
AcDbEntity
  8
0
  6
Continuous
 62
     7
370
    15
100
AcDbSpline
210
0.0
220
0.0
230
1.0
 70
     8
 71
     3
 72
    15
 73
    11
 74
     0
 42
0.000000001
 43
0.00000001
 40
0.0
 40
0.0
 40
0.0
 40
0.0
 40
0.1788668053551533
 40
0.3421417575964418
 40
0.4898716358888256
 40
0.6221142681194134
 40
0.7400552812994055
 40
0.8414677954479592
 40
0.9289009998233797
 40
1.0
 40
1.0
 40
1.0
 40
1.0
 10
-10.80826923076923
 20
9.46453125
 30
0.0
 10
-10.80826246139958
 20
9.463287581632532
 30
0.0
 10
-10.8082495127475
 20
9.460908655703449
 30
0.0
 10
-10.80820618353123
 20
9.457502744005035
 30
0.0
 10
-10.80811165895707
 20
9.454421859842295
 30
0.0
 10
-10.80795326468486
 20
9.451659607790491
 30
0.0
 10
-10.80779388301106
 20
9.449219731299682
 30
0.0
 10
-10.80756792137076
 20
9.447098245080713
 30
0.0
 10
-10.80730698246339
 20
9.445308457893507
 30
0.0
 10
-10.80707236802518
 20
9.444231150746262
 30
0.0
 10
-10.8069671474359
 20
9.44374799679487
 30
0.0
  0
SPLINE
  5
BF
330
1F
100
AcDbEntity
  8
0
  6
Continuous
 62
     7
370
    15
100
AcDbSpline
210
0.0
220
0.0
230
1.0
 70
     8
 71
     3
 72
    15
 73
    11
 74
     0
 42
0.000000001
 43
0.00000001
 40
0.0
 40
0.0
 40
0.0
 40
0.0
 40
0.1362714842085661
 40
0.2612890122483485
 40
0.3796088954808077
 40
0.4943621165289716
 40
0.6098612361871469
 40
0.7306156114887282
 40
0.8591979912796356
 40
1.0
 40
1.0
 40
1.0
 40
1.0
 10
-10.8069671474359
 20
9.44374799679487
 30
0.0
 10
-10.80656103290379
 20
9.442329303814756
 30
0.0
 10
-10.80578234273562
 20
9.43960908036073
 30
0.0
 10
-10.8039362641587
 20
9.435920637906996
 30
0.0
 10
-10.80168417995311
 20
9.432747332022647
 30
0.0
 10
-10.7988927457123
 20
9.430179294181912
 30
0.0
 10
-10.79565469392721
 20
9.428155837820102
 30
0.0
 10
-10.79193928356113
 20
9.426777255906162
 30
0.0
 10
-10.78779399082383
 20
9.4258981191855
 30
0.0
 10
-10.78487832769963
 20
9.425813473455078
 30
0.0
 10
-10.78335436698718
 20
9.42576923076923
 30
0.0
  0
SPLINE
  5
C0
330
1F
100
AcDbEntity
  8
0
  6
Continuous
 62
     7
370
    15
100
AcDbSpline
210
0.0
220
0.0
230
1.0
 70
     8
 71
     3
 72
    23
 73
    19
 74
     0
 42
0.000000001
 43
0.00000001
 40
0.0
 40
0.0
 40
0.0
 40
0.0
 40
0.0640231125812861
 40
0.1267000856050326
 40
0.1890936604551143
 40
0.2505493161475996
 40
0.3124827904990544
 40
0.3742119383152326
 40
0.4378226151291723
 40
0.5026329546084553
 40
0.5677242572767907
 40
0.6305578111338223
 40
0.6927570349411415
 40
0.7542555039511709
 40
0.8151114939524862
 40
0.8760452846782841
 40
0.9379787590297629
 40
1.0
 40
1.0
 40
1.0
 40
1.0
 10
-10.78335436698718
 20
9.42576923076923
 30
0.0
 10
-10.78245186628393
 20
9.425785979952579
 30
0.0
 10
-10.7806658407105
 20
9.425819126153666
 30
0.0
 10
-10.77801884397076
 20
9.426160332175169
 30
0.0
 10
-10.77544316000065
 20
9.42669922105969
 30
0.0
 10
-10.77294570188667
 20
9.427495207945885
 30
0.0
 10
-10.77052137513574
 20
9.428462977493261
 30
0.0
 10
-10.76816032511878
 20
9.429650624330387
 30
0.0
 10
-10.76589486426214
 20
9.431086617174536
 30
0.0
 10
-10.76369575203919
 20
9.432702812873732
 30
0.0
 10
-10.76164859479792
 20
9.434490752534789
 30
0.0
 10
-10.75974408147942
 20
9.436378212632965
 30
0.0
 10
-10.75804627667939
 20
9.438388014774972
 30
0.0
 10
-10.75650811454427
 20
9.440488023666918
 30
0.0
 10
-10.75518031814492
 20
9.44270701503634
 30
0.0
 10
-10.75402127962813
 20
9.445023598172728
 30
0.0
 10
-10.75303786186536
 20
9.447440817569698
 30
0.0
 10
-10.75254919428945
 20
9.449118498355304
 30
0.0
 10
-10.7523046875
 20
9.449957932692309
 30
0.0
  0
SPLINE
  5
C1
330
1F
100
AcDbEntity
  8
0
  6
Continuous
 62
     7
370
    15
100
AcDbSpline
210
0.0
220
0.0
230
1.0
 70
     8
 71
     3
 72
    15
 73
    11
 74
     0
 42
0.000000001
 43
0.00000001
 40
0.0
 40
0.0
 40
0.0
 40
0.0
 40
0.0759990781976301
 40
0.1656113455724073
 40
0.2690450272477193
 40
0.3874479753729698
 40
0.5188266584719721
 40
0.6653935553138888
 40
0.8250827975618062
 40
1.0
 40
1.0
 40
1.0
 40
1.0
 10
-10.7523046875
 20
9.449957932692309
 30
0.0
 10
-10.75216399367011
 20
9.450565823796486
 30
0.0
 10
-10.75185740449781
 20
9.451890493333442
 30
0.0
 10
-10.7515247318805
 20
9.45407529061672
 30
0.0
 10
-10.75122695342995
 20
9.456614089616954
 30
0.0
 10
-10.75097521950978
 20
9.459503039627855
 30
0.0
 10
-10.75082082356744
 20
9.462752726851312
 30
0.0
 10
-10.75065445782557
 20
9.466340975390192
 30
0.0
 10
-10.75059252875473
 20
9.470290261847616
 30
0.0
 10
-10.75058228043672
 20
9.473036529970438
 30
0.0
 10
-10.75057692307693
 20
9.47447215544872
 30
0.0
  0
LINE
  5
C2
330
1F
100
AcDbEntity
  8
0
  6
Continuous
 62
     7
370
    15
100
AcDbLine
 10
-10.7505769231
 20
9.4744721554
 30
0.0
 11
-10.7505769231
 21
9.5075
 31
0.0
  0
LINE
  5
C3
330
1F
100
AcDbEntity
  8
0
  6
Continuous
 62
     7
370
    15
100
AcDbLine
 10
-10.4957692308
 20
9.5075
 30
0.0
 11
-10.4845512821
 21
9.5075
 31
0.0
  0
LINE
  5
C4
330
1F
100
AcDbEntity
  8
0
  6
Continuous
 62
     7
370
    15
100
AcDbLine
 10
-10.4845512821
 20
9.5075
 30
0.0
 11
-10.4845512821
 21
9.3825
 31
0.0
  0
LINE
  5
C5
330
1F
100
AcDbEntity
  8
0
  6
Continuous
 62
     7
370
    15
100
AcDbLine
 10
-10.4845512821
 20
9.3825
 30
0.0
 11
-10.5095663061
 21
9.3825
 31
0.0
  0
SPLINE
  5
C6
330
1F
100
AcDbEntity
  8
0
  6
Continuous
 62
     7
370
    15
100
AcDbSpline
210
0.0
220
0.0
230
1.0
 70
     8
 71
     3
 72
    15
 73
    11
 74
     0
 42
0.000000001
 43
0.00000001
 40
0.0
 40
0.0
 40
0.0
 40
0.0
 40
0.1762577548177696
 40
0.3384344138804663
 40
0.4848220507878293
 40
0.617157578266303
 40
0.734698360612518
 40
0.8373851838324122
 40
0.9263724209296199
 40
1.0
 40
1.0
 40
1.0
 40
1.0
 10
-10.50956630608975
 20
9.382499999999999
 30
0.0
 10
-10.51123563210809
 20
9.382505556642426
 30
0.0
 10
-10.51444092297984
 20
9.38251622601142
 30
0.0
 10
-10.51903282549269
 20
9.382575717543855
 30
0.0
 10
-10.52320522181413
 20
9.382746230247724
 30
0.0
 10
-10.52695593036116
 20
9.3828929653719
 30
0.0
 10
-10.53028488232461
 20
9.383160534704876
 30
0.0
 10
-10.5332022855656
 20
9.38341627210201
 30
0.0
 10
-10.5356947033335
 20
9.383751045701255
 30
0.0
 10
-10.53720348373717
 20
9.384061953664316
 30
0.0
 10
-10.53788661858975
 20
9.384202724358973
 30
0.0
  0
SPLINE
  5
C7
330
1F
100
AcDbEntity
  8
0
  6
Continuous
 62
     7
370
    15
100
AcDbSpline
210
0.0
220
0.0
230
1.0
 70
     8
 71
     3
 72
    23
 73
    19
 74
     0
 42
0.000000001
 43
0.00000001
 40
0.0
 40
0.0
 40
0.0
 40
0.0
 40
0.0642047860757429
 40
0.1270399097807489
 40
0.1887091020206915
 40
0.2490853288897875
 40
0.3098680622321304
 40
0.3702308706708873
 40
0.4306285608278448
 40
0.4922767324647953
 40
0.5540954896071809
 40
0.6152184473083627
 40
0.6763148932070703
 40
0.738476023322353
 40
0.8007959371781126
 40
0.865209822990977
 40
0.9316541585938577
 40
1.0
 40
1.0
 40
1.0
 40
1.0
 10
-10.53788661858975
 20
9.384202724358973
 30
0.0
 10
-10.53880115627845
 20
9.38442865524502
 30
0.0
 10
-10.54061072208444
 20
9.384875697298034
 30
0.0
 10
-10.54321585819374
 20
9.385821046024247
 30
0.0
 10
-10.5456993367908
 20
9.386913264879471
 30
0.0
 10
-10.5480520633123
 20
9.388205914811847
 30
0.0
 10
-10.55027342125376
 20
9.38967716779578
 30
0.0
 10
-10.55236318680722
 20
9.391332938318538
 30
0.0
 10
-10.55429334032855
 20
9.393187412954054
 30
0.0
 10
-10.55613255370855
 20
9.395163772077876
 30
0.0
 10
-10.5577385383039
 20
9.397348063910403
 30
0.0
 10
-10.55918435048201
 20
9.399629441449223
 30
0.0
 10
-10.56039806026755
 20
9.402051826900761
 30
0.0
 10
-10.56135311442295
 20
9.404603002290042
 30
0.0
 10
-10.56215376428556
 20
9.407257941883245
 30
0.0
 10
-10.56269187574123
 20
9.410042880089671
 30
0.0
 10
-10.56302702097105
 20
9.412948756128406
 30
0.0
 10
-10.56306013333456
 20
9.414925944925047
 30
0.0
 10
-10.56307692307693
 20
9.415928485576922
 30
0.0
  0
SPLINE
  5
C8
330
1F
100
AcDbEntity
  8
0
  6
Continuous
 62
     7
370
    15
100
AcDbSpline
210
0.0
220
0.0
230
1.0
 70
     8
 71
     3
 72
    23
 73
    19
 74
     0
 42
0.000000001
 43
0.00000001
 40
0.0
 40
0.0
 40
0.0
 40
0.0
 40
0.0787751416419539
 40
0.1537107046119217
 40
0.2266988709827035
 40
0.2991718203265992
 40
0.3711659956446599
 40
0.4429777695015661
 40
0.5163340130087318
 40
0.5928571080241357
 40
0.6335101804056876
 40
0.6766236169871765
 40
0.7229154223713186
 40
0.7719713543836308
 40
0.8238292573169086
 40
0.8793864500192141
 40
0.9379521316130256
 40
1.0
 40
1.0
 40
1.0
 40
1.0
 10
-10.56307692307693
 20
9.415928485576922
 30
0.0
 10
-10.56302446022033
 20
9.417594026943872
 30
0.0
 10
-10.56292209159889
 20
9.420843929536721
 30
0.0
 10
-10.56196760459177
 20
9.425560362816173
 30
0.0
 10
-10.56040422700659
 20
9.429960079093233
 30
0.0
 10
-10.55824956759857
 20
9.434036955488786
 30
0.0
 10
-10.55550696317488
 20
9.437713670497304
 30
0.0
 10
-10.55221097631359
 20
9.440932126637264
 30
0.0
 10
-10.54837843939097
 20
9.443650259486173
 30
0.0
 10
-10.54479384815443
 20
9.445515138188906
 30
0.0
 10
-10.54162590587086
 20
9.446715081077118
 30
0.0
 10
-10.5390102033741
 20
9.447563603660045
 30
0.0
 10
-10.53615474751494
 20
9.448208138543187
 30
0.0
 10
-10.53310050414781
 20
9.448793930695055
 30
0.0
 10
-10.52982388198904
 20
9.449240937167746
 30
0.0
 10
-10.52633147935264
 20
9.449558396719551
 30
0.0
 10
-10.52261456153389
 20
9.449762525626912
 30
0.0
 10
-10.52006671290316
 20
9.449792349734041
 30
0.0
 10
-10.51875600961539
 20
9.449807692307692
 30
0.0
  0
LINE
  5
C9
330
1F
100
AcDbEntity
  8
0
  6
Continuous
 62
     7
370
    15
100
AcDbLine
 10
-10.5187560096
 20
9.4498076923
 30
0.0
 11
-10.5646794872
 21
9.5075
 31
0.0
  0
LINE
  5
CA
330
1F
100
AcDbEntity
  8
0
  6
Continuous
 62
     7
370
    15
100
AcDbLine
 10
-10.5646794872
 20
9.5075
 30
0.0
 11
-10.5508072917
 21
9.5075
 31
0.0
  0
LINE
  5
CB
330
1F
100
AcDbEntity
  8
0
  6
Continuous
 62
     7
370
    15
100
AcDbLine
 10
-10.5508072917
 20
9.5075
 30
0.0
 11
-10.5048838141
 21
9.4498076923
 31
0.0
  0
LINE
  5
CC
330
1F
100
AcDbEntity
  8
0
  6
Continuous
 62
     7
370
    15
100
AcDbLine
 10
-10.5048838141
 20
9.4498076923
 30
0.0
 11
-10.4957692308
 21
9.4498076923
 31
0.0
  0
LINE
  5
CD
330
1F
100
AcDbEntity
  8
0
  6
Continuous
 62
     7
370
    15
100
AcDbLine
 10
-10.4957692308
 20
9.4498076923
 30
0.0
 11
-10.4957692308
 21
9.5075
 31
0.0
  0
LINE
  5
CE
330
1F
100
AcDbEntity
  8
0
  6
Continuous
 62
     7
370
    15
100
AcDbLine
 10
-10.5967307692
 20
9.5075
 30
0.0
 11
-10.5855128205
 21
9.5075
 31
0.0
  0
LINE
  5
CF
330
1F
100
AcDbEntity
  8
0
  6
Continuous
 62
     7
370
    15
100
AcDbLine
 10
-10.5855128205
 20
9.5075
 30
0.0
 11
-10.5855128205
 21
9.4161538462
 31
0.0
  0
LINE
  5
D0
330
1F
100
AcDbEntity
  8
0
  6
Continuous
 62
     7
370
    15
100
AcDbLine
 10
-10.5855128205
 20
9.4161538462
 30
0.0
 11
-10.5967307692
 21
9.4161538462
 31
0.0
  0
LINE
  5
D1
330
1F
100
AcDbEntity
  8
0
  6
Continuous
 62
     7
370
    15
100
AcDbLine
 10
-10.5967307692
 20
9.4161538462
 30
0.0
 11
-10.5967307692
 21
9.5075
 31
0.0
  0
SPLINE
  5
D2
330
1F
100
AcDbEntity
  8
0
  6
Continuous
 62
     7
370
    15
100
AcDbSpline
210
0.0
220
0.0
230
1.0
 70
     8
 71
     3
 72
    15
 73
    11
 74
     0
 42
0.000000001
 43
0.00000001
 40
0.0
 40
0.0
 40
0.0
 40
0.0
 40
0.1319130139400985
 40
0.2567514468548711
 40
0.3829204901465342
 40
0.5121178201968078
 40
0.6403170100636759
 40
0.7610011872715461
 40
0.8791031258044109
 40
1.0
 40
1.0
 40
1.0
 40
1.0
 10
-10.59107171474359
 20
9.396923076923077
 30
0.0
 10
-10.59038371177026
 20
9.396891683962627
 30
0.0
 10
-10.58904460387206
 20
9.396830581666686
 30
0.0
 10
-10.5871080395315
 20
9.396281231869095
 30
0.0
 10
-10.58534231540344
 20
9.395361100754066
 30
0.0
 10
-10.58375321411548
 20
9.394137997701959
 30
0.0
 10
-10.58239658936196
 20
9.392691802235133
 30
0.0
 10
-10.58143138747367
 20
9.391027567190443
 30
0.0
 10
-10.58082018668806
 20
9.38923560581627
 30
0.0
 10
-10.58074377887932
 20
9.387988577955928
 30
0.0
 10
-10.58070512820513
 20
9.387357772435898
 30
0.0
  0
SPLINE
  5
D3
330
1F
100
AcDbEntity
  8
0
  6
Continuous
 62
     7
370
    15
100
AcDbSpline
210
0.0
220
0.0
230
1.0
 70
     8
 71
     3
 72
    15
 73
    11
 74
     0
 42
0.000000001
 43
0.00000001
 40
0.0
 40
0.0
 40
0.0
 40
0.0
 40
0.1233328597998854
 40
0.242233518512132
 40
0.3635642063915944
 40
0.4909863299031315
 40
0.6194005434728759
 40
0.7448048259362681
 40
0.8688865633822668
 40
0.9999999999999999
 40
0.9999999999999999
 40
0.9999999999999999
 40
0.9999999999999999
 10
-10.58070512820513
 20
9.387357772435898
 30
0.0
 10
-10.58074292659277
 20
9.38671015562222
 30
0.0
 10
-10.58081716501104
 20
9.385438195337843
 30
0.0
 10
-10.58143186186161
 20
9.38361461975726
 30
0.0
 10
-10.58238843930083
 20
9.381926934368837
 30
0.0
 10
-10.5837540906773
 20
9.38047792556656
 30
0.0
 10
-10.58534208592738
 20
9.379254142846737
 30
0.0
 10
-10.58710809928719
 20
9.378334189466564
 30
0.0
 10
-10.58904458801161
 20
9.377784793202348
 30
0.0
 10
-10.59038370638721
 20
9.377723697344836
 30
0.0
 10
-10.59107171474359
 20
9.377692307692307
 30
0.0
  0
SPLINE
  5
D4
330
1F
100
AcDbEntity
  8
0
  6
Continuous
 62
     7
370
    15
100
AcDbSpline
210
0.0
220
0.0
230
1.0
 70
     8
 71
     3
 72
    15
 73
    11
 74
     0
 42
0.000000001
 43
0.00000001
 40
0.0
 40
0.0
 40
0.0
 40
0.0
 40
0.1318732556255086
 40
0.2582331622760831
 40
0.384265338039798
 40
0.5131393343634737
 40
0.6387032651771544
 40
0.7592772397159607
 40
0.8774363406554277
 40
0.9999999999999999
 40
0.9999999999999999
 40
0.9999999999999999
 40
0.9999999999999999
 10
-10.59107171474359
 20
9.377692307692307
 30
0.0
 10
-10.59176771693564
 20
9.37772473891924
 30
0.0
 10
-10.59313062290281
 20
9.377788245490358
 30
0.0
 10
-10.59510346195286
 20
9.378327737258019
 30
0.0
 10
-10.59689806182779
 20
9.379256157735105
 30
0.0
 10
-10.59851358293689
 20
9.380461270143117
 30
0.0
 10
-10.59985277568341
 20
9.38193681009039
 30
0.0
 10
-10.6008130481506
 20
9.38361334963039
 30
0.0
 10
-10.60142608317147
 20
9.385438523926974
 30
0.0
 10
-10.60150054791674
 20
9.386710266479893
 30
0.0
 10
-10.60153846153846
 20
9.387357772435896
 30
0.0
  0
SPLINE
  5
D5
330
1F
100
AcDbEntity
  8
0
  6
Continuous
 62
     7
370
    15
100
AcDbSpline
210
0.0
220
0.0
230
1.0
 70
     8
 71
     3
 72
    15
 73
    11
 74
     0
 42
0.000000001
 43
0.00000001
 40
0.0
 40
0.0
 40
0.0
 40
0.0
 40
0.1201382970962865
 40
0.2374991955769942
 40
0.3574261302698802
 40
0.4837509908435862
 40
0.6134059762495194
 40
0.7402019193836716
 40
0.8673275794860827
 40
1.0
 40
1.0
 40
1.0
 40
1.0
 10
-10.60153846153846
 20
9.387357772435896
 30
0.0
 10
-10.60149969976147
 20
9.387988471154005
 30
0.0
 10
-10.60142307231563
 20
9.389235287879584
 30
0.0
 10
-10.60081350132729
 20
9.391028815960201
 30
0.0
 10
-10.59984472492971
 20
9.392682010049334
 30
0.0
 10
-10.59851447429439
 20
9.39415466520822
 30
0.0
 10
-10.59689782641017
 20
9.395359081424678
 30
0.0
 10
-10.5951035242313
 20
9.396287685836846
 30
0.0
 10
-10.59313060652059
 20
9.396827129003073
 30
0.0
 10
-10.59176771139773
 20
9.396890642274478
 30
0.0
 10
-10.59107171474359
 20
9.396923076923077
 30
0.0
  0
LINE
  5
D6
330
1F
100
AcDbEntity
  8
0
  6
Continuous
 62
     7
370
    15
100
AcDbLine
 10
-10.0536117788
 20
9.5075
 30
0.0
 11
-10.0198076923
 21
9.5075
 31
0.0
  0
LINE
  5
D7
330
1F
100
AcDbEntity
  8
0
  6
Continuous
 62
     7
370
    15
100
AcDbLine
 10
-10.0198076923
 20
9.5075
 30
0.0
 11
-10.0198076923
 21
9.3825
 31
0.0
  0
LINE
  5
D8
330
1F
100
AcDbEntity
  8
0
  6
Continuous
 62
     7
370
    15
100
AcDbLine
 10
-10.0198076923
 20
9.3825
 30
0.0
 11
-10.0441967147
 21
9.3825
 31
0.0
  0
SPLINE
  5
D9
330
1F
100
AcDbEntity
  8
0
  6
Continuous
 62
     7
370
    15
100
AcDbSpline
210
0.0
220
0.0
230
1.0
 70
     8
 71
     3
 72
    23
 73
    19
 74
     0
 42
0.000000001
 43
0.00000001
 40
0.0
 40
0.0
 40
0.0
 40
0.0
 40
0.0625801075249362
 40
0.1212958231872669
 40
0.1766406545199424
 40
0.2283140565424133
 40
0.2767295077283323
 40
0.3218342561891795
 40
0.3640443176551527
 40
0.4031288402742686
 40
0.477724416497638
 40
0.5505378367359135
 40
0.6232565265980363
 40
0.6978302813027945
 40
0.7729922670624386
 40
0.847315257877536
 40
0.9228355895118964
 40
1.0
 40
1.0
 40
1.0
 40
1.0
 10
-10.04419671474359
 20
9.3825
 30
0.0
 10
-10.04539060779279
 20
9.382506177984657
 30
0.0
 10
-10.04770466965569
 20
9.382518152456484
 30
0.0
 10
-10.05106939384081
 20
9.382708178638905
 30
0.0
 10
-10.05422202348348
 20
9.38296080047176
 30
0.0
 10
-10.05715698749502
 20
9.383384560009532
 30
0.0
 10
-10.05989338324518
 20
9.38382394274981
 30
0.0
 10
-10.06240343057263
 20
9.384468851423426
 30
0.0
 10
-10.06470815424136
 20
9.38518117655765
 30
0.0
 10
-10.06747565563301
 20
9.386277185442218
 30
0.0
 10
-10.07061576517403
 20
9.387979301053354
 30
0.0
 10
-10.07399079537284
 20
9.390503700252788
 30
0.0
 10
-10.07692457755432
 20
9.393530251044393
 30
0.0
 10
-10.07941916202759
 20
9.396979244403376
 30
0.0
 10
-10.08142111914045
 20
9.40077352793402
 30
0.0
 10
-10.08285112394557
 20
9.404831466406696
 30
0.0
 10
-10.08376981349224
 20
9.409084789860717
 30
0.0
 10
-10.08386310724807
 20
9.41200083634781
 30
0.0
 10
-10.08391025641026
 20
9.413474559294873
 30
0.0
  0
SPLINE
  5
DA
330
1F
100
AcDbEntity
  8
0
  6
Continuous
 62
     7
370
    15
100
AcDbSpline
210
0.0
220
0.0
230
1.0
 70
     8
 71
     3
 72
    15
 73
    11
 74
     0
 42
0.000000001
 43
0.00000001
 40
0.0
 40
0.0
 40
0.0
 40
0.0
 40
0.1305445223012925
 40
0.2565322972711202
 40
0.379494169421929
 40
0.5025422967909092
 40
0.6253060603292077
 40
0.7475961158995806
 40
0.8717902636525309
 40
1.0
 40
1.0
 40
1.0
 40
1.0
 10
-10.08391025641026
 20
9.413474559294873
 30
0.0
 10
-10.0838717443119
 20
9.414855184004608
 30
0.0
 10
-10.08379606440677
 20
9.417568241758504
 30
0.0
 10
-10.08305673290428
 20
9.421523099902899
 30
0.0
 10
-10.08194072993755
 20
9.425299634911315
 30
0.0
 10
-10.08033026987768
 20
9.428861452461481
 30
0.0
 10
-10.0782767979746
 20
9.432177254964843
 30
0.0
 10
-10.07577844083152
 20
9.43519048325485
 30
0.0
 10
-10.07281607400034
 20
9.437841977809294
 30
0.0
 10
-10.07059191262293
 20
9.439317572254764
 30
0.0
 10
-10.06946213942308
 20
9.440067107371796
 30
0.0
  0
SPLINE
  5
DB
330
1F
100
AcDbEntity
  8
0
  6
Continuous
 62
     7
370
    15
100
AcDbSpline
210
0.0
220
0.0
230
1.0
 70
     8
 71
     3
 72
    19
 73
    15
 74
     0
 42
0.000000001
 43
0.00000001
 40
0.0
 40
0.0
 40
0.0
 40
0.0
 40
0.1060166939662332
 40
0.2028361978459011
 40
0.2906814577320876
 40
0.3702098171025593
 40
0.4459335169018165
 40
0.5217354494573424
 40
0.5986000518577217
 40
0.6764214891597774
 40
0.7557771807098888
 40
0.8355266888862644
 40
0.9166781142410537
 40
1.0
 40
1.0
 40
1.0
 40
1.0
 10
-10.06946213942308
 20
9.440067107371796
 30
0.0
 10
-10.07088225547062
 20
9.440612041468006
 30
0.0
 10
-10.07359928925848
 20
9.441654635384268
 30
0.0
 10
-10.07734311716098
 20
9.44350506849166
 30
0.0
 10
-10.08056976714901
 20
9.44550227081155
 30
0.0
 10
-10.083320821924
 20
9.447660881265332
 30
0.0
 10
-10.08562601143986
 20
9.4500513845804
 30
0.0
 10
-10.08767956682998
 20
9.45261082525895
 30
0.0
 10
-10.08942235615977
 20
9.455428339926858
 30
0.0
 10
-10.0909093442884
 20
9.45844287437918
 30
0.0
 10
-10.09208727516756
 20
9.461638464768493
 30
0.0
 10
-10.09290492298842
 20
9.464991204274488
 30
0.0
 10
-10.09342347785101
 20
9.468463118490256
 30
0.0
 10
-10.09349128834863
 20
9.470822812429867
 30
0.0
 10
-10.09352564102564
 20
9.472018229166668
 30
0.0
  0
SPLINE
  5
DC
330
1F
100
AcDbEntity
  8
0
  6
Continuous
 62
     7
370
    15
100
AcDbSpline
210
0.0
220
0.0
230
1.0
 70
     8
 71
     3
 72
    23
 73
    19
 74
     0
 42
0.000000001
 43
0.00000001
 40
0.0
 40
0.0
 40
0.0
 40
0.0
 40
0.0611576458270587
 40
0.1203293815348977
 40
0.1781725906390122
 40
0.2352250073468324
 40
0.2926703716858711
 40
0.3505937285410638
 40
0.4098615403209532
 40
0.471122150035601
 40
0.5334325444869068
 40
0.5951713819149335
 40
0.657515481955298
 40
0.7213071687799502
 40
0.7868316843719554
 40
0.854692404504129
 40
0.925481191834586
 40
1.0
 40
1.0
 40
1.0
 40
1.0
 10
-10.09352564102564
 20
9.472018229166666
 30
0.0
 10
-10.09349075031897
 20
9.473238472569737
 30
0.0
 10
-10.09342210187611
 20
9.475639335651168
 30
0.0
 10
-10.09291572214087
 20
9.479166333734382
 30
0.0
 10
-10.09205807825521
 20
9.482536760991378
 30
0.0
 10
-10.09087761261562
 20
9.485773052397702
 30
0.0
 10
-10.08933881622601
 20
9.488856253961943
 30
0.0
 10
-10.08747979026676
 20
9.49181059622522
 30
0.0
 10
-10.08524856703534
 20
9.49459229538121
 30
0.0
 10
-10.08273599021532
 20
9.49724171732748
 30
0.0
 10
-10.07993267735811
 20
9.499664499230729
 30
0.0
 10
-10.07684364592227
 20
9.501746558334435
 30
0.0
 10
-10.07354806456657
 20
9.503544918373215
 30
0.0
 10
-10.07000080423182
 20
9.50499069898529
 30
0.0
 10
-10.06622703516377
 20
9.506122480744631
 30
0.0
 10
-10.06222587329691
 20
9.506904992792888
 30
0.0
 10
-10.05799959064065
 20
9.507434367109934
 30
0.0
 10
-10.05509920028386
 20
9.507477751149711
 30
0.0
 10
-10.05361177884616
 20
9.5075
 30
0.0
  0
SPLINE
  5
DD
330
1F
100
AcDbEntity
  8
0
  6
Continuous
 62
     7
370
    15
100
AcDbSpline
210
0.0
220
0.0
230
1.0
 70
     8
 71
     3
 72
    31
 73
    27
 74
     0
 42
0.000000001
 43
0.00000001
 40
0.0
 40
0.0
 40
0.0
 40
0.0
 40
0.0412951459693205
 40
0.0821428611679648
 40
0.1226988032373507
 40
0.1628220380829719
 40
0.2030013679716694
 40
0.2435244804178816
 40
0.2841749747738463
 40
0.3255704044155096
 40
0.3670189724766739
 40
0.4075281874576181
 40
0.4483759026562567
 40
0.4886506690063542
 40
0.5292255391599868
 40
0.5698041938710142
 40
0.6113354235034676
 40
0.6532066712416329
 40
0.6954188361906563
 40
0.7377279015023601
 40
0.7800236561781477
 40
0.8227911968970397
 40
0.8659661361387088
 40
0.909586931408244
 40
0.9542273046118493
 40
1.0
 40
1.0
 40
1.0
 40
1.0
 10
-10.23134615384615
 20
9.462578124999999
 30
0.0
 10
-10.23136286263858
 20
9.461500496189823
 30
0.0
 10
-10.23139609918452
 20
9.45935691462189
 30
0.0
 10
-10.23174146244414
 20
9.456171059587417
 30
0.0
 10
-10.23225873607113
 20
9.453041630748363
 30
0.0
 10
-10.23299309502383
 20
9.449973119408428
 30
0.0
 10
-10.23391459562635
 20
9.446956243468106
 30
0.0
 10
-10.23507274486511
 20
9.444007114686459
 30
0.0
 10
-10.23642810858435
 20
9.441108573546916
 30
0.0
 10
-10.2380049747401
 20
9.438296309313815
 30
0.0
 10
-10.23974436165821
 20
9.435587351912924
 30
0.0
 10
-10.24163448754228
 20
9.432997124913353
 30
0.0
 10
-10.24370785211304
 20
9.430591968018323
 30
0.0
 10
-10.24592059271447
 20
9.428311686628655
 30
0.0
 10
-10.24830623270245
 20
9.426224361078269
 30
0.0
 10
-10.25082032845957
 20
9.4242398114412
 30
0.0
 10
-10.25352492036021
 20
9.42246085535476
 30
0.0
 10
-10.25635107817245
 20
9.42079966876524
 30
0.0
 10
-10.25930245324602
 20
9.419323147994737
 30
0.0
 10
-10.26235827315943
 20
9.418050370309146
 30
0.0
 10
-10.26550091697242
 20
9.416962821851111
 30
0.0
 10
-10.26873519817048
 20
9.416101777208407
 30
0.0
 10
-10.27203970698219
 20
9.41537972958679
 30
0.0
 10
-10.275440468336
 20
9.414925519914803
 30
0.0
 10
-10.27892447646813
 20
9.414604581833686
 30
0.0
 10
-10.28128362010988
 20
9.4145691963665
 30
0.0
 10
-10.28247796474359
 20
9.414551282051281
 30
0.0
  0
SPLINE
  5
DE
330
1F
100
AcDbEntity
  8
0
  6
Continuous
 62
     7
370
    15
100
AcDbSpline
210
0.0
220
0.0
230
1.0
 70
     8
 71
     3
 72
    19
 73
    15
 74
     0
 42
0.000000001
 43
0.00000001
 40
0.0
 40
0.0
 40
0.0
 40
0.0
 40
0.091263286634444
 40
0.1820703965335773
 40
0.2718932157991251
 40
0.3620275702328962
 40
0.4500391389524201
 40
0.5334804485385523
 40
0.6132969641035793
 40
0.6898874939455906
 40
0.7654270592358426
 40
0.8414461368968947
 40
0.9197376012893619
 40
1.0
 40
1.0
 40
1.0
 40
1.0
 10
-10.28247796474359
 20
9.414551282051281
 30
0.0
 10
-10.2839736889308
 20
9.414584194581177
 30
0.0
 10
-10.28695766097381
 20
9.414649855128701
 30
0.0
 10
-10.29138402504012
 20
9.415202844595385
 30
0.0
 10
-10.29574561945985
 20
9.416035609387476
 30
0.0
 10
-10.29996390622258
 20
9.417272872183476
 30
0.0
 10
-10.3039879360037
 20
9.418756319333319
 30
0.0
 10
-10.30773766847997
 20
9.420464321008136
 30
0.0
 10
-10.31118574083593
 20
9.422358438132179
 30
0.0
 10
-10.31433116132978
 20
9.42450328572922
 30
0.0
 10
-10.31717937840408
 20
9.426934318682811
 30
0.0
 10
-10.31980476515393
 20
9.429639542127042
 30
0.0
 10
-10.32222584962237
 20
9.43263613692112
 30
0.0
 10
-10.32359950590442
 20
9.434843258197716
 30
0.0
 10
-10.32429487179488
 20
9.435960536858975
 30
0.0
  0
LINE
  5
DF
330
1F
100
AcDbEntity
  8
0
  6
Continuous
 62
     7
370
    15
100
AcDbLine
 10
-10.3242948718
 20
9.4359605369
 30
0.0
 11
-10.3149048478
 21
9.4417948718
 31
0.0
  0
SPLINE
  5
E0
330
1F
100
AcDbEntity
  8
0
  6
Continuous
 62
     7
370
    15
100
AcDbSpline
210
0.0
220
0.0
230
1.0
 70
     8
 71
     3
 72
    15
 73
    11
 74
     0
 42
0.000000001
 43
0.00000001
 40
0.0
 40
0.0
 40
0.0
 40
0.0
 40
0.1283287304256138
 40
0.2525933180937711
 40
0.3735195598456019
 40
0.4939512281176067
 40
0.6145951047154046
 40
0.7384610880280092
 40
0.8659900263190193
 40
1.0
 40
1.0
 40
1.0
 40
1.0
 10
-10.31490484775641
 20
9.44179487179487
 30
0.0
 10
-10.31387526717069
 20
9.440515177894989
 30
0.0
 10
-10.31184871259066
 20
9.437996317720469
 30
0.0
 10
-10.30832863376107
 20
9.434747510634962
 30
0.0
 10
-10.30457538732202
 20
9.431945793084497
 30
0.0
 10
-10.30051820617079
 20
9.429693092730414
 30
0.0
 10
-10.29619263764619
 20
9.42791481780176
 30
0.0
 10
-10.29158977027962
 20
9.426678940108475
 30
0.0
 10
-10.28671102430774
 20
9.425902122031166
 30
0.0
 10
-10.2833657357032
 20
9.425814253660612
 30
0.0
 10
-10.28165164262821
 20
9.42576923076923
 30
0.0
  0
SPLINE
  5
E1
330
1F
100
AcDbEntity
  8
0
  6
Continuous
 62
     7
370
    15
100
AcDbSpline
210
0.0
220
0.0
230
1.0
 70
     8
 71
     3
 72
    23
 73
    19
 74
     0
 42
0.000000001
 43
0.00000001
 40
0.0
 40
0.0
 40
0.0
 40
0.0
 40
0.0695332931474415
 40
0.1369439302066832
 40
0.2020030928938988
 40
0.2655060417190426
 40
0.3283028988314298
 40
0.3908822175198355
 40
0.4532777576993685
 40
0.517280288673738
 40
0.5804872706687273
 40
0.6419454590777729
 40
0.7014002446983469
 40
0.760316898299421
 40
0.8186212551715049
 40
0.8776975850963425
 40
0.938083677596061
 40
1.0
 40
1.0
 40
1.0
 40
1.0
 10
-10.28165164262821
 20
9.42576923076923
 30
0.0
 10
-10.28028168149821
 20
9.425806977418883
 30
0.0
 10
-10.27758358030264
 20
9.425881318419023
 30
0.0
 10
-10.27362262319549
 20
9.426345946312402
 30
0.0
 10
-10.26984976546311
 20
9.42719042168991
 30
0.0
 10
-10.26624086741176
 20
9.428302530034857
 30
0.0
 10
-10.2628233869346
 20
9.429795174743028
 30
0.0
 10
-10.25958774985635
 20
9.431600652380467
 30
0.0
 10
-10.2565231337617
 20
9.433726656001504
 30
0.0
 10
-10.25367822287157
 20
9.436157869597713
 30
0.0
 10
-10.25108551483351
 20
9.438828221153534
 30
0.0
 10
-10.24879248113559
 20
9.441648226352283
 30
0.0
 10
-10.24687863946786
 20
9.444637629538231
 30
0.0
 10
-10.24528329954793
 20
9.44773969325879
 30
0.0
 10
-10.24408299486248
 20
9.4510077836188
 30
0.0
 10
-10.24320032032301
 20
9.45440219805176
 30
0.0
 10
-10.24266229460502
 20
9.457945272617431
 30
0.0
 10
-10.24259710512482
 20
9.460356051392747
 30
0.0
 10
-10.2425641025641
 20
9.461576522435896
 30
0.0
  0
SPLINE
  5
E2
330
1F
100
AcDbEntity
  8
0
  6
Continuous
 62
     7
370
    15
100
AcDbSpline
210
0.0
220
0.0
230
1.0
 70
     8
 71
     3
 72
    19
 73
    15
 74
     0
 42
0.000000001
 43
0.00000001
 40
0.0
 40
0.0
 40
0.0
 40
0.0
 40
0.0805360095243955
 40
0.160398989017455
 40
0.2403693700579425
 40
0.3227799499666153
 40
0.4052860361037262
 40
0.4865864219299508
 40
0.5681909872845999
 40
0.6516694475992952
 40
0.7362022991550796
 40
0.8215052053473466
 40
0.9089927389597354
 40
1.0
 40
1.0
 40
1.0
 40
1.0
 10
-10.2425641025641
 20
9.461576522435896
 30
0.0
 10
-10.24262846672235
 20
9.463175264364457
 30
0.0
 10
-10.24275665715507
 20
9.466359387721884
 30
0.0
 10
-10.24373595326042
 20
9.47105033939261
 30
0.0
 10
-10.24536412157314
 20
9.475585942577647
 30
0.0
 10
-10.24760690570291
 20
9.479913265116814
 30
0.0
 10
-10.25040764691626
 20
9.483930421457874
 30
0.0
 10
-10.25367426024928
 20
9.487563130680092
 30
0.0
 10
-10.25748090017185
 20
9.490659592152968
 30
0.0
 10
-10.26171539430223
 20
9.493251118346427
 30
0.0
 10
-10.26630140541614
 20
9.495342814820182
 30
0.0
 10
-10.27120254616345
 20
9.496818798832875
 30
0.0
 10
-10.2763770884991
 20
9.497714676242373
 30
0.0
 10
-10.27992024892882
 20
9.497827229195707
 30
0.0
 10
-10.28172676282051
 20
9.497884615384613
 30
0.0
  0
SPLINE
  5
E3
330
1F
100
AcDbEntity
  8
0
  6
Continuous
 62
     7
370
    15
100
AcDbSpline
210
0.0
220
0.0
230
1.0
 70
     8
 71
     3
 72
    15
 73
    11
 74
     0
 42
0.000000001
 43
0.00000001
 40
0.0
 40
0.0
 40
0.0
 40
0.0
 40
0.1299810785766449
 40
0.2554473120268426
 40
0.37729834471816
 40
0.4984417785420115
 40
0.6193721253366482
 40
0.7418565019578464
 40
0.8685636891457579
 40
1.0
 40
1.0
 40
1.0
 40
1.0
 10
-10.28172676282051
 20
9.497884615384613
 30
0.0
 10
-10.28338230511973
 20
9.497838204770476
 30
0.0
 10
-10.28663588506316
 20
9.497746995597874
 30
0.0
 10
-10.29139185952994
 20
9.496978104050447
 30
0.0
 10
-10.29591971348887
 20
9.495719402850034
 30
0.0
 10
-10.30021928600941
 20
9.493964129634017
 30
0.0
 10
-10.30428272051142
 20
9.491695289780377
 30
0.0
 10
-10.30808376247279
 20
9.488896747965669
 30
0.0
 10
-10.31169804598274
 20
9.485649012240023
 30
0.0
 10
-10.31382293800352
 20
9.483137656122523
 30
0.0
 10
-10.31490484775641
 20
9.481858974358973
 30
0.0
  0
LINE
  5
E4
330
1F
100
AcDbEntity
  8
0
  6
Continuous
 62
     7
370
    15
100
AcDbLine
 10
-10.3149048478
 20
9.4818589744
 30
0.0
 11
-10.3242948718
 21
9.4880188301
 31
0.0
  0
SPLINE
  5
E5
330
1F
100
AcDbEntity
  8
0
  6
Continuous
 62
     7
370
    15
100
AcDbSpline
210
0.0
220
0.0
230
1.0
 70
     8
 71
     3
 72
    23
 73
    19
 74
     0
 42
0.000000001
 43
0.00000001
 40
0.0
 40
0.0
 40
0.0
 40
0.0
 40
0.0596292077673585
 40
0.1190604986689301
 40
0.1781840305294921
 40
0.2369400048332548
 40
0.2959112032066809
 40
0.3554213140709977
 40
0.4160345929549602
 40
0.4772985843731479
 40
0.5394556091716419
 40
0.6020857346884064
 40
0.6654458842327152
 40
0.729784236060353
 40
0.7948431811024645
 40
0.8618362446232737
 40
0.9300158481365642
 40
1.0
 40
1.0
 40
1.0
 40
1.0
 10
-10.32429487179487
 20
9.488018830128205
 30
0.0
 10
-10.32373816338127
 20
9.488836349413477
 30
0.0
 10
-10.32262659433955
 20
9.490468674534343
 30
0.0
 10
-10.32076853588075
 20
9.49277034967817
 30
0.0
 10
-10.31876398838303
 20
9.49492432011771
 30
0.0
 10
-10.31662237262758
 20
9.49692994277797
 30
0.0
 10
-10.31437086789097
 20
9.498822398369516
 30
0.0
 10
-10.3119508683626
 20
9.500548055520042
 30
0.0
 10
-10.30940357223462
 20
9.50215058137052
 30
0.0
 10
-10.3067172925074
 20
9.503602827962212
 30
0.0
 10
-10.30391848487957
 20
9.504905369263753
 30
0.0
 10
-10.30100706395436
 20
9.506032596277269
 30
0.0
 10
-10.29799618153346
 20
9.506985664115462
 30
0.0
 10
-10.29489260330945
 20
9.507756850437458
 30
0.0
 10
-10.29169143167139
 20
9.508366950406689
 30
0.0
 10
-10.28839510435707
 20
9.508772717388254
 30
0.0
 10
-10.28500423819049
 20
9.509075330557522
 30
0.0
 10
-10.28271237892256
 20
9.50909340755337
 30
0.0
 10
-10.2815514823718
 20
9.509102564102564
 30
0.0
  0
SPLINE
  5
E6
330
1F
100
AcDbEntity
  8
0
  6
Continuous
 62
     7
370
    15
100
AcDbSpline
210
0.0
220
0.0
230
1.0
 70
     8
 71
     3
 72
    23
 73
    19
 74
     0
 42
0.000000001
 43
0.00000001
 40
0.0
 40
0.0
 40
0.0
 40
0.0
 40
0.069566198066215
 40
0.1363502531171907
 40
0.2011178950329131
 40
0.264479055296061
 40
0.3271723170104487
 40
0.3895655783972497
 40
0.4521575682295623
 40
0.5158580697500589
 40
0.5791682993258122
 40
0.6401108833639189
 40
0.6999666376298761
 40
0.7587721696647521
 40
0.8178003539425406
 40
0.8769704505930049
 40
0.9376274220342125
 40
1.0
 40
1.0
 40
1.0
 40
1.0
 10
-10.2815514823718
 20
9.509102564102562
 30
0.0
 10
-10.27977968828353
 20
9.509070679794785
 30
0.0
 10
-10.27630695901094
 20
9.509008186320127
 30
0.0
 10
-10.27122368519387
 20
9.50832291547718
 30
0.0
 10
-10.26636724208234
 20
9.507286005449126
 30
0.0
 10
-10.26172909307216
 20
9.505810380976872
 30
0.0
 10
-10.25733760196838
 20
9.503861646310432
 30
0.0
 10
-10.25315617982765
 20
9.50153577354768
 30
0.0
 10
-10.24922808689181
 20
9.498755846507025
 30
0.0
 10
-10.24557865571594
 20
9.495588104683552
 30
0.0
 10
-10.242242456907
 20
9.492149442175899
 30
0.0
 10
-10.23933515404379
 20
9.488462395370163
 30
0.0
 10
-10.23688466732325
 20
9.484595684356783
 30
0.0
 10
-10.23481193852303
 20
9.480565309503675
 30
0.0
 10
-10.23327378976697
 20
9.476318226268935
 30
0.0
 10
-10.23217056945237
 20
9.47189596170086
 30
0.0
 10
-10.2314698579078
 20
9.467299610515635
 30
0.0
 10
-10.23138777009586
 20
9.4641665168249
 30
0.0
 10
-10.23134615384616
 20
9.462578125
 30
0.0
  0
LINE
  5
E7
330
1F
100
AcDbEntity
  8
0
  6
Continuous
 62
     7
370
    15
100
AcDbLine
 10
-10.3579487179
 20
9.5075
 30
0.0
 11
-10.3467307692
 21
9.5075
 31
0.0
  0
LINE
  5
E8
330
1F
100
AcDbEntity
  8
0
  6
Continuous
 62
     7
370
    15
100
AcDbLine
 10
-10.3467307692
 20
9.5075
 30
0.0
 11
-10.3467307692
 21
9.3792948718
 31
0.0
  0
LINE
  5
E9
330
1F
100
AcDbEntity
  8
0
  6
Continuous
 62
     7
370
    15
100
AcDbLine
 10
-10.3467307692
 20
9.3792948718
 30
0.0
 11
-10.3579487179
 21
9.3792948718
 31
0.0
  0
LINE
  5
EA
330
1F
100
AcDbEntity
  8
0
  6
Continuous
 62
     7
370
    15
100
AcDbLine
 10
-10.3579487179
 20
9.3792948718
 30
0.0
 11
-10.3579487179
 21
9.4534134615
 31
0.0
  0
LINE
  5
EB
330
1F
100
AcDbEntity
  8
0
  6
Continuous
 62
     7
370
    15
100
AcDbLine
 10
-10.3579487179
 20
9.4534134615
 30
0.0
 11
-10.3995152244
 21
9.4161538462
 31
0.0
  0
LINE
  5
EC
330
1F
100
AcDbEntity
  8
0
  6
Continuous
 62
     7
370
    15
100
AcDbLine
 10
-10.3995152244
 20
9.4161538462
 30
0.0
 11
-10.4156410256
 21
9.4161538462
 31
0.0
  0
LINE
  5
ED
330
1F
100
AcDbEntity
  8
0
  6
Continuous
 62
     7
370
    15
100
AcDbLine
 10
-10.4156410256
 20
9.4161538462
 30
0.0
 11
-10.3674138622
 21
9.4594230769
 31
0.0
  0
LINE
  5
EE
330
1F
100
AcDbEntity
  8
0
  6
Continuous
 62
     7
370
    15
100
AcDbLine
 10
-10.3674138622
 20
9.4594230769
 30
0.0
 11
-10.4204487179
 21
9.5075
 31
0.0
  0
LINE
  5
EF
330
1F
100
AcDbEntity
  8
0
  6
Continuous
 62
     7
370
    15
100
AcDbLine
 10
-10.4204487179
 20
9.5075
 30
0.0
 11
-10.4043479567
 21
9.5075
 31
0.0
  0
LINE
  5
F0
330
1F
100
AcDbEntity
  8
0
  6
Continuous
 62
     7
370
    15
100
AcDbLine
 10
-10.4043479567
 20
9.5075
 30
0.0
 11
-10.3579487179
 21
9.4654076522
 31
0.0
  0
LINE
  5
F1
330
1F
100
AcDbEntity
  8
0
  6
Continuous
 62
     7
370
    15
100
AcDbLine
 10
-10.3579487179
 20
9.4654076522
 30
0.0
 11
-10.3579487179
 21
9.5075
 31
0.0
  0
SPLINE
  5
F2
330
1F
100
AcDbEntity
  8
0
  6
Continuous
 62
     7
370
    15
100
AcDbSpline
210
0.0
220
0.0
230
1.0
 70
     8
 71
     3
 72
    23
 73
    19
 74
     0
 42
0.000000001
 43
0.00000001
 40
0.0
 40
0.0
 40
0.0
 40
0.0
 40
0.056963296357389
 40
0.1117397261515686
 40
0.1647770531237978
 40
0.2158233270810987
 40
0.2664304354375357
 40
0.3179896581016521
 40
0.3699121702522242
 40
0.423373096580819
 40
0.4796516881158909
 40
0.5388203037285656
 40
0.6028521448707677
 40
0.6712142873988309
 40
0.7447557167774627
 40
0.8235773490729158
 40
0.9088040887888066
 40
1.0
 40
1.0
 40
1.0
 40
1.0
 10
-10.07269230769231
 20
9.413699919871796
 30
0.0
 10
-10.07267488626797
 20
9.413005728233287
 30
0.0
 10
-10.07264071224171
 20
9.411643995529177
 30
0.0
 10
-10.0723185401795
 20
9.409660029171057
 30
0.0
 10
-10.07187394657044
 20
9.4077720772881
 30
0.0
 10
-10.07114070097021
 20
9.406031035656486
 30
0.0
 10
-10.07027199445126
 20
9.404375769222884
 30
0.0
 10
-10.06915852019774
 20
9.402858564688284
 30
0.0
 10
-10.06787458193928
 20
9.401438320797606
 30
0.0
 10
-10.06637767084223
 20
9.400153105873732
 30
0.0
 10
-10.06467390599518
 20
9.398990703156118
 30
0.0
 10
-10.06270931612605
 20
9.398023058393356
 30
0.0
 10
-10.06053731367022
 20
9.397163124287346
 30
0.0
 10
-10.05811260556964
 20
9.396511274092282
 30
0.0
 10
-10.05548348980603
 20
9.395945364356608
 30
0.0
 10
-10.0526098554173
 20
9.395588504813587
 30
0.0
 10
-10.04950902088498
 20
9.395359252609676
 30
0.0
 10
-10.04736057086955
 20
9.39533371411098
 30
0.0
 10
-10.04625
 20
9.395320512820513
 30
0.0
  0
LINE
  5
F3
330
1F
100
AcDbEntity
  8
0
  6
Continuous
 62
     7
370
    15
100
AcDbLine
 10
-10.04625
 20
9.3953205128
 30
0.0
 11
-10.031025641
 21
9.3953205128
 31
0.0
  0
LINE
  5
F4
330
1F
100
AcDbEntity
  8
0
  6
Continuous
 62
     7
370
    15
100
AcDbLine
 10
-10.031025641
 20
9.3953205128
 30
0.0
 11
-10.031025641
 21
9.4353846154
 31
0.0
  0
LINE
  5
F5
330
1F
100
AcDbEntity
  8
0
  6
Continuous
 62
     7
370
    15
100
AcDbLine
 10
-10.031025641
 20
9.4353846154
 30
0.0
 11
-10.0385627003
 21
9.4353846154
 31
0.0
  0
SPLINE
  5
F6
330
1F
100
AcDbEntity
  8
0
  6
Continuous
 62
     7
370
    15
100
AcDbSpline
210
0.0
220
0.0
230
1.0
 70
     8
 71
     3
 72
    23
 73
    19
 74
     0
 42
0.000000001
 43
0.00000001
 40
0.0
 40
0.0
 40
0.0
 40
0.0
 40
0.0722865129855851
 40
0.1396722741890583
 40
0.20279411425156
 40
0.2605483058915059
 40
0.3136703109711523
 40
0.3622091642524946
 40
0.4061678764153022
 40
0.4459933854772878
 40
0.5192706364133841
 40
0.589742557504945
 40
0.6592312058901219
 40
0.7291992921841434
 40
0.7980376893833295
 40
0.8648425280123353
 40
0.9313775378497945
 40
1.0
 40
1.0
 40
1.0
 40
1.0
 10
-10.03856270032052
 20
9.435384615384615
 30
0.0
 10
-10.03966445293544
 20
9.4353704512788
 30
0.0
 10
-10.04179326351108
 20
9.435343083339893
 30
0.0
 10
-10.04488430959008
 20
9.435262216225855
 30
0.0
 10
-10.04774635679907
 20
9.435045700692008
 30
0.0
 10
-10.05038926661918
 20
9.43481669938317
 30
0.0
 10
-10.0527953271504
 20
9.434464085733069
 30
0.0
 10
-10.05497258657879
 20
9.434032581102697
 30
0.0
 10
-10.05694062509182
 20
9.433580229334789
 30
0.0
 10
-10.05920910664338
 20
9.432808712265922
 30
0.0
 10
-10.06178195370093
 20
9.431680426417783
 30
0.0
 10
-10.06450547818041
 20
9.429886540806505
 30
0.0
 10
-10.06695677263539
 20
9.42780960910157
 30
0.0
 10
-10.06897894908397
 20
9.425346043536981
 30
0.0
 10
-10.07066248436472
 20
9.4226856155319
 30
0.0
 10
-10.07179594330523
 20
9.41980848618138
 30
0.0
 10
-10.07258623302109
 20
9.41681380214918
 30
0.0
 10
-10.07265658727096
 20
9.414748513147792
 30
0.0
 10
-10.07269230769231
 20
9.413699919871796
 30
0.0
  0
SPLINE
  5
F7
330
1F
100
AcDbEntity
  8
0
  6
Continuous
 62
     7
370
    15
100
AcDbSpline
210
0.0
220
0.0
230
1.0
 70
     8
 71
     3
 72
    15
 73
    11
 74
     0
 42
0.000000001
 43
0.00000001
 40
0.0
 40
0.0
 40
0.0
 40
0.0
 40
0.0793065686032546
 40
0.171952999063043
 40
0.2770567976316328
 40
0.3957951514862353
 40
0.526176824907651
 40
0.6713444223036297
 40
0.8292850783511855
 40
1.0
 40
1.0
 40
1.0
 40
1.0
 10
-10.0618499599359
 20
9.44968249198718
 30
0.0
 10
-10.06124177850921
 20
9.449559087837475
 30
0.0
 10
-10.05992311572835
 20
9.449291522186707
 30
0.0
 10
-10.05777283407532
 20
9.449009263707884
 30
0.0
 10
-10.05530975003096
 20
9.448756068663469
 30
0.0
 10
-10.05254439125025
 20
9.448573697497444
 30
0.0
 10
-10.04946575954522
 20
9.448377925234206
 30
0.0
 10
-10.04607484395799
 20
9.448304498695771
 30
0.0
 10
-10.04236924724596
 20
9.448214877726171
 30
0.0
 10
-10.03979808794154
 20
9.44820846117879
 30
0.0
 10
-10.0384625400641
 20
9.448205128205128
 30
0.0
  0
LINE
  5
F8
330
1F
100
AcDbEntity
  8
0
  6
Continuous
 62
     7
370
    15
100
AcDbLine
 10
-10.0384625401
 20
9.4482051282
 30
0.0
 11
-10.031025641
 21
9.4482051282
 31
0.0
  0
LINE
  5
F9
330
1F
100
AcDbEntity
  8
0
  6
Continuous
 62
     7
370
    15
100
AcDbLine
 10
-10.031025641
 20
9.4482051282
 30
0.0
 11
-10.031025641
 21
9.4946794872
 31
0.0
  0
LINE
  5
FA
330
1F
100
AcDbEntity
  8
0
  6
Continuous
 62
     7
370
    15
100
AcDbLine
 10
-10.031025641
 20
9.4946794872
 30
0.0
 11
-10.0470012019
 21
9.4946794872
 31
0.0
  0
SPLINE
  5
FB
330
1F
100
AcDbEntity
  8
0
  6
Continuous
 62
     7
370
    15
100
AcDbSpline
210
0.0
220
0.0
230
1.0
 70
     8
 71
     3
 72
    23
 73
    19
 74
     0
 42
0.000000001
 43
0.00000001
 40
0.0
 40
0.0
 40
0.0
 40
0.0
 40
0.0725101349891878
 40
0.1397537260331538
 40
0.2018547617955919
 40
0.2593056393667125
 40
0.3122958595030039
 40
0.3607674165515818
 40
0.4046762909759507
 40
0.4438381764744935
 40
0.5169885857375841
 40
0.587739262956626
 40
0.6585848810209014
 40
0.7295963401302197
 40
0.7994927569470688
 40
0.8666217133471835
 40
0.9331092755572813
 40
1.0
 40
1.0
 40
1.0
 40
1.0
 10
-10.04700120192308
 20
9.494679487179488
 30
0.0
 10
-10.04814462067601
 20
9.494664464053521
 30
0.0
 10
-10.05034840958307
 20
9.494635508958753
 30
0.0
 10
-10.05353272282219
 20
9.49456680250666
 30
0.0
 10
-10.05646841593081
 20
9.494311901818216
 30
0.0
 10
-10.05917993159832
 20
9.494067518766359
 30
0.0
 10
-10.06165472391062
 20
9.493668268295716
 30
0.0
 10
-10.06391686446784
 20
9.493281656072872
 30
0.0
 10
-10.06591468490418
 20
9.492712737088798
 30
0.0
 10
-10.06825225020577
 20
9.49192989449593
 30
0.0
 10
-10.07086679349316
 20
9.490678808266798
 30
0.0
 10
-10.07372199812416
 20
9.488838978807879
 30
0.0
 10
-10.07623683948718
 20
9.486597930945411
 30
0.0
 10
-10.07837050615827
 20
9.48401749154574
 30
0.0
 10
-10.08014455645323
 20
9.481240722814677
 30
0.0
 10
-10.08137184890362
 20
9.478262159567896
 30
0.0
 10
-10.08216706453482
 20
9.475181290673051
 30
0.0
 10
-10.08226072201732
 20
9.47307470552545
 30
0.0
 10
-10.08230769230769
 20
9.472018229166666
 30
0.0
  0
SPLINE
  5
FC
330
1F
100
AcDbEntity
  8
0
  6
Continuous
 62
     7
370
    15
100
AcDbSpline
210
0.0
220
0.0
230
1.0
 70
     8
 71
     3
 72
    19
 73
    15
 74
     0
 42
0.000000001
 43
0.00000001
 40
0.0
 40
0.0
 40
0.0
 40
0.0
 40
0.060279516230192
 40
0.119586718444429
 40
0.1774801650422616
 40
0.2353485006232317
 40
0.2927173747702209
 40
0.3507862944381823
 40
0.4100052053422448
 40
0.4712178594534748
 40
0.5952988181072206
 40
0.7226150928659673
 40
0.8567101250542549
 40
1.0
 40
1.0
 40
1.0
 40
1.0
 10
-10.08230769230769
 20
9.472018229166666
 30
0.0
 10
-10.08229810423092
 20
9.471357653654751
 30
0.0
 10
-10.08227908273392
 20
9.470047157773317
 30
0.0
 10
-10.0819800837432
 20
9.46812303706599
 30
0.0
 10
-10.08156514962551
 20
9.466249960213279
 30
0.0
 10
-10.08095365327727
 20
9.464453369803001
 30
0.0
 10
-10.08021390897837
 20
9.462702328866012
 30
0.0
 10
-10.07923799776579
 20
9.461053813048478
 30
0.0
 10
-10.078137177146
 20
9.459437647641195
 30
0.0
 10
-10.0764321724894
 20
9.457370393149773
 30
0.0
 10
-10.07391841064817
 20
9.455017318164566
 30
0.0
 10
-10.07034500947017
 20
9.45274229876846
 30
0.0
 10
-10.06630464560091
 20
9.450877849475
 30
0.0
 10
-10.06336731105618
 20
9.450089653605236
 30
0.0
 10
-10.0618499599359
 20
9.44968249198718
 30
0.0
  0
SPLINE
  5
FD
330
1F
100
AcDbEntity
  8
0
  6
Continuous
 62
     7
370
    15
100
AcDbSpline
210
0.0
220
0.0
230
1.0
 70
     8
 71
     3
 72
    19
 73
    15
 74
     0
 42
0.000000001
 43
0.00000001
 40
0.0
 40
0.0
 40
0.0
 40
0.0
 40
0.0848108644148369
 40
0.1682513946314977
 40
0.2526978084348961
 40
0.3383941380662162
 40
0.4232655920964865
 40
0.5057272230231957
 40
0.5863265449705073
 40
0.6676548404990764
 40
0.7490264327974169
 40
0.8304354523810364
 40
0.9134470560506122
 40
1.0
 40
1.0
 40
1.0
 40
1.0
 10
-10.16078325320513
 20
9.497884615384613
 30
0.0
 10
-10.1624063167516
 20
9.49782553771845
 30
0.0
 10
-10.16562621914446
 20
9.497708336935368
 30
0.0
 10
-10.17039471801705
 20
9.496803801141185
 30
0.0
 10
-10.17501373172168
 20
9.495286636066968
 30
0.0
 10
-10.17944564361402
 20
9.493220705342955
 30
0.0
 10
-10.18356733068202
 20
9.490659453754203
 30
0.0
 10
-10.18724939312153
 20
9.487647650959458
 30
0.0
 10
-10.19043034092202
 20
9.48419857382851
 30
0.0
 10
-10.19304932720166
 20
9.480332831498293
 30
0.0
 10
-10.19514186185802
 20
9.476141567324984
 30
0.0
 10
-10.19662353512497
 20
9.471664890237944
 30
0.0
 10
-10.19752345128801
 20
9.466929402261094
 30
0.0
 10
-10.19763524396423
 20
9.46368389055327
 30
0.0
 10
-10.19769230769231
 20
9.462027243589745
 30
0.0
  0
SPLINE
  5
FE
330
1F
100
AcDbEntity
  8
0
  6
Continuous
 62
     7
370
    15
100
AcDbSpline
210
0.0
220
0.0
230
1.0
 70
     8
 71
     3
 72
    23
 73
    19
 74
     0
 42
0.000000001
 43
0.00000001
 40
0.0
 40
0.0
 40
0.0
 40
0.0
 40
0.0656289188354533
 40
0.1291784810189586
 40
0.1912044631851476
 40
0.2518940844507729
 40
0.3124842348504786
 40
0.3734666589599437
 40
0.4351192397198817
 40
0.4984087324490651
 40
0.5617577637546592
 40
0.6241941724705259
 40
0.685103914665647
 40
0.7461156962496056
 40
0.8076259433578283
 40
0.8699762505582215
 40
0.9339559306300187
 40
1.0
 40
1.0
 40
1.0
 40
1.0
 10
-10.19769230769231
 20
9.462027243589743
 30
0.0
 10
-10.19765803370882
 20
9.460765178701473
 30
0.0
 10
-10.19759057166307
 20
9.458281035611712
 30
0.0
 10
-10.19707520192005
 20
9.454633617310403
 30
0.0
 10
-10.19625535478493
 20
9.451143152571893
 30
0.0
 10
-10.19510023754649
 20
9.44780582095956
 30
0.0
 10
-10.1935823082514
 20
9.44464062944152
 30
0.0
 10
-10.19175347592685
 20
9.441622767312117
 30
0.0
 10
-10.18957622849936
 20
9.438780345557552
 30
0.0
 10
-10.18711682516108
 20
9.436116963838966
 30
0.0
 10
-10.18439443121904
 20
9.433699844413766
 30
0.0
 10
-10.18149951809155
 20
9.431569415633668
 30
0.0
 10
-10.17843936934994
 20
9.42976648666222
 30
0.0
 10
-10.17521613304732
 20
9.428323671906067
 30
0.0
 10
-10.17185463478259
 20
9.427148246897133
 30
0.0
 10
-10.16832265521974
 20
9.426371898997406
 30
0.0
 10
-10.16465579025633
 20
9.425837115111937
 30
0.0
 10
-10.16215411212201
 20
9.425792097133867
 30
0.0
 10
-10.16088341346154
 20
9.42576923076923
 30
0.0
  0
SPLINE
  5
FF
330
1F
100
AcDbEntity
  8
0
  6
Continuous
 62
     7
370
    15
100
AcDbSpline
210
0.0
220
0.0
230
1.0
 70
     8
 71
     3
 72
    19
 73
    15
 74
     0
 42
0.000000001
 43
0.00000001
 40
0.0
 40
0.0
 40
0.0
 40
0.0
 40
0.0859316353012571
 40
0.1696153800701954
 40
0.2525081845376069
 40
0.3362879861099416
 40
0.4197964863656827
 40
0.5020538565398858
 40
0.5851301200390783
 40
0.6696053338340978
 40
0.7541530585556084
 40
0.8366371023340258
 40
0.9179991163824859
 40
0.9999999999999999
 40
0.9999999999999999
 40
0.9999999999999999
 40
0.9999999999999999
 10
-10.16088341346154
 20
9.42576923076923
 30
0.0
 10
-10.1592436499829
 20
9.425827624276815
 30
0.0
 10
-10.15600701769165
 20
9.4259428837729
 30
0.0
 10
-10.15125495011407
 20
9.426841224164122
 30
0.0
 10
-10.14670990657769
 20
9.428339781815763
 30
0.0
 10
-10.14237927815729
 20
9.430377422242703
 30
0.0
 10
-10.13838262565545
 20
9.432987576759153
 30
0.0
 10
-10.13475148101285
 20
9.436065151326613
 30
0.0
 10
-10.13158427833047
 20
9.439647852114197
 30
0.0
 10
-10.12890631935224
 20
9.443653366002033
 30
0.0
 10
-10.12668311709248
 20
9.447921727644854
 30
0.0
 10
-10.12514893486228
 20
9.452416183139997
 30
0.0
 10
-10.12412992407507
 20
9.457015256440775
 30
0.0
 10
-10.12402634902624
 20
9.460135499832571
 30
0.0
 10
-10.12397435897436
 20
9.461701722756409
 30
0.0
  0
SPLINE
  5
100
330
1F
100
AcDbEntity
  8
0
  6
Continuous
 62
     7
370
    15
100
AcDbSpline
210
0.0
220
0.0
230
1.0
 70
     8
 71
     3
 72
    19
 73
    15
 74
     0
 42
0.000000001
 43
0.00000001
 40
0.0
 40
0.0
 40
0.0
 40
0.0
 40
0.0816029563018829
 40
0.1628860565710267
 40
0.2452599711799365
 40
0.3305976512007642
 40
0.4160530886965618
 40
0.4997957006631308
 40
0.5829645219766809
 40
0.6670882457538503
 40
0.7512563580964885
 40
0.833327426405888
 40
0.9162425219057726
 40
1.0
 40
1.0
 40
1.0
 40
1.0
 10
-10.12397435897436
 20
9.461701722756409
 30
0.0
 10
-10.12404184847426
 20
9.463258202974254
 30
0.0
 10
-10.124176562938
 20
9.46636506253308
 30
0.0
 10
-10.1251176293554
 20
9.470971183735498
 30
0.0
 10
-10.12676947367871
 20
9.475436316445478
 30
0.0
 10
-10.12894404433825
 20
9.47975969929951
 30
0.0
 10
-10.13166415784023
 20
9.483795089973619
 30
0.0
 10
-10.13482510938148
 20
9.487443943424925
 30
0.0
 10
-10.13847467917644
 20
9.490568958689426
 30
0.0
 10
-10.14250652464555
 20
9.49318649064493
 30
0.0
 10
-10.14680818166279
 20
9.495292084788614
 30
0.0
 10
-10.15133349254612
 20
9.49677716701103
 30
0.0
 10
-10.15600358254308
 20
9.497714834911708
 30
0.0
 10
-10.15918467045488
 20
9.497827831527626
 30
0.0
 10
-10.16078325320513
 20
9.497884615384613
 30
0.0
  0
SPLINE
  5
101
330
1F
100
AcDbEntity
  8
0
  6
Continuous
 62
     7
370
    15
100
AcDbSpline
210
0.0
220
0.0
230
1.0
 70
     8
 71
     3
 72
    23
 73
    19
 74
     0
 42
0.000000001
 43
0.00000001
 40
0.0
 40
0.0
 40
0.0
 40
0.0
 40
0.0687873044793748
 40
0.1363113375554774
 40
0.2037191335066826
 40
0.2732247146783562
 40
0.3426079599096431
 40
0.4110619444632811
 40
0.4792385151377235
 40
0.5495852028564429
 40
0.587913733091118
 40
0.630891961275224
 40
0.6790067897496738
 40
0.7326083647790103
 40
0.7911933562667597
 40
0.8553399524472847
 40
0.9251153225610942
 40
1.0
 40
1.0
 40
1.0
 40
1.0
 10
-10.55185897435898
 20
9.41590344551282
 30
0.0
 10
-10.55181657304838
 20
9.414898014148143
 30
0.0
 10
-10.55173254912268
 20
9.412905616057005
 30
0.0
 10
-10.55103091528871
 20
9.409995361291848
 30
0.0
 10
-10.54988525836167
 20
9.407228090977199
 30
0.0
 10
-10.54831714806717
 20
9.404641884548596
 30
0.0
 10
-10.5463654666393
 20
9.402311676041808
 30
0.0
 10
-10.54409219733664
 20
9.400324004848272
 30
0.0
 10
-10.54155083522655
 20
9.398672704274604
 30
0.0
 10
-10.5391948271922
 20
9.397583172142271
 30
0.0
 10
-10.53707359023645
 20
9.396942089740136
 30
0.0
 10
-10.53524032089814
 20
9.39647672872343
 30
0.0
 10
-10.53315082307886
 20
9.396150810957403
 30
0.0
 10
-10.5308296898867
 20
9.395851053680705
 30
0.0
 10
-10.52826672476091
 20
9.395597205198383
 30
0.0
 10
-10.52546036583864
 20
9.395428713077612
 30
0.0
 10
-10.52241261968016
 20
9.395328005060101
 30
0.0
 10
-10.52030022985926
 20
9.395323068354218
 30
0.0
 10
-10.51920673076923
 20
9.395320512820511
 30
0.0
  0
LINE
  5
102
330
1F
100
AcDbEntity
  8
0
  6
Continuous
 62
     7
370
    15
100
AcDbLine
 10
-10.5192067308
 20
9.3953205128
 30
0.0
 11
-10.4957692308
 21
9.3953205128
 31
0.0
  0
LINE
  5
103
330
1F
100
AcDbEntity
  8
0
  6
Continuous
 62
     7
370
    15
100
AcDbLine
 10
-10.4957692308
 20
9.3953205128
 30
0.0
 11
-10.4957692308
 21
9.4369871795
 31
0.0
  0
LINE
  5
104
330
1F
100
AcDbEntity
  8
0
  6
Continuous
 62
     7
370
    15
100
AcDbLine
 10
-10.4957692308
 20
9.4369871795
 30
0.0
 11
-10.5186558494
 21
9.4371624599
 31
0.0
  0
SPLINE
  5
105
330
1F
100
AcDbEntity
  8
0
  6
Continuous
 62
     7
370
    15
100
AcDbSpline
210
0.0
220
0.0
230
1.0
 70
     8
 71
     3
 72
    23
 73
    19
 74
     0
 42
0.000000001
 43
0.00000001
 40
0.0
 40
0.0
 40
0.0
 40
0.0
 40
0.0716499504887633
 40
0.1388780110589586
 40
0.2011334818318859
 40
0.2590586270254088
 40
0.3121757483356341
 40
0.3605899192632211
 40
0.4049832769918426
 40
0.4449886308363082
 40
0.518418116983158
 40
0.5893826164848015
 40
0.6579945901272884
 40
0.7275859423375945
 40
0.7958407979843224
 40
0.8631969010333295
 40
0.9304086477896838
 40
1.0
 40
1.0
 40
1.0
 40
1.0
 10
-10.51865584935898
 20
9.437162459935896
 30
0.0
 10
-10.51972442231255
 20
9.437162932945363
 30
0.0
 10
-10.52179562104263
 20
9.43716384977243
 30
0.0
 10
-10.52479207153361
 20
9.43702121123267
 30
0.0
 10
-10.52758208172847
 20
9.436858962368802
 30
0.0
 10
-10.53015494502347
 20
9.436610729734143
 30
0.0
 10
-10.53251192647942
 20
9.436291007121692
 30
0.0
 10
-10.53465146928484
 20
9.435890453410597
 30
0.0
 10
-10.53657830153432
 20
9.43542576533512
 30
0.0
 10
-10.53881839587819
 20
9.43469918967116
 30
0.0
 10
-10.54134858612829
 20
9.433597696813713
 30
0.0
 10
-10.54404163328552
 20
9.431889736409573
 30
0.0
 10
-10.54639662589305
 20
9.429824210032757
 30
0.0
 10
-10.54835454224054
 20
9.427432441324372
 30
0.0
 10
-10.54992714287095
 20
9.424791434376607
 30
0.0
 10
-10.55101945409342
 20
9.421960959080078
 30
0.0
 10
-10.55173928082236
 20
9.418985612353344
 30
0.0
 10
-10.55181861651497
 20
9.416942679644098
 30
0.0
 10
-10.55185897435898
 20
9.41590344551282
 30
0.0
  0
SPLINE
  5
106
330
1F
100
AcDbEntity
  8
0
  6
Continuous
 62
     7
370
    15
100
AcDbSpline
210
0.0
220
0.0
230
1.0
 70
     8
 71
     3
 72
    23
 73
    19
 74
     0
 42
0.000000001
 43
0.00000001
 40
0.0
 40
0.0
 40
0.0
 40
0.0
 40
0.0701245084444747
 40
0.1371277331814222
 40
0.2014957677836824
 40
0.2637764384993692
 40
0.3245740233515831
 40
0.3847553978134994
 40
0.4449236971843837
 40
0.5052536013618298
 40
0.5655182628423591
 40
0.6251265699514102
 40
0.6843790824291249
 40
0.743731100987583
 40
0.8045998206227801
 40
0.8672332164040165
 40
0.9320913738852197
 40
1.0
 40
1.0
 40
1.0
 40
1.0
 10
-10.66656750801282
 20
9.496282051282051
 30
0.0
 10
-10.66788764224151
 20
9.49625463667666
 30
0.0
 10
-10.67046915073675
 20
9.496201027706322
 30
0.0
 10
-10.67423954121861
 20
9.495740188427725
 30
0.0
 10
-10.67781213946014
 20
9.494996546576749
 30
0.0
 10
-10.6811836675082
 20
9.493940723676317
 30
0.0
 10
-10.68436686303326
 20
9.49259352034492
 30
0.0
 10
-10.68732593885972
 20
9.490888633616034
 30
0.0
 10
-10.69012444886005
 20
9.488947074833302
 30
0.0
 10
-10.69267264732295
 20
9.486682255017785
 30
0.0
 10
-10.69497799142659
 20
9.484186752678115
 30
0.0
 10
-10.69698288157323
 20
9.4814694253549
 30
0.0
 10
-10.69870476456707
 20
9.478582714296792
 30
0.0
 10
-10.70007520928482
 20
9.475489815389494
 30
0.0
 10
-10.70120566480013
 20
9.472231599225097
 30
0.0
 10
-10.70191834845895
 20
9.46875312580364
 30
0.0
 10
-10.70242948675914
 20
9.465105592002576
 30
0.0
 10
-10.70247613829558
 20
9.462605095783843
 30
0.0
 10
-10.7025
 20
9.46132612179487
 30
0.0
  0
SPLINE
  5
107
330
1F
100
AcDbEntity
  8
0
  6
Continuous
 62
     7
370
    15
100
AcDbSpline
210
0.0
220
0.0
230
1.0
 70
     8
 71
     3
 72
    19
 73
    15
 74
     0
 42
0.000000001
 43
0.00000001
 40
0.0
 40
0.0
 40
0.0
 40
0.0
 40
0.0892245247695185
 40
0.1743133676661652
 40
0.2575603740459324
 40
0.3398618769287753
 40
0.421315222427865
 40
0.5015451085565034
 40
0.5827841060166258
 40
0.6663578928730951
 40
0.7502571874343166
 40
0.8332172050038935
 40
0.9156646887320534
 40
1.0
 40
1.0
 40
1.0
 40
1.0
 10
-10.7025
 20
9.46132612179487
 30
0.0
 10
-10.70245207244594
 20
9.459661233803326
 30
0.0
 10
-10.70235843884717
 20
9.456408627713877
 30
0.0
 10
-10.7014776019098
 20
9.451668604060629
 30
0.0
 10
-10.70004873604841
 20
9.44720720636876
 30
0.0
 10
-10.69806569715215
 20
9.443035858130285
 30
0.0
 10
-10.69556929576849
 20
9.439212632259826
 30
0.0
 10
-10.69253300426619
 20
9.435834446960223
 30
0.0
 10
-10.68909129528121
 20
9.43280773972423
 30
0.0
 10
-10.68515953815686
 20
9.430320226115438
 30
0.0
 10
-10.6809454410186
 20
9.428284838159906
 30
0.0
 10
-10.67651857043923
 20
9.426827080581825
 30
0.0
 10
-10.67192732346253
 20
9.425948927252945
 30
0.0
 10
-10.66881657126595
 20
9.425829579897826
 30
0.0
 10
-10.66724358974359
 20
9.42576923076923
 30
0.0
  0
SPLINE
  5
108
330
1F
100
AcDbEntity
  8
0
  6
Continuous
 62
     7
370
    15
100
AcDbSpline
210
0.0
220
0.0
230
1.0
 70
     8
 71
     3
 72
    19
 73
    15
 74
     0
 42
0.000000001
 43
0.00000001
 40
0.0
 40
0.0
 40
0.0
 40
0.0
 40
0.0855247722125448
 40
0.1693209140145743
 40
0.2522352241286544
 40
0.3365920248612595
 40
0.4206729116550297
 40
0.5028241622138917
 40
0.5848922450062253
 40
0.6681205326182728
 40
0.7516809158373722
 40
0.8340443247062829
 40
0.9162140455594874
 40
1.0
 40
1.0
 40
1.0
 40
1.0
 10
-10.66724358974359
 20
9.42576923076923
 30
0.0
 10
-10.66560331108314
 20
9.425825187216985
 30
0.0
 10
-10.66235590714575
 20
9.425935969118338
 30
0.0
 10
-10.65759409969965
 20
9.426875306954743
 30
0.0
 10
-10.65300761171526
 20
9.428362044530356
 30
0.0
 10
-10.64864189846446
 20
9.430431549318909
 30
0.0
 10
-10.64459666481787
 20
9.433046526294042
 30
0.0
 10
-10.64097895235163
 20
9.436159501263596
 30
0.0
 10
-10.63781887833963
 20
9.439715983936571
 30
0.0
 10
-10.63517814585467
 20
9.443703864374223
 30
0.0
 10
-10.63304875402652
 20
9.447993160048894
 30
0.0
 10
-10.63152090123242
 20
9.452506663208414
 30
0.0
 10
-10.6305449699034
 20
9.457186115686321
 30
0.0
 10
-10.63043841280886
 20
9.460369812252033
 30
0.0
 10
-10.63038461538462
 20
9.461977163461539
 30
0.0
  0
SPLINE
  5
109
330
1F
100
AcDbEntity
  8
0
  6
Continuous
 62
     7
370
    15
100
AcDbSpline
210
0.0
220
0.0
230
1.0
 70
     8
 71
     3
 72
    23
 73
    19
 74
     0
 42
0.000000001
 43
0.00000001
 40
0.0
 40
0.0
 40
0.0
 40
0.0
 40
0.0649921618032499
 40
0.1278205766428327
 40
0.1890828625316575
 40
0.2488521160924674
 40
0.3077509750854144
 40
0.3672798225454425
 40
0.427651716728793
 40
0.4891150104578895
 40
0.5510026705698288
 40
0.6123826994689832
 40
0.6733233101806121
 40
0.7348925625368539
 40
0.797781599480385
 40
0.8628724352113963
 40
0.9300855293801826
 40
1.0
 40
1.0
 40
1.0
 40
1.0
 10
-10.63038461538462
 20
9.461977163461539
 30
0.0
 10
-10.6304106275756
 20
9.463189034084149
 30
0.0
 10
-10.63046178594853
 20
9.465572429212125
 30
0.0
 10
-10.63095059783653
 20
9.469070666905376
 30
0.0
 10
-10.63174940655269
 20
9.472408117308595
 30
0.0
 10
-10.63285611733506
 20
9.475579373417183
 30
0.0
 10
-10.63426110579178
 20
9.47859697908683
 30
0.0
 10
-10.63603565510796
 20
9.48142565140955
 30
0.0
 10
-10.63808983981247
 20
9.484116316949743
 30
0.0
 10
-10.64044413659731
 20
9.486610906003916
 30
0.0
 10
-10.64303490820159
 20
9.488886127595917
 30
0.0
 10
-10.64584304462939
 20
9.49087491957359
 30
0.0
 10
-10.64885333158092
 20
9.492523863260718
 30
0.0
 10
-10.65201762473261
 20
9.493927849161235
 30
0.0
 10
-10.65540292799574
 20
9.494960683378634
 30
0.0
 10
-10.65895847544763
 20
9.495747379178766
 30
0.0
 10
-10.66270811718377
 20
9.49619780361854
 30
0.0
 10
-10.66526425929719
 20
9.496253602321026
 30
0.0
 10
-10.66656750801282
 20
9.496282051282051
 30
0.0
  0
ENDSEC
  0
SECTION
  2
OBJECTS
  0
DICTIONARY
  5
C
330
0
100
AcDbDictionary
281
     1
  3
ACAD_GROUP
350
D
  3
ACAD_LAYOUT
350
1A
  3
ACAD_MLINESTYLE
350
17
  3
ACAD_PLOTSETTINGS
350
19
  3
ACAD_PLOTSTYLENAME
350
E
  3
ACAD_SCALELIST
350
47
  0
DICTIONARY
  5
D
102
{ACAD_REACTORS
330
C
102
}
330
C
100
AcDbDictionary
281
     1
  0
DICTIONARY
  5
1A
102
{ACAD_REACTORS
330
C
102
}
330
C
100
AcDbDictionary
281
     1
  3
Layout1
350
1E
  3
Layout2
350
26
  3
Model
350
22
  0
DICTIONARY
  5
17
102
{ACAD_REACTORS
330
C
102
}
330
C
100
AcDbDictionary
281
     1
  3
Standard
350
18
  0
DICTIONARY
  5
19
102
{ACAD_REACTORS
330
C
102
}
330
C
100
AcDbDictionary
281
     1
  0
ACDBDICTIONARYWDFLT
  5
E
102
{ACAD_REACTORS
330
C
102
}
330
C
100
AcDbDictionary
281
     1
  3
Normal
350
F
100
AcDbDictionaryWithDefault
340
F
  0
DICTIONARY
  5
47
102
{ACAD_REACTORS
330
C
102
}
330
C
100
AcDbDictionary
281
     1
  3
A0
350
48
  3
A1
350
49
  3
A2
350
4A
  3
A3
350
4B
  3
A4
350
4C
  3
A5
350
4D
  3
A6
350
4E
  3
A7
350
4F
  3
A8
350
50
  3
A9
350
51
  3
B0
350
52
  3
B1
350
53
  3
B2
350
54
  3
B3
350
55
  3
B4
350
56
  3
B5
350
57
  3
B6
350
58
  3
B7
350
59
  3
B8
350
5A
  3
B9
350
5B
  3
C0
350
5C
  3
C1
350
5D
  3
C2
350
5E
  3
C3
350
5F
  3
C4
350
60
  3
C5
350
61
  3
C6
350
62
  3
C7
350
63
  3
C8
350
64
  3
C9
350
65
  3
D0
350
66
  3
D1
350
67
  3
D2
350
68
  0
LAYOUT
  5
1E
102
{ACAD_REACTORS
330
1A
102
}
330
1A
100
AcDbPlotSettings
  1

  2
none_device
  4

  6

 40
0.0
 41
0.0
 42
0.0
 43
0.0
 44
0.0
 45
0.0
 46
0.0
 47
0.0
 48
0.0
 49
0.0
140
0.0
141
0.0
142
1.0
143
1.0
 70
   688
 72
     0
 73
     0
 74
     5
  7

 75
    16
147
1.0
148
0.0
149
0.0
100
AcDbLayout
  1
Layout1
 70
     1
 71
     1
 10
0.0
 20
0.0
 11
12.0
 21
9.0
 12
0.0
 22
0.0
 32
0.0
 14
1.0000000000E+20
 24
1.0000000000E+20
 34
1.0000000000E+20
 15
-1.0000000000E+20
 25
-1.0000000000E+20
 35
-1.0000000000E+20
146
0.0
 13
0.0
 23
0.0
 33
0.0
 16
1.0
 26
0.0
 36
0.0
 17
0.0
 27
1.0
 37
0.0
 76
     0
330
1B
  0
LAYOUT
  5
26
102
{ACAD_REACTORS
330
1A
102
}
330
1A
100
AcDbPlotSettings
  1

  2
none_device
  4

  6

 40
0.0
 41
0.0
 42
0.0
 43
0.0
 44
0.0
 45
0.0
 46
0.0
 47
0.0
 48
0.0
 49
0.0
140
0.0
141
0.0
142
1.0
143
1.0
 70
   688
 72
     0
 73
     0
 74
     5
  7

 75
    16
147
1.0
148
0.0
149
0.0
100
AcDbLayout
  1
Layout2
 70
     1
 71
     2
 10
0.0
 20
0.0
 11
0.0
 21
0.0
 12
0.0
 22
0.0
 32
0.0
 14
0.0
 24
0.0
 34
0.0
 15
0.0
 25
0.0
 35
0.0
146
0.0
 13
0.0
 23
0.0
 33
0.0
 16
1.0
 26
0.0
 36
0.0
 17
0.0
 27
1.0
 37
0.0
 76
     0
330
23
  0
LAYOUT
  5
22
102
{ACAD_REACTORS
330
1A
102
}
330
1A
100
AcDbPlotSettings
  1

  2
none_device
  4
ANSI_A_(11.00_x_8.50_Inches)
  6

 40
6.35
 41
19.05
 42
6.35000508
 43
19.05000254
 44
279.4
 45
215.9
 46
133.34999746
 47
88.89999873
 48
0.0
 49
0.0
140
0.0
141
0.0
142
0.4254512362
143
1.0
 70
  1696
 72
     0
 73
     0
 74
     0
  7

 75
     0
147
0.5913241897
148
-39.4088153714
149
0.0
100
AcDbLayout
  1
Model
 70
     1
 71
     0
 10
0.0
 20
0.0
 11
12.0
 21
9.0
 12
0.0
 22
0.0
 32
0.0
 14
-11.5
 24
-9.8895
 34
0.0
 15
11.5
 25
9.8895
 35
0.0
146
0.0
 13
0.0
 23
0.0
 33
0.0
 16
1.0
 26
0.0
 36
0.0
 17
0.0
 27
1.0
 37
0.0
 76
     0
330
1F
331
29
  0
MLINESTYLE
  5
18
102
{ACAD_REACTORS
330
17
102
}
330
17
100
AcDbMlineStyle
  2
Standard
 70
     0
  3

 62
   256
 51
90.0
 52
90.0
 71
     2
 49
0.5
 62
   256
  6
BYLAYER
 49
-0.5
 62
   256
  6
BYLAYER
  0
ACDBPLACEHOLDER
  5
F
102
{ACAD_REACTORS
330
E
102
}
330
E
  0
SCALE
  5
48
102
{ACAD_REACTORS
330
47
102
}
330
47
100
AcDbScale
 70
     0
300
1:1
140
1.0
141
1.0
290
     1
  0
SCALE
  5
49
102
{ACAD_REACTORS
330
47
102
}
330
47
100
AcDbScale
 70
     0
300
1:2
140
1.0
141
2.0
290
     0
  0
SCALE
  5
4A
102
{ACAD_REACTORS
330
47
102
}
330
47
100
AcDbScale
 70
     0
300
1:4
140
1.0
141
4.0
290
     0
  0
SCALE
  5
4B
102
{ACAD_REACTORS
330
47
102
}
330
47
100
AcDbScale
 70
     0
300
1:5
140
1.0
141
5.0
290
     0
  0
SCALE
  5
4C
102
{ACAD_REACTORS
330
47
102
}
330
47
100
AcDbScale
 70
     0
300
1:8
140
1.0
141
8.0
290
     0
  0
SCALE
  5
4D
102
{ACAD_REACTORS
330
47
102
}
330
47
100
AcDbScale
 70
     0
300
1:10
140
1.0
141
10.0
290
     0
  0
SCALE
  5
4E
102
{ACAD_REACTORS
330
47
102
}
330
47
100
AcDbScale
 70
     0
300
1:16
140
1.0
141
16.0
290
     0
  0
SCALE
  5
4F
102
{ACAD_REACTORS
330
47
102
}
330
47
100
AcDbScale
 70
     0
300
1:20
140
1.0
141
20.0
290
     0
  0
SCALE
  5
50
102
{ACAD_REACTORS
330
47
102
}
330
47
100
AcDbScale
 70
     0
300
1:30
140
1.0
141
30.0
290
     0
  0
SCALE
  5
51
102
{ACAD_REACTORS
330
47
102
}
330
47
100
AcDbScale
 70
     0
300
1:40
140
1.0
141
40.0
290
     0
  0
SCALE
  5
52
102
{ACAD_REACTORS
330
47
102
}
330
47
100
AcDbScale
 70
     0
300
1:50
140
1.0
141
50.0
290
     0
  0
SCALE
  5
53
102
{ACAD_REACTORS
330
47
102
}
330
47
100
AcDbScale
 70
     0
300
1:100
140
1.0
141
100.0
290
     0
  0
SCALE
  5
54
102
{ACAD_REACTORS
330
47
102
}
330
47
100
AcDbScale
 70
     0
300
2:1
140
2.0
141
1.0
290
     0
  0
SCALE
  5
55
102
{ACAD_REACTORS
330
47
102
}
330
47
100
AcDbScale
 70
     0
300
4:1
140
4.0
141
1.0
290
     0
  0
SCALE
  5
56
102
{ACAD_REACTORS
330
47
102
}
330
47
100
AcDbScale
 70
     0
300
8:1
140
8.0
141
1.0
290
     0
  0
SCALE
  5
57
102
{ACAD_REACTORS
330
47
102
}
330
47
100
AcDbScale
 70
     0
300
10:1
140
10.0
141
1.0
290
     0
  0
SCALE
  5
58
102
{ACAD_REACTORS
330
47
102
}
330
47
100
AcDbScale
 70
     0
300
100:1
140
100.0
141
1.0
290
     0
  0
SCALE
  5
59
102
{ACAD_REACTORS
330
47
102
}
330
47
100
AcDbScale
 70
     0
300
1/128" = 1'-0"
140
0.0078125
141
12.0
290
     0
  0
SCALE
  5
5A
102
{ACAD_REACTORS
330
47
102
}
330
47
100
AcDbScale
 70
     0
300
1/64" = 1'-0"
140
0.015625
141
12.0
290
     0
  0
SCALE
  5
5B
102
{ACAD_REACTORS
330
47
102
}
330
47
100
AcDbScale
 70
     0
300
1/32" = 1'-0"
140
0.03125
141
12.0
290
     0
  0
SCALE
  5
5C
102
{ACAD_REACTORS
330
47
102
}
330
47
100
AcDbScale
 70
     0
300
1/16" = 1'-0"
140
0.0625
141
12.0
290
     0
  0
SCALE
  5
5D
102
{ACAD_REACTORS
330
47
102
}
330
47
100
AcDbScale
 70
     0
300
3/32" = 1'-0"
140
0.09375
141
12.0
290
     0
  0
SCALE
  5
5E
102
{ACAD_REACTORS
330
47
102
}
330
47
100
AcDbScale
 70
     0
300
1/8" = 1'-0"
140
0.125
141
12.0
290
     0
  0
SCALE
  5
5F
102
{ACAD_REACTORS
330
47
102
}
330
47
100
AcDbScale
 70
     0
300
3/16" = 1'-0"
140
0.1875
141
12.0
290
     0
  0
SCALE
  5
60
102
{ACAD_REACTORS
330
47
102
}
330
47
100
AcDbScale
 70
     0
300
1/4" = 1'-0"
140
0.25
141
12.0
290
     0
  0
SCALE
  5
61
102
{ACAD_REACTORS
330
47
102
}
330
47
100
AcDbScale
 70
     0
300
3/8" = 1'-0"
140
0.375
141
12.0
290
     0
  0
SCALE
  5
62
102
{ACAD_REACTORS
330
47
102
}
330
47
100
AcDbScale
 70
     0
300
1/2" = 1'-0"
140
0.5
141
12.0
290
     0
  0
SCALE
  5
63
102
{ACAD_REACTORS
330
47
102
}
330
47
100
AcDbScale
 70
     0
300
3/4" = 1'-0"
140
0.75
141
12.0
290
     0
  0
SCALE
  5
64
102
{ACAD_REACTORS
330
47
102
}
330
47
100
AcDbScale
 70
     0
300
1" = 1'-0"
140
1.0
141
12.0
290
     0
  0
SCALE
  5
65
102
{ACAD_REACTORS
330
47
102
}
330
47
100
AcDbScale
 70
     0
300
1-1/2" = 1'-0"
140
1.5
141
12.0
290
     0
  0
SCALE
  5
66
102
{ACAD_REACTORS
330
47
102
}
330
47
100
AcDbScale
 70
     0
300
3" = 1'-0"
140
3.0
141
12.0
290
     0
  0
SCALE
  5
67
102
{ACAD_REACTORS
330
47
102
}
330
47
100
AcDbScale
 70
     0
300
6" = 1'-0"
140
6.0
141
12.0
290
     0
  0
SCALE
  5
68
102
{ACAD_REACTORS
330
47
102
}
330
47
100
AcDbScale
 70
     0
300
1'-0" = 1'-0"
140
12.0
141
12.0
290
     0
  0
ENDSEC
  0
EOF
